<svg width="252" height="116" viewBox="0 0 252 116" fill="none" xmlns="http://www.w3.org/2000/svg">
<g filter="url(#filter0_d)">
<path d="M143.108 34.3254C144.35 36.5142 145.723 34.9916 147.03 34.8013C149.122 34.5158 151.083 35.2771 153.174 35.4674C154.155 35.5626 154.481 35.0868 154.481 33.6593C154.547 32.2318 154.808 30.8995 155.723 30.3285C155.985 30.1382 156.442 29.6624 156.442 30.5188C156.508 32.0415 157.03 30.9947 157.357 30.9947C158.926 30.7092 160.56 30.3285 162.129 30.2334C161.475 30.9947 160.364 30.614 160.691 32.8028C160.887 33.9448 159.841 33.5641 159.253 34.3254C161.54 34.1351 163.632 34.611 165.201 31.6608C165.789 33.0883 167.031 29.5672 167.554 32.6125C167.684 33.5641 168.861 32.4222 169.122 32.9931C170.756 37.1804 173.109 34.7061 175.201 34.9916C178.208 35.2771 181.149 34.8964 184.09 34.7061C186.182 34.6109 188.339 34.7061 190.365 33.8496C191.084 33.5641 191.672 34.4206 192.522 34.4206C196.836 34.1351 201.215 33.6593 205.594 34.1351C207.947 34.4206 210.3 34.8013 212.653 34.8964C213.568 34.8964 214.81 34.7061 215.006 36.0384C215.268 37.5611 214.157 38.3224 212.849 38.3224C213.895 39.6547 214.876 38.703 215.791 39.7499C214.353 39.7499 213.176 40.0353 212.065 39.6547C210.823 39.274 210.431 41.0822 209.647 41.7483C209.189 41.0822 209.973 40.2257 209.516 39.845C208.993 39.3692 208.993 40.7015 208.666 40.7015C206.705 40.7967 204.81 43.1758 202.784 40.987C202.522 40.7015 202.13 40.0353 201.803 40.987C201.28 42.3193 200.365 42.2241 199.189 42.7951C201.738 42.8903 203.96 42.9855 206.117 42.6048C206.771 42.5096 207.424 42.3193 208.013 43.4613C208.405 44.2226 208.928 43.271 209.385 43.0806C209.516 42.9855 209.581 42.3193 209.843 42.7C209.973 42.8903 209.973 43.4613 209.908 43.6516C209.385 44.5081 209.189 45.8404 208.274 46.1259C208.078 46.2211 207.751 46.5066 207.49 45.7452C207.097 44.4129 205.856 44.5081 205.594 46.0307C205.333 47.2679 204.875 47.6485 204.156 48.1244C205.463 48.6002 206.64 49.2663 208.274 48.6002C207.359 48.505 207.62 47.363 207.163 47.0775C207.424 46.5065 207.751 46.7921 208.078 46.7921C208.666 46.7921 209.32 46.7921 209.908 46.7921C209.777 47.7437 208.862 46.792 208.928 48.1244C208.993 49.4567 209.777 48.505 210.039 49.1712C209.581 50.1228 208.862 50.0277 208.143 50.1228C208.928 51.6455 209.124 53.0729 207.882 54.1198C207.228 54.6907 206.509 54.9762 206.509 56.594C206.509 57.2602 205.986 57.5457 205.594 57.2602C204.614 56.4989 203.96 57.3553 203.241 58.4973C204.352 58.4973 205.463 58.5925 206.509 58.4973C207.424 58.4022 208.666 58.6877 208.339 55.9279C208.143 53.9294 208.928 53.6439 210.039 54.2149C211.019 54.7859 211.411 54.2149 211.019 52.5971L210.954 52.6923C211.477 52.7875 212.261 52.0261 212.457 53.5488C211.804 53.5488 211.869 55.0714 210.823 54.9762C212.065 56.1182 213.045 56.3086 214.026 56.4989C214.549 56.594 215.006 56.594 215.202 57.5457C214.287 56.8795 213.176 56.594 212.915 58.4973C212.784 59.5441 212.523 59.3538 212.261 59.2587C211.738 59.0683 211.934 58.4973 212.196 58.1167C212.457 57.736 212.719 57.2602 212.326 56.7844C212.065 56.4989 211.673 56.4037 211.346 57.0698C210.954 57.9263 210.366 58.6877 209.843 59.1635C209.45 59.5441 208.928 59.7345 208.993 60.4958C209.058 61.6378 209.777 61.3523 210.235 61.3523C211.934 61.3523 213.568 61.7329 215.137 62.8749C213.764 62.0184 212.326 63.6362 210.889 62.5894C210.562 62.3039 210.039 61.7329 209.516 62.3039C210.3 63.6362 208.732 64.9686 209.254 65.5395C209.777 66.2057 208.862 67.4428 209.647 67.2525C210.627 66.967 212.065 67.7283 212.261 65.1589C212.457 63.2556 213.438 64.3024 214.026 64.0169C214.353 63.9217 215.072 64.683 214.353 65.7299C214.026 66.2057 214.483 66.2057 214.614 66.2057C215.333 66.1105 216.771 63.1604 216.771 62.0184C216.771 61.4474 215.921 61.2571 216.379 60.6861C217.49 59.2587 216.379 58.5925 216.052 57.736C217.229 57.4505 218.405 58.0215 219.647 58.2118C219.451 57.3554 218.797 58.0215 218.732 57.165C218.536 55.7375 219.124 55.2617 219.843 55.2617C220.431 55.1666 221.02 55.2617 221.477 54.4052C221.542 56.2134 221.542 56.2134 219.843 56.9747C220.889 56.8795 221.608 57.4505 222 59.0683C220.235 58.4973 219.255 60.4958 218.078 61.9233C217.751 62.3991 218.078 63.3508 218.732 63.5411C219.059 63.6362 219.385 63.5411 219.582 64.1121C219.582 64.2072 219.451 64.4927 219.32 64.5879C218.797 65.1589 218.732 64.1121 218.47 63.9217C217.686 63.3507 216.836 62.3991 216.771 65.0637C216.771 66.7767 215.595 66.2057 214.876 66.967C215.268 67.3477 215.921 67.538 215.66 68.5848C215.398 69.822 214.483 69.0606 214.353 69.0606C212.261 68.8703 210.17 68.8703 208.078 68.9655C207.294 68.9655 206.705 68.9655 206.248 70.1075C205.66 68.9655 205.921 68.0138 206.509 67.6332C207.359 67.0622 207.49 65.9202 207.555 64.7782C207.555 64.3976 208.013 63.8266 207.424 63.5411C206.967 63.2556 207.032 63.8266 206.901 64.1121C206.575 64.7782 206.378 64.5879 206.248 63.8266C205.921 61.6378 205.006 60.8764 203.96 62.3039C203.306 63.2556 202.653 63.4459 201.869 63.6363C201.019 63.8266 200.953 64.9685 200.953 65.7299C200.953 67.2525 201.934 66.3009 202.065 66.2057C202.653 65.7299 203.764 67.3477 204.026 65.1589C204.026 64.9685 204.614 64.3975 205.006 65.1589C205.267 65.6347 205.398 66.1105 205.137 66.5863C204.744 67.2525 205.137 68.5848 204.091 68.7751C202.784 68.9655 201.542 68.3945 200.235 68.68C199.516 68.8703 199.712 69.251 199.516 69.7268C199.319 70.2026 199.646 71.4398 198.797 71.2494C198.143 71.1543 197.816 70.5833 197.62 69.7268C197.555 69.3461 198.078 68.5848 197.359 68.68C197.032 68.68 196.574 68.7751 196.574 69.4413C196.509 70.7736 196.051 71.8204 195.659 72.9624C195.528 73.3431 195.855 74.1044 195.267 74.0092C194.613 73.9141 194.81 73.2479 195.006 72.6769C195.136 72.2963 195.136 71.8204 195.202 71.4398C194.417 70.9639 194.352 72.2011 193.894 72.3914C193.568 72.5817 193.502 73.7237 192.979 73.1527C192.653 72.7721 192.914 72.0107 192.914 71.4398C192.914 69.9171 193.829 69.6316 194.156 68.4896C192.522 68.3945 191.019 69.5365 189.45 69.7268C189.319 69.7268 188.862 70.0123 189.123 70.3929C190.43 72.3914 188.535 73.4382 188.535 75.056C188.535 75.4367 187.62 77.0545 187.424 74.7705C187.424 74.485 187.424 73.8189 187.097 74.1044C186.116 75.2464 185.005 74.7705 183.959 75.056C183.502 75.1512 183.044 76.5787 182.587 75.4367C182.325 74.5802 182.587 73.3431 182.979 72.4866C183.175 72.0108 183.633 71.8204 183.959 71.4398C182.914 68.8703 181.541 70.7736 180.365 70.7736C179.907 70.7736 179.057 72.5817 179.449 74.3899C179.711 75.5319 179.776 76.8641 178.534 76.5787C178.142 76.4835 178.142 76.8642 178.208 77.4352C178.404 78.8626 177.489 78.3868 177.227 78.482C176.574 78.7674 176.966 77.8158 176.9 77.34C176.77 75.8174 175.92 74.6754 175.332 74.1044C174.286 73.0576 173.959 74.9609 173.632 76.198C174.417 76.4835 175.136 76.3883 176.116 76.0077C175.201 77.0545 175.397 78.8626 174.547 79.6239C174.286 78.9578 174.09 78.2916 173.894 77.6255C173.763 77.911 173.502 78.1965 173.567 78.2916C173.894 78.9578 174.09 79.9094 173.567 80.2901C173.175 80.5756 172.652 79.9094 172.325 79.3385C171.737 78.482 172.325 76.3883 171.345 76.1028C169.58 75.5318 168.077 77.0545 166.573 78.2916C165.92 78.8626 164.939 79.0529 165.397 80.8611C164.024 80.6707 164.351 83.716 163.109 83.8112C162.782 82.4789 163.501 81.6224 163.763 80.4804C164.089 79.1481 163.697 78.0061 163.305 77.2448C163.044 76.6738 162.39 77.5303 161.867 77.911C160.56 78.7675 159.187 79.1481 157.815 79.7191C157.684 79.7191 157.423 79.6239 157.423 79.4336C157.292 78.8626 157.619 78.7674 157.815 78.482C157.945 78.2916 159.187 77.7206 157.88 77.2448C158.468 75.9125 158.73 74.3899 158.926 72.8672C158.991 72.3914 159.253 71.8204 158.665 71.6301C158.338 71.5349 158.011 71.6301 158.011 72.3914C157.946 73.5334 157.161 73.7237 156.769 74.5802C157.161 75.4367 157.749 76.0077 157.815 77.1496C156.508 77.2448 155.135 77.8158 154.285 79.2433C153.632 80.2901 152.455 80.9562 152.39 82.3837C152.39 84.1919 151.409 83.5257 151.083 84.287C151.017 84.4773 150.494 83.4305 150.56 82.9547C150.625 82.0982 150.037 80.8611 151.148 80.5756C151.475 80.4804 151.736 80.1949 152.194 79.8143C151.083 79.624 150.233 79.9094 149.318 80.1949C148.795 80.3853 148.729 80.2901 149.056 81.2418C149.318 81.9079 148.599 81.7176 148.272 81.8127C147.814 82.0982 148.01 79.9094 147.422 81.1466C146.965 82.0982 147.945 82.0982 148.272 82.9547C146.834 82.7644 145.854 83.3354 145.658 86C145.461 84.5725 144.416 83.145 146.246 82.7644C145.461 81.4321 145.004 79.4336 143.762 80.6708C143.174 81.2418 141.344 80.6707 142.324 83.3354C140.233 82.574 138.272 83.9064 136.115 83.4305C137.161 81.0514 139.383 81.8127 140.363 79.4336C138.272 79.1481 135.984 77.8158 134.089 79.6239C132.716 80.8611 131.278 81.4321 129.971 82.5741C129.186 83.2402 128.533 83.1451 128.663 81.2418C128.729 80.2901 128.794 78.8626 128.337 78.8626C127.748 78.9578 126.899 78.0061 126.245 80.0998C125.722 81.6224 124.35 82.8595 123.827 84.858C123.696 85.2387 123.304 85.2387 123.304 85.0484C123.304 82.9547 120.036 82.4789 122.127 79.3385C122.389 78.9578 122.127 78.3868 121.67 78.2916C120.951 78.1965 120.428 78.6723 120.166 79.7191C120.624 80.0046 120.559 80.3853 120.101 80.2901C119.186 80.0998 118.598 80.9562 118.01 81.9079C117.879 81.7176 117.748 81.5272 117.748 81.4321C118.271 79.6239 116.964 79.7191 116.637 78.7675C116.31 79.7191 115.46 79.6239 115.199 80.3852C114.741 81.7176 114.153 82.0031 113.303 81.8127C112.519 81.7176 111.8 82.0982 111.147 82.8595C110.428 83.716 109.774 83.145 109.578 82.0982C109.316 80.7659 110.166 81.2417 110.558 81.0514C111.539 80.6708 111.8 79.8143 111.473 78.3868C111.343 77.911 111.081 77.5303 110.689 77.5303C110.166 77.5303 110.166 78.0061 110.166 78.5771C110.166 78.9578 110.231 79.5288 109.774 79.4336C109.905 77.911 108.467 80.5756 108.793 78.482C108.793 78.2916 108.205 77.6255 108.075 77.7206C107.748 77.911 108.075 78.3868 108.14 78.7675C108.401 79.8143 107.682 80.1949 107.356 80.4804C107.029 80.6707 106.637 80.1949 106.44 79.3385C105.918 77.1497 104.937 76.769 103.761 78.1013C103.303 78.6723 104.022 79.4336 103.695 80.0998C104.153 80.5756 105.133 81.0514 104.087 82.0031C103.499 82.5741 102.323 83.2402 101.8 81.5272C101.081 79.3384 100.427 78.6723 99.3814 81.0514C98.8585 82.0982 97.8128 81.4321 97.2899 82.5741C97.0938 82.1934 96.8323 81.8127 96.767 81.4321C96.6362 80.8611 96.8977 80.1949 97.2245 80.2901C98.401 80.6708 99.0546 78.6723 100.1 78.5771C100.493 78.5771 100.819 78.3868 100.689 77.6255C100.558 76.8642 100.166 76.9593 99.9043 77.0545C99.5122 77.2448 99.12 77.7207 98.7278 77.911C98.0088 78.2916 97.3552 78.8626 96.5055 78.1965C95.6558 77.5303 95.6558 77.6255 95.1983 79.2433C94.9368 80.0998 94.2179 79.4336 93.695 79.6239C93.3682 79.7191 92.976 79.6239 93.0413 80.3852C93.0413 80.5756 93.4335 80.6707 93.7603 80.9562C93.1067 81.5272 92.3877 81.1466 91.7995 82.1934C91.2112 83.2402 89.9693 83.3354 88.9889 82.2885C88.3353 81.6224 87.7471 81.2417 86.9627 81.0514C85.7208 80.7659 86.3745 78.8626 86.3091 77.0545C85.8516 79.1481 85.1326 79.9094 84.0868 79.7191C83.8253 79.6239 83.4332 79.5288 83.4332 80.0998C83.4985 81.1466 83.2371 81.3369 82.6488 81.1466C81.9298 80.9563 82.5181 79.8143 82.1913 79.4336C81.4723 79.8143 81.8645 81.2418 81.2109 81.7176C79.7729 82.9547 78.2696 81.5272 78.4657 78.482C78.5964 76.5787 78.1389 77.4352 77.616 77.4352C76.2434 77.4352 75.7205 78.9578 75.1976 80.4804C74.6094 82.2886 73.5636 82.3837 72.4524 82.1934C72.0602 82.0982 71.6681 81.5272 71.7335 81.3369C72.7792 79.3384 71.2106 78.6723 70.9491 77.5303C70.4262 75.5318 69.315 77.5303 69.2497 77.911C68.8575 79.624 67.681 79.7191 67.0928 80.9562C66.7659 81.6224 65.5894 80.7659 64.7397 81.5272C63.89 82.1934 63.1711 81.3369 62.5174 80.0046C61.7331 78.3868 60.8181 78.6723 60.2952 80.5756C60.1644 81.1466 59.9684 81.5272 59.6415 81.6224C59.1186 81.7176 58.8572 81.2417 58.5957 80.5756C57.746 78.482 56.9617 78.5771 56.0467 80.5756C55.4584 81.9079 54.8048 82.1934 54.2819 80.5756C53.5629 78.3868 52.321 79.0529 51.2099 78.9578C50.8177 78.9578 50.8177 79.3385 50.8177 79.8143C50.7524 81.7176 49.6412 82.0031 48.8569 82.0031C47.8111 82.0982 48.3993 80.6708 48.3993 79.8143C48.3993 79.2433 48.0725 79.0529 47.7457 78.9578C46.5692 78.5771 45.458 78.7674 44.543 79.9094C41.0134 84.3822 36.961 83.145 34.4119 79.9094C32.1242 76.9593 30.2287 73.5334 30.3595 67.9187C30.4902 62.3039 30.817 56.6892 30.2288 50.9793C29.9673 48.1244 29.8366 44.7936 30.3595 41.6532C30.6209 40.0354 31.0131 39.1788 32.1896 38.9885C36.2421 38.132 40.2291 38.703 44.2815 38.3224C45.4581 38.2272 46.5692 38.4175 45.6541 35.6577C45.3273 34.7061 45.7848 33.469 45.3273 32.4221C46.4385 33.2786 47.4842 33.469 48.3339 35.2771C49.0529 36.7997 50.1641 38.0369 51.8635 37.4659C54.5433 36.6094 57.3539 36.4191 60.099 36.0384C68.4653 34.8965 76.8316 35.0868 85.1979 34.8013C89.0543 34.7061 92.8452 34.8013 96.7016 34.9916C97.7474 35.0868 98.7278 36.1336 99.7082 34.7061C99.839 34.5158 100.754 34.1351 101.212 34.9916C101.734 35.9433 102.519 35.6578 103.107 35.4674C104.872 34.7061 106.571 35.0868 108.336 35.0868C110.428 35.1819 112.585 35.7529 114.741 35.0868C117.225 34.4206 119.905 34.8013 122.454 35.0868C124.35 35.2771 126.18 34.8013 128.075 34.04C129.448 33.469 130.951 33.9448 132.389 33.8496C132.716 33.8496 133.173 34.2303 133.108 33.0883C133.043 32.5173 132.389 31.756 133.043 31.2802C133.566 30.9947 134.546 30.8044 134.807 31.2802C135.396 32.327 135.461 32.898 135.592 30.9947C135.657 30.1382 139.187 29.5672 139.383 30.4237C139.579 31.6608 140.363 30.614 140.429 31.4705C139.187 32.7076 137.553 29.5672 136.376 32.8028C137.749 32.6125 138.991 32.4222 140.298 32.2318C139.317 35.1819 139.383 35.2771 141.54 35.3723C141.932 35.4674 142.585 35.0868 143.108 34.3254ZM196.77 49.5518C196.509 47.2679 195.921 49.076 195.398 49.076C195.006 49.076 194.744 48.8857 194.744 49.5518C194.744 50.1228 195.071 50.1228 195.398 50.0277C195.659 49.9325 196.313 49.7422 196.182 50.3132C195.986 51.36 195.986 51.931 196.77 52.1213C197.424 52.2165 197.947 52.1213 198.143 50.789C198.274 49.8373 197.947 48.4099 198.927 47.934C199.058 47.8389 198.797 47.4582 198.6 47.2679C197.882 46.8872 198.208 45.7452 198.078 44.9839C196.77 45.8404 197.489 48.0292 196.77 49.5518ZM186.443 46.9824C188.012 49.2664 189.907 46.0307 191.607 47.7437C190.757 45.6501 192.456 45.4598 192.783 44.1274C190.365 43.5565 188.535 46.1259 186.443 46.9824ZM145.723 48.9808C145.854 47.7437 145.461 48.0292 144.939 48.3147C144.416 48.6002 143.435 47.934 143.762 49.8373C144.089 51.7406 143.305 52.7874 142.651 54.0246C142.193 53.4536 141.997 53.5488 141.997 54.5004C141.997 55.0714 142.063 55.5472 142.455 55.7375C142.847 55.9279 143.108 55.4521 143.305 55.0714C143.958 53.7391 144.612 52.5019 145.265 51.0745C145.527 50.5986 145.854 49.8373 145.723 48.9808ZM199.842 48.2195C201.346 49.1712 202.784 49.1712 203.829 46.3162C203.96 45.9356 204.156 45.6501 203.96 45.2694C203.829 44.8887 203.437 44.5081 203.241 44.8888C202.261 46.5066 199.973 44.2226 199.842 48.2195ZM167.88 47.1727C169.188 46.792 169.318 50.0277 170.756 49.2663C170.168 47.1727 170.168 47.1727 171.606 45.6501C170.168 45.8404 168.926 44.9839 167.88 47.1727ZM89.5118 77.7206C88.9235 77.2448 88.9889 75.8174 88.0739 76.0077C87.551 76.1029 87.0934 76.4835 87.1588 77.0545C87.3549 78.1013 87.6817 79.5288 88.2046 79.8143C88.9235 80.1949 88.9235 78.3868 89.5118 77.7206ZM157.815 31.8512C157.096 32.2318 156.9 34.2303 155.789 34.04C156.311 35.1819 157.161 35.4674 157.815 35.4674C159.776 35.4674 156.965 32.9931 158.338 32.4221C158.468 32.327 158.207 31.8512 157.815 31.8512ZM198.927 41.1773C198.274 41.558 198.143 38.4175 197.228 40.416C196.836 41.3676 195.398 40.2257 195.725 42.4145C196.77 42.5096 197.816 42.0338 198.927 41.1773ZM182.195 51.5503C182.652 52.9778 183.567 52.5971 184.156 52.9778C184.744 53.3584 184.94 52.1213 185.071 51.4551C185.267 50.5986 184.678 50.9793 184.417 50.789C183.633 50.218 182.979 50.6938 182.195 51.5503ZM186.966 57.6408C188.6 57.736 190.365 58.878 191.868 56.594C190.43 59.0683 188.535 55.6424 186.966 57.6408ZM193.568 66.0154C194.744 65.1589 195.332 66.4912 196.051 66.396C196.313 65.254 194.091 64.0169 196.247 63.4459C194.679 61.5426 194.548 64.2072 193.568 66.0154ZM83.76 43.2709C84.6097 44.0323 85.198 42.9855 85.7862 42.5096C86.113 42.2241 86.5052 41.9386 86.0476 41.1773C85.7208 40.6063 85.2633 40.1305 85.0019 40.987C84.6751 41.8435 84.0868 42.3193 83.76 43.2709ZM168.142 52.9778C168.73 53.5488 169.253 52.7875 169.841 52.6923C170.234 52.5971 170.495 52.2165 170.495 51.7406C170.364 50.3132 169.057 51.7406 168.926 50.218C168.796 50.4083 168.665 50.5035 168.599 50.6938C168.403 51.8358 169.122 51.4551 169.384 51.9309C169.057 52.4068 168.338 51.7406 168.142 52.9778ZM182.456 47.8389C182.718 48.8857 183.175 47.4582 183.24 48.2195C183.437 50.789 184.286 48.3147 184.809 48.6953C185.332 49.076 185.071 48.0292 185.005 47.6485C184.874 46.0307 184.09 47.5534 183.633 47.0775C183.437 46.8872 182.848 47.5534 182.456 47.8389ZM73.2368 44.1274C72.6485 44.5081 71.9295 44.8888 71.8641 46.0307C71.7988 46.6017 72.3871 46.6017 72.7792 46.6969C73.4982 46.8872 73.7597 46.0307 73.8904 45.2694C74.0211 44.6984 73.6943 44.2226 73.2368 44.1274ZM176.443 68.109C177.096 68.2993 177.685 68.0138 177.685 66.967C177.685 66.396 176.966 66.2057 176.508 66.1105C175.985 66.0154 175.659 66.396 175.593 67.2525C175.528 68.3945 176.051 68.0138 176.443 68.109ZM198.208 64.4927C198.274 65.825 198.927 65.1589 199.319 65.7299C199.908 66.6815 200.888 65.3492 200.365 64.3024C199.646 63.0652 198.993 64.9686 198.208 64.4927Z" fill="black"/>
</g>
<defs>
<filter id="filter0_d" x="0" y="0" width="252" height="116" filterUnits="userSpaceOnUse" color-interpolation-filters="sRGB">
<feFlood flood-opacity="0" result="BackgroundImageFix"/>
<feColorMatrix in="SourceAlpha" type="matrix" values="0 0 0 0 0 0 0 0 0 0 0 0 0 0 0 0 0 0 127 0" result="hardAlpha"/>
<feOffset/>
<feGaussianBlur stdDeviation="15"/>
<feComposite in2="hardAlpha" operator="out"/>
<feColorMatrix type="matrix" values="0 0 0 0 1 0 0 0 0 1 0 0 0 0 1 0 0 0 1 0"/>
<feBlend mode="normal" in2="BackgroundImageFix" result="effect1_dropShadow"/>
<feBlend mode="normal" in="SourceGraphic" in2="effect1_dropShadow" result="shape"/>
</filter>
</defs>
</svg>
