<svg width="73" height="73" viewBox="0 0 73 73" fill="none" xmlns="http://www.w3.org/2000/svg">
<rect width="73" height="73" rx="15" fill="black"/>
<path d="M36.997 36.096V36.352C36.9117 36.4373 36.9117 36.4373 36.997 36.352C37.0823 36.224 37.0823 36.1387 36.997 36.096C37.1677 36.352 37.381 36.352 37.637 36.096C37.6797 36.1813 37.7437 36.2027 37.829 36.16C37.957 36.1173 37.9997 36.16 37.957 36.288C38.085 36.3307 38.1917 36.3733 38.277 36.416C38.405 36.4587 38.5117 36.4373 38.597 36.352V36.608C38.597 36.5653 38.597 36.544 38.597 36.544C38.6397 36.5013 38.6397 36.4373 38.597 36.352C38.8103 36.1813 38.9597 36.16 39.045 36.288C39.173 36.3733 39.3223 36.416 39.493 36.416V36.48V36.416C39.7917 36.3307 40.069 36.3093 40.325 36.352C40.6237 36.352 40.9437 36.352 41.285 36.352C41.541 36.352 41.8183 36.352 42.117 36.352C42.4157 36.3093 42.7143 36.3093 43.013 36.352C43.269 36.3947 43.5037 36.416 43.717 36.416C43.973 36.3733 44.2077 36.3307 44.421 36.288C44.421 36.288 44.5063 36.3307 44.677 36.416C44.7197 36.2453 44.805 36.2027 44.933 36.288C45.061 36.3733 45.125 36.352 45.125 36.224C45.381 36.3093 45.5517 36.352 45.637 36.352C45.8503 36.1813 46.021 36.1173 46.149 36.16C46.3197 36.2027 46.5117 36.224 46.725 36.224C46.9383 36.2667 47.1303 36.288 47.301 36.288C47.4717 36.288 47.6637 36.3093 47.877 36.352V36.48C47.7917 36.6933 47.6423 36.7787 47.429 36.736C47.2157 36.6507 47.1303 36.7147 47.173 36.928C47.0023 36.8427 46.853 36.8213 46.725 36.864C46.597 36.9067 46.4477 36.9067 46.277 36.864C46.277 36.9493 46.2557 36.992 46.213 36.992C46.1703 36.9493 46.1063 36.928 46.021 36.928C45.9357 37.0133 45.8503 37.056 45.765 37.056C45.6797 37.056 45.573 37.056 45.445 37.056C45.3597 37.184 45.2743 37.2267 45.189 37.184C45.1037 37.0987 44.997 37.0987 44.869 37.184C44.7837 37.2693 44.7197 37.312 44.677 37.312C44.677 37.312 44.6343 37.376 44.549 37.504C44.4637 37.632 44.3143 37.7387 44.101 37.824C44.0157 37.952 43.909 38.016 43.781 38.016C43.653 37.9733 43.5463 37.9947 43.461 38.08C43.4183 38.1653 43.3543 38.208 43.269 38.208C43.1837 38.208 43.1623 38.2507 43.205 38.336C43.3757 38.336 43.4397 38.4 43.397 38.528C43.397 38.7413 43.269 38.8053 43.013 38.72C42.9277 38.8053 42.7997 38.8053 42.629 38.72C42.4583 38.848 42.2663 38.9333 42.053 38.976C41.8823 38.976 41.6903 38.976 41.477 38.976C41.2637 39.104 41.0717 39.1467 40.901 39.104H40.773C40.6023 39.232 40.389 39.2533 40.133 39.168V39.232C39.9197 39.3173 39.685 39.36 39.429 39.36C39.2157 39.36 39.0237 39.4667 38.853 39.68C38.7677 39.7653 38.6823 39.7653 38.597 39.68C38.5543 39.552 38.4903 39.5093 38.405 39.552C38.3197 39.552 38.1917 39.5093 38.021 39.424C37.6797 39.5093 37.3597 39.5947 37.061 39.68C36.805 39.7653 36.5063 39.7867 36.165 39.744C35.6957 39.616 35.2477 39.616 34.821 39.744C34.7357 39.9573 34.6077 40.064 34.437 40.064C34.2663 40.064 34.0957 40.0427 33.925 40L33.413 40.064C33.3277 40.1493 33.1997 40.192 33.029 40.192C32.901 40.192 32.8157 40.1707 32.773 40.128C32.517 39.7867 32.3037 39.7013 32.133 39.872C31.9623 40 31.7917 40.1067 31.621 40.192H31.365C31.1517 40.2773 30.9383 40.32 30.725 40.32C30.5117 40.2773 30.2983 40.32 30.085 40.448C29.8717 40.4053 29.573 40.32 29.189 40.192L28.613 40.064V39.936L28.357 39.744C28.3143 39.4453 28.165 39.2107 27.909 39.04C27.6957 38.8693 27.6317 38.6133 27.717 38.272C27.5463 38.272 27.461 38.2293 27.461 38.144C27.461 38.016 27.4183 37.9093 27.333 37.824C26.9917 37.3547 27.0557 37.0773 27.525 36.992C27.5677 36.864 27.6317 36.8 27.717 36.8C27.8023 36.8 27.8663 36.7787 27.909 36.736C27.9517 36.6933 28.0157 36.6507 28.101 36.608C28.1863 36.608 28.2503 36.608 28.293 36.608C28.3783 36.5653 28.4637 36.5653 28.549 36.608C28.805 36.5653 29.0397 36.544 29.253 36.544C29.509 36.544 29.7437 36.544 29.957 36.544C30.4263 36.6293 30.8957 36.608 31.365 36.48C31.8343 36.352 32.3037 36.2667 32.773 36.224C32.7303 36.224 32.709 36.2453 32.709 36.288C32.709 36.5013 32.7517 36.6293 32.837 36.672C32.6663 36.6293 32.645 36.48 32.773 36.224C32.8157 36.224 32.837 36.224 32.837 36.224C32.837 36.1813 32.8583 36.16 32.901 36.16H32.965L33.733 36.288L33.797 36.352C33.8823 36.352 33.9677 36.3733 34.053 36.416C34.1383 36.2453 34.245 36.2027 34.373 36.288C34.501 36.3307 34.6077 36.352 34.693 36.352V36.16L36.997 36.096Z" fill="white"/>
</svg>
