<svg width="73" height="73" viewBox="0 0 73 73" fill="none" xmlns="http://www.w3.org/2000/svg">
<rect width="73" height="73" rx="15" fill="black"/>
<path d="M39.2793 36.576C39.5353 36.5333 39.7913 36.5333 40.0473 36.576C40.3033 36.576 40.5806 36.576 40.8793 36.576C41.1353 36.576 41.4126 36.576 41.7113 36.576C42.0099 36.5333 42.3086 36.5333 42.6073 36.576C42.8633 36.6187 43.0979 36.64 43.3113 36.64C43.5673 36.5973 43.8019 36.5547 44.0153 36.512C44.0153 36.512 44.1006 36.5547 44.2713 36.64C44.3139 36.4693 44.3993 36.4267 44.5273 36.512C44.6553 36.5973 44.7193 36.576 44.7193 36.448C44.9753 36.5333 45.1459 36.576 45.2313 36.576C45.4446 36.4053 45.6153 36.3413 45.7433 36.384C45.9139 36.4267 46.1059 36.448 46.3193 36.448L47.4713 36.576V36.704C47.3859 36.9173 47.2366 37.0027 47.0233 36.96C46.8099 36.8747 46.7246 36.9387 46.7673 37.152C46.5966 37.0667 46.4473 37.0453 46.3193 37.088C46.1913 37.1307 46.0419 37.1307 45.8713 37.088C45.8713 37.1733 45.8499 37.216 45.8073 37.216C45.7646 37.1733 45.7006 37.152 45.6153 37.152C45.5299 37.2373 45.4446 37.28 45.3593 37.28C45.2739 37.28 45.1673 37.28 45.0393 37.28C44.9539 37.408 44.8686 37.4507 44.7833 37.408C44.6979 37.3227 44.5913 37.3227 44.4633 37.408C44.3779 37.4933 44.3139 37.536 44.2713 37.536C44.2713 37.536 44.2286 37.6 44.1433 37.728C44.0579 37.856 43.9086 37.9627 43.6953 38.048C43.6099 38.176 43.5033 38.24 43.3753 38.24C43.2473 38.1973 43.1406 38.2187 43.0553 38.304C43.0126 38.3893 42.9486 38.432 42.8633 38.432C42.7779 38.432 42.7566 38.4747 42.7993 38.56C42.9699 38.56 43.0339 38.624 42.9913 38.752C42.9913 38.9653 42.8633 39.0293 42.6073 38.944C42.5219 39.0293 42.3939 39.0293 42.2233 38.944C42.0526 39.072 41.8606 39.1573 41.6473 39.2C41.4766 39.2 41.2846 39.2 41.0713 39.2C40.8579 39.328 40.6659 39.3707 40.4953 39.328H40.3673C40.1966 39.456 39.9833 39.4773 39.7273 39.392V39.456C39.5139 39.5413 39.2793 39.584 39.0233 39.584C38.8099 39.584 38.6179 39.6907 38.4473 39.904C38.3619 39.9893 38.2766 39.9893 38.1913 39.904C38.1486 39.776 38.0846 39.7333 37.9993 39.776C37.8713 39.904 37.8073 40.0533 37.8073 40.224C37.8926 40.4373 37.8713 40.5867 37.7433 40.672C37.6579 40.7573 37.5726 40.8853 37.4873 41.056C37.4873 41.3547 37.4233 41.632 37.2953 41.888C37.1673 42.144 37.0606 42.4427 36.9753 42.784C36.8899 42.9973 36.8046 43.2533 36.7193 43.552C36.6339 43.8507 36.5273 44.128 36.3993 44.384C36.2713 44.5973 36.1859 44.832 36.1433 45.088C36.1006 45.3013 36.0366 45.5147 35.9513 45.728C35.9513 45.8133 35.8873 45.8773 35.7593 45.92C35.9299 46.0053 35.9513 46.112 35.8233 46.24C35.6953 46.3253 35.6953 46.3893 35.8233 46.432C35.6526 46.6027 35.5459 46.752 35.5033 46.88C35.5886 47.0933 35.5886 47.2853 35.5033 47.456C35.4606 47.584 35.3966 47.7333 35.3113 47.904L34.7993 48.992L34.6713 48.928C34.5006 48.8 34.4793 48.6507 34.6073 48.48C34.7353 48.3093 34.6926 48.1813 34.4792 48.096C34.6073 48.0107 34.6713 47.904 34.6713 47.776C34.6713 47.6053 34.7139 47.456 34.7993 47.328C34.7566 47.2853 34.7779 47.1787 34.8633 47.008C34.8206 46.9653 34.8419 46.7733 34.9273 46.432C34.8419 46.3467 34.8419 46.2827 34.9273 46.24C35.0126 46.1547 35.0339 46.0267 34.9913 45.856C34.9486 45.7707 34.9273 45.7067 34.9273 45.664C34.9273 45.6213 34.8846 45.5573 34.7993 45.472C34.6713 45.3013 34.6073 45.1307 34.6073 44.96C34.5219 44.832 34.5006 44.704 34.5433 44.576C34.6286 44.448 34.6499 44.3413 34.6073 44.256C34.5219 44.1707 34.5006 44.0853 34.5433 44C34.5859 43.9147 34.5646 43.8933 34.4792 43.936C34.3939 44.1067 34.3086 44.1493 34.2233 44.064C34.1379 44.0213 34.0739 43.9573 34.0312 43.872C34.0312 43.7867 34.0739 43.7013 34.1593 43.616C34.0739 43.5307 34.1166 43.4027 34.2873 43.232C34.2019 43.0187 34.1806 42.8267 34.2233 42.656C34.2659 42.4853 34.3299 42.2933 34.4153 42.08C34.3726 41.8667 34.3939 41.6747 34.4792 41.504L34.5433 41.376C34.5006 41.1627 34.5433 40.9493 34.6713 40.736H34.6073C34.6073 40.608 34.6073 40.48 34.6073 40.352C34.6499 40.224 34.6926 40.0747 34.7353 39.904C34.6499 39.904 34.5859 39.9253 34.5433 39.968C34.5006 39.968 34.4579 39.968 34.4153 39.968C34.3299 40.1813 34.2019 40.288 34.0312 40.288C33.8606 40.288 33.6899 40.2667 33.5193 40.224L33.0073 40.288C32.9219 40.3733 32.7939 40.416 32.6233 40.416C32.4953 40.416 32.4099 40.3947 32.3673 40.352C32.1113 40.0107 31.8979 39.9253 31.7273 40.096C31.5566 40.224 31.3859 40.3307 31.2153 40.416H30.9593C30.7459 40.5013 30.5326 40.544 30.3193 40.544C30.1059 40.5013 29.8926 40.544 29.6793 40.672L28.7833 40.416L28.2073 40.288V40.16L27.9513 39.968C27.9086 39.6693 27.7593 39.4347 27.5033 39.264C27.2899 39.0933 27.2259 38.8373 27.3113 38.496C27.1406 38.496 27.0553 38.4533 27.0553 38.368C27.0553 38.24 27.0126 38.1333 26.9273 38.048C26.5859 37.5787 26.6499 37.3013 27.1193 37.216C27.1619 37.088 27.2259 37.024 27.3113 37.024C27.3966 37.024 27.4606 37.0027 27.5033 36.96C27.5459 36.9173 27.6099 36.8747 27.6953 36.832C27.7806 36.832 27.8446 36.832 27.8873 36.832C27.9726 36.7893 28.0579 36.7893 28.1432 36.832C28.3993 36.7893 28.6339 36.768 28.8473 36.768C29.1033 36.768 29.3379 36.768 29.5513 36.768C30.0206 36.8533 30.4899 36.832 30.9593 36.704C31.4286 36.576 31.8979 36.4907 32.3673 36.448C32.3246 36.448 32.3033 36.4693 32.3033 36.512V36.64C32.3033 36.5547 32.3246 36.4907 32.3673 36.448C32.4099 36.448 32.4313 36.448 32.4313 36.448C32.4313 36.4053 32.4526 36.384 32.4953 36.384H32.5593L33.3273 36.512L33.3913 36.576C33.4766 36.576 33.5619 36.5973 33.6473 36.64C33.7326 36.4693 33.8393 36.4267 33.9673 36.512C34.0953 36.5547 34.2019 36.576 34.2873 36.576V36.384H35.6953L35.8873 35.552C35.6739 35.3813 35.6099 35.232 35.6953 35.104C35.7806 34.9333 35.8659 34.7627 35.9513 34.592L36.0153 34.08C35.9299 33.9947 35.9086 33.888 35.9513 33.76C36.0366 33.5893 36.1219 33.504 36.2073 33.504C36.6339 33.376 36.7833 33.2053 36.6553 32.992C36.5699 32.7787 36.5273 32.5653 36.5273 32.352L36.5913 32.096C36.5486 31.8827 36.5699 31.6907 36.6553 31.52C36.7833 31.3067 36.8259 31.072 36.7833 30.816C36.9113 30.6027 37.0819 30.3467 37.2953 30.048L37.6153 29.536L37.7433 29.6L37.9993 29.408C38.2979 29.4933 38.5539 29.4507 38.7673 29.28C38.9806 29.0667 39.2579 29.0667 39.5993 29.28C39.6846 29.152 39.7699 29.1093 39.8553 29.152C39.9406 29.152 40.0259 29.1307 40.1113 29.088C40.7086 28.96 40.9646 29.1093 40.8793 29.536C40.9219 29.6213 40.9433 29.664 40.9433 29.664C40.9859 29.664 41.0073 29.7067 41.0073 29.792C40.9646 29.8773 40.9433 29.9627 40.9433 30.048C40.9859 30.0907 41.0073 30.1547 41.0073 30.24C41.0073 30.4533 40.9646 30.5813 40.8793 30.624C40.8366 30.88 40.7726 31.1147 40.6873 31.328C40.6446 31.5413 40.5806 31.7547 40.4953 31.968C40.2819 32.4373 40.1539 32.9067 40.1113 33.376C40.0686 33.8453 39.9833 34.3147 39.8553 34.784C39.8979 34.7413 39.8979 34.6987 39.8553 34.656H39.6633C39.7059 34.656 39.7699 34.6987 39.8553 34.784V34.976L39.4713 35.616L39.4073 35.68C39.4073 35.7227 39.3646 35.7867 39.2793 35.872C39.4073 36 39.4073 36.128 39.2793 36.256C39.1939 36.3413 39.1299 36.4267 39.0873 36.512L39.2793 36.576ZM37.8073 40.224H37.6793H37.8073Z" fill="white"/>
</svg>
