<?xml version="1.0" standalone="no"?>
<!DOCTYPE svg PUBLIC "-//W3C//DTD SVG 1.1//EN" "http://www.w3.org/Graphics/SVG/1.1/DTD/svg11.dtd" >
<svg xmlns="http://www.w3.org/2000/svg" xmlns:xlink="http://www.w3.org/1999/xlink" version="1.1">
<metadata>
Created by FontForge 20170731 at Fri Sep  7 16:43:17 2018
 By Aleksey,,,
Copyright 2018 Bai Jamjuree (https://github.com/cadsondemak/Bai-Jamjuree)
</metadata>
<defs>
<font id="BaiJamjuree-SemiBoldItalic" horiz-adv-x="0" >
  <font-face 
    font-family="Bai Jamjuree SemiBold"
    font-weight="600"
    font-style="italic"
    font-stretch="normal"
    units-per-em="1000"
    panose-1="0 0 7 0 0 0 0 0 0 0"
    ascent="800"
    descent="-200"
    x-height="499"
    cap-height="700"
    bbox="-600 -537 1407 1219"
    underline-thickness="50"
    underline-position="-150"
    slope="-10"
    unicode-range="U+000D-FB02"
  />
<missing-glyph horiz-adv-x="491" 
d="M60 712h409v-712h-409v712zM402 66v580h-274v-580h274z" />
    <glyph glyph-name="fi" unicode="fi" horiz-adv-x="585" 
d="M477 0h-115l71 401h-180l-71 -401h-115l71 401h-86l17 99h86l7 34q15 81 71 125.5t144 44.5h145l-17 -98h-144q-34 0 -55.5 -17t-29.5 -56l-6 -33h295z" />
    <glyph glyph-name="fl" unicode="fl" horiz-adv-x="636" 
d="M510 136q0 -20 10.5 -28.5t33.5 -8.5h47l-17 -99h-54q-68 0 -103 24t-35 82q0 21 4 42l44 253h-187l-71 -401h-115l71 401h-86l17 99h86l7 34q15 81 71 125.5t144 44.5h64l-18 -98h-62q-37 0 -57.5 -18t-27.5 -55l-6 -35h187l36 204h115l-97 -549q-1 -6 -1 -17z" />
    <glyph glyph-name="uni0E240E45" unicode="&#xe24;&#xe45;" horiz-adv-x="956" 
d="M874.5 520.5q40.5 -37.5 40.5 -101.5q0 -16 -3 -36l-103 -583h-114l102 583q2 12 2 18q0 26 -14.5 41.5t-39.5 15.5h-74q-33 0 -58 -25.5t-33 -65.5l-100 -567h-115l103 580q1 6 1 16q0 29 -17.5 45.5t-47.5 16.5h-109q-31 0 -64 -23t-54 -61q24 -14 37.5 -39.5
t13.5 -55.5q0 -7 -2 -23l-8 -49q3 1 10 1q42 0 66 -24t24 -64q0 -56 -38 -93t-96 -37q-47 0 -74.5 24.5t-27.5 65.5q0 7 2 21l27 155q1 5 1 16q0 27 -16 45t-48 23q33 98 101 158t151 60h126q42 0 74.5 -16t49.5 -44q27 27 64.5 43.5t75.5 16.5h73q71 0 111.5 -37.5z
M236.5 136.5q-10.5 9.5 -28.5 9.5q-23 0 -39 -16t-16 -39q0 -17 10.5 -26.5t28.5 -9.5q23 0 39 16t16 39q0 17 -10.5 26.5z" />
    <glyph glyph-name="uni0E260E45" unicode="&#xe26;&#xe45;" horiz-adv-x="970" 
d="M887.5 520.5q40.5 -37.5 40.5 -100.5q0 -17 -3 -37l-102 -583h-115l103 583q2 12 2 18q0 26 -14.5 41.5t-38.5 15.5h-75q-32 0 -57 -24.5t-35 -66.5l-100 -567h-114l102 580q1 6 1 16q0 29 -17.5 45.5t-47.5 16.5h-92q-32 0 -64.5 -23t-54.5 -61q28 -16 46 -40.5
t18 -54.5q0 -5 -2 -17l-29 -162q-8 -50 -43 -80t-87 -30q-47 0 -75 25.5t-28 65.5q0 55 35 90.5t89 35.5q9 0 13 -1l10 56q1 4 1 12q0 27 -21 43.5t-55 22.5q33 98 100.5 158t150.5 60h111q42 0 74.5 -16t49.5 -43q27 27 63.5 43t75.5 16h74q70 0 110.5 -37.5zM153 70.5
q16 16.5 16 39.5q0 16 -10.5 26t-28.5 10q-23 0 -39 -16.5t-16 -39.5q0 -16 10.5 -26t28.5 -10q23 0 39 16.5z" />
    <glyph glyph-name=".notdef" horiz-adv-x="491" 
d="M60 712h409v-712h-409v712zM402 66v580h-274v-580h274z" />
    <glyph glyph-name=".null" 
 />
    <glyph glyph-name="nonmarkingreturn" unicode="&#xd;" horiz-adv-x="279" 
 />
    <glyph glyph-name="NULL" 
 />
    <glyph glyph-name="NULL" 
 />
    <glyph glyph-name="space" unicode=" " horiz-adv-x="279" 
 />
    <glyph glyph-name="exclam" unicode="!" horiz-adv-x="285" 
d="M164 700h116l-88 -497h-116zM53 6q-17 16 -17 42q0 39 24 63t62 24q28 0 44.5 -15.5t16.5 -41.5q0 -40 -23.5 -64t-61.5 -24q-28 0 -45 16z" />
    <glyph glyph-name="quotedbl" unicode="&#x22;" horiz-adv-x="384" 
d="M124 700h115l-42 -234h-114zM305 700h115l-41 -234h-115z" />
    <glyph glyph-name="numbersign" unicode="#" horiz-adv-x="703" 
d="M146 166h-116l16 94h116l31 177h-116l17 94h116l30 169h109l-29 -169h164l29 169h110l-30 -169h115l-17 -94h-115l-31 -177h116l-17 -94h-116l-29 -166h-109l29 166h-164l-29 -166h-110zM435 259l32 179h-164l-32 -179h164z" />
    <glyph glyph-name="dollar" unicode="$" horiz-adv-x="646" 
d="M524 502q2 16 2 24q0 36 -21 57.5t-58 21.5h-112q-47 0 -79 -20.5t-38 -55.5l-7 -36q-1 -4 -1 -12q0 -23 17 -38.5t49 -21.5l176 -32q74 -13 113.5 -47t39.5 -86q0 -7 -2 -25l-11 -65q-15 -83 -78 -128.5t-163 -45.5h-11l-17 -97h-114l17 97q-90 3 -141 50.5t-51 127.5
q0 25 4 46h115q-2 -10 -2 -27q0 -44 24 -69t67 -25h111q50 0 83 21t40 57l8 44q1 4 1 10q0 23 -18 39t-51 22l-177 30q-73 13 -111 47.5t-38 87.5q0 18 2 28l10 55q15 81 77.5 126.5t159.5 45.5h13l17 97h114l-17 -97q82 -4 129 -48.5t47 -116.5q0 -22 -4 -41h-114z" />
    <glyph glyph-name="percent" unicode="%" horiz-adv-x="1021" 
d="M728 722h119l-521 -747h-118zM110 294.5q-39 34.5 -39 93.5q0 15 3 31l23 130q14 75 59.5 117t113.5 42h56q67 0 106 -34.5t39 -92.5q0 -15 -3 -32l-23 -130q-14 -75 -59.5 -117t-114.5 -42h-56q-66 0 -105 34.5zM273 352q26 0 44 19t24 53l21 120q2 14 2 20
q0 24 -11.5 38t-32.5 14h-52q-26 0 -44 -19t-24 -53l-21 -120q-2 -14 -2 -20q0 -24 11.5 -38t32.5 -14h52zM624.5 27q-39.5 35 -39.5 93q0 15 3 31l23 130q14 75 59.5 117t114.5 42h56q66 0 105 -34.5t39 -92.5q0 -15 -3 -32l-23 -130q-14 -75 -59.5 -117t-113.5 -42h-56
q-66 0 -105.5 35zM788 84q25 0 43 19t24 53l21 120q2 14 2 20q0 24 -11.5 38t-31.5 14h-52q-26 0 -44.5 -19t-24.5 -53l-21 -120q-2 -14 -2 -19q0 -24 12 -38.5t33 -14.5h52z" />
    <glyph glyph-name="ampersand" unicode="&#x26;" horiz-adv-x="680" 
d="M500 0l-44 62q-87 -70 -188 -70h-44q-92 0 -144.5 39t-52.5 105q0 18 2 28l7 38q8 46 32 79t58.5 56t96.5 56l-11 19q-32 49 -32 94q0 17 2 26l4 21q14 73 65 114t128 41h39q71 0 112.5 -33.5t41.5 -89.5q0 -18 -2 -28l-3 -20q-5 -31 -21.5 -55t-52 -49.5t-102.5 -60.5
l-21 -11l100 -140q30 50 46 109h99q-27 -109 -87 -192l98 -138h-126zM288 519q0 -29 20 -61l19 -30l20 11q64 37 86.5 55t26.5 43l3 20q1 4 1 12q0 21 -13.5 33.5t-38.5 12.5h-37q-34 0 -56 -16.5t-27 -46.5l-3 -20q-1 -4 -1 -13zM401 140l-127 180q-67 -34 -92.5 -57.5
t-31.5 -59.5l-7 -36q-1 -4 -1 -13q0 -29 23 -47t62 -18h46q69 0 128 51z" />
    <glyph glyph-name="quotesingle" unicode="'" horiz-adv-x="203" 
d="M124 700h115l-42 -234h-114z" />
    <glyph glyph-name="parenleft" unicode="(" horiz-adv-x="330" 
d="M28 99q0 65 14 140l4 20q27 133 80 240t138 201h121q-90 -98 -144 -205t-80 -236l-4 -20q-12 -63 -12 -124q0 -154 81 -317h-121q-77 148 -77 301z" />
    <glyph glyph-name="parenright" unicode=")" horiz-adv-x="330" 
d="M90 4q55 107 80 235l4 20q12 63 12 124q0 154 -82 317h121q78 -151 78 -302q0 -67 -15 -139l-4 -20q-26 -132 -79 -239.5t-139 -201.5h-121q90 99 145 206z" />
    <glyph glyph-name="asterisk" unicode="*" horiz-adv-x="449" 
d="M229 526l-108 -63l-26 73l119 57l-99 57l52 73l85 -63l19 105h90l-19 -105l108 63l25 -73l-118 -57l99 -57l-52 -73l-85 63l-19 -106h-90z" />
    <glyph glyph-name="plus" unicode="+" horiz-adv-x="573" 
d="M234 274h-185l17 100h186l32 185h115l-33 -185h186l-18 -100h-185l-33 -185h-115z" />
    <glyph glyph-name="comma" unicode="," horiz-adv-x="240" 
d="M-59 -84l29 21q62 44 74 112l10 61h115l-11 -61q-21 -127 -126 -195l-33 -22z" />
    <glyph glyph-name="hyphen" unicode="-" horiz-adv-x="396" 
d="M54 306h308l-18 -100h-308z" />
    <glyph glyph-name="period" unicode="." horiz-adv-x="233" 
d="M27 6q-17 16 -17 42q0 39 23.5 63t62.5 24q28 0 44.5 -15.5t16.5 -41.5q0 -40 -23 -64t-62 -24q-28 0 -45 16z" />
    <glyph glyph-name="slash" unicode="/" horiz-adv-x="540" 
d="M480 722h122l-507 -747h-122z" />
    <glyph glyph-name="zero" unicode="0" horiz-adv-x="665" 
d="M102 43.5q-56 51.5 -56 137.5q0 22 5 50l41 238q20 113 88 176t169 63h106q93 0 146 -50.5t53 -136.5q0 -22 -5 -52l-42 -238q-20 -114 -84.5 -176.5t-167.5 -62.5h-106q-91 0 -147 51.5zM358 95q50 0 85.5 36t46.5 98l42 242q4 26 4 36q0 45 -23.5 71.5t-65.5 26.5h-102
q-52 0 -88 -35.5t-47 -98.5l-43 -242q-3 -18 -3 -33q0 -46 25 -73.5t67 -27.5h102z" />
    <glyph glyph-name="one" unicode="1" horiz-adv-x="376" 
d="M241 573l-174 -81l19 109l203 99h92l-124 -700h-117z" />
    <glyph glyph-name="two" unicode="2" horiz-adv-x="574" 
d="M11 89q10 54 37 98.5t86 77.5l278 161q22 14 37 34t19 40l5 32q1 5 1 14q0 26 -20 42.5t-53 16.5h-92q-44 0 -74 -31t-40 -87h-117q19 104 81 162.5t155 58.5h94q84 0 134.5 -39t50.5 -104q0 -16 -3 -33l-6 -32q-17 -99 -115 -154l-269 -153q-30 -18 -46.5 -39t-22.5 -52
h389l-18 -102h-507z" />
    <glyph glyph-name="three" unicode="3" horiz-adv-x="608" 
d="M557.5 668.5q51.5 -39.5 51.5 -106.5q0 -15 -3 -32l-7 -40q-7 -40 -33 -73.5t-66 -56.5q32 -20 49.5 -49t17.5 -63q0 -8 -2 -24l-7 -40q-16 -91 -79 -141.5t-162 -50.5h-97q-92 0 -144.5 48t-52.5 129q0 24 4 45h115q-2 -10 -2 -28q0 -42 22.5 -66.5t61.5 -24.5h98
q49 0 80.5 23.5t39.5 65.5l7 40q1 5 1 15q0 33 -24.5 50.5t-69.5 17.5h-121l17 102h121q44 0 73.5 21.5t36.5 59.5l7 40q1 4 1 13q0 28 -21 45t-57 17h-97q-46 0 -77 -31.5t-41 -87.5h-117q18 105 81 163.5t158 58.5h97q89 0 140.5 -39.5z" />
    <glyph glyph-name="four" unicode="4" horiz-adv-x="608" 
d="M364 137h-292q-33 0 -50.5 12.5t-17.5 35.5q0 9 1 13l5 25l454 477h116l-81 -459h88l-18 -104h-88l-25 -137h-116zM389 237l55 311h-1l-295 -311h241z" />
    <glyph glyph-name="five" unicode="5" horiz-adv-x="616" 
d="M83 37q-51 45 -51 122q0 24 4 44h115q-3 -15 -3 -28q0 -38 21 -59t58 -21h95q51 0 84.5 27t41.5 74l10 57q1 5 1 16q0 34 -25.5 54.5t-70.5 20.5h-278l63 356h480l-19 -103h-363l-26 -149h156q93 0 147 -43.5t54 -116.5q0 -17 -3 -35l-9 -57q-17 -96 -82 -150t-165 -54
h-96q-88 0 -139 45z" />
    <glyph glyph-name="six" unicode="6" horiz-adv-x="625" 
d="M103 42.5q-56 50.5 -56 136.5q0 26 4 49l43 247q20 110 88 171.5t171 61.5h86q86 0 136 -43.5t50 -116.5q0 -11 -4 -39h-115q2 16 2 22q0 35 -19.5 54.5t-53.5 19.5h-86q-54 0 -90.5 -34.5t-47.5 -95.5l-16 -93q31 31 72 49t79 18h66q86 0 136 -43.5t50 -116.5
q0 -22 -4 -41l-7 -40q-17 -102 -85 -159t-172 -57h-73q-98 0 -154 50.5zM334 91q55 0 91.5 31t45.5 86l7 41q2 16 2 22q0 36 -22.5 57.5t-60.5 21.5h-66q-52 0 -96 -32.5t-63 -82.5l-6 -34q-2 -16 -2 -23q0 -40 26.5 -63.5t72.5 -23.5h71z" />
    <glyph glyph-name="seven" unicode="7" horiz-adv-x="511" 
d="M108 39q9 50 28 99.5t45 89.5l246 369h-358l19 103h494l-12 -68l-275 -419q-26 -40 -44.5 -86.5t-26.5 -87.5l-7 -39h-117z" />
    <glyph glyph-name="eight" unicode="8" horiz-adv-x="639" 
d="M77.5 34q-58.5 42 -58.5 113q0 15 3 30l7 41q8 43 42 81t88 61v1q-29 19 -45 47t-16 60q0 8 2 22l8 42q15 83 77 129.5t159 46.5h85q95 0 150.5 -40t55.5 -107q0 -14 -3 -29l-8 -42q-7 -37 -35 -72t-70 -57v-1q39 -20 60.5 -51.5t21.5 -69.5q0 -7 -2 -21l-7 -41
q-15 -88 -80.5 -136.5t-170.5 -48.5h-106q-99 0 -157.5 42zM390 407q46 0 78.5 23t39.5 60l7 41q1 4 1 11q0 30 -24.5 47.5t-66.5 17.5h-85q-49 0 -80 -20t-37 -56l-7 -41q-1 -5 -1 -14q0 -31 24 -50t66 -19h85zM345 93q54 0 89 23.5t42 65.5l6 34q1 5 1 15q0 36 -29.5 57
t-80.5 21h-86q-56 0 -95.5 -25.5t-46.5 -67.5l-6 -34q-2 -10 -2 -16q0 -33 27.5 -53t74.5 -20h106z" />
    <glyph glyph-name="nine" unicode="9" horiz-adv-x="631" 
d="M95.5 34.5q-51.5 42.5 -51.5 114.5q0 18 3 37h115q-2 -12 -2 -18q0 -34 22 -53.5t59 -19.5h86q49 0 82 30.5t44 85.5l17 94q-33 -28 -68.5 -43t-69.5 -15h-65q-92 0 -144 45.5t-52 123.5q0 19 3 40l7 40q17 100 87 156t177 56h70q97 0 153 -46.5t56 -125.5q0 -22 -4 -41
l-50 -284q-19 -104 -84 -161.5t-164 -57.5h-86q-89 0 -140.5 42.5zM341 346q49 0 91.5 28.5t62.5 73.5l10 55q2 14 2 20q0 39 -25.5 62.5t-70.5 23.5h-70q-58 0 -96 -30t-47 -83l-7 -40q-2 -18 -2 -25q0 -39 22 -62t60 -23h70z" />
    <glyph glyph-name="colon" unicode=":" horiz-adv-x="233" 
d="M90 361.5q-17 15.5 -17 41.5q0 40 23.5 64t62.5 24q28 0 44.5 -16t16.5 -42q0 -39 -23 -63t-62 -24q-28 0 -45 15.5zM31.5 29.5q-16.5 15.5 -16.5 41.5q0 40 23 64t63 24q27 0 44 -16t17 -42q0 -39 -23.5 -63t-62.5 -24q-28 0 -44.5 15.5z" />
    <glyph glyph-name="semicolon" unicode=";" horiz-adv-x="249" 
d="M105 361.5q-17 15.5 -17 41.5q0 40 24 64t63 24q27 0 44 -16t17 -42q0 -39 -23.5 -63t-62.5 -24q-28 0 -45 15.5zM-59 -84l29 21q62 46 74 112l10 61h115l-11 -61q-21 -127 -126 -195l-33 -22z" />
    <glyph glyph-name="less" unicode="&#x3c;" horiz-adv-x="569" 
d="M28 271l14 76l547 265l-22 -120l-397 -187l331 -188l-19 -110z" />
    <glyph glyph-name="equal" unicode="=" horiz-adv-x="530" 
d="M79 450h443l-18 -98h-442zM47 266h442l-17 -98h-442z" />
    <glyph glyph-name="greater" unicode="&#x3e;" horiz-adv-x="569" 
d="M23 128l397 187l-331 187l19 110l454 -265l-14 -76l-547 -264z" />
    <glyph glyph-name="question" unicode="?" horiz-adv-x="582" 
d="M224 223q7 43 28.5 73.5t47.5 50t67 44.5q45 27 68.5 48t28.5 52l6 36q1 5 1 14q0 29 -21 47t-57 18h-86q-46 0 -78 -28.5t-40 -77.5h-116q16 97 80 152.5t158 55.5h86q89 0 140.5 -40.5t51.5 -108.5q0 -15 -3 -32l-6 -36q-7 -42 -26.5 -71.5t-43.5 -47.5t-63 -40
q-48 -29 -74 -53t-34 -64l-5 -25h-116zM197 6q-17 16 -17 42q0 39 24 63t63 24q28 0 44.5 -15.5t16.5 -41.5q0 -40 -23.5 -64t-62.5 -24q-28 0 -45 16z" />
    <glyph glyph-name="at" unicode="@" horiz-adv-x="891" 
d="M156 -10q-58 26 -89.5 74.5t-31.5 113.5q0 22 5 50l35 200q25 140 120 219t240 79h198q120 0 189 -55t69 -148q0 -26 -4 -47l-28 -155q-14 -83 -58.5 -129t-111.5 -46h-33q-31 0 -55.5 15.5t-32.5 41.5h-1q-25 -31 -58 -49t-64 -18h-53q-66 0 -105 35t-39 94q0 16 3 34
l14 76q14 81 63 126.5t122 45.5h46q30 0 55 -11t35 -30l7 36h94l-46 -260q-1 -4 -1 -13q0 -16 8 -25t24 -9h23q21 0 36 20.5t21 56.5l30 164q3 17 3 31q0 58 -41 91t-115 33h-198q-100 0 -165.5 -53.5t-82.5 -149.5l-35 -200q-3 -18 -3 -34q0 -63 40.5 -99.5t110.5 -36.5
h176q50 0 98 12t81 33l38 -76q-39 -29 -98.5 -46t-125.5 -17h-173q-78 0 -136 26zM451 225q32 0 56.5 23.5t36.5 65.5l13 75q2 31 -13 50t-42 19h-47q-34 0 -57 -22.5t-31 -63.5l-13 -71q-2 -14 -2 -19q0 -26 13.5 -41.5t36.5 -15.5h49z" />
    <glyph glyph-name="A" unicode="A" horiz-adv-x="670" 
d="M465 173h-278l-95 -173h-126l395 700h53q55 0 66 -53l136 -647h-117zM237 271h213l-55 284h-1z" />
    <glyph glyph-name="B" unicode="B" horiz-adv-x="681" 
d="M56.5 18q-19.5 18 -19.5 49q0 5 2 17l109 616h318q88 0 140.5 -36.5t52.5 -98.5q0 -13 -3 -27l-9 -51q-7 -35 -29 -66.5t-55 -49.5v-1q39 -14 61.5 -44.5t22.5 -70.5q0 -16 -2 -25l-9 -50q-14 -86 -74 -133t-154 -47h-298q-34 0 -53.5 18zM432 401q37 0 64 24t34 62l7 41
q1 4 1 13q0 26 -21 41.5t-58 15.5h-213l-34 -197h220zM402 102q49 0 79.5 22t38.5 61l9 45q1 5 1 14q0 27 -20.5 44t-55.5 17h-259l-36 -203h243z" />
    <glyph glyph-name="C" unicode="C" horiz-adv-x="679" 
d="M103.5 47.5q-59.5 55.5 -59.5 150.5q0 23 5 56l34 192q21 124 96 193t188 69h105q101 0 159 -52.5t58 -141.5q0 -21 -5 -51h-115q3 18 3 34q0 50 -28 79t-76 29h-105q-64 0 -107.5 -43.5t-56.5 -119.5l-33 -184q-4 -20 -4 -42q0 -56 28.5 -88.5t78.5 -32.5h107
q60 0 102.5 42.5t55.5 115.5h115q-22 -122 -96 -191.5t-181 -69.5h-107q-102 0 -161.5 55.5z" />
    <glyph glyph-name="D" unicode="D" horiz-adv-x="693" 
d="M56.5 17.5q-19.5 17.5 -19.5 48.5q0 6 2 18l109 616h308q109 0 171 -52.5t62 -141.5q0 -24 -4 -44l-35 -204q-22 -127 -95 -192.5t-195 -65.5h-250q-34 0 -53.5 17.5zM362 103q71 0 114 40.5t57 118.5l35 196q3 17 3 30q0 51 -32.5 80t-90.5 29h-202l-87 -494h203z" />
    <glyph glyph-name="E" unicode="E" horiz-adv-x="619" 
d="M56.5 18q-19.5 18 -19.5 49q0 6 2 18l109 615h512l-18 -101h-395l-34 -190h365l-18 -102h-365l-36 -206h395l-18 -101h-426q-34 0 -53.5 18z" />
    <glyph glyph-name="F" unicode="F" horiz-adv-x="595" 
d="M147 700h503l-18 -102h-386l-37 -211h349l-18 -102h-349l-50 -285h-117z" />
    <glyph glyph-name="G" unicode="G" horiz-adv-x="703" 
d="M103.5 48q-59.5 56 -59.5 150q0 24 5 56l34 192q21 124 96.5 193t188.5 69h109q101 0 160 -52t59 -139q0 -25 -4 -45h-115q3 15 3 29q0 48 -29 76t-78 28h-109q-65 0 -108.5 -43.5t-56.5 -119.5l-33 -184q-4 -20 -4 -41q0 -56 29 -89t80 -33h115q61 0 102.5 38.5
t54.5 107.5l6 34h-194l17 102h309l-24 -136q-20 -118 -93 -183.5t-183 -65.5h-115q-103 0 -162.5 56z" />
    <glyph glyph-name="H" unicode="H" horiz-adv-x="715" 
d="M147 700h117l-53 -297h346l53 297h116l-123 -700h-116l52 301h-346l-52 -301h-117z" />
    <glyph glyph-name="I" unicode="I" horiz-adv-x="273" 
d="M157 700h117l-123 -700h-117z" />
    <glyph glyph-name="J" unicode="J" horiz-adv-x="596" 
d="M67 44q-52 52 -52 138q0 22 5 54h115q-4 -19 -4 -40q0 -47 21.5 -74t58.5 -27h80q47 0 81 39.5t46 109.5l80 456h117l-81 -460q-21 -118 -84.5 -183t-159.5 -65h-84q-87 0 -139 52z" />
    <glyph glyph-name="K" unicode="K" horiz-adv-x="659" 
d="M362 392l239 -392h-134l-193 313l-93 -84l-40 -229h-117l123 700h117l-56 -317l348 317h150z" />
    <glyph glyph-name="L" unicode="L" horiz-adv-x="579" 
d="M56 17.5q-20 17.5 -20 48.5q0 6 2 18l109 616h117l-106 -598h380l-17 -102h-411q-34 0 -54 17.5z" />
    <glyph glyph-name="M" unicode="M" horiz-adv-x="814" 
d="M147 700h99l160 -432l306 432h113l-123 -700h-115l85 483l-219 -306q-17 -23 -32 -34t-32 -11h-33l-133 351l-85 -483h-114z" />
    <glyph glyph-name="N" unicode="N" horiz-adv-x="709" 
d="M147 700h100l269 -512l90 512h114l-123 -700h-100l-269 511l-90 -511h-114z" />
    <glyph glyph-name="O" unicode="O" horiz-adv-x="715" 
d="M105.5 49q-61.5 57 -61.5 152q0 23 5 53l34 192q22 124 97 193t191 69h106q107 0 168.5 -56t61.5 -151q0 -23 -5 -55l-34 -192q-22 -124 -97.5 -193t-192.5 -69h-107q-104 0 -165.5 57zM382 95q66 0 111 43t59 120l32 184q4 19 4 41q0 56 -31 89t-85 33h-105
q-65 0 -110 -43.5t-58 -119.5l-33 -184q-4 -28 -4 -39q0 -57 31 -90.5t84 -33.5h105z" />
    <glyph glyph-name="P" unicode="P" horiz-adv-x="643" 
d="M147 700h345q84 0 132.5 -39.5t48.5 -105.5q0 -17 -3 -35l-17 -96q-15 -89 -73.5 -138.5t-150.5 -49.5h-247l-41 -236h-117zM431 338q42 0 70 23.5t36 66.5l17 89q2 12 2 18q0 29 -18.5 46t-51.5 17h-240l-46 -260h231z" />
    <glyph glyph-name="Q" unicode="Q" horiz-adv-x="719" 
d="M645.5 652q61.5 -56 61.5 -151q0 -23 -5 -55l-34 -186q-15 -83 -70 -151l63 -75l-85 -76l-64 76q-71 -42 -145 -42h-96q-104 0 -165.5 57t-61.5 152q0 23 5 53l34 192q22 124 97 193t191 69h106q107 0 168.5 -56zM527 193q19 32 25 67l32 182q4 19 4 41q0 56 -31 89
t-85 33h-105q-65 0 -110 -43.5t-58 -119.5l-33 -184q-4 -28 -4 -39q0 -57 31 -90.5t84 -33.5h103q34 0 66 17l-81 95l86 76z" />
    <glyph glyph-name="R" unicode="R" horiz-adv-x="669" 
d="M147 700h348q82 0 130 -38t48 -102q0 -14 -3 -31l-12 -71q-10 -54 -47 -93t-99 -57v-2q29 -19 43 -49t20 -76l24 -181h-121l-23 173q-6 45 -28.5 69t-58.5 24h-181l-46 -266h-117zM424 367q46 0 78 25t39 65l12 69q1 5 1 13q0 27 -17.5 43t-47.5 16h-243l-41 -231h219z
" />
    <glyph glyph-name="S" unicode="S" horiz-adv-x="646" 
d="M88.5 40q-54.5 48 -54.5 130q0 25 4 46h115q-2 -10 -2 -27q0 -44 24 -69t67 -25h111q50 0 83 21t40 57l8 44q1 4 1 10q0 23 -18 39t-51 22l-177 30q-73 13 -111 47.5t-38 87.5q0 18 2 28l10 55q15 81 77.5 126.5t159.5 45.5h112q88 0 139.5 -44.5t51.5 -120.5
q0 -22 -4 -41h-114q2 16 2 24q0 36 -21 57.5t-58 21.5h-112q-47 0 -79 -20.5t-38 -55.5l-7 -36q-1 -4 -1 -12q0 -23 17 -38.5t49 -21.5l176 -32q74 -13 113.5 -47t39.5 -86q0 -7 -2 -25l-11 -65q-15 -83 -78 -128.5t-163 -45.5h-114q-94 0 -148.5 48z" />
    <glyph glyph-name="T" unicode="T" horiz-adv-x="597" 
d="M301 599h-222l18 101h561l-18 -101h-222l-105 -599h-117z" />
    <glyph glyph-name="U" unicode="U" horiz-adv-x="711" 
d="M114 45q-57 53 -57 141q0 21 5 51l81 463h117l-81 -461q-3 -18 -3 -36q0 -50 26 -79t72 -29h107q58 0 96.5 38t50.5 106l81 461h117l-82 -463q-20 -116 -90 -180.5t-177 -64.5h-107q-99 0 -156 53z" />
    <glyph glyph-name="V" unicode="V" horiz-adv-x="655" 
d="M216 58l-127 642h116l97 -554h2l294 554h126l-389 -700h-56q-51 0 -63 58z" />
    <glyph glyph-name="W" unicode="W" horiz-adv-x="866" 
d="M133 15.5q-19 15.5 -20 58.5l-12 626h115l-1 -533h1l243 496h44q21 0 35.5 -12t18.5 -42l57 -441h1l189 532h119l-234 -626q-14 -37 -36 -55.5t-57 -18.5h-48l-67 508h-2l-249 -508h-48q-30 0 -49 15.5z" />
    <glyph glyph-name="X" unicode="X" horiz-adv-x="631" 
d="M269 361l-176 339h126l128 -248l213 248h136l-296 -347l183 -353h-126l-135 262l-225 -262h-137z" />
    <glyph glyph-name="Y" unicode="Y" horiz-adv-x="642" 
d="M266 271l-183 429h120l133 -322l247 322h134l-334 -429l-48 -271h-116z" />
    <glyph glyph-name="Z" unicode="Z" horiz-adv-x="597" 
d="M-6 56l473 544h-359l17 100h523l-10 -56l-474 -544h368l-17 -100h-531z" />
    <glyph glyph-name="bracketleft" unicode="[" horiz-adv-x="336" 
d="M58.5 -170q-42.5 37 -42.5 104q0 22 4 41l102 578q15 85 71.5 133.5t141.5 48.5h58l-17 -100h-48q-36 0 -60 -21.5t-31 -59.5l-102 -580q-2 -14 -2 -20q0 -29 17 -44.5t47 -15.5h48l-18 -101h-48q-78 0 -120.5 37z" />
    <glyph glyph-name="backslash" unicode="\" horiz-adv-x="538" 
d="M110 722h110l243 -747h-110z" />
    <glyph glyph-name="bracketright" unicode="]" horiz-adv-x="336" 
d="M-34 -106h47q37 0 60.5 21t30.5 59l102 580q2 14 2 20q0 29 -17 45t-47 16h-48l18 100h48q77 0 119.5 -37.5t42.5 -103.5q0 -22 -4 -41l-101 -578q-16 -89 -71 -135.5t-143 -46.5h-57z" />
    <glyph glyph-name="asciicircum" unicode="^" horiz-adv-x="589" 
d="M322 700h104l136 -354h-116l-88 240l-173 -240h-124z" />
    <glyph glyph-name="underscore" unicode="_" horiz-adv-x="573" 
d="M-46 -9h573l-18 -100h-573z" />
    <glyph glyph-name="grave" unicode="`" horiz-adv-x="296" 
d="M126 743h124l63 -171h-105z" />
    <glyph glyph-name="a" unicode="a" horiz-adv-x="575" 
d="M68.5 24q-42.5 32 -42.5 85q0 8 2 24l6 37q12 66 61.5 102t125.5 36h62q30 0 65.5 -8t59.5 -21l10 62q2 10 2 15q0 25 -16.5 39.5t-44.5 14.5h-83q-34 0 -56.5 -15t-27.5 -41h-112q13 71 66.5 112t133.5 41h83q79 0 125.5 -36.5t46.5 -98.5q0 -14 -3 -31l-60 -341h-107
l12 63q-31 -33 -66 -52t-68 -19h-59q-73 0 -115.5 32zM256 82q39 0 75.5 22.5t55.5 59.5l5 24q-15 14 -44.5 22.5t-63.5 8.5h-63q-31 0 -51 -14.5t-24 -39.5l-6 -28q-1 -3 -1 -10q0 -20 16.5 -32.5t44.5 -12.5h56z" />
    <glyph glyph-name="b" unicode="b" horiz-adv-x="595" 
d="M188 12q-33 20 -50 52l-11 -64h-107l123 700h115l-43 -247q25 25 54.5 39.5t57.5 14.5h67q80 0 126 -41.5t46 -111.5q0 -22 -4 -41l-21 -119q-17 -95 -73 -148.5t-140 -53.5h-70q-37 0 -70 20zM321 93q41 0 69.5 29t37.5 78l19 106q2 9 2 25q0 35 -19 55t-52 20h-63
q-45 0 -80.5 -31t-48.5 -83l-17 -98q-2 -44 22.5 -72.5t63.5 -28.5h66z" />
    <glyph glyph-name="c" unicode="c" horiz-adv-x="552" 
d="M79 34.5q-50 42.5 -50 113.5q0 11 4 37l22 126q17 92 76 144t147 52h80q81 0 128.5 -39.5t47.5 -106.5q0 -16 -3 -34h-113q1 6 1 17q0 29 -17.5 46.5t-47.5 17.5h-79q-41 0 -69 -27.5t-37 -76.5l-20 -113q-2 -9 -2 -25q0 -35 19.5 -55t53.5 -20h79q39 0 65.5 25.5
t33.5 71.5h113q-16 -92 -73 -144t-142 -52h-83q-84 0 -134 42.5z" />
    <glyph glyph-name="d" unicode="d" horiz-adv-x="595" 
d="M74.5 33q-45.5 41 -45.5 112q0 22 4 41l20 116q17 96 76 150.5t148 54.5h60q37 0 67.5 -13.5t47.5 -37.5l44 244h114l-123 -700h-108l12 69q-27 -36 -62 -56.5t-69 -20.5h-61q-79 0 -124.5 41zM277 91q43 0 81 34.5t51 85.5l18 100q1 44 -21 70.5t-59 26.5h-63
q-45 0 -76.5 -30t-40.5 -82l-18 -103q-3 -15 -3 -27q0 -35 19 -55t53 -20h59z" />
    <glyph glyph-name="e" unicode="e" horiz-adv-x="569" 
d="M79 32.5q-50 40.5 -50 109.5q0 17 3 35l23 134q16 92 76.5 144t151.5 52h80q83 0 132 -43t49 -114q0 -16 -3 -36l-17 -101h-372l-6 -36q-1 -6 -1 -17q0 -33 20 -52t55 -19h78q42 0 69 19t33 52h112q-13 -79 -70.5 -123.5t-146.5 -44.5h-79q-87 0 -137 40.5zM426 299l2 13
q2 9 2 24q0 35 -19 55t-52 20h-82q-41 0 -70.5 -27.5t-38.5 -74.5l-2 -10h260z" />
    <glyph glyph-name="f" unicode="f" horiz-adv-x="372" 
d="M138 400h-86l17 99h86l7 35q15 84 69.5 127t145.5 43h60l-18 -98h-58q-35 0 -56 -16.5t-29 -56.5l-6 -34h120l-17 -99h-120l-71 -400h-115z" />
    <glyph glyph-name="g" unicode="g" horiz-adv-x="597" 
d="M58.5 -165.5q-45.5 37.5 -45.5 99.5q0 10 1 16h113q-1 -25 14.5 -40t42.5 -15h88q40 0 67 28t35 77l10 57q-26 -25 -55.5 -39.5t-54.5 -14.5h-69q-80 0 -127 42t-47 113q0 11 4 39l18 107q17 95 76 149t147 54h62q39 0 72.5 -16.5t49.5 -43.5l9 52h108l-88 -499
q-17 -96 -75.5 -149.5t-145.5 -53.5h-88q-76 0 -121.5 37.5zM287 101q42 0 77.5 34t48.5 88l16 87q3 43 -19 70.5t-60 27.5h-70q-44 0 -74.5 -30t-38.5 -81l-16 -93q-2 -9 -2 -26q0 -36 18 -56.5t50 -20.5h70z" />
    <glyph glyph-name="h" unicode="h" horiz-adv-x="593" 
d="M143 700h115l-45 -257q28 30 61.5 47t64.5 17h58q72 0 113 -38t41 -103q0 -17 -3 -37l-57 -329h-115l57 326q2 14 2 21q0 27 -14.5 43.5t-39.5 16.5h-64q-39 0 -75.5 -29t-53.5 -76l-53 -302h-115z" />
    <glyph glyph-name="i" unicode="i" horiz-adv-x="279" 
d="M147.5 571q-17.5 16 -17.5 42q0 39 24 63.5t64 24.5q29 0 46.5 -16t17.5 -42q0 -39 -24 -63.5t-64 -24.5q-29 0 -46.5 16zM126 499h115l-88 -499h-115z" />
    <glyph glyph-name="j" unicode="j" horiz-adv-x="289" 
d="M157.5 571q-17.5 16 -17.5 42q0 39 24 63.5t64 24.5q29 0 46.5 -16t17.5 -42q0 -39 -24 -63.5t-64 -24.5q-29 0 -46.5 16zM-102 -100h53q41 0 64 24.5t33 79.5l88 495h114l-86 -490q-20 -112 -73.5 -160t-156.5 -48h-53z" />
    <glyph glyph-name="k" unicode="k" horiz-adv-x="540" 
d="M318 286l176 -286h-126l-134 215l-72 -61l-27 -154h-115l123 700h115l-72 -409l245 208h140z" />
    <glyph glyph-name="l" unicode="l" horiz-adv-x="287" 
d="M76 25q-34 25 -34 80q0 22 4 43l97 552h115l-97 -547q-2 -12 -2 -18q0 -18 10.5 -27t34.5 -9h48l-17 -99h-54q-71 0 -105 25z" />
    <glyph glyph-name="m" unicode="m" horiz-adv-x="844" 
d="M765 470.5q39 -36.5 39 -99.5q0 -17 -3 -37l-59 -334h-115l60 335q2 12 2 18q0 25 -12 39.5t-33 14.5h-48q-32 0 -60 -24t-41 -63l-57 -320h-114l58 332q2 16 2 22q0 24 -11.5 38.5t-31.5 14.5h-45q-33 0 -63 -29.5t-45 -76.5l-53 -301h-115l88 499h107l-11 -63
q24 32 55 51.5t57 19.5h55q39 0 68 -19.5t42 -54.5q26 35 58 54.5t65 19.5h54q68 0 107 -36.5z" />
    <glyph glyph-name="n" unicode="n" horiz-adv-x="591" 
d="M108 499h107l-11 -65q29 34 64.5 53.5t68.5 19.5h59q71 0 112 -38t41 -102q0 -18 -3 -38l-57 -329h-115l57 326q2 14 2 21q0 27 -14.5 43.5t-39.5 16.5h-62q-39 0 -75.5 -29.5t-53.5 -75.5l-53 -302h-115z" />
    <glyph glyph-name="o" unicode="o" horiz-adv-x="586" 
d="M80.5 35.5q-50.5 43.5 -50.5 115.5q0 18 3 36l22 124q17 92 77 144t150 52h87q87 0 137.5 -43t50.5 -115q0 -12 -4 -38l-22 -124q-17 -92 -76.5 -143.5t-151.5 -51.5h-87q-85 0 -135.5 43.5zM306 91q43 0 73 28t38 75l20 111q2 8 2 24q0 36 -20.5 57.5t-55.5 21.5h-84
q-44 0 -73 -27t-37 -76l-20 -111q-2 -9 -2 -25q0 -36 20 -57t55 -21h84z" />
    <glyph glyph-name="p" unicode="p" horiz-adv-x="595" 
d="M108 499h107l-10 -59q27 32 59 49.5t61 17.5h64q82 0 130 -41.5t48 -110.5q0 -13 -4 -39l-21 -116q-17 -98 -74.5 -153t-142.5 -55h-68q-35 0 -66 14.5t-48 38.5l-43 -245h-115zM316 91q44 0 73.5 30.5t39.5 85.5l18 102q2 16 2 22q0 36 -20 56.5t-56 20.5h-63
q-33 0 -66.5 -26t-53.5 -69l-20 -116q-4 -48 19 -77t64 -29h63z" />
    <glyph glyph-name="q" unicode="q" horiz-adv-x="595" 
d="M381 48q-24 -26 -53.5 -41t-54.5 -15h-70q-80 0 -126.5 42t-46.5 114q0 20 3 39l21 117q17 96 75.5 149.5t146.5 53.5h68q37 0 69 -16.5t46 -43.5l9 52h107l-123 -700h-115zM285 91q42 0 77 33.5t49 88.5l17 97q4 44 -18 71t-61 27h-70q-44 0 -73.5 -29t-38.5 -82
l-18 -103q-2 -9 -2 -26q0 -35 18.5 -56t50.5 -21h69z" />
    <glyph glyph-name="r" unicode="r" horiz-adv-x="374" 
d="M108 499h107l-12 -68q27 32 65 51t78 19h64l-18 -100h-60q-57 0 -98 -35t-51 -91l-48 -275h-115z" />
    <glyph glyph-name="s" unicode="s" horiz-adv-x="539" 
d="M67 29.5q-47 37.5 -47 101.5q0 14 3 29h113q-1 -5 -1 -14q0 -26 17 -41.5t48 -15.5h89q35 0 55.5 11t24.5 32l5 22q2 13 -7.5 23.5t-28.5 14.5l-168 30q-51 10 -79.5 37t-28.5 64q0 5 2 17l6 33q11 63 63 98.5t134 35.5h80q77 0 121 -35t44 -94q0 -18 -2 -27h-113
q1 4 1 12q0 22 -14.5 34.5t-40.5 12.5h-79q-33 0 -54.5 -11t-25.5 -31l-4 -20q-2 -13 7 -23.5t29 -13.5l173 -32q48 -10 75 -37t27 -63q0 -10 -1 -15l-7 -37q-11 -64 -63 -99.5t-135 -35.5h-89q-82 0 -129 37.5z" />
    <glyph glyph-name="t" unicode="t" horiz-adv-x="401" 
d="M126 27q-34 27 -34 84q0 24 4 47l43 242h-88l17 99h91l27 151h112l-27 -151h129l-17 -99h-129l-43 -238q-2 -16 -2 -21q0 -22 11 -32t35 -10h75l-18 -99h-81q-71 0 -105 27z" />
    <glyph glyph-name="u" unicode="u" horiz-adv-x="589" 
d="M83 31.5q-41 39.5 -41 105.5q0 22 4 41l56 321h115l-57 -323q-2 -16 -2 -22q0 -29 14.5 -45.5t40.5 -16.5h59q39 0 74 30t56 80l52 297h115l-88 -499h-108l12 68q-30 -34 -64.5 -55t-63.5 -21h-63q-70 0 -111 39.5z" />
    <glyph glyph-name="v" unicode="v" horiz-adv-x="512" 
d="M165.5 14.5q-15.5 14.5 -22.5 45.5l-95 439h115l66 -369h1l196 369h126l-287 -499h-58q-26 0 -41.5 14.5z" />
    <glyph glyph-name="w" unicode="w" horiz-adv-x="740" 
d="M764 499l-177 -428q-16 -37 -38 -54t-52 -17h-53l-56 336l-179 -336h-52q-61 0 -65 71l-28 428h117l10 -353l179 340h44q39 0 45 -38l50 -301l134 352h121z" />
    <glyph glyph-name="x" unicode="x" horiz-adv-x="518" 
d="M194 254l-139 245h125l91 -161l148 161h132l-225 -246l144 -253h-125l-96 170l-157 -170h-132z" />
    <glyph glyph-name="y" unicode="y" horiz-adv-x="589" 
d="M58.5 -165.5q-45.5 37.5 -45.5 99.5q0 10 1 16h113q-1 -25 14.5 -40t42.5 -15h81q39 0 66.5 28t35.5 77l13 74q-27 -32 -61 -51.5t-61 -19.5h-63q-71 0 -111.5 39t-40.5 105q0 12 4 40l55 312h115l-55 -314q-2 -16 -2 -22q0 -29 14.5 -45.5t40.5 -16.5h59q38 0 74 30.5
t55 79.5l52 288h114l-88 -499q-16 -96 -74.5 -149.5t-145.5 -53.5h-81q-76 0 -121.5 37.5z" />
    <glyph glyph-name="z" unicode="z" horiz-adv-x="491" 
d="M-10 56l337 346h-264l17 97h431l-10 -56l-337 -346h271l-17 -97h-438z" />
    <glyph glyph-name="braceleft" unicode="{" horiz-adv-x="389" 
d="M110 -195.5q-40 35.5 -40 100.5q0 22 4 42l31 174q2 14 2 19q0 30 -18.5 48t-51.5 20l16 88q40 3 65.5 26t32.5 61l31 174q15 84 70.5 131t140.5 47h57l-17 -100h-50q-34 0 -57 -21.5t-30 -60.5l-30 -170q-8 -41 -32.5 -75.5t-62.5 -55.5q25 -18 38 -45t13 -59
q0 -18 -2 -27l-30 -170q-2 -16 -2 -22q0 -29 15.5 -44.5t44.5 -15.5h49l-17 -100h-57q-73 0 -113 35.5z" />
    <glyph glyph-name="bar" unicode="|" horiz-adv-x="263" 
d="M179 847h115l-175 -994h-115z" />
    <glyph glyph-name="braceright" unicode="}" horiz-adv-x="389" 
d="M-42 -131h49q34 0 57 22t30 60l30 170q8 40 32.5 74.5t62.5 56.5q-25 18 -38.5 44t-13.5 58q0 14 3 29l31 170q2 14 2 21q0 29 -16 45t-45 16h-49l17 100h56q73 0 113 -35.5t40 -100.5q0 -22 -4 -42l-30 -174q-2 -14 -2 -19q0 -30 18.5 -48t50.5 -20l-15 -88
q-39 -3 -65 -26t-33 -61l-31 -174q-15 -84 -71 -131t-141 -47h-56z" />
    <glyph glyph-name="asciitilde" unicode="~" horiz-adv-x="618" 
d="M341.5 236q-28.5 19 -58.5 52q-19 20 -30.5 29t-23.5 9h-15q-23 0 -41 -25.5t-27 -69.5h-105q17 91 64 143t113 52h15q39 0 64 -17t55 -49q19 -22 32.5 -32.5t29.5 -10.5h14q23 0 42 26t29 71h104q-17 -92 -64.5 -144.5t-114.5 -52.5h-14q-40 0 -68.5 19z" />
    <glyph glyph-name="uni00A0" unicode="&#xa0;" horiz-adv-x="279" 
 />
    <glyph glyph-name="exclamdown" unicode="&#xa1;" horiz-adv-x="286" 
d="M232 491q17 -16 17 -42q0 -39 -23.5 -63t-62.5 -24q-27 0 -44 16t-17 41q0 40 23.5 64t62.5 24q27 0 44 -16zM121 -203h-116l88 497h116z" />
    <glyph glyph-name="cent" unicode="&#xa2;" horiz-adv-x="552" 
d="M418 327q1 6 1 17q0 29 -17.5 46.5t-47.5 17.5h-79q-41 0 -69 -27.5t-37 -76.5l-20 -113q-2 -9 -2 -25q0 -35 19.5 -55t53.5 -20h79q39 0 65.5 25.5t33.5 71.5h113q-16 -92 -73 -144t-142 -52l-18 -102h-115l18 104q-70 8 -110.5 49t-40.5 105q0 18 3 37l22 126
q16 91 73.5 142.5t143.5 53.5l17 100h115l-17 -101q70 -7 108.5 -45.5t38.5 -99.5q0 -16 -3 -34h-113z" />
    <glyph glyph-name="sterling" unicode="&#xa3;" horiz-adv-x="668" 
d="M562 502q2 16 2 24q0 37 -19 58.5t-53 21.5h-86q-43 0 -72.5 -29.5t-39.5 -82.5l-22 -125h216l-18 -101h-216l-29 -166h379l-18 -102h-586l18 102h90l29 166h-86l17 101h87l22 125q18 101 80 157.5t154 56.5h86q84 0 134 -45t50 -121q0 -12 -4 -40h-115z" />
    <glyph glyph-name="currency" unicode="&#xa4;" horiz-adv-x="681" 
d="M20 111l77 65q-24 45 -24 108q0 55 22 113t58 99l-53 65l80 71l59 -69q34 19 77 29.5t86 10.5q42 0 82 -11t69 -30l83 70l56 -72l-79 -65q24 -43 24 -105q0 -56 -22 -113.5t-58 -98.5l56 -67l-81 -68l-58 68q-36 -20 -80.5 -31t-86.5 -11q-41 0 -80.5 11t-68.5 30
l-81 -67zM427.5 197q44.5 26 69 73t24.5 107t-36 92.5t-102 32.5q-56 0 -100.5 -26.5t-69 -73.5t-24.5 -107q0 -59 35.5 -91.5t101.5 -32.5q57 0 101.5 26z" />
    <glyph glyph-name="yen" unicode="&#xa5;" horiz-adv-x="642" 
d="M442 347h132l-16 -90h-177l-12 -64h178l-16 -91h-178l-18 -102h-116l18 102h-174l16 91h173l12 64h-174l16 90h128l-151 353h120l133 -322l247 322h134z" />
    <glyph glyph-name="brokenbar" unicode="&#xa6;" horiz-adv-x="263" 
d="M179 847h115l-72 -412h-115zM77 265h115l-73 -412h-115z" />
    <glyph glyph-name="section" unicode="&#xa7;" horiz-adv-x="577" 
d="M452 562q1 4 1 12q0 22 -14.5 34.5t-39.5 12.5h-86q-30 0 -49.5 -12t-23.5 -32l-3 -18q-6 -31 39 -44l173 -49q48 -14 75 -40.5t27 -60.5q0 -10 -1 -15l-5 -31q-7 -34 -33 -60t-64 -40q22 -11 33.5 -29.5t11.5 -40.5q0 -8 -1 -13l-7 -38q-10 -61 -63 -96t-133 -35h-81
q-74 0 -118.5 35t-44.5 94q0 18 2 27h113q-1 -4 -1 -12q0 -22 14.5 -34.5t39.5 -12.5h85q30 0 50 11.5t24 31.5l4 21q2 13 -8 24.5t-30 16.5l-178 49q-49 14 -76 40.5t-27 60.5q0 5 2 17l7 35q7 35 32 60t62 38q-19 11 -30 28.5t-11 38.5q0 8 1 12l7 38q11 61 63 96.5
t133 35.5h80q76 0 120 -35t44 -94q0 -18 -2 -27h-113zM200.5 406.5q-16.5 -13.5 -19.5 -32.5l-4 -25q-2 -15 7 -27t27 -17l147 -41q29 4 48 16.5t22 31.5l4 25q2 14 -7 25.5t-27 16.5l-156 45q-25 -4 -41.5 -17.5z" />
    <glyph glyph-name="dieresis" unicode="&#xa8;" horiz-adv-x="436" 
d="M119.5 587q-14.5 14 -14.5 37q0 35 21 56t56 21q24 0 39 -14t15 -37q0 -34 -21.5 -55.5t-55.5 -21.5q-25 0 -39.5 14zM352 587q-15 14 -15 37q0 35 21.5 56t55.5 21q25 0 39.5 -14t14.5 -37q0 -34 -21 -55.5t-56 -21.5q-24 0 -39 14z" />
    <glyph glyph-name="copyright" unicode="&#xa9;" horiz-adv-x="751" 
d="M200 52.5q-64 33.5 -99 94t-35 138.5q0 116 46.5 205.5t131 139t195.5 49.5q84 0 148 -33t99 -92.5t35 -137.5q0 -118 -46.5 -208t-131.5 -139.5t-196 -49.5q-83 0 -147 33.5zM503 131q67 39 104 110.5t37 164.5q0 59 -25.5 104.5t-72 70.5t-107.5 25q-88 0 -155 -39
t-104 -110.5t-37 -164.5q0 -59 25.5 -104.5t72 -70.5t107.5 -25q88 0 155 39zM258.5 194.5q-31.5 29.5 -31.5 79.5q0 18 2 28l17 99q12 65 50 100.5t96 35.5h55q54 0 84.5 -27.5t30.5 -75.5q0 -8 -2 -26h-87q1 5 1 15q0 18 -9 28.5t-25 10.5h-47q-23 0 -38.5 -16.5
t-19.5 -46.5l-17 -95q-1 -6 -1 -17q0 -22 9 -34.5t26 -12.5h47q21 0 36 16.5t20 45.5h87q-11 -64 -49 -100.5t-92 -36.5h-55q-56 0 -87.5 29.5z" />
    <glyph glyph-name="ordfeminine" unicode="&#xaa;" horiz-adv-x="435" 
d="M111.5 365q-28.5 22 -28.5 58q0 6 2 18l4 26q8 45 45.5 71.5t94.5 26.5h42q18 0 36 -4.5t30 -13.5l8 42q3 17 -6.5 27.5t-28.5 10.5h-47q-19 0 -31.5 -8t-14.5 -21h-95q8 49 47.5 78.5t97.5 29.5h59q54 0 85 -25t31 -68q0 -16 -2 -24l-42 -240h-90l7 39
q-19 -20 -43.5 -32.5t-43.5 -12.5h-40q-48 0 -76.5 22zM247 416q23 0 44 13.5t32 35.5l2 14q-8 7 -25.5 11.5t-36.5 4.5h-32q-19 0 -31.5 -8t-14.5 -22l-4 -19q-2 -13 8 -21.5t28 -8.5h30z" />
    <glyph glyph-name="guillemotleft" unicode="&#xab;" horiz-adv-x="639" 
d="M27 268l360 264l-23 -131l-193 -140l143 -142l-20 -115zM284 268l360 264l-23 -131l-192 -140l143 -142l-21 -115z" />
    <glyph glyph-name="logicalnot" unicode="&#xac;" horiz-adv-x="664" 
d="M523 345h-462l18 100h576l-54 -305h-115z" />
    <glyph glyph-name="uni00AD" unicode="&#xad;" horiz-adv-x="396" 
d="M54 306h308l-18 -100h-308z" />
    <glyph glyph-name="registered" unicode="&#xae;" horiz-adv-x="751" 
d="M200 52.5q-64 33.5 -99 94t-35 138.5q0 116 46.5 205.5t131 139t195.5 49.5q84 0 148 -33t99 -92.5t35 -137.5q0 -118 -46.5 -208t-131.5 -139.5t-196 -49.5q-83 0 -147 33.5zM503 131q67 39 104 110.5t37 164.5q0 59 -25.5 104.5t-72 70.5t-107.5 25q-88 0 -155 -39
t-104 -110.5t-37 -164.5q0 -59 25.5 -104.5t72 -70.5t107.5 -25q88 0 155 39zM278 532h171q47 0 74 -20.5t27 -54.5q0 -10 -1 -15l-6 -37q-5 -27 -25 -47t-51 -30v-1q15 -10 22 -23.5t11 -41.5l13 -92h-89l-12 88q-3 22 -13 30t-30 8h-46l-23 -126h-86zM403 368q23 0 37 9.5
t17 27.5l4 25q2 13 -6.5 21t-24.5 8h-78l-17 -91h68z" />
    <glyph glyph-name="macron" unicode="&#xaf;" horiz-adv-x="374" 
d="M113 673h298l-15 -88h-299z" />
    <glyph glyph-name="degree" unicode="&#xb0;" horiz-adv-x="374" 
d="M132.5 456.5q-34.5 31.5 -34.5 82.5q0 77 45 123t121 46q55 0 89 -32t34 -83q0 -76 -45 -122t-120 -46q-55 0 -89.5 31.5zM289.5 521q21.5 23 21.5 61q0 23 -15.5 38t-40.5 15q-37 0 -58.5 -22.5t-21.5 -60.5q0 -24 15 -39t41 -15q37 0 58.5 23z" />
    <glyph glyph-name="plusminus" unicode="&#xb1;" horiz-adv-x="573" 
d="M243 328h-185l17 99h186l31 177h115l-32 -177h186l-18 -99h-185l-31 -174h-114zM18 99h485l-18 -99h-485z" />
    <glyph glyph-name="uni00B2" unicode="&#xb2;" horiz-adv-x="371" 
d="M55 348q14 75 73 109l137 80q16 10 24 19.5t10 22.5l3 18q2 13 -6 21t-23 8h-38q-19 0 -32.5 -13.5t-17.5 -36.5h-92q10 60 47 94.5t90 34.5h56q51 0 80.5 -23.5t29.5 -62.5q0 -5 -2 -19l-3 -20q-12 -60 -67 -92l-133 -76q-19 -10 -28.5 -21t-12.5 -26h204l-14 -76h-295z
" />
    <glyph glyph-name="uni00B3" unicode="&#xb3;" horiz-adv-x="388" 
d="M374 680.5q31 -24.5 31 -65.5q0 -6 -2 -20l-4 -18q-10 -54 -61 -77q43 -19 43 -64q0 -9 -1 -14l-3 -20q-10 -56 -46.5 -87t-94.5 -31h-57q-55 0 -87 28t-32 76q0 8 2 24h91q-1 -4 -1 -13q0 -17 10 -27.5t28 -10.5h42q22 0 36 11.5t17 31.5l2 17q3 19 -8 30.5t-33 11.5
h-63l14 72h67q16 0 28 11.5t15 30.5l3 17q2 15 -6.5 24.5t-24.5 9.5h-44q-19 0 -32.5 -13.5t-17.5 -37.5h-90q10 60 47 94t90 34h58q53 0 84 -24.5z" />
    <glyph glyph-name="acute" unicode="&#xb4;" horiz-adv-x="296" 
d="M216 743h131l-142 -171h-112z" />
    <glyph glyph-name="paragraph" unicode="&#xb6;" horiz-adv-x="597" 
d="M602 700l-123 -700h-108l55 308h-65l-54 -308h-107l54 308h-15q-69 0 -108.5 35.5t-39.5 96.5q0 18 3 36l10 55q14 80 67.5 124.5t135.5 44.5h295z" />
    <glyph glyph-name="periodcentered" unicode="&#xb7;" horiz-adv-x="233" 
d="M61 198q-17 16 -17 42q0 39 23.5 63t62.5 24q28 0 44.5 -15.5t16.5 -41.5q0 -40 -23 -64t-62 -24q-28 0 -45 16z" />
    <glyph glyph-name="cedilla" unicode="&#xb8;" horiz-adv-x="281" 
d="M-36 -170h75q19 0 32 7t16 19l2 14q2 11 -6.5 18t-25.5 7h-60l9 49l49 82h87l-47 -75h7q35 0 55 -17t20 -48q0 -10 -1 -15l-2 -17q-7 -45 -41.5 -70t-89.5 -25h-91z" />
    <glyph glyph-name="uni00B9" unicode="&#xb9;" horiz-adv-x="256" 
d="M175 605l-103 -48l15 84l120 59h78l-72 -411h-94z" />
    <glyph glyph-name="ordmasculine" unicode="&#xba;" horiz-adv-x="447" 
d="M121.5 373q-35.5 30 -35.5 81q0 12 3 27l15 87q12 65 54 101.5t105 36.5h62q62 0 97 -30.5t35 -81.5q0 -17 -2 -26l-15 -87q-11 -65 -53.5 -101.5t-106.5 -36.5h-62q-61 0 -96.5 30zM280 424q24 0 41 16t22 44l14 80q2 10 2 16q0 20 -11.5 32.5t-30.5 12.5h-54
q-24 0 -40.5 -16t-21.5 -45l-14 -80q-2 -12 -2 -16q0 -20 11 -32t30 -12h54z" />
    <glyph glyph-name="guillemotright" unicode="&#xbb;" horiz-adv-x="639" 
d="M23 132l193 142l-143 140l21 118l266 -264l-360 -264zM280 132l193 142l-143 140l21 118l267 -264l-360 -264z" />
    <glyph glyph-name="onequarter" unicode="&#xbc;" horiz-adv-x="809" 
d="M201 605l-103 -48l15 84l120 59h78l-72 -411h-94zM609 722h111l-514 -747h-111zM595 78h-154q-21 0 -31.5 9t-7.5 27l7 41l242 256h94l-44 -253h47l-14 -80h-46l-13 -78h-94zM617 152l28 157h-2l-147 -157h121z" />
    <glyph glyph-name="onehalf" unicode="&#xbd;" horiz-adv-x="843" 
d="M201 605l-103 -48l15 84l120 59h78l-72 -411h-94zM468 59q14 75 73 109l137 80q16 10 24 19.5t10 22.5l3 18q2 13 -6 21t-23 8h-38q-19 0 -32.5 -13.5t-17.5 -36.5h-92q10 60 47 94.5t90 34.5h56q51 0 80.5 -23.5t29.5 -62.5q0 -5 -2 -19l-3 -20q-12 -60 -67 -92
l-133 -76q-19 -10 -28.5 -21t-12.5 -26h204l-14 -76h-295zM606 722h111l-514 -747h-111z" />
    <glyph glyph-name="threequarters" unicode="&#xbe;" horiz-adv-x="887" 
d="M384 680.5q31 -24.5 31 -65.5q0 -6 -2 -20l-4 -18q-10 -54 -61 -77q43 -19 43 -64q0 -9 -1 -14l-3 -20q-10 -56 -46.5 -87t-94.5 -31h-57q-55 0 -87 28t-32 76q0 8 2 24h91q-1 -4 -1 -13q0 -17 10 -27.5t28 -10.5h42q22 0 36 11.5t17 31.5l2 17q3 19 -8 30.5t-33 11.5
h-63l14 72h67q16 0 28 11.5t15 30.5l3 17q2 15 -6.5 24.5t-24.5 9.5h-44q-19 0 -32.5 -13.5t-17.5 -37.5h-90q10 60 47 94t90 34h58q53 0 84 -24.5zM674 78h-154q-21 0 -31.5 9t-7.5 27l7 41l242 256h94l-44 -253h47l-14 -80h-46l-13 -78h-94zM696 152l28 157h-2l-147 -157
h121zM692 722h111l-514 -747h-111z" />
    <glyph glyph-name="questiondown" unicode="&#xbf;" horiz-adv-x="582" 
d="M383.5 491q16.5 -16 16.5 -42q0 -39 -23.5 -63t-63.5 -24q-27 0 -44 16t-17 41q0 40 24 64t63 24q28 0 44.5 -16zM357 274q-7 -43 -28.5 -73.5t-47.5 -50t-67 -44.5q-45 -27 -68.5 -48t-28.5 -52l-6 -36q-1 -5 -1 -14q0 -29 21 -47t57 -18h86q46 0 77.5 28.5t40.5 77.5
h116q-17 -97 -81 -152.5t-158 -55.5h-86q-88 0 -140 41t-52 109q0 14 3 31l6 36q7 42 27 71t44 47.5t62 40.5q48 29 74 53t34 64l5 25h117z" />
    <glyph glyph-name="Agrave" unicode="&#xc0;" horiz-adv-x="670" 
d="M465 173h-278l-95 -173h-126l395 700h53q55 0 66 -53l136 -647h-117zM237 271h213l-55 284h-1zM292 944h124l63 -171h-105z" />
    <glyph glyph-name="Aacute" unicode="&#xc1;" horiz-adv-x="670" 
d="M465 173h-278l-95 -173h-126l395 700h53q55 0 66 -53l136 -647h-117zM237 271h213l-55 284h-1zM493 944h131l-142 -171h-112z" />
    <glyph glyph-name="Acircumflex" unicode="&#xc2;" horiz-adv-x="670" 
d="M465 173h-278l-95 -173h-126l395 700h53q55 0 66 -53l136 -647h-117zM237 271h213l-55 284h-1zM419 951h78l110 -178h-100l-59 102l-96 -102h-106z" />
    <glyph glyph-name="Atilde" unicode="&#xc3;" horiz-adv-x="670" 
d="M465 173h-278l-95 -173h-126l395 700h53q55 0 66 -53l136 -647h-117zM237 271h213l-55 284h-1zM457.5 775q-16.5 10 -36.5 29q-13 12 -22 18t-18 6h-8q-14 0 -25 -14t-16 -38h-84q11 62 44.5 97.5t82.5 35.5h7q24 0 42 -11t38 -30q12 -11 20 -16.5t15 -5.5h8
q13 0 23.5 14t15.5 38h84q-12 -63 -44.5 -98t-79.5 -35h-7q-23 0 -39.5 10z" />
    <glyph glyph-name="Adieresis" unicode="&#xc4;" horiz-adv-x="670" 
d="M465 173h-278l-95 -173h-126l395 700h53q55 0 66 -53l136 -647h-117zM237 271h213l-55 284h-1zM271.5 788q-14.5 14 -14.5 37q0 35 21 56t56 21q24 0 39 -14t15 -37q0 -34 -21.5 -55.5t-55.5 -21.5q-25 0 -39.5 14zM504 788q-15 14 -15 37q0 35 21.5 56t55.5 21
q25 0 39.5 -14t14.5 -37q0 -34 -21 -55.5t-56 -21.5q-24 0 -39 14z" />
    <glyph glyph-name="Aring" unicode="&#xc5;" horiz-adv-x="670" 
d="M465 173h-278l-95 -173h-126l395 700h53q55 0 66 -53l136 -647h-117zM237 271h213l-55 284h-1zM350.5 772.5q-27.5 26.5 -27.5 69.5q0 60 37.5 96.5t99.5 36.5q46 0 74 -26.5t28 -69.5q0 -59 -38 -96t-100 -37q-46 0 -73.5 26.5zM475.5 829q15.5 16 15.5 42q0 17 -11 27
t-29 10q-26 0 -42 -15.5t-16 -41.5q0 -17 11 -27.5t30 -10.5q26 0 41.5 16z" />
    <glyph glyph-name="AE" unicode="&#xc6;" horiz-adv-x="949" 
d="M587 599l-33 -190h346l-18 -102h-346l-36 -206h385l-18 -101h-411q-35 0 -54.5 18t-19.5 49q0 6 2 18l16 90h-202l-126 -175h-120l508 700h530l-17 -101h-386zM478 572l-212 -297h160z" />
    <glyph glyph-name="Ccedilla" unicode="&#xc7;" horiz-adv-x="679" 
d="M569 463q3 18 3 34q0 50 -28 79t-76 29h-105q-64 0 -107.5 -43.5t-56.5 -119.5l-33 -184q-4 -20 -4 -42q0 -56 28.5 -88.5t78.5 -32.5h107q60 0 102.5 42.5t55.5 115.5h115q-22 -122 -96 -191.5t-181 -69.5h-26l-26 -41h8q35 0 55 -17t20 -48q0 -10 -1 -15l-3 -17
q-7 -45 -41 -70t-89 -25h-92l12 71h75q20 0 33 7t15 19l3 14q2 11 -6.5 18t-25.5 7h-60l9 49l29 48q-101 1 -159 56.5t-58 148.5q0 32 5 57l34 192q21 124 96 193t188 69h105q101 0 159 -52.5t58 -141.5q0 -21 -5 -51h-115z" />
    <glyph glyph-name="Egrave" unicode="&#xc8;" horiz-adv-x="619" 
d="M56.5 18q-19.5 18 -19.5 49q0 6 2 18l109 615h512l-18 -101h-395l-34 -190h365l-18 -102h-365l-36 -206h395l-18 -101h-426q-34 0 -53.5 18zM286 944h124l63 -171h-105z" />
    <glyph glyph-name="Eacute" unicode="&#xc9;" horiz-adv-x="619" 
d="M56.5 18q-19.5 18 -19.5 49q0 6 2 18l109 615h512l-18 -101h-395l-34 -190h365l-18 -102h-365l-36 -206h395l-18 -101h-426q-34 0 -53.5 18zM487 944h131l-142 -171h-112z" />
    <glyph glyph-name="Ecircumflex" unicode="&#xca;" horiz-adv-x="619" 
d="M56.5 18q-19.5 18 -19.5 49q0 6 2 18l109 615h512l-18 -101h-395l-34 -190h365l-18 -102h-365l-36 -206h395l-18 -101h-426q-34 0 -53.5 18zM413 951h78l110 -178h-100l-59 102l-96 -102h-106z" />
    <glyph glyph-name="Edieresis" unicode="&#xcb;" horiz-adv-x="619" 
d="M56.5 18q-19.5 18 -19.5 49q0 6 2 18l109 615h512l-18 -101h-395l-34 -190h365l-18 -102h-365l-36 -206h395l-18 -101h-426q-34 0 -53.5 18zM265.5 788q-14.5 14 -14.5 37q0 35 21 56t56 21q24 0 39 -14t15 -37q0 -34 -21.5 -55.5t-55.5 -21.5q-25 0 -39.5 14zM498 788
q-15 14 -15 37q0 35 21.5 56t55.5 21q25 0 39.5 -14t14.5 -37q0 -34 -21 -55.5t-56 -21.5q-24 0 -39 14z" />
    <glyph glyph-name="Igrave" unicode="&#xcc;" horiz-adv-x="273" 
d="M157 700h117l-123 -700h-117zM93 944h124l63 -171h-105z" />
    <glyph glyph-name="Iacute" unicode="&#xcd;" horiz-adv-x="273" 
d="M157 700h117l-123 -700h-117zM294 944h131l-142 -171h-112z" />
    <glyph glyph-name="Icircumflex" unicode="&#xce;" horiz-adv-x="273" 
d="M157 700h117l-123 -700h-117zM220 951h78l110 -178h-100l-59 102l-96 -102h-106z" />
    <glyph glyph-name="Idieresis" unicode="&#xcf;" horiz-adv-x="273" 
d="M157 700h117l-123 -700h-117zM72.5 788q-14.5 14 -14.5 37q0 35 21 56t56 21q24 0 39 -14t15 -37q0 -34 -21.5 -55.5t-55.5 -21.5q-25 0 -39.5 14zM305 788q-15 14 -15 37q0 35 21.5 56t55.5 21q25 0 39.5 -14t14.5 -37q0 -34 -21 -55.5t-56 -21.5q-24 0 -39 14z" />
    <glyph glyph-name="Eth" unicode="&#xd0;" horiz-adv-x="744" 
d="M678 647.5q62 -52.5 62 -141.5q0 -24 -4 -44l-35 -204q-22 -127 -95 -192.5t-195 -65.5h-250q-34 0 -53.5 17.5t-19.5 48.5q0 6 2 18l38 214h-96l18 102h96l53 300h308q109 0 171 -52.5zM622 488q0 51 -32.5 80t-90.5 29h-202l-35 -197h211l-18 -102h-211l-34 -195h203
q71 0 114 40.5t57 118.5l35 196q3 17 3 30z" />
    <glyph glyph-name="Ntilde" unicode="&#xd1;" horiz-adv-x="709" 
d="M147 700h100l269 -512l90 512h114l-123 -700h-100l-269 511l-90 -511h-114zM476.5 775q-16.5 10 -36.5 29q-13 12 -22 18t-18 6h-8q-14 0 -25 -14t-16 -38h-84q11 62 44.5 97.5t82.5 35.5h7q24 0 42 -11t38 -30q12 -11 20 -16.5t15 -5.5h8q13 0 23.5 14t15.5 38h84
q-12 -63 -44.5 -98t-79.5 -35h-7q-23 0 -39.5 10z" />
    <glyph glyph-name="Ograve" unicode="&#xd2;" horiz-adv-x="715" 
d="M105.5 49q-61.5 57 -61.5 152q0 23 5 53l34 192q22 124 97 193t191 69h106q107 0 168.5 -56t61.5 -151q0 -23 -5 -55l-34 -192q-22 -124 -97.5 -193t-192.5 -69h-107q-104 0 -165.5 57zM382 95q66 0 111 43t59 120l32 184q4 19 4 41q0 56 -31 89t-85 33h-105
q-65 0 -110 -43.5t-58 -119.5l-33 -184q-4 -28 -4 -39q0 -57 31 -90.5t84 -33.5h105zM315 944h124l63 -171h-105z" />
    <glyph glyph-name="Oacute" unicode="&#xd3;" horiz-adv-x="715" 
d="M105.5 49q-61.5 57 -61.5 152q0 23 5 53l34 192q22 124 97 193t191 69h106q107 0 168.5 -56t61.5 -151q0 -23 -5 -55l-34 -192q-22 -124 -97.5 -193t-192.5 -69h-107q-104 0 -165.5 57zM382 95q66 0 111 43t59 120l32 184q4 19 4 41q0 56 -31 89t-85 33h-105
q-65 0 -110 -43.5t-58 -119.5l-33 -184q-4 -28 -4 -39q0 -57 31 -90.5t84 -33.5h105zM516 944h131l-142 -171h-112z" />
    <glyph glyph-name="Ocircumflex" unicode="&#xd4;" horiz-adv-x="715" 
d="M105.5 49q-61.5 57 -61.5 152q0 23 5 53l34 192q22 124 97 193t191 69h106q107 0 168.5 -56t61.5 -151q0 -23 -5 -55l-34 -192q-22 -124 -97.5 -193t-192.5 -69h-107q-104 0 -165.5 57zM382 95q66 0 111 43t59 120l32 184q4 19 4 41q0 56 -31 89t-85 33h-105
q-65 0 -110 -43.5t-58 -119.5l-33 -184q-4 -28 -4 -39q0 -57 31 -90.5t84 -33.5h105zM442 951h78l110 -178h-100l-59 102l-96 -102h-106z" />
    <glyph glyph-name="Otilde" unicode="&#xd5;" horiz-adv-x="715" 
d="M105.5 49q-61.5 57 -61.5 152q0 23 5 53l34 192q22 124 97 193t191 69h106q107 0 168.5 -56t61.5 -151q0 -23 -5 -55l-34 -192q-22 -124 -97.5 -193t-192.5 -69h-107q-104 0 -165.5 57zM382 95q66 0 111 43t59 120l32 184q4 19 4 41q0 56 -31 89t-85 33h-105
q-65 0 -110 -43.5t-58 -119.5l-33 -184q-4 -28 -4 -39q0 -57 31 -90.5t84 -33.5h105zM480.5 775q-16.5 10 -36.5 29q-13 12 -22 18t-18 6h-8q-14 0 -25 -14t-16 -38h-84q11 62 44.5 97.5t82.5 35.5h7q24 0 42 -11t38 -30q12 -11 20 -16.5t15 -5.5h8q13 0 23.5 14t15.5 38h84
q-12 -63 -44.5 -98t-79.5 -35h-7q-23 0 -39.5 10z" />
    <glyph glyph-name="Odieresis" unicode="&#xd6;" horiz-adv-x="715" 
d="M105.5 49q-61.5 57 -61.5 152q0 23 5 53l34 192q22 124 97 193t191 69h106q107 0 168.5 -56t61.5 -151q0 -23 -5 -55l-34 -192q-22 -124 -97.5 -193t-192.5 -69h-107q-104 0 -165.5 57zM382 95q66 0 111 43t59 120l32 184q4 19 4 41q0 56 -31 89t-85 33h-105
q-65 0 -110 -43.5t-58 -119.5l-33 -184q-4 -28 -4 -39q0 -57 31 -90.5t84 -33.5h105zM294.5 788q-14.5 14 -14.5 37q0 35 21 56t56 21q24 0 39 -14t15 -37q0 -34 -21.5 -55.5t-55.5 -21.5q-25 0 -39.5 14zM527 788q-15 14 -15 37q0 35 21.5 56t55.5 21q25 0 39.5 -14
t14.5 -37q0 -34 -21 -55.5t-56 -21.5q-24 0 -39 14z" />
    <glyph glyph-name="multiply" unicode="&#xd7;" horiz-adv-x="526" 
d="M31 166l174 148l-123 152l83 70l123 -152l175 152l57 -71l-175 -152l123 -147l-82 -71l-123 150l-175 -150z" />
    <glyph glyph-name="Oslash" unicode="&#xd8;" horiz-adv-x="715" 
d="M654 643q53 -53 53 -142q0 -23 -5 -55l-34 -192q-22 -124 -97.5 -193t-192.5 -69h-107q-62 0 -112 22l-53 -68h-97l88 112q-53 56 -53 143q0 23 5 53l34 192q22 124 97 193t191 69h106q64 0 114 -22l47 60h97zM162 218q0 -32 13 -61l345 439q-21 9 -48 9h-105
q-65 0 -110 -43.5t-58 -119.5l-33 -184q-4 -28 -4 -40zM588 483q0 36 -12 61l-346 -441q22 -8 47 -8h105q66 0 111 43t59 120l32 184q4 28 4 41z" />
    <glyph glyph-name="Ugrave" unicode="&#xd9;" horiz-adv-x="711" 
d="M114 45q-57 53 -57 141q0 21 5 51l81 463h117l-81 -461q-3 -18 -3 -36q0 -50 26 -79t72 -29h107q58 0 96.5 38t50.5 106l81 461h117l-82 -463q-20 -116 -90 -180.5t-177 -64.5h-107q-99 0 -156 53zM312 944h124l63 -171h-105z" />
    <glyph glyph-name="Uacute" unicode="&#xda;" horiz-adv-x="711" 
d="M114 45q-57 53 -57 141q0 21 5 51l81 463h117l-81 -461q-3 -18 -3 -36q0 -50 26 -79t72 -29h107q58 0 96.5 38t50.5 106l81 461h117l-82 -463q-20 -116 -90 -180.5t-177 -64.5h-107q-99 0 -156 53zM513 944h131l-142 -171h-112z" />
    <glyph glyph-name="Ucircumflex" unicode="&#xdb;" horiz-adv-x="711" 
d="M114 45q-57 53 -57 141q0 21 5 51l81 463h117l-81 -461q-3 -18 -3 -36q0 -50 26 -79t72 -29h107q58 0 96.5 38t50.5 106l81 461h117l-82 -463q-20 -116 -90 -180.5t-177 -64.5h-107q-99 0 -156 53zM439 951h78l110 -178h-100l-59 102l-96 -102h-106z" />
    <glyph glyph-name="Udieresis" unicode="&#xdc;" horiz-adv-x="711" 
d="M114 45q-57 53 -57 141q0 21 5 51l81 463h117l-81 -461q-3 -18 -3 -36q0 -50 26 -79t72 -29h107q58 0 96.5 38t50.5 106l81 461h117l-82 -463q-20 -116 -90 -180.5t-177 -64.5h-107q-99 0 -156 53zM291.5 788q-14.5 14 -14.5 37q0 35 21 56t56 21q24 0 39 -14t15 -37
q0 -34 -21.5 -55.5t-55.5 -21.5q-25 0 -39.5 14zM524 788q-15 14 -15 37q0 35 21.5 56t55.5 21q25 0 39.5 -14t14.5 -37q0 -34 -21 -55.5t-56 -21.5q-24 0 -39 14z" />
    <glyph glyph-name="Yacute" unicode="&#xdd;" horiz-adv-x="642" 
d="M266 271l-183 429h120l133 -322l247 322h134l-334 -429l-48 -271h-116zM479 944h131l-142 -171h-112z" />
    <glyph glyph-name="Thorn" unicode="&#xde;" horiz-adv-x="657" 
d="M604.5 547q48.5 -39 48.5 -105q0 -17 -3 -35l-17 -97q-16 -89 -76.5 -138.5t-153.5 -49.5h-241l-21 -122h-117l103 586l20 114h117l-20 -114h228q84 0 132.5 -39zM535 421q0 29 -18.5 46t-50.5 17h-240l-46 -260h228q44 0 73.5 24t36.5 67l15 88q2 12 2 18z" />
    <glyph glyph-name="germandbls" unicode="&#xdf;" horiz-adv-x="696" 
d="M296 27.5q-43 35.5 -43 95.5q0 16 3 32h106q-1 -5 -1 -15q0 -24 15.5 -36.5t41.5 -12.5h46q31 0 51 15t25 41l4 23l1 9q0 22 -16 39.5t-48 40.5q-38 28 -57 49.5t-19 52.5q0 10 1 16l4 21q9 46 43.5 75t92.5 37q2 14 2 21q0 34 -23 54t-63 20h-76q-56 0 -92.5 -30
t-46.5 -84l-86 -491h-115l66 373h-86l17 98h86l4 20q19 100 87.5 156.5t169.5 56.5h76q87 0 141.5 -44t54.5 -118q0 -16 -3 -34l-13 -70h-30q-87 0 -93 -43l-3 -15q-2 -13 9.5 -25.5t38.5 -32.5q43 -31 67 -59.5t24 -70.5q0 -6 -2 -22l-4 -23q-11 -73 -61.5 -114t-131.5 -41
h-46q-75 0 -118 35.5z" />
    <glyph glyph-name="agrave" unicode="&#xe0;" horiz-adv-x="575" 
d="M68.5 24q-42.5 32 -42.5 85q0 8 2 24l6 37q12 66 61.5 102t125.5 36h62q30 0 65.5 -8t59.5 -21l10 62q2 10 2 15q0 25 -16.5 39.5t-44.5 14.5h-83q-34 0 -56.5 -15t-27.5 -41h-112q13 71 66.5 112t133.5 41h83q79 0 125.5 -36.5t46.5 -98.5q0 -14 -3 -31l-60 -341h-107
l12 63q-31 -33 -66 -52t-68 -19h-59q-73 0 -115.5 32zM256 82q39 0 75.5 22.5t55.5 59.5l5 24q-15 14 -44.5 22.5t-63.5 8.5h-63q-31 0 -51 -14.5t-24 -39.5l-6 -28q-1 -3 -1 -10q0 -20 16.5 -32.5t44.5 -12.5h56zM215 743h124l63 -171h-105z" />
    <glyph glyph-name="aacute" unicode="&#xe1;" horiz-adv-x="575" 
d="M68.5 24q-42.5 32 -42.5 85q0 8 2 24l6 37q12 66 61.5 102t125.5 36h62q30 0 65.5 -8t59.5 -21l10 62q2 10 2 15q0 25 -16.5 39.5t-44.5 14.5h-83q-34 0 -56.5 -15t-27.5 -41h-112q13 71 66.5 112t133.5 41h83q79 0 125.5 -36.5t46.5 -98.5q0 -14 -3 -31l-60 -341h-107
l12 63q-31 -33 -66 -52t-68 -19h-59q-73 0 -115.5 32zM256 82q39 0 75.5 22.5t55.5 59.5l5 24q-15 14 -44.5 22.5t-63.5 8.5h-63q-31 0 -51 -14.5t-24 -39.5l-6 -28q-1 -3 -1 -10q0 -20 16.5 -32.5t44.5 -12.5h56zM416 743h131l-142 -171h-112z" />
    <glyph glyph-name="acircumflex" unicode="&#xe2;" horiz-adv-x="575" 
d="M68.5 24q-42.5 32 -42.5 85q0 8 2 24l6 37q12 66 61.5 102t125.5 36h62q30 0 65.5 -8t59.5 -21l10 62q2 10 2 15q0 25 -16.5 39.5t-44.5 14.5h-83q-34 0 -56.5 -15t-27.5 -41h-112q13 71 66.5 112t133.5 41h83q79 0 125.5 -36.5t46.5 -98.5q0 -14 -3 -31l-60 -341h-107
l12 63q-31 -33 -66 -52t-68 -19h-59q-73 0 -115.5 32zM256 82q39 0 75.5 22.5t55.5 59.5l5 24q-15 14 -44.5 22.5t-63.5 8.5h-63q-31 0 -51 -14.5t-24 -39.5l-6 -28q-1 -3 -1 -10q0 -20 16.5 -32.5t44.5 -12.5h56zM342 750h78l110 -178h-100l-59 102l-96 -102h-106z" />
    <glyph glyph-name="atilde" unicode="&#xe3;" horiz-adv-x="575" 
d="M68.5 24q-42.5 32 -42.5 85q0 8 2 24l6 37q12 66 61.5 102t125.5 36h62q30 0 65.5 -8t59.5 -21l10 62q2 10 2 15q0 25 -16.5 39.5t-44.5 14.5h-83q-34 0 -56.5 -15t-27.5 -41h-112q13 71 66.5 112t133.5 41h83q79 0 125.5 -36.5t46.5 -98.5q0 -14 -3 -31l-60 -341h-107
l12 63q-31 -33 -66 -52t-68 -19h-59q-73 0 -115.5 32zM256 82q39 0 75.5 22.5t55.5 59.5l5 24q-15 14 -44.5 22.5t-63.5 8.5h-63q-31 0 -51 -14.5t-24 -39.5l-6 -28q-1 -3 -1 -10q0 -20 16.5 -32.5t44.5 -12.5h56zM380.5 574q-16.5 10 -36.5 29q-13 12 -22 18t-18 6h-8
q-14 0 -25 -14t-16 -38h-84q11 62 44.5 97.5t82.5 35.5h7q24 0 42 -11t38 -30q12 -11 20 -16.5t15 -5.5h8q13 0 23.5 14t15.5 38h84q-12 -63 -44.5 -98t-79.5 -35h-7q-23 0 -39.5 10z" />
    <glyph glyph-name="adieresis" unicode="&#xe4;" horiz-adv-x="575" 
d="M68.5 24q-42.5 32 -42.5 85q0 8 2 24l6 37q12 66 61.5 102t125.5 36h62q30 0 65.5 -8t59.5 -21l10 62q2 10 2 15q0 25 -16.5 39.5t-44.5 14.5h-83q-34 0 -56.5 -15t-27.5 -41h-112q13 71 66.5 112t133.5 41h83q79 0 125.5 -36.5t46.5 -98.5q0 -14 -3 -31l-60 -341h-107
l12 63q-31 -33 -66 -52t-68 -19h-59q-73 0 -115.5 32zM256 82q39 0 75.5 22.5t55.5 59.5l5 24q-15 14 -44.5 22.5t-63.5 8.5h-63q-31 0 -51 -14.5t-24 -39.5l-6 -28q-1 -3 -1 -10q0 -20 16.5 -32.5t44.5 -12.5h56zM194.5 587q-14.5 14 -14.5 37q0 35 21 56t56 21
q24 0 39 -14t15 -37q0 -34 -21.5 -55.5t-55.5 -21.5q-25 0 -39.5 14zM427 587q-15 14 -15 37q0 35 21.5 56t55.5 21q25 0 39.5 -14t14.5 -37q0 -34 -21 -55.5t-56 -21.5q-24 0 -39 14z" />
    <glyph glyph-name="aring" unicode="&#xe5;" horiz-adv-x="575" 
d="M68.5 24q-42.5 32 -42.5 85q0 8 2 24l6 37q12 66 61.5 102t125.5 36h62q30 0 65.5 -8t59.5 -21l10 62q2 10 2 15q0 25 -16.5 39.5t-44.5 14.5h-83q-34 0 -56.5 -15t-27.5 -41h-112q13 71 66.5 112t133.5 41h83q79 0 125.5 -36.5t46.5 -98.5q0 -14 -3 -31l-60 -341h-107
l12 63q-31 -33 -66 -52t-68 -19h-59q-73 0 -115.5 32zM256 82q39 0 75.5 22.5t55.5 59.5l5 24q-15 14 -44.5 22.5t-63.5 8.5h-63q-31 0 -51 -14.5t-24 -39.5l-6 -28q-1 -3 -1 -10q0 -20 16.5 -32.5t44.5 -12.5h56zM273.5 571.5q-27.5 26.5 -27.5 69.5q0 60 37.5 96.5
t99.5 36.5q46 0 74 -26.5t28 -69.5q0 -59 -38 -96t-100 -37q-46 0 -73.5 26.5zM398.5 628q15.5 16 15.5 42q0 17 -11 27t-29 10q-26 0 -42 -15.5t-16 -41.5q0 -17 11 -27.5t30 -10.5q26 0 41.5 16z" />
    <glyph glyph-name="ae" unicode="&#xe6;" horiz-adv-x="923" 
d="M67.5 23.5q-42.5 31.5 -42.5 85.5q0 8 2 24l7 36q12 65 63 102.5t128 37.5h62q31 0 64.5 -8.5t56.5 -21.5l11 62q1 5 1 14q0 25 -16 40t-44 15h-84q-34 0 -56.5 -15t-27.5 -41h-112q13 71 67 112t135 41h82q47 0 84 -17t52 -45h1q26 29 65 45.5t79 16.5h74q82 0 130 -43
t48 -116q0 -18 -3 -38l-17 -97h-366l-5 -30q-2 -14 -2 -20q0 -34 20.5 -54t56.5 -20h70q42 0 69 19t33 52h113q-14 -78 -72.5 -123t-147.5 -45h-69q-54 0 -95 20.5t-57 54.5h-1q-35 -36 -78.5 -55.5t-89.5 -19.5h-73q-73 0 -115.5 31.5zM782 299l2 13q2 16 2 23q0 35 -19 55
t-52 20h-74q-40 0 -70 -27.5t-39 -73.5l-2 -10h252zM257 83q40 0 75.5 21.5t55.5 59.5l4 24q-14 14 -43.5 22.5t-63.5 8.5h-62q-32 0 -53 -14.5t-25 -39.5l-5 -28q-1 -3 -1 -10q0 -20 16.5 -32t44.5 -12h57z" />
    <glyph glyph-name="ccedilla" unicode="&#xe7;" horiz-adv-x="552" 
d="M418 327q1 6 1 17q0 29 -17.5 46.5t-47.5 17.5h-79q-41 0 -69 -27.5t-37 -76.5l-20 -113q-2 -9 -2 -25q0 -35 19.5 -55t53.5 -20h79q39 0 65.5 25.5t33.5 71.5h113q-16 -92 -73 -144t-142 -52h-19l-26 -41h8q35 0 55 -17t20 -48q0 -10 -1 -15l-3 -17q-7 -45 -41 -70
t-89 -25h-92l12 71h75q20 0 33 7t15 19l3 14q2 11 -6.5 18t-25.5 7h-60l9 49l29 49q-74 5 -118.5 47t-44.5 108q0 11 4 37l22 126q17 92 76 144t147 52h80q81 0 128.5 -39.5t47.5 -106.5q0 -16 -3 -34h-113z" />
    <glyph glyph-name="egrave" unicode="&#xe8;" horiz-adv-x="569" 
d="M79 32.5q-50 40.5 -50 109.5q0 17 3 35l23 134q16 92 76.5 144t151.5 52h80q83 0 132 -43t49 -114q0 -16 -3 -36l-17 -101h-372l-6 -36q-1 -6 -1 -17q0 -33 20 -52t55 -19h78q42 0 69 19t33 52h112q-13 -79 -70.5 -123.5t-146.5 -44.5h-79q-87 0 -137 40.5zM426 299l2 13
q2 9 2 24q0 35 -19 55t-52 20h-82q-41 0 -70.5 -27.5t-38.5 -74.5l-2 -10h260zM204 743h124l63 -171h-105z" />
    <glyph glyph-name="eacute" unicode="&#xe9;" horiz-adv-x="569" 
d="M79 32.5q-50 40.5 -50 109.5q0 17 3 35l23 134q16 92 76.5 144t151.5 52h80q83 0 132 -43t49 -114q0 -16 -3 -36l-17 -101h-372l-6 -36q-1 -6 -1 -17q0 -33 20 -52t55 -19h78q42 0 69 19t33 52h112q-13 -79 -70.5 -123.5t-146.5 -44.5h-79q-87 0 -137 40.5zM426 299l2 13
q2 9 2 24q0 35 -19 55t-52 20h-82q-41 0 -70.5 -27.5t-38.5 -74.5l-2 -10h260zM405 743h131l-142 -171h-112z" />
    <glyph glyph-name="ecircumflex" unicode="&#xea;" horiz-adv-x="569" 
d="M79 32.5q-50 40.5 -50 109.5q0 17 3 35l23 134q16 92 76.5 144t151.5 52h80q83 0 132 -43t49 -114q0 -16 -3 -36l-17 -101h-372l-6 -36q-1 -6 -1 -17q0 -33 20 -52t55 -19h78q42 0 69 19t33 52h112q-13 -79 -70.5 -123.5t-146.5 -44.5h-79q-87 0 -137 40.5zM426 299l2 13
q2 9 2 24q0 35 -19 55t-52 20h-82q-41 0 -70.5 -27.5t-38.5 -74.5l-2 -10h260zM331 750h78l110 -178h-100l-59 102l-96 -102h-106z" />
    <glyph glyph-name="edieresis" unicode="&#xeb;" horiz-adv-x="569" 
d="M79 32.5q-50 40.5 -50 109.5q0 17 3 35l23 134q16 92 76.5 144t151.5 52h80q83 0 132 -43t49 -114q0 -16 -3 -36l-17 -101h-372l-6 -36q-1 -6 -1 -17q0 -33 20 -52t55 -19h78q42 0 69 19t33 52h112q-13 -79 -70.5 -123.5t-146.5 -44.5h-79q-87 0 -137 40.5zM426 299l2 13
q2 9 2 24q0 35 -19 55t-52 20h-82q-41 0 -70.5 -27.5t-38.5 -74.5l-2 -10h260zM183.5 587q-14.5 14 -14.5 37q0 35 21 56t56 21q24 0 39 -14t15 -37q0 -34 -21.5 -55.5t-55.5 -21.5q-25 0 -39.5 14zM416 587q-15 14 -15 37q0 35 21.5 56t55.5 21q25 0 39.5 -14t14.5 -37
q0 -34 -21 -55.5t-56 -21.5q-24 0 -39 14z" />
    <glyph glyph-name="igrave" unicode="&#xec;" horiz-adv-x="255" 
d="M114 499h115l-88 -499h-115zM52 753h124l63 -171h-105z" />
    <glyph glyph-name="iacute" unicode="&#xed;" horiz-adv-x="255" 
d="M114 499h115l-88 -499h-115zM248 753h131l-142 -171h-112z" />
    <glyph glyph-name="icircumflex" unicode="&#xee;" horiz-adv-x="255" 
d="M114 499h115l-88 -499h-115zM176 750h78l110 -178h-100l-59 102l-96 -102h-106z" />
    <glyph glyph-name="idieresis" unicode="&#xef;" horiz-adv-x="255" 
d="M114 499h115l-88 -499h-115zM28.5 587q-14.5 14 -14.5 37q0 35 21 56t56 21q24 0 39 -14t15 -37q0 -34 -21.5 -55.5t-55.5 -21.5q-25 0 -39.5 14zM261 587q-15 14 -15 37q0 35 21.5 56t55.5 21q25 0 39.5 -14t14.5 -37q0 -34 -21 -55.5t-56 -21.5q-24 0 -39 14z" />
    <glyph glyph-name="eth" unicode="&#xf0;" horiz-adv-x="606" 
d="M599 481q0 -49 -11 -112l-25 -145q-20 -109 -89 -170.5t-173 -61.5h-71q-92 0 -148 46.5t-56 122.5q0 18 3 37l19 103q18 100 83 157t163 57h65q39 0 74 -15.5t51 -39.5h1q2 22 2 33q0 85 -54 133l-53 -55h-113l89 93q-37 9 -83 9h-43l17 97h44q82 0 145 -23l50 53h114
l-90 -94q89 -75 89 -225zM461 309q0 48 -28.5 77.5t-76.5 29.5h-65q-50 0 -85 -32.5t-45 -88.5l-16 -91q-2 -9 -2 -25q0 -41 25 -64.5t68 -23.5h67q56 0 95 35t50 96l10 57q3 15 3 30z" />
    <glyph glyph-name="ntilde" unicode="&#xf1;" horiz-adv-x="591" 
d="M108 499h107l-11 -65q29 34 64.5 53.5t68.5 19.5h59q71 0 112 -38t41 -102q0 -18 -3 -38l-57 -329h-115l57 326q2 14 2 21q0 27 -14.5 43.5t-39.5 16.5h-62q-39 0 -75.5 -29.5t-53.5 -75.5l-53 -302h-115zM390.5 574q-16.5 10 -36.5 29q-13 12 -22 18t-18 6h-8
q-14 0 -25 -14t-16 -38h-84q11 62 44.5 97.5t82.5 35.5h7q24 0 42 -11t38 -30q12 -11 20 -16.5t15 -5.5h8q13 0 23.5 14t15.5 38h84q-12 -63 -44.5 -98t-79.5 -35h-7q-23 0 -39.5 10z" />
    <glyph glyph-name="ograve" unicode="&#xf2;" horiz-adv-x="586" 
d="M80.5 35.5q-50.5 43.5 -50.5 115.5q0 18 3 36l22 124q17 92 77 144t150 52h87q87 0 137.5 -43t50.5 -115q0 -12 -4 -38l-22 -124q-17 -92 -76.5 -143.5t-151.5 -51.5h-87q-85 0 -135.5 43.5zM306 91q43 0 73 28t38 75l20 111q2 8 2 24q0 36 -20.5 57.5t-55.5 21.5h-84
q-44 0 -73 -27t-37 -76l-20 -111q-2 -9 -2 -25q0 -36 20 -57t55 -21h84zM215 743h124l63 -171h-105z" />
    <glyph glyph-name="oacute" unicode="&#xf3;" horiz-adv-x="586" 
d="M80.5 35.5q-50.5 43.5 -50.5 115.5q0 18 3 36l22 124q17 92 77 144t150 52h87q87 0 137.5 -43t50.5 -115q0 -12 -4 -38l-22 -124q-17 -92 -76.5 -143.5t-151.5 -51.5h-87q-85 0 -135.5 43.5zM306 91q43 0 73 28t38 75l20 111q2 8 2 24q0 36 -20.5 57.5t-55.5 21.5h-84
q-44 0 -73 -27t-37 -76l-20 -111q-2 -9 -2 -25q0 -36 20 -57t55 -21h84zM416 743h131l-142 -171h-112z" />
    <glyph glyph-name="ocircumflex" unicode="&#xf4;" horiz-adv-x="586" 
d="M80.5 35.5q-50.5 43.5 -50.5 115.5q0 18 3 36l22 124q17 92 77 144t150 52h87q87 0 137.5 -43t50.5 -115q0 -12 -4 -38l-22 -124q-17 -92 -76.5 -143.5t-151.5 -51.5h-87q-85 0 -135.5 43.5zM306 91q43 0 73 28t38 75l20 111q2 8 2 24q0 36 -20.5 57.5t-55.5 21.5h-84
q-44 0 -73 -27t-37 -76l-20 -111q-2 -9 -2 -25q0 -36 20 -57t55 -21h84zM342 750h78l110 -178h-100l-59 102l-96 -102h-106z" />
    <glyph glyph-name="otilde" unicode="&#xf5;" horiz-adv-x="586" 
d="M80.5 35.5q-50.5 43.5 -50.5 115.5q0 18 3 36l22 124q17 92 77 144t150 52h87q87 0 137.5 -43t50.5 -115q0 -12 -4 -38l-22 -124q-17 -92 -76.5 -143.5t-151.5 -51.5h-87q-85 0 -135.5 43.5zM306 91q43 0 73 28t38 75l20 111q2 8 2 24q0 36 -20.5 57.5t-55.5 21.5h-84
q-44 0 -73 -27t-37 -76l-20 -111q-2 -9 -2 -25q0 -36 20 -57t55 -21h84zM380.5 574q-16.5 10 -36.5 29q-13 12 -22 18t-18 6h-8q-14 0 -25 -14t-16 -38h-84q11 62 44.5 97.5t82.5 35.5h7q24 0 42 -11t38 -30q12 -11 20 -16.5t15 -5.5h8q13 0 23.5 14t15.5 38h84
q-12 -63 -44.5 -98t-79.5 -35h-7q-23 0 -39.5 10z" />
    <glyph glyph-name="odieresis" unicode="&#xf6;" horiz-adv-x="586" 
d="M80.5 35.5q-50.5 43.5 -50.5 115.5q0 18 3 36l22 124q17 92 77 144t150 52h87q87 0 137.5 -43t50.5 -115q0 -12 -4 -38l-22 -124q-17 -92 -76.5 -143.5t-151.5 -51.5h-87q-85 0 -135.5 43.5zM306 91q43 0 73 28t38 75l20 111q2 8 2 24q0 36 -20.5 57.5t-55.5 21.5h-84
q-44 0 -73 -27t-37 -76l-20 -111q-2 -9 -2 -25q0 -36 20 -57t55 -21h84zM194.5 587q-14.5 14 -14.5 37q0 35 21 56t56 21q24 0 39 -14t15 -37q0 -34 -21.5 -55.5t-55.5 -21.5q-25 0 -39.5 14zM427 587q-15 14 -15 37q0 35 21.5 56t55.5 21q25 0 39.5 -14t14.5 -37
q0 -34 -21 -55.5t-56 -21.5q-24 0 -39 14z" />
    <glyph glyph-name="divide" unicode="&#xf7;" horiz-adv-x="569" 
d="M273 438.5q-16 14.5 -16 38.5q0 37 22.5 60t59.5 23q25 0 41 -15t16 -38q0 -37 -22.5 -60t-58.5 -23q-26 0 -42 14.5zM66 373h481l-18 -99h-481zM214 102q-16 15 -16 38q0 37 22.5 60t58.5 23q26 0 42 -14.5t16 -38.5q0 -37 -22.5 -60t-58.5 -23q-26 0 -42 15z" />
    <glyph glyph-name="oslash" unicode="&#xf8;" horiz-adv-x="586" 
d="M556 349q0 -18 -3 -38l-22 -124q-17 -92 -76.5 -143.5t-151.5 -51.5h-87q-41 0 -77 11l-37 -45h-94l67 82q-45 43 -45 111q0 18 3 36l22 124q17 92 77 144t150 52h87q42 0 78 -11l37 46h94l-67 -82q45 -43 45 -111zM147 168q0 -20 5 -33l222 272q-3 1 -11 1h-84
q-44 0 -73 -27t-37 -76l-20 -111q-2 -9 -2 -26zM439 330q0 19 -6 34l-222 -272q3 -1 11 -1h84q43 0 73 28t38 75l20 111q2 9 2 25z" />
    <glyph glyph-name="ugrave" unicode="&#xf9;" horiz-adv-x="589" 
d="M83 31.5q-41 39.5 -41 105.5q0 22 4 41l56 321h115l-57 -323q-2 -16 -2 -22q0 -29 14.5 -45.5t40.5 -16.5h59q39 0 74 30t56 80l52 297h115l-88 -499h-108l12 68q-30 -34 -64.5 -55t-63.5 -21h-63q-70 0 -111 39.5zM216 743h124l63 -171h-105z" />
    <glyph glyph-name="uacute" unicode="&#xfa;" horiz-adv-x="589" 
d="M83 31.5q-41 39.5 -41 105.5q0 22 4 41l56 321h115l-57 -323q-2 -16 -2 -22q0 -29 14.5 -45.5t40.5 -16.5h59q39 0 74 30t56 80l52 297h115l-88 -499h-108l12 68q-30 -34 -64.5 -55t-63.5 -21h-63q-70 0 -111 39.5zM417 743h131l-142 -171h-112z" />
    <glyph glyph-name="ucircumflex" unicode="&#xfb;" horiz-adv-x="589" 
d="M83 31.5q-41 39.5 -41 105.5q0 22 4 41l56 321h115l-57 -323q-2 -16 -2 -22q0 -29 14.5 -45.5t40.5 -16.5h59q39 0 74 30t56 80l52 297h115l-88 -499h-108l12 68q-30 -34 -64.5 -55t-63.5 -21h-63q-70 0 -111 39.5zM343 750h78l110 -178h-100l-59 102l-96 -102h-106z" />
    <glyph glyph-name="udieresis" unicode="&#xfc;" horiz-adv-x="589" 
d="M83 31.5q-41 39.5 -41 105.5q0 22 4 41l56 321h115l-57 -323q-2 -16 -2 -22q0 -29 14.5 -45.5t40.5 -16.5h59q39 0 74 30t56 80l52 297h115l-88 -499h-108l12 68q-30 -34 -64.5 -55t-63.5 -21h-63q-70 0 -111 39.5zM195.5 587q-14.5 14 -14.5 37q0 35 21 56t56 21
q24 0 39 -14t15 -37q0 -34 -21.5 -55.5t-55.5 -21.5q-25 0 -39.5 14zM428 587q-15 14 -15 37q0 35 21.5 56t55.5 21q25 0 39.5 -14t14.5 -37q0 -34 -21 -55.5t-56 -21.5q-24 0 -39 14z" />
    <glyph glyph-name="yacute" unicode="&#xfd;" horiz-adv-x="589" 
d="M58.5 -165.5q-45.5 37.5 -45.5 99.5q0 10 1 16h113q-1 -25 14.5 -40t42.5 -15h81q39 0 66.5 28t35.5 77l13 74q-27 -32 -61 -51.5t-61 -19.5h-63q-71 0 -111.5 39t-40.5 105q0 12 4 40l55 312h115l-55 -314q-2 -16 -2 -22q0 -29 14.5 -45.5t40.5 -16.5h59q38 0 74 30.5
t55 79.5l52 288h114l-88 -499q-16 -96 -74.5 -149.5t-145.5 -53.5h-81q-76 0 -121.5 37.5zM417 743h131l-142 -171h-112z" />
    <glyph glyph-name="thorn" unicode="&#xfe;" horiz-adv-x="595" 
d="M144 700h114l-45 -253q24 28 54.5 44t59.5 16h62q82 0 130 -41.5t48 -110.5q0 -13 -4 -39l-21 -116q-17 -98 -75 -153t-143 -55h-67q-36 0 -67 14.5t-48 38.5l-43 -246h-114zM316 91q44 0 73.5 30.5t39.5 85.5l18 102q2 16 2 22q0 35 -20.5 56t-55.5 21h-63
q-34 0 -67.5 -26t-52.5 -69l-20 -116q-4 -48 18.5 -77t63.5 -29h64z" />
    <glyph glyph-name="ydieresis" unicode="&#xff;" horiz-adv-x="589" 
d="M58.5 -165.5q-45.5 37.5 -45.5 99.5q0 10 1 16h113q-1 -25 14.5 -40t42.5 -15h81q39 0 66.5 28t35.5 77l13 74q-27 -32 -61 -51.5t-61 -19.5h-63q-71 0 -111.5 39t-40.5 105q0 12 4 40l55 312h115l-55 -314q-2 -16 -2 -22q0 -29 14.5 -45.5t40.5 -16.5h59q38 0 74 30.5
t55 79.5l52 288h114l-88 -499q-16 -96 -74.5 -149.5t-145.5 -53.5h-81q-76 0 -121.5 37.5zM195.5 587q-14.5 14 -14.5 37q0 35 21 56t56 21q24 0 39 -14t15 -37q0 -34 -21.5 -55.5t-55.5 -21.5q-25 0 -39.5 14zM428 587q-15 14 -15 37q0 35 21.5 56t55.5 21q25 0 39.5 -14
t14.5 -37q0 -34 -21 -55.5t-56 -21.5q-24 0 -39 14z" />
    <glyph glyph-name="Amacron" unicode="&#x100;" horiz-adv-x="670" 
d="M465 173h-278l-95 -173h-126l395 700h53q55 0 66 -53l136 -647h-117zM237 271h213l-55 284h-1zM296 874h298l-15 -88h-299z" />
    <glyph glyph-name="amacron" unicode="&#x101;" horiz-adv-x="575" 
d="M68.5 24q-42.5 32 -42.5 85q0 8 2 24l6 37q12 66 61.5 102t125.5 36h62q30 0 65.5 -8t59.5 -21l10 62q2 10 2 15q0 25 -16.5 39.5t-44.5 14.5h-83q-34 0 -56.5 -15t-27.5 -41h-112q13 71 66.5 112t133.5 41h83q79 0 125.5 -36.5t46.5 -98.5q0 -14 -3 -31l-60 -341h-107
l12 63q-31 -33 -66 -52t-68 -19h-59q-73 0 -115.5 32zM256 82q39 0 75.5 22.5t55.5 59.5l5 24q-15 14 -44.5 22.5t-63.5 8.5h-63q-31 0 -51 -14.5t-24 -39.5l-6 -28q-1 -3 -1 -10q0 -20 16.5 -32.5t44.5 -12.5h56zM219 673h298l-15 -88h-299z" />
    <glyph glyph-name="Abreve" unicode="&#x102;" horiz-adv-x="670" 
d="M465 173h-278l-95 -173h-126l395 700h53q55 0 66 -53l136 -647h-117zM237 271h213l-55 284h-1zM321 797q-39 32 -39 85q0 18 2 27l3 16h90l-3 -16q-1 -4 -1 -12q0 -26 16 -40.5t44 -14.5h12q32 0 55 18t27 49l3 16h90l-3 -16q-12 -67 -59.5 -105.5t-119.5 -38.5h-12
q-66 0 -105 32z" />
    <glyph glyph-name="abreve" unicode="&#x103;" horiz-adv-x="575" 
d="M68.5 24q-42.5 32 -42.5 85q0 8 2 24l6 37q12 66 61.5 102t125.5 36h62q30 0 65.5 -8t59.5 -21l10 62q2 10 2 15q0 25 -16.5 39.5t-44.5 14.5h-83q-34 0 -56.5 -15t-27.5 -41h-112q13 71 66.5 112t133.5 41h83q79 0 125.5 -36.5t46.5 -98.5q0 -14 -3 -31l-60 -341h-107
l12 63q-31 -33 -66 -52t-68 -19h-59q-73 0 -115.5 32zM256 82q39 0 75.5 22.5t55.5 59.5l5 24q-15 14 -44.5 22.5t-63.5 8.5h-63q-31 0 -51 -14.5t-24 -39.5l-6 -28q-1 -3 -1 -10q0 -20 16.5 -32.5t44.5 -12.5h56zM244 596q-39 32 -39 85q0 18 2 27l3 16h90l-3 -16
q-1 -4 -1 -12q0 -26 16 -40.5t44 -14.5h12q32 0 55 18t27 49l3 16h90l-3 -16q-12 -67 -59.5 -105.5t-119.5 -38.5h-12q-66 0 -105 32z" />
    <glyph glyph-name="Aogonek" unicode="&#x104;" horiz-adv-x="670" 
d="M465 173h-278l-95 -173h-126l395 700h53q55 0 66 -53l136 -647h-117zM237 271h213l-55 284h-1zM459 -201q-30 23 -30 62q0 10 1 16l2 13q6 31 30 62t57 48h96q-33 -16 -56.5 -42.5t-29.5 -53.5l-2 -10q-1 -3 -1 -9q0 -15 10.5 -23.5t29.5 -8.5h13q15 0 33.5 5.5
t31.5 14.5l-13 -75q-15 -10 -35.5 -16t-41.5 -6h-14q-51 0 -81 23z" />
    <glyph glyph-name="aogonek" unicode="&#x105;" horiz-adv-x="575" 
d="M488.5 470.5q46.5 -36.5 46.5 -98.5q0 -14 -3 -31l-60 -341h1q-34 -16 -57 -42t-29 -54l-2 -10q-1 -3 -1 -10q0 -14 10 -22.5t29 -8.5h14q15 0 33 5.5t32 14.5l-14 -75q-15 -10 -35.5 -16t-41.5 -6h-13q-51 0 -81 23t-30 61q0 11 1 17l2 13q5 31 29.5 62t57.5 48h-12
l12 63q-31 -33 -66 -52t-68 -19h-59q-73 0 -115.5 32t-42.5 85q0 8 2 24l6 37q12 66 61.5 102t125.5 36h62q30 0 65.5 -8t59.5 -21l10 62q2 10 2 15q0 25 -16.5 39.5t-44.5 14.5h-83q-34 0 -56.5 -15t-27.5 -41h-112q13 71 66.5 112t133.5 41h83q79 0 125.5 -36.5z
M331.5 104.5q36.5 22.5 55.5 59.5l5 24q-15 14 -44.5 22.5t-63.5 8.5h-63q-31 0 -51 -14.5t-24 -39.5l-6 -28q-1 -3 -1 -10q0 -20 16.5 -32.5t44.5 -12.5h56q39 0 75.5 22.5z" />
    <glyph glyph-name="Cacute" unicode="&#x106;" horiz-adv-x="679" 
d="M103.5 47.5q-59.5 55.5 -59.5 150.5q0 23 5 56l34 192q21 124 96 193t188 69h105q101 0 159 -52.5t58 -141.5q0 -21 -5 -51h-115q3 18 3 34q0 50 -28 79t-76 29h-105q-64 0 -107.5 -43.5t-56.5 -119.5l-33 -184q-4 -20 -4 -42q0 -56 28.5 -88.5t78.5 -32.5h107
q60 0 102.5 42.5t55.5 115.5h115q-22 -122 -96 -191.5t-181 -69.5h-107q-102 0 -161.5 55.5zM507 944h131l-142 -171h-112z" />
    <glyph glyph-name="cacute" unicode="&#x107;" horiz-adv-x="552" 
d="M79 34.5q-50 42.5 -50 113.5q0 11 4 37l22 126q17 92 76 144t147 52h80q81 0 128.5 -39.5t47.5 -106.5q0 -16 -3 -34h-113q1 6 1 17q0 29 -17.5 46.5t-47.5 17.5h-79q-41 0 -69 -27.5t-37 -76.5l-20 -113q-2 -9 -2 -25q0 -35 19.5 -55t53.5 -20h79q39 0 65.5 25.5
t33.5 71.5h113q-16 -92 -73 -144t-142 -52h-83q-84 0 -134 42.5zM406 743h131l-142 -171h-112z" />
    <glyph glyph-name="Ccircumflex" unicode="&#x108;" horiz-adv-x="679" 
d="M103.5 47.5q-59.5 55.5 -59.5 150.5q0 23 5 56l34 192q21 124 96 193t188 69h105q101 0 159 -52.5t58 -141.5q0 -21 -5 -51h-115q3 18 3 34q0 50 -28 79t-76 29h-105q-64 0 -107.5 -43.5t-56.5 -119.5l-33 -184q-4 -20 -4 -42q0 -56 28.5 -88.5t78.5 -32.5h107
q60 0 102.5 42.5t55.5 115.5h115q-22 -122 -96 -191.5t-181 -69.5h-107q-102 0 -161.5 55.5zM433 951h78l110 -178h-100l-59 102l-96 -102h-106z" />
    <glyph glyph-name="ccircumflex" unicode="&#x109;" horiz-adv-x="552" 
d="M79 34.5q-50 42.5 -50 113.5q0 11 4 37l22 126q17 92 76 144t147 52h80q81 0 128.5 -39.5t47.5 -106.5q0 -16 -3 -34h-113q1 6 1 17q0 29 -17.5 46.5t-47.5 17.5h-79q-41 0 -69 -27.5t-37 -76.5l-20 -113q-2 -9 -2 -25q0 -35 19.5 -55t53.5 -20h79q39 0 65.5 25.5
t33.5 71.5h113q-16 -92 -73 -144t-142 -52h-83q-84 0 -134 42.5zM332 750h78l110 -178h-100l-59 102l-96 -102h-106z" />
    <glyph glyph-name="Cdotaccent" unicode="&#x10a;" horiz-adv-x="679" 
d="M103.5 47.5q-59.5 55.5 -59.5 150.5q0 23 5 56l34 192q21 124 96 193t188 69h105q101 0 159 -52.5t58 -141.5q0 -21 -5 -51h-115q3 18 3 34q0 50 -28 79t-76 29h-105q-64 0 -107.5 -43.5t-56.5 -119.5l-33 -184q-4 -20 -4 -42q0 -56 28.5 -88.5t78.5 -32.5h107
q60 0 102.5 42.5t55.5 115.5h115q-22 -122 -96 -191.5t-181 -69.5h-107q-102 0 -161.5 55.5zM395 783.5q-17 15.5 -17 41.5q0 40 24.5 64.5t63.5 24.5q28 0 45 -16t17 -42q0 -40 -24.5 -64t-63.5 -24q-28 0 -45 15.5z" />
    <glyph glyph-name="cdotaccent" unicode="&#x10b;" horiz-adv-x="552" 
d="M79 34.5q-50 42.5 -50 113.5q0 11 4 37l22 126q17 92 76 144t147 52h80q81 0 128.5 -39.5t47.5 -106.5q0 -16 -3 -34h-113q1 6 1 17q0 29 -17.5 46.5t-47.5 17.5h-79q-41 0 -69 -27.5t-37 -76.5l-20 -113q-2 -9 -2 -25q0 -35 19.5 -55t53.5 -20h79q39 0 65.5 25.5
t33.5 71.5h113q-16 -92 -73 -144t-142 -52h-83q-84 0 -134 42.5zM294 582.5q-17 15.5 -17 41.5q0 40 24.5 64.5t63.5 24.5q28 0 45 -16t17 -42q0 -40 -24.5 -64t-63.5 -24q-28 0 -45 15.5z" />
    <glyph glyph-name="Ccaron" unicode="&#x10c;" horiz-adv-x="679" 
d="M103.5 47.5q-59.5 55.5 -59.5 150.5q0 23 5 56l34 192q21 124 96 193t188 69h105q101 0 159 -52.5t58 -141.5q0 -21 -5 -51h-115q3 18 3 34q0 50 -28 79t-76 29h-105q-64 0 -107.5 -43.5t-56.5 -119.5l-33 -184q-4 -20 -4 -42q0 -56 28.5 -88.5t78.5 -32.5h107
q60 0 102.5 42.5t55.5 115.5h115q-22 -122 -96 -191.5t-181 -69.5h-107q-102 0 -161.5 55.5zM292 951h99l60 -102l96 102h106l-174 -178h-78z" />
    <glyph glyph-name="ccaron" unicode="&#x10d;" horiz-adv-x="552" 
d="M79 34.5q-50 42.5 -50 113.5q0 11 4 37l22 126q17 92 76 144t147 52h80q81 0 128.5 -39.5t47.5 -106.5q0 -16 -3 -34h-113q1 6 1 17q0 29 -17.5 46.5t-47.5 17.5h-79q-41 0 -69 -27.5t-37 -76.5l-20 -113q-2 -9 -2 -25q0 -35 19.5 -55t53.5 -20h79q39 0 65.5 25.5
t33.5 71.5h113q-16 -92 -73 -144t-142 -52h-83q-84 0 -134 42.5zM191 750h99l60 -102l96 102h106l-174 -178h-78z" />
    <glyph glyph-name="Dcaron" unicode="&#x10e;" horiz-adv-x="693" 
d="M56.5 17.5q-19.5 17.5 -19.5 48.5q0 6 2 18l109 616h308q109 0 171 -52.5t62 -141.5q0 -24 -4 -44l-35 -204q-22 -127 -95 -192.5t-195 -65.5h-250q-34 0 -53.5 17.5zM362 103q71 0 114 40.5t57 118.5l35 196q3 17 3 30q0 51 -32.5 80t-90.5 29h-202l-87 -494h203z
M284 951h99l60 -102l96 102h106l-174 -178h-78z" />
    <glyph glyph-name="dcaron" unicode="&#x10f;" horiz-adv-x="783" 
d="M74.5 33q-45.5 41 -45.5 112q0 22 4 41l20 116q17 96 76 150.5t148 54.5h60q37 0 67.5 -13.5t47.5 -37.5l44 244h114l-123 -700h-108l12 69q-27 -36 -62 -56.5t-69 -20.5h-61q-79 0 -124.5 41zM277 91q43 0 81 34.5t51 85.5l18 100q1 44 -21 70.5t-59 26.5h-63
q-45 0 -76.5 -30t-40.5 -82l-18 -103q-3 -15 -3 -27q0 -35 19 -55t53 -20h59zM633 525l29 21q32 23 50 50t24 61l8 43h114l-7 -43q-11 -64 -42 -111t-85 -84l-33 -22z" />
    <glyph glyph-name="Dcroat" unicode="&#x110;" horiz-adv-x="744" 
d="M678 647.5q62 -52.5 62 -141.5q0 -24 -4 -44l-35 -204q-22 -127 -95 -192.5t-195 -65.5h-250q-34 0 -53.5 17.5t-19.5 48.5q0 6 2 18l38 214h-96l18 102h96l53 300h308q109 0 171 -52.5zM622 488q0 51 -32.5 80t-90.5 29h-202l-35 -197h211l-18 -102h-211l-34 -195h203
q71 0 114 40.5t57 118.5l35 196q3 17 3 30z" />
    <glyph glyph-name="dcroat" unicode="&#x111;" horiz-adv-x="614" 
d="M662 558h-77l-98 -558h-108l12 69q-27 -36 -62 -56.5t-69 -20.5h-61q-79 0 -124.5 41t-45.5 112q0 22 4 41l20 116q17 96 76 150.5t148 54.5h60q37 0 67.5 -13.5t47.5 -37.5l18 102h-145l14 81h146l11 61h114l-11 -61h78zM406 381.5q-22 26.5 -59 26.5h-63
q-45 0 -76.5 -30t-40.5 -82l-18 -103q-3 -15 -3 -27q0 -35 19 -55t53 -20h59q43 0 81 34.5t51 85.5l18 100q1 44 -21 70.5z" />
    <glyph glyph-name="Emacron" unicode="&#x112;" horiz-adv-x="619" 
d="M56.5 18q-19.5 18 -19.5 49q0 6 2 18l109 615h512l-18 -101h-395l-34 -190h365l-18 -102h-365l-36 -206h395l-18 -101h-426q-34 0 -53.5 18zM290 874h298l-15 -88h-299z" />
    <glyph glyph-name="emacron" unicode="&#x113;" horiz-adv-x="569" 
d="M79 32.5q-50 40.5 -50 109.5q0 17 3 35l23 134q16 92 76.5 144t151.5 52h80q83 0 132 -43t49 -114q0 -16 -3 -36l-17 -101h-372l-6 -36q-1 -6 -1 -17q0 -33 20 -52t55 -19h78q42 0 69 19t33 52h112q-13 -79 -70.5 -123.5t-146.5 -44.5h-79q-87 0 -137 40.5zM426 299l2 13
q2 9 2 24q0 35 -19 55t-52 20h-82q-41 0 -70.5 -27.5t-38.5 -74.5l-2 -10h260zM208 673h298l-15 -88h-299z" />
    <glyph glyph-name="Ebreve" unicode="&#x114;" horiz-adv-x="619" 
d="M56.5 18q-19.5 18 -19.5 49q0 6 2 18l109 615h512l-18 -101h-395l-34 -190h365l-18 -102h-365l-36 -206h395l-18 -101h-426q-34 0 -53.5 18zM315 797q-39 32 -39 85q0 18 2 27l3 16h90l-3 -16q-1 -4 -1 -12q0 -26 16 -40.5t44 -14.5h12q32 0 55 18t27 49l3 16h90l-3 -16
q-12 -67 -59.5 -105.5t-119.5 -38.5h-12q-66 0 -105 32z" />
    <glyph glyph-name="ebreve" unicode="&#x115;" horiz-adv-x="569" 
d="M79 32.5q-50 40.5 -50 109.5q0 17 3 35l23 134q16 92 76.5 144t151.5 52h80q83 0 132 -43t49 -114q0 -16 -3 -36l-17 -101h-372l-6 -36q-1 -6 -1 -17q0 -33 20 -52t55 -19h78q42 0 69 19t33 52h112q-13 -79 -70.5 -123.5t-146.5 -44.5h-79q-87 0 -137 40.5zM426 299l2 13
q2 9 2 24q0 35 -19 55t-52 20h-82q-41 0 -70.5 -27.5t-38.5 -74.5l-2 -10h260zM233 596q-39 32 -39 85q0 18 2 27l3 16h90l-3 -16q-1 -4 -1 -12q0 -26 16 -40.5t44 -14.5h12q32 0 55 18t27 49l3 16h90l-3 -16q-12 -67 -59.5 -105.5t-119.5 -38.5h-12q-66 0 -105 32z" />
    <glyph glyph-name="Edotaccent" unicode="&#x116;" horiz-adv-x="619" 
d="M56.5 18q-19.5 18 -19.5 49q0 6 2 18l109 615h512l-18 -101h-395l-34 -190h365l-18 -102h-365l-36 -206h395l-18 -101h-426q-34 0 -53.5 18zM375 783.5q-17 15.5 -17 41.5q0 40 24.5 64.5t63.5 24.5q28 0 45 -16t17 -42q0 -40 -24.5 -64t-63.5 -24q-28 0 -45 15.5z" />
    <glyph glyph-name="edotaccent" unicode="&#x117;" horiz-adv-x="569" 
d="M79 32.5q-50 40.5 -50 109.5q0 17 3 35l23 134q16 92 76.5 144t151.5 52h80q83 0 132 -43t49 -114q0 -16 -3 -36l-17 -101h-372l-6 -36q-1 -6 -1 -17q0 -33 20 -52t55 -19h78q42 0 69 19t33 52h112q-13 -79 -70.5 -123.5t-146.5 -44.5h-79q-87 0 -137 40.5zM426 299l2 13
q2 9 2 24q0 35 -19 55t-52 20h-82q-41 0 -70.5 -27.5t-38.5 -74.5l-2 -10h260zM293 582.5q-17 15.5 -17 41.5q0 40 24.5 64.5t63.5 24.5q28 0 45 -16t17 -42q0 -40 -24.5 -64t-63.5 -24q-28 0 -45 15.5z" />
    <glyph glyph-name="Eogonek" unicode="&#x118;" horiz-adv-x="619" 
d="M56.5 18q-19.5 18 -19.5 49q0 6 2 18l109 615h512l-18 -101h-395l-34 -190h365l-18 -102h-365l-36 -206h395l-18 -101h-426q-34 0 -53.5 18zM380 -201q-30 23 -30 62q0 10 1 16l2 13q6 31 30 62t57 48h96q-33 -16 -56.5 -42.5t-29.5 -53.5l-2 -10q-1 -3 -1 -9
q0 -15 10.5 -23.5t29.5 -8.5h13q15 0 33.5 5.5t31.5 14.5l-13 -75q-15 -10 -35.5 -16t-41.5 -6h-14q-51 0 -81 23z" />
    <glyph glyph-name="eogonek" unicode="&#x119;" horiz-adv-x="569" 
d="M495 464q49 -43 49 -114q0 -16 -3 -36l-17 -101h-372l-6 -36q-1 -6 -1 -17q0 -33 20 -52t55 -19h78q42 0 69 19t33 52h112q-11 -68 -56 -110.5t-114 -53.5q-31 -17 -51.5 -41.5t-25.5 -50.5l-2 -10q-1 -3 -1 -10q0 -14 10 -22.5t29 -8.5h14q15 0 33 5.5t32 14.5l-14 -75
q-15 -10 -35.5 -16t-41.5 -6h-13q-51 0 -81 23t-30 61q0 11 1 17l2 13q4 28 24 55.5t49 46.5h-25q-87 0 -137 40.5t-50 109.5q0 17 3 35l23 134q16 92 76.5 144t151.5 52h80q83 0 132 -43zM430 336q0 35 -19 55t-52 20h-82q-41 0 -70.5 -27.5t-38.5 -74.5l-2 -10h260l2 13
q2 9 2 24z" />
    <glyph glyph-name="Ecaron" unicode="&#x11a;" horiz-adv-x="619" 
d="M56.5 18q-19.5 18 -19.5 49q0 6 2 18l109 615h512l-18 -101h-395l-34 -190h365l-18 -102h-365l-36 -206h395l-18 -101h-426q-34 0 -53.5 18zM272 951h99l60 -102l96 102h106l-174 -178h-78z" />
    <glyph glyph-name="ecaron" unicode="&#x11b;" horiz-adv-x="569" 
d="M79 32.5q-50 40.5 -50 109.5q0 17 3 35l23 134q16 92 76.5 144t151.5 52h80q83 0 132 -43t49 -114q0 -16 -3 -36l-17 -101h-372l-6 -36q-1 -6 -1 -17q0 -33 20 -52t55 -19h78q42 0 69 19t33 52h112q-13 -79 -70.5 -123.5t-146.5 -44.5h-79q-87 0 -137 40.5zM426 299l2 13
q2 9 2 24q0 35 -19 55t-52 20h-82q-41 0 -70.5 -27.5t-38.5 -74.5l-2 -10h260zM190 750h99l60 -102l96 102h106l-174 -178h-78z" />
    <glyph glyph-name="Gcircumflex" unicode="&#x11c;" horiz-adv-x="703" 
d="M103.5 48q-59.5 56 -59.5 150q0 24 5 56l34 192q21 124 96.5 193t188.5 69h109q101 0 160 -52t59 -139q0 -25 -4 -45h-115q3 15 3 29q0 48 -29 76t-78 28h-109q-65 0 -108.5 -43.5t-56.5 -119.5l-33 -184q-4 -20 -4 -41q0 -56 29 -89t80 -33h115q61 0 102.5 38.5
t54.5 107.5l6 34h-194l17 102h309l-24 -136q-20 -118 -93 -183.5t-183 -65.5h-115q-103 0 -162.5 56zM437 951h78l110 -178h-100l-59 102l-96 -102h-106z" />
    <glyph glyph-name="gcircumflex" unicode="&#x11d;" horiz-adv-x="597" 
d="M58.5 -165.5q-45.5 37.5 -45.5 99.5q0 10 1 16h113q-1 -25 14.5 -40t42.5 -15h88q40 0 67 28t35 77l10 57q-26 -25 -55.5 -39.5t-54.5 -14.5h-69q-80 0 -127 42t-47 113q0 11 4 39l18 107q17 95 76 149t147 54h62q39 0 72.5 -16.5t49.5 -43.5l9 52h108l-88 -499
q-17 -96 -75.5 -149.5t-145.5 -53.5h-88q-76 0 -121.5 37.5zM287 101q42 0 77.5 34t48.5 88l16 87q3 43 -19 70.5t-60 27.5h-70q-44 0 -74.5 -30t-38.5 -81l-16 -93q-2 -9 -2 -26q0 -36 18 -56.5t50 -20.5h70zM339 750h78l110 -178h-100l-59 102l-96 -102h-106z" />
    <glyph glyph-name="Gbreve" unicode="&#x11e;" horiz-adv-x="703" 
d="M103.5 48q-59.5 56 -59.5 150q0 24 5 56l34 192q21 124 96.5 193t188.5 69h109q101 0 160 -52t59 -139q0 -25 -4 -45h-115q3 15 3 29q0 48 -29 76t-78 28h-109q-65 0 -108.5 -43.5t-56.5 -119.5l-33 -184q-4 -20 -4 -41q0 -56 29 -89t80 -33h115q61 0 102.5 38.5
t54.5 107.5l6 34h-194l17 102h309l-24 -136q-20 -118 -93 -183.5t-183 -65.5h-115q-103 0 -162.5 56zM339 797q-39 32 -39 85q0 18 2 27l3 16h90l-3 -16q-1 -4 -1 -12q0 -26 16 -40.5t44 -14.5h12q32 0 55 18t27 49l3 16h90l-3 -16q-12 -67 -59.5 -105.5t-119.5 -38.5h-12
q-66 0 -105 32z" />
    <glyph glyph-name="gbreve" unicode="&#x11f;" horiz-adv-x="597" 
d="M58.5 -165.5q-45.5 37.5 -45.5 99.5q0 10 1 16h113q-1 -25 14.5 -40t42.5 -15h88q40 0 67 28t35 77l10 57q-26 -25 -55.5 -39.5t-54.5 -14.5h-69q-80 0 -127 42t-47 113q0 11 4 39l18 107q17 95 76 149t147 54h62q39 0 72.5 -16.5t49.5 -43.5l9 52h108l-88 -499
q-17 -96 -75.5 -149.5t-145.5 -53.5h-88q-76 0 -121.5 37.5zM287 101q42 0 77.5 34t48.5 88l16 87q3 43 -19 70.5t-60 27.5h-70q-44 0 -74.5 -30t-38.5 -81l-16 -93q-2 -9 -2 -26q0 -36 18 -56.5t50 -20.5h70zM241 596q-39 32 -39 85q0 18 2 27l3 16h90l-3 -16q-1 -4 -1 -12
q0 -26 16 -40.5t44 -14.5h12q32 0 55 18t27 49l3 16h90l-3 -16q-12 -67 -59.5 -105.5t-119.5 -38.5h-12q-66 0 -105 32z" />
    <glyph glyph-name="Gdotaccent" unicode="&#x120;" horiz-adv-x="703" 
d="M103.5 48q-59.5 56 -59.5 150q0 24 5 56l34 192q21 124 96.5 193t188.5 69h109q101 0 160 -52t59 -139q0 -25 -4 -45h-115q3 15 3 29q0 48 -29 76t-78 28h-109q-65 0 -108.5 -43.5t-56.5 -119.5l-33 -184q-4 -20 -4 -41q0 -56 29 -89t80 -33h115q61 0 102.5 38.5
t54.5 107.5l6 34h-194l17 102h309l-24 -136q-20 -118 -93 -183.5t-183 -65.5h-115q-103 0 -162.5 56zM399 783.5q-17 15.5 -17 41.5q0 40 24.5 64.5t63.5 24.5q28 0 45 -16t17 -42q0 -40 -24.5 -64t-63.5 -24q-28 0 -45 15.5z" />
    <glyph glyph-name="gdotaccent" unicode="&#x121;" horiz-adv-x="597" 
d="M58.5 -165.5q-45.5 37.5 -45.5 99.5q0 10 1 16h113q-1 -25 14.5 -40t42.5 -15h88q40 0 67 28t35 77l10 57q-26 -25 -55.5 -39.5t-54.5 -14.5h-69q-80 0 -127 42t-47 113q0 11 4 39l18 107q17 95 76 149t147 54h62q39 0 72.5 -16.5t49.5 -43.5l9 52h108l-88 -499
q-17 -96 -75.5 -149.5t-145.5 -53.5h-88q-76 0 -121.5 37.5zM287 101q42 0 77.5 34t48.5 88l16 87q3 43 -19 70.5t-60 27.5h-70q-44 0 -74.5 -30t-38.5 -81l-16 -93q-2 -9 -2 -26q0 -36 18 -56.5t50 -20.5h70zM301 582.5q-17 15.5 -17 41.5q0 40 24.5 64.5t63.5 24.5
q28 0 45 -16t17 -42q0 -40 -24.5 -64t-63.5 -24q-28 0 -45 15.5z" />
    <glyph glyph-name="uni0122" unicode="&#x122;" horiz-adv-x="703" 
d="M103.5 48q-59.5 56 -59.5 150q0 24 5 56l34 192q21 124 96.5 193t188.5 69h109q101 0 160 -52t59 -139q0 -25 -4 -45h-115q3 15 3 29q0 48 -29 76t-78 28h-109q-65 0 -108.5 -43.5t-56.5 -119.5l-33 -184q-4 -20 -4 -41q0 -56 29 -89t80 -33h115q61 0 102.5 38.5
t54.5 107.5l6 34h-194l17 102h309l-24 -136q-20 -118 -93 -183.5t-183 -65.5h-115q-103 0 -162.5 56zM132 -236l29 21q33 24 51 51t23 60l7 36h114l-6 -36q-11 -64 -42 -111.5t-85 -83.5l-32 -22z" />
    <glyph glyph-name="uni0123" unicode="&#x123;" horiz-adv-x="597" 
d="M58.5 -165.5q-45.5 37.5 -45.5 99.5q0 10 1 16h113q-1 -25 14.5 -40t42.5 -15h88q40 0 67 28t35 77l10 57q-26 -25 -55.5 -39.5t-54.5 -14.5h-69q-80 0 -127 42t-47 113q0 11 4 39l18 107q17 95 76 149t147 54h62q39 0 72.5 -16.5t49.5 -43.5l9 52h108l-88 -499
q-17 -96 -75.5 -149.5t-145.5 -53.5h-88q-76 0 -121.5 37.5zM287 101q42 0 77.5 34t48.5 88l16 87q3 43 -19 70.5t-60 27.5h-70q-44 0 -74.5 -30t-38.5 -81l-16 -93q-2 -9 -2 -26q0 -36 18 -56.5t50 -20.5h70zM289 610q12 66 42.5 113t84.5 82l33 22l58 -85l-29 -21
q-32 -23 -50 -50t-24 -61l-8 -43h-115z" />
    <glyph glyph-name="Hcircumflex" unicode="&#x124;" horiz-adv-x="715" 
d="M147 700h117l-53 -297h346l53 297h116l-123 -700h-116l52 301h-346l-52 -301h-117zM438 951h78l110 -178h-100l-59 102l-96 -102h-106z" />
    <glyph glyph-name="hcircumflex" unicode="&#x125;" horiz-adv-x="593" 
d="M143 700h115l-45 -257q28 30 61.5 47t64.5 17h58q72 0 113 -38t41 -103q0 -17 -3 -37l-57 -329h-115l57 326q2 14 2 21q0 27 -14.5 43.5t-39.5 16.5h-64q-39 0 -75.5 -29t-53.5 -76l-53 -302h-115zM385 951h78l110 -178h-100l-59 102l-96 -102h-106z" />
    <glyph glyph-name="Hbar" unicode="&#x126;" horiz-adv-x="767" 
d="M799 507h-81l-89 -507h-116l52 301h-346l-52 -301h-117l89 507h-80l15 82h79l20 111h117l-20 -111h346l20 111h116l-20 -111h81zM602 507h-346l-19 -104h346z" />
    <glyph glyph-name="hbar" unicode="&#x127;" horiz-adv-x="623" 
d="M540 469q41 -38 41 -103q0 -17 -3 -37l-57 -329h-115l57 326q2 14 2 21q0 27 -14.5 43.5t-39.5 16.5h-64q-39 0 -75.5 -29t-53.5 -76l-53 -302h-115l98 558h-79l14 81h79l11 61h115l-11 -61h137l-15 -81h-136l-20 -115q28 30 61.5 47t64.5 17h58q72 0 113 -38z" />
    <glyph glyph-name="Itilde" unicode="&#x128;" horiz-adv-x="273" 
d="M157 700h117l-123 -700h-117zM258.5 775q-16.5 10 -36.5 29q-13 12 -22 18t-18 6h-8q-14 0 -25 -14t-16 -38h-84q11 62 44.5 97.5t82.5 35.5h7q24 0 42 -11t38 -30q12 -11 20 -16.5t15 -5.5h8q13 0 23.5 14t15.5 38h84q-12 -63 -44.5 -98t-79.5 -35h-7q-23 0 -39.5 10z
" />
    <glyph glyph-name="itilde" unicode="&#x129;" horiz-adv-x="255" 
d="M114 499h115l-88 -499h-115zM214.5 574q-16.5 10 -36.5 29q-13 12 -22 18t-18 6h-8q-14 0 -25 -14t-16 -38h-84q11 62 44.5 97.5t82.5 35.5h7q24 0 42 -11t38 -30q12 -11 20 -16.5t15 -5.5h8q13 0 23.5 14t15.5 38h84q-12 -63 -44.5 -98t-79.5 -35h-7q-23 0 -39.5 10z
" />
    <glyph glyph-name="Imacron" unicode="&#x12a;" horiz-adv-x="273" 
d="M157 700h117l-123 -700h-117zM97 874h298l-15 -88h-299z" />
    <glyph glyph-name="imacron" unicode="&#x12b;" horiz-adv-x="255" 
d="M114 499h115l-88 -499h-115zM53 673h298l-15 -88h-299z" />
    <glyph glyph-name="Ibreve" unicode="&#x12c;" horiz-adv-x="273" 
d="M157 700h117l-123 -700h-117zM122 797q-39 32 -39 85q0 18 2 27l3 16h90l-3 -16q-1 -4 -1 -12q0 -26 16 -40.5t44 -14.5h12q32 0 55 18t27 49l3 16h90l-3 -16q-12 -67 -59.5 -105.5t-119.5 -38.5h-12q-66 0 -105 32z" />
    <glyph glyph-name="ibreve" unicode="&#x12d;" horiz-adv-x="255" 
d="M114 499h115l-88 -499h-115zM78 596q-39 32 -39 85q0 18 2 27l3 16h90l-3 -16q-1 -4 -1 -12q0 -26 16 -40.5t44 -14.5h12q32 0 55 18t27 49l3 16h90l-3 -16q-12 -67 -59.5 -105.5t-119.5 -38.5h-12q-66 0 -105 32z" />
    <glyph glyph-name="Iogonek" unicode="&#x12e;" horiz-adv-x="273" 
d="M157 700h117l-123 -700h-117zM-6 -201q-30 23 -30 62q0 10 1 16l2 13q6 31 30 62t57 48h96q-33 -16 -56.5 -42.5t-29.5 -53.5l-2 -10q-1 -3 -1 -9q0 -15 10.5 -23.5t29.5 -8.5h13q15 0 33.5 5.5t31.5 14.5l-13 -75q-15 -10 -35.5 -16t-41.5 -6h-14q-51 0 -81 23z" />
    <glyph glyph-name="iogonek" unicode="&#x12f;" horiz-adv-x="279" 
d="M147.5 571q-17.5 16 -17.5 42q0 39 24 63.5t64 24.5q29 0 46.5 -16t17.5 -42q0 -39 -24 -63.5t-64 -24.5q-29 0 -46.5 16zM126 499h115l-88 -499h-115zM-4 -201q-30 23 -30 62q0 10 1 16l2 13q6 31 30 62t57 48h96q-33 -16 -56.5 -42.5t-29.5 -53.5l-2 -10q-1 -3 -1 -9
q0 -15 10.5 -23.5t29.5 -8.5h13q15 0 33.5 5.5t31.5 14.5l-13 -75q-15 -10 -35.5 -16t-41.5 -6h-14q-51 0 -81 23z" />
    <glyph glyph-name="Idotaccent" unicode="&#x130;" horiz-adv-x="273" 
d="M157 700h117l-123 -700h-117zM182 783.5q-17 15.5 -17 41.5q0 40 24.5 64.5t63.5 24.5q28 0 45 -16t17 -42q0 -40 -24.5 -64t-63.5 -24q-28 0 -45 15.5z" />
    <glyph glyph-name="dotlessi" unicode="&#x131;" horiz-adv-x="255" 
d="M114 499h115l-88 -499h-115z" />
    <glyph glyph-name="IJ" unicode="&#x132;" horiz-adv-x="859" 
d="M157 700h117l-123 -700h-117zM330 44q-52 52 -52 138q0 22 5 54h115q-4 -19 -4 -40q0 -47 21.5 -74t58.5 -27h80q47 0 81 39.5t46 109.5l80 456h117l-81 -460q-21 -118 -84.5 -183t-159.5 -65h-84q-87 0 -139 52z" />
    <glyph glyph-name="ij" unicode="&#x133;" horiz-adv-x="559" 
d="M147.5 571q-17.5 16 -17.5 42q0 39 24 63.5t64 24.5q29 0 46.5 -16t17.5 -42q0 -39 -24 -63.5t-64 -24.5q-29 0 -46.5 16zM126 499h115l-88 -499h-115zM428.5 571q-17.5 16 -17.5 42q0 39 24 63.5t64 24.5q29 0 46.5 -16t17.5 -42q0 -39 -24 -63.5t-64 -24.5
q-29 0 -46.5 16zM169 -100h53q41 0 64 24.5t33 79.5l88 495h114l-86 -490q-20 -112 -73.5 -160t-156.5 -48h-53z" />
    <glyph glyph-name="Jcircumflex" unicode="&#x134;" horiz-adv-x="596" 
d="M67 44q-52 52 -52 138q0 22 5 54h115q-4 -19 -4 -40q0 -47 21.5 -74t58.5 -27h80q47 0 81 39.5t46 109.5l80 456h117l-81 -460q-21 -118 -84.5 -183t-159.5 -65h-84q-87 0 -139 52zM561 951h78l110 -178h-100l-59 102l-96 -102h-106z" />
    <glyph glyph-name="jcircumflex" unicode="&#x135;" horiz-adv-x="277" 
d="M-102 -100h56q41 0 62.5 24t31.5 80l88 496h115l-87 -491q-20 -111 -72 -159.5t-155 -48.5h-56zM198 750h78l110 -178h-100l-59 102l-96 -102h-106z" />
    <glyph glyph-name="uni0136" unicode="&#x136;" horiz-adv-x="659" 
d="M362 392l239 -392h-134l-193 313l-93 -84l-40 -229h-117l123 700h117l-56 -317l348 317h150zM111 -236l29 21q33 24 51 51t23 60l7 36h114l-6 -36q-11 -64 -42 -111.5t-85 -83.5l-32 -22z" />
    <glyph glyph-name="uni0137" unicode="&#x137;" horiz-adv-x="540" 
d="M318 286l176 -286h-126l-134 215l-72 -61l-27 -154h-115l123 700h115l-72 -409l245 208h140zM62 -236l29 21q33 24 51 51t23 60l7 36h114l-6 -36q-11 -64 -42 -111.5t-85 -83.5l-32 -22z" />
    <glyph glyph-name="kgreenlandic" unicode="&#x138;" horiz-adv-x="559" 
d="M326 280l186 -280h-130l-141 209l-81 -68l-25 -141h-115l88 499h115l-39 -221l263 221h141z" />
    <glyph glyph-name="Lacute" unicode="&#x139;" horiz-adv-x="579" 
d="M56 17.5q-20 17.5 -20 48.5q0 6 2 18l109 616h117l-106 -598h380l-17 -102h-411q-34 0 -54 17.5zM284 944h131l-142 -171h-112z" />
    <glyph glyph-name="lacute" unicode="&#x13a;" horiz-adv-x="287" 
d="M76 25q-34 25 -34 80q0 22 4 43l97 552h115l-97 -547q-2 -12 -2 -18q0 -18 10.5 -27t34.5 -9h48l-17 -99h-54q-71 0 -105 25zM280 944h131l-142 -171h-112z" />
    <glyph glyph-name="uni013B" unicode="&#x13b;" horiz-adv-x="579" 
d="M56 17.5q-20 17.5 -20 48.5q0 6 2 18l109 616h117l-106 -598h380l-17 -102h-411q-34 0 -54 17.5zM99 -236l29 21q33 24 51 51t23 60l7 36h114l-6 -36q-11 -64 -42 -111.5t-85 -83.5l-32 -22z" />
    <glyph glyph-name="uni013C" unicode="&#x13c;" horiz-adv-x="287" 
d="M76 25q-34 25 -34 80q0 22 4 43l97 552h115l-97 -547q-2 -12 -2 -18q0 -18 10.5 -27t34.5 -9h48l-17 -99h-54q-71 0 -105 25zM-54 -236l29 21q33 24 51 51t23 60l7 36h114l-6 -36q-11 -64 -42 -111.5t-85 -83.5l-32 -22z" />
    <glyph glyph-name="Lcaron" unicode="&#x13d;" horiz-adv-x="590" 
d="M56 17.5q-20 17.5 -20 48.5q0 6 2 18l109 616h117l-106 -598h380l-17 -102h-411q-34 0 -54 17.5zM430 525l29 21q32 23 50 50t24 61l8 43h114l-7 -43q-11 -64 -42 -111t-85 -84l-33 -22z" />
    <glyph glyph-name="lcaron" unicode="&#x13e;" horiz-adv-x="454" 
d="M76 25q-34 25 -34 80q0 22 4 43l97 552h115l-97 -547q-2 -12 -2 -18q0 -18 10.5 -27t34.5 -9h48l-17 -99h-54q-71 0 -105 25zM304 525l29 21q32 23 50 50t24 61l8 43h114l-7 -43q-11 -64 -42 -111t-85 -84l-33 -22z" />
    <glyph glyph-name="Ldot" unicode="&#x13f;" horiz-adv-x="579" 
d="M56 17.5q-20 17.5 -20 48.5q0 6 2 18l109 616h117l-106 -598h380l-17 -102h-411q-34 0 -54 17.5zM364 245q-17 16 -17 42q0 39 23.5 63t62.5 24q28 0 44.5 -15.5t16.5 -41.5q0 -40 -23 -64t-62 -24q-28 0 -45 16z" />
    <glyph glyph-name="ldot" unicode="&#x140;" horiz-adv-x="413" 
d="M76 25q-34 25 -34 80q0 22 4 43l97 552h115l-97 -547q-2 -12 -2 -18q0 -18 10.5 -27t34.5 -9h48l-17 -99h-54q-71 0 -105 25zM289 218q-17 16 -17 42q0 39 23.5 63t62.5 24q28 0 44.5 -15.5t16.5 -41.5q0 -40 -23 -64t-62 -24q-28 0 -45 16z" />
    <glyph glyph-name="Lslash" unicode="&#x141;" horiz-adv-x="602" 
d="M562 102l-18 -102h-410q-35 0 -54.5 17.5t-19.5 47.5q0 7 2 19l26 146l-85 -45l20 114l85 45l62 356h117l-50 -287l145 77l-20 -114l-145 -77l-35 -197h380z" />
    <glyph glyph-name="lslash" unicode="&#x142;" horiz-adv-x="322" 
d="M196 153q-2 -12 -2 -18q0 -18 10.5 -27t34.5 -9h48l-17 -99h-54q-71 0 -105 25t-34 80q0 22 4 43l17 100l-97 -52l19 111l98 52l60 341h115l-49 -275l104 55l-20 -111l-103 -55z" />
    <glyph glyph-name="Nacute" unicode="&#x143;" horiz-adv-x="709" 
d="M147 700h100l269 -512l90 512h114l-123 -700h-100l-269 511l-90 -511h-114zM512 944h131l-142 -171h-112z" />
    <glyph glyph-name="nacute" unicode="&#x144;" horiz-adv-x="591" 
d="M108 499h107l-11 -65q29 34 64.5 53.5t68.5 19.5h59q71 0 112 -38t41 -102q0 -18 -3 -38l-57 -329h-115l57 326q2 14 2 21q0 27 -14.5 43.5t-39.5 16.5h-62q-39 0 -75.5 -29.5t-53.5 -75.5l-53 -302h-115zM426 743h131l-142 -171h-112z" />
    <glyph glyph-name="uni0145" unicode="&#x145;" horiz-adv-x="709" 
d="M147 700h100l269 -512l90 512h114l-123 -700h-100l-269 511l-90 -511h-114zM133 -236l29 21q33 24 51 51t23 60l7 36h114l-6 -36q-11 -64 -42 -111.5t-85 -83.5l-32 -22z" />
    <glyph glyph-name="uni0146" unicode="&#x146;" horiz-adv-x="591" 
d="M108 499h107l-11 -65q29 34 64.5 53.5t68.5 19.5h59q71 0 112 -38t41 -102q0 -18 -3 -38l-57 -329h-115l57 326q2 14 2 21q0 27 -14.5 43.5t-39.5 16.5h-62q-39 0 -75.5 -29.5t-53.5 -75.5l-53 -302h-115zM78 -236l29 21q33 24 51 51t23 60l7 36h114l-6 -36
q-11 -64 -42 -111.5t-85 -83.5l-32 -22z" />
    <glyph glyph-name="Ncaron" unicode="&#x147;" horiz-adv-x="709" 
d="M147 700h100l269 -512l90 512h114l-123 -700h-100l-269 511l-90 -511h-114zM297 951h99l60 -102l96 102h106l-174 -178h-78z" />
    <glyph glyph-name="ncaron" unicode="&#x148;" horiz-adv-x="591" 
d="M108 499h107l-11 -65q29 34 64.5 53.5t68.5 19.5h59q71 0 112 -38t41 -102q0 -18 -3 -38l-57 -329h-115l57 326q2 14 2 21q0 27 -14.5 43.5t-39.5 16.5h-62q-39 0 -75.5 -29.5t-53.5 -75.5l-53 -302h-115zM211 750h99l60 -102l96 102h106l-174 -178h-78z" />
    <glyph glyph-name="napostrophe" unicode="&#x149;" horiz-adv-x="754" 
d="M272 499h107l-11 -65q29 34 64.5 53.5t68.5 19.5h59q71 0 112 -38t41 -102q0 -18 -3 -38l-57 -329h-115l57 326q2 14 2 21q0 27 -14.5 43.5t-39.5 16.5h-62q-39 0 -75.5 -29.5t-53.5 -75.5l-53 -302h-115zM52 525l29 21q32 23 50 50t24 61l8 43h114l-7 -43
q-11 -64 -42 -111t-85 -84l-33 -22z" />
    <glyph glyph-name="Eng" unicode="&#x14a;" horiz-adv-x="711" 
d="M334 -107h56q38 0 60.5 23t32.5 75l2 12l-256 504l-89 -507h-116l123 700h102l265 -527l92 527h116l-124 -703q-18 -105 -69 -154t-157 -49h-55z" />
    <glyph glyph-name="eng" unicode="&#x14b;" horiz-adv-x="591" 
d="M224 -100h56q41 0 62.5 24t31.5 80l57 322q2 14 2 21q0 27 -14.5 43.5t-39.5 16.5h-62q-39 0 -75.5 -29.5t-53.5 -75.5l-53 -302h-115l88 499h107l-11 -65q28 34 64.5 53.5t69.5 19.5h61q70 0 110.5 -37.5t40.5 -102.5q0 -12 -4 -38l-58 -332q-19 -104 -72 -150t-153 -46
h-56z" />
    <glyph glyph-name="Omacron" unicode="&#x14c;" horiz-adv-x="715" 
d="M105.5 49q-61.5 57 -61.5 152q0 23 5 53l34 192q22 124 97 193t191 69h106q107 0 168.5 -56t61.5 -151q0 -23 -5 -55l-34 -192q-22 -124 -97.5 -193t-192.5 -69h-107q-104 0 -165.5 57zM382 95q66 0 111 43t59 120l32 184q4 19 4 41q0 56 -31 89t-85 33h-105
q-65 0 -110 -43.5t-58 -119.5l-33 -184q-4 -28 -4 -39q0 -57 31 -90.5t84 -33.5h105zM319 874h298l-15 -88h-299z" />
    <glyph glyph-name="omacron" unicode="&#x14d;" horiz-adv-x="586" 
d="M80.5 35.5q-50.5 43.5 -50.5 115.5q0 18 3 36l22 124q17 92 77 144t150 52h87q87 0 137.5 -43t50.5 -115q0 -12 -4 -38l-22 -124q-17 -92 -76.5 -143.5t-151.5 -51.5h-87q-85 0 -135.5 43.5zM306 91q43 0 73 28t38 75l20 111q2 8 2 24q0 36 -20.5 57.5t-55.5 21.5h-84
q-44 0 -73 -27t-37 -76l-20 -111q-2 -9 -2 -25q0 -36 20 -57t55 -21h84zM219 673h298l-15 -88h-299z" />
    <glyph glyph-name="Obreve" unicode="&#x14e;" horiz-adv-x="715" 
d="M105.5 49q-61.5 57 -61.5 152q0 23 5 53l34 192q22 124 97 193t191 69h106q107 0 168.5 -56t61.5 -151q0 -23 -5 -55l-34 -192q-22 -124 -97.5 -193t-192.5 -69h-107q-104 0 -165.5 57zM382 95q66 0 111 43t59 120l32 184q4 19 4 41q0 56 -31 89t-85 33h-105
q-65 0 -110 -43.5t-58 -119.5l-33 -184q-4 -28 -4 -39q0 -57 31 -90.5t84 -33.5h105zM344 797q-39 32 -39 85q0 18 2 27l3 16h90l-3 -16q-1 -4 -1 -12q0 -26 16 -40.5t44 -14.5h12q32 0 55 18t27 49l3 16h90l-3 -16q-12 -67 -59.5 -105.5t-119.5 -38.5h-12q-66 0 -105 32z
" />
    <glyph glyph-name="obreve" unicode="&#x14f;" horiz-adv-x="586" 
d="M80.5 35.5q-50.5 43.5 -50.5 115.5q0 18 3 36l22 124q17 92 77 144t150 52h87q87 0 137.5 -43t50.5 -115q0 -12 -4 -38l-22 -124q-17 -92 -76.5 -143.5t-151.5 -51.5h-87q-85 0 -135.5 43.5zM306 91q43 0 73 28t38 75l20 111q2 8 2 24q0 36 -20.5 57.5t-55.5 21.5h-84
q-44 0 -73 -27t-37 -76l-20 -111q-2 -9 -2 -25q0 -36 20 -57t55 -21h84zM244 596q-39 32 -39 85q0 18 2 27l3 16h90l-3 -16q-1 -4 -1 -12q0 -26 16 -40.5t44 -14.5h12q32 0 55 18t27 49l3 16h90l-3 -16q-12 -67 -59.5 -105.5t-119.5 -38.5h-12q-66 0 -105 32z" />
    <glyph glyph-name="Ohungarumlaut" unicode="&#x150;" horiz-adv-x="715" 
d="M105.5 49q-61.5 57 -61.5 152q0 23 5 53l34 192q22 124 97 193t191 69h106q107 0 168.5 -56t61.5 -151q0 -23 -5 -55l-34 -192q-22 -124 -97.5 -193t-192.5 -69h-107q-104 0 -165.5 57zM382 95q66 0 111 43t59 120l32 184q4 19 4 41q0 56 -31 89t-85 33h-105
q-65 0 -110 -43.5t-58 -119.5l-33 -184q-4 -28 -4 -39q0 -57 31 -90.5t84 -33.5h105zM425 944h122l-141 -171h-103zM597 944h122l-141 -171h-103z" />
    <glyph glyph-name="ohungarumlaut" unicode="&#x151;" horiz-adv-x="586" 
d="M80.5 35.5q-50.5 43.5 -50.5 115.5q0 18 3 36l22 124q17 92 77 144t150 52h87q87 0 137.5 -43t50.5 -115q0 -12 -4 -38l-22 -124q-17 -92 -76.5 -143.5t-151.5 -51.5h-87q-85 0 -135.5 43.5zM306 91q43 0 73 28t38 75l20 111q2 8 2 24q0 36 -20.5 57.5t-55.5 21.5h-84
q-44 0 -73 -27t-37 -76l-20 -111q-2 -9 -2 -25q0 -36 20 -57t55 -21h84zM325 743h122l-141 -171h-103zM497 743h122l-141 -171h-103z" />
    <glyph glyph-name="OE" unicode="&#x152;" horiz-adv-x="1091" 
d="M105.5 48.5q-61.5 56.5 -61.5 152.5q0 23 5 55l34 188q22 122 99.5 193t190.5 71h106q51 0 96 -20.5t67 -54.5l12 67h478l-19 -101h-383l-33 -190h350l-18 -102h-350l-36 -206h383l-18 -101h-393q-31 0 -50 16t-21 43l1 12q-33 -37 -78.5 -58t-92.5 -21h-102
q-105 0 -166.5 56.5zM382 95q66 0 112 44.5t60 121.5l32 179q4 28 4 39q0 58 -31.5 92t-85.5 34h-105q-65 0 -110 -44t-59 -121l-32 -180q-4 -19 -4 -41q0 -57 30.5 -90.5t84.5 -33.5h104z" />
    <glyph glyph-name="oe" unicode="&#x153;" horiz-adv-x="950" 
d="M876 464q49 -43 49 -115q0 -11 -4 -39l-17 -97h-370l-5 -29q-2 -14 -2 -19q0 -35 20.5 -55.5t56.5 -20.5h74q42 0 69.5 19.5t32.5 51.5h113q-14 -78 -73 -123t-147 -45h-73q-49 0 -89.5 18t-61.5 49q-30 -32 -70 -49.5t-80 -17.5h-82q-87 0 -137.5 43t-50.5 115
q0 12 4 38l23 123q17 92 76.5 144t149.5 52h87q48 0 87 -17.5t60 -48.5q60 66 148 66h79q84 0 133 -43zM809 336q0 35 -18.5 54.5t-51.5 19.5h-76q-41 0 -70.5 -28t-38.5 -73l-2 -10h253l2 13q2 9 2 24zM438 329q0 36 -20 57.5t-55 21.5h-85q-43 0 -71.5 -27t-37.5 -76
l-20 -111q-2 -8 -2 -24q0 -36 20.5 -57.5t55.5 -21.5h81q44 0 74 28t38 75l20 111q2 8 2 24z" />
    <glyph glyph-name="Racute" unicode="&#x154;" horiz-adv-x="669" 
d="M147 700h348q82 0 130 -38t48 -102q0 -14 -3 -31l-12 -71q-10 -54 -47 -93t-99 -57v-2q29 -19 43 -49t20 -76l24 -181h-121l-23 173q-6 45 -28.5 69t-58.5 24h-181l-46 -266h-117zM424 367q46 0 78 25t39 65l12 69q1 5 1 13q0 27 -17.5 43t-47.5 16h-243l-41 -231h219z
M488 944h131l-142 -171h-112z" />
    <glyph glyph-name="racute" unicode="&#x155;" horiz-adv-x="374" 
d="M108 499h107l-12 -68q27 32 65 51t78 19h64l-18 -100h-60q-57 0 -98 -35t-51 -91l-48 -275h-115zM334 743h131l-142 -171h-112z" />
    <glyph glyph-name="uni0156" unicode="&#x156;" horiz-adv-x="669" 
d="M147 700h348q82 0 130 -38t48 -102q0 -14 -3 -31l-12 -71q-10 -54 -47 -93t-99 -57v-2q29 -19 43 -49t20 -76l24 -181h-121l-23 173q-6 45 -28.5 69t-58.5 24h-181l-46 -266h-117zM424 367q46 0 78 25t39 65l12 69q1 5 1 13q0 27 -17.5 43t-47.5 16h-243l-41 -231h219z
M123 -236l29 21q33 24 51 51t23 60l7 36h114l-6 -36q-11 -64 -42 -111.5t-85 -83.5l-32 -22z" />
    <glyph glyph-name="uni0157" unicode="&#x157;" horiz-adv-x="374" 
d="M108 499h107l-12 -68q27 32 65 51t78 19h64l-18 -100h-60q-57 0 -98 -35t-51 -91l-48 -275h-115zM-100 -236l29 21q33 24 51 51t23 60l7 36h114l-6 -36q-11 -64 -42 -111.5t-85 -83.5l-32 -22z" />
    <glyph glyph-name="Rcaron" unicode="&#x158;" horiz-adv-x="669" 
d="M147 700h348q82 0 130 -38t48 -102q0 -14 -3 -31l-12 -71q-10 -54 -47 -93t-99 -57v-2q29 -19 43 -49t20 -76l24 -181h-121l-23 173q-6 45 -28.5 69t-58.5 24h-181l-46 -266h-117zM424 367q46 0 78 25t39 65l12 69q1 5 1 13q0 27 -17.5 43t-47.5 16h-243l-41 -231h219z
M273 951h99l60 -102l96 102h106l-174 -178h-78z" />
    <glyph glyph-name="rcaron" unicode="&#x159;" horiz-adv-x="374" 
d="M108 499h107l-12 -68q27 32 65 51t78 19h64l-18 -100h-60q-57 0 -98 -35t-51 -91l-48 -275h-115zM119 750h99l60 -102l96 102h106l-174 -178h-78z" />
    <glyph glyph-name="Sacute" unicode="&#x15a;" horiz-adv-x="646" 
d="M88.5 40q-54.5 48 -54.5 130q0 25 4 46h115q-2 -10 -2 -27q0 -44 24 -69t67 -25h111q50 0 83 21t40 57l8 44q1 4 1 10q0 23 -18 39t-51 22l-177 30q-73 13 -111 47.5t-38 87.5q0 18 2 28l10 55q15 81 77.5 126.5t159.5 45.5h112q88 0 139.5 -44.5t51.5 -120.5
q0 -22 -4 -41h-114q2 16 2 24q0 36 -21 57.5t-58 21.5h-112q-47 0 -79 -20.5t-38 -55.5l-7 -36q-1 -4 -1 -12q0 -23 17 -38.5t49 -21.5l176 -32q74 -13 113.5 -47t39.5 -86q0 -7 -2 -25l-11 -65q-15 -83 -78 -128.5t-163 -45.5h-114q-94 0 -148.5 48zM469 944h131l-142 -171
h-112z" />
    <glyph glyph-name="sacute" unicode="&#x15b;" horiz-adv-x="539" 
d="M67 29.5q-47 37.5 -47 101.5q0 14 3 29h113q-1 -5 -1 -14q0 -26 17 -41.5t48 -15.5h89q35 0 55.5 11t24.5 32l5 22q2 13 -7.5 23.5t-28.5 14.5l-168 30q-51 10 -79.5 37t-28.5 64q0 5 2 17l6 33q11 63 63 98.5t134 35.5h80q77 0 121 -35t44 -94q0 -18 -2 -27h-113
q1 4 1 12q0 22 -14.5 34.5t-40.5 12.5h-79q-33 0 -54.5 -11t-25.5 -31l-4 -20q-2 -13 7 -23.5t29 -13.5l173 -32q48 -10 75 -37t27 -63q0 -10 -1 -15l-7 -37q-11 -64 -63 -99.5t-135 -35.5h-89q-82 0 -129 37.5zM380 743h131l-142 -171h-112z" />
    <glyph glyph-name="Scircumflex" unicode="&#x15c;" horiz-adv-x="646" 
d="M88.5 40q-54.5 48 -54.5 130q0 25 4 46h115q-2 -10 -2 -27q0 -44 24 -69t67 -25h111q50 0 83 21t40 57l8 44q1 4 1 10q0 23 -18 39t-51 22l-177 30q-73 13 -111 47.5t-38 87.5q0 18 2 28l10 55q15 81 77.5 126.5t159.5 45.5h112q88 0 139.5 -44.5t51.5 -120.5
q0 -22 -4 -41h-114q2 16 2 24q0 36 -21 57.5t-58 21.5h-112q-47 0 -79 -20.5t-38 -55.5l-7 -36q-1 -4 -1 -12q0 -23 17 -38.5t49 -21.5l176 -32q74 -13 113.5 -47t39.5 -86q0 -7 -2 -25l-11 -65q-15 -83 -78 -128.5t-163 -45.5h-114q-94 0 -148.5 48zM395 951h78l110 -178
h-100l-59 102l-96 -102h-106z" />
    <glyph glyph-name="scircumflex" unicode="&#x15d;" horiz-adv-x="539" 
d="M67 29.5q-47 37.5 -47 101.5q0 14 3 29h113q-1 -5 -1 -14q0 -26 17 -41.5t48 -15.5h89q35 0 55.5 11t24.5 32l5 22q2 13 -7.5 23.5t-28.5 14.5l-168 30q-51 10 -79.5 37t-28.5 64q0 5 2 17l6 33q11 63 63 98.5t134 35.5h80q77 0 121 -35t44 -94q0 -18 -2 -27h-113
q1 4 1 12q0 22 -14.5 34.5t-40.5 12.5h-79q-33 0 -54.5 -11t-25.5 -31l-4 -20q-2 -13 7 -23.5t29 -13.5l173 -32q48 -10 75 -37t27 -63q0 -10 -1 -15l-7 -37q-11 -64 -63 -99.5t-135 -35.5h-89q-82 0 -129 37.5zM306 750h78l110 -178h-100l-59 102l-96 -102h-106z" />
    <glyph glyph-name="Scedilla" unicode="&#x15e;" horiz-adv-x="646" 
d="M524 502q2 16 2 24q0 36 -21 57.5t-58 21.5h-112q-47 0 -79 -20.5t-38 -55.5l-7 -36q-1 -4 -1 -12q0 -23 17 -38.5t49 -21.5l176 -32q74 -13 113.5 -47t39.5 -86q0 -7 -2 -25l-11 -65q-15 -83 -78 -128.5t-163 -45.5h-19l-26 -41h8q35 0 55 -17t20 -48q0 -10 -1 -15
l-3 -17q-7 -45 -41.5 -70t-88.5 -25h-92l12 71h75q20 0 33 7t15 19l3 14q2 11 -7.5 18t-25.5 7h-59l8 49l29 48h-9q-94 0 -148.5 48t-54.5 130q0 25 4 46h115q-2 -10 -2 -27q0 -44 24 -69t67 -25h111q50 0 83 21t40 57l8 44q1 4 1 10q0 23 -18 39t-51 22l-177 30
q-73 13 -111 47.5t-38 87.5q0 18 2 28l10 55q15 81 77.5 126.5t159.5 45.5h112q88 0 139.5 -44.5t51.5 -120.5q0 -22 -4 -41h-114z" />
    <glyph glyph-name="scedilla" unicode="&#x15f;" horiz-adv-x="539" 
d="M397 351q1 4 1 12q0 22 -14.5 34.5t-40.5 12.5h-79q-33 0 -54.5 -11t-25.5 -31l-4 -20q-2 -13 7 -23.5t29 -13.5l173 -32q48 -10 75 -37t27 -63q0 -10 -1 -15l-7 -37q-11 -64 -63 -99.5t-135 -35.5h-6l-26 -41h7q35 0 55 -17t20 -48q0 -10 -1 -15l-2 -17
q-7 -45 -41.5 -70t-89.5 -25h-91l12 71h75q19 0 32 7t16 19l2 14q2 11 -6.5 18t-25.5 7h-60l9 49l29 48q-80 1 -126.5 38.5t-46.5 99.5q0 15 3 30h113q-1 -5 -1 -14q0 -26 17 -41.5t48 -15.5h89q35 0 55.5 11t24.5 32l5 22q2 13 -7.5 23.5t-28.5 14.5l-168 30
q-51 10 -79.5 37t-28.5 64q0 5 2 17l6 33q11 63 63 98.5t134 35.5h80q77 0 121 -35t44 -94q0 -18 -2 -27h-113z" />
    <glyph glyph-name="Scaron" unicode="&#x160;" horiz-adv-x="646" 
d="M88.5 40q-54.5 48 -54.5 130q0 25 4 46h115q-2 -10 -2 -27q0 -44 24 -69t67 -25h111q50 0 83 21t40 57l8 44q1 4 1 10q0 23 -18 39t-51 22l-177 30q-73 13 -111 47.5t-38 87.5q0 18 2 28l10 55q15 81 77.5 126.5t159.5 45.5h112q88 0 139.5 -44.5t51.5 -120.5
q0 -22 -4 -41h-114q2 16 2 24q0 36 -21 57.5t-58 21.5h-112q-47 0 -79 -20.5t-38 -55.5l-7 -36q-1 -4 -1 -12q0 -23 17 -38.5t49 -21.5l176 -32q74 -13 113.5 -47t39.5 -86q0 -7 -2 -25l-11 -65q-15 -83 -78 -128.5t-163 -45.5h-114q-94 0 -148.5 48zM254 951h99l60 -102
l96 102h106l-174 -178h-78z" />
    <glyph glyph-name="scaron" unicode="&#x161;" horiz-adv-x="539" 
d="M67 29.5q-47 37.5 -47 101.5q0 14 3 29h113q-1 -5 -1 -14q0 -26 17 -41.5t48 -15.5h89q35 0 55.5 11t24.5 32l5 22q2 13 -7.5 23.5t-28.5 14.5l-168 30q-51 10 -79.5 37t-28.5 64q0 5 2 17l6 33q11 63 63 98.5t134 35.5h80q77 0 121 -35t44 -94q0 -18 -2 -27h-113
q1 4 1 12q0 22 -14.5 34.5t-40.5 12.5h-79q-33 0 -54.5 -11t-25.5 -31l-4 -20q-2 -13 7 -23.5t29 -13.5l173 -32q48 -10 75 -37t27 -63q0 -10 -1 -15l-7 -37q-11 -64 -63 -99.5t-135 -35.5h-89q-82 0 -129 37.5zM165 750h99l60 -102l96 102h106l-174 -178h-78z" />
    <glyph glyph-name="uni0162" unicode="&#x162;" horiz-adv-x="597" 
d="M658 700l-18 -101h-222l-105 -599h-24l-31 -49h8q35 0 55 -17t20 -48q0 -10 -1 -15l-3 -17q-7 -45 -41 -70t-89 -25h-92l12 71h75q20 0 33 7t15 19l3 14q2 11 -6.5 18t-25.5 7h-60l9 49l33 56h-7l105 599h-222l18 101h561z" />
    <glyph glyph-name="uni0163" unicode="&#x163;" horiz-adv-x="401" 
d="M211 162q-2 -16 -2 -21q0 -22 11 -32t35 -10h75l-18 -99h-78l-31 -49h8q35 0 55 -17t20 -48q0 -10 -1 -15l-3 -17q-7 -45 -41 -70t-89 -25h-92l12 71h75q20 0 33 7t15 19l3 14q2 11 -6.5 18t-25.5 7h-60l9 49l40 67q-64 24 -64 100q0 19 5 47l43 242h-88l17 99h91l27 151
h112l-27 -151h129l-17 -99h-129z" />
    <glyph glyph-name="Tcaron" unicode="&#x164;" horiz-adv-x="597" 
d="M301 599h-222l18 101h561l-18 -101h-222l-105 -599h-117zM239 951h99l60 -102l96 102h106l-174 -178h-78z" />
    <glyph glyph-name="tcaron" unicode="&#x165;" horiz-adv-x="594" 
d="M126 27q-34 27 -34 84q0 24 4 47l43 242h-88l17 99h91l27 151h112l-27 -151h129l-17 -99h-129l-43 -238q-2 -16 -2 -21q0 -22 11 -32t35 -10h75l-18 -99h-81q-71 0 -105 27zM444 525l29 21q32 23 50 50t24 61l8 43h114l-7 -43q-11 -64 -42 -111t-85 -84l-33 -22z" />
    <glyph glyph-name="Tbar" unicode="&#x166;" horiz-adv-x="597" 
d="M418 599l-42 -237h151l-17 -90h-149l-48 -272h-117l48 272h-150l16 90h149l42 237h-222l18 101h561l-18 -101h-222z" />
    <glyph glyph-name="tbar" unicode="&#x167;" horiz-adv-x="388" 
d="M255 400l-18 -100h128l-14 -82h-128l-10 -56q-2 -16 -2 -22q0 -22 11 -31.5t35 -9.5h74l-18 -99h-81q-71 0 -105 27t-34 85q0 23 4 46l11 60h-89l14 82h89l18 100h-88l17 99h91l27 151h112l-27 -151h129l-17 -99h-129z" />
    <glyph glyph-name="Utilde" unicode="&#x168;" horiz-adv-x="711" 
d="M114 45q-57 53 -57 141q0 21 5 51l81 463h117l-81 -461q-3 -18 -3 -36q0 -50 26 -79t72 -29h107q58 0 96.5 38t50.5 106l81 461h117l-82 -463q-20 -116 -90 -180.5t-177 -64.5h-107q-99 0 -156 53zM477.5 775q-16.5 10 -36.5 29q-13 12 -22 18t-18 6h-8q-14 0 -25 -14
t-16 -38h-84q11 62 44.5 97.5t82.5 35.5h7q24 0 42 -11t38 -30q12 -11 20 -16.5t15 -5.5h8q13 0 23.5 14t15.5 38h84q-12 -63 -44.5 -98t-79.5 -35h-7q-23 0 -39.5 10z" />
    <glyph glyph-name="utilde" unicode="&#x169;" horiz-adv-x="589" 
d="M83 31.5q-41 39.5 -41 105.5q0 22 4 41l56 321h115l-57 -323q-2 -16 -2 -22q0 -29 14.5 -45.5t40.5 -16.5h59q39 0 74 30t56 80l52 297h115l-88 -499h-108l12 68q-30 -34 -64.5 -55t-63.5 -21h-63q-70 0 -111 39.5zM381.5 574q-16.5 10 -36.5 29q-13 12 -22 18t-18 6h-8
q-14 0 -25 -14t-16 -38h-84q11 62 44.5 97.5t82.5 35.5h7q24 0 42 -11t38 -30q12 -11 20 -16.5t15 -5.5h8q13 0 23.5 14t15.5 38h84q-12 -63 -44.5 -98t-79.5 -35h-7q-23 0 -39.5 10z" />
    <glyph glyph-name="Umacron" unicode="&#x16a;" horiz-adv-x="711" 
d="M114 45q-57 53 -57 141q0 21 5 51l81 463h117l-81 -461q-3 -18 -3 -36q0 -50 26 -79t72 -29h107q58 0 96.5 38t50.5 106l81 461h117l-82 -463q-20 -116 -90 -180.5t-177 -64.5h-107q-99 0 -156 53zM316 874h298l-15 -88h-299z" />
    <glyph glyph-name="umacron" unicode="&#x16b;" horiz-adv-x="589" 
d="M83 31.5q-41 39.5 -41 105.5q0 22 4 41l56 321h115l-57 -323q-2 -16 -2 -22q0 -29 14.5 -45.5t40.5 -16.5h59q39 0 74 30t56 80l52 297h115l-88 -499h-108l12 68q-30 -34 -64.5 -55t-63.5 -21h-63q-70 0 -111 39.5zM220 673h298l-15 -88h-299z" />
    <glyph glyph-name="Ubreve" unicode="&#x16c;" horiz-adv-x="711" 
d="M114 45q-57 53 -57 141q0 21 5 51l81 463h117l-81 -461q-3 -18 -3 -36q0 -50 26 -79t72 -29h107q58 0 96.5 38t50.5 106l81 461h117l-82 -463q-20 -116 -90 -180.5t-177 -64.5h-107q-99 0 -156 53zM341 797q-39 32 -39 85q0 18 2 27l3 16h90l-3 -16q-1 -4 -1 -12
q0 -26 16 -40.5t44 -14.5h12q32 0 55 18t27 49l3 16h90l-3 -16q-12 -67 -59.5 -105.5t-119.5 -38.5h-12q-66 0 -105 32z" />
    <glyph glyph-name="ubreve" unicode="&#x16d;" horiz-adv-x="589" 
d="M83 31.5q-41 39.5 -41 105.5q0 22 4 41l56 321h115l-57 -323q-2 -16 -2 -22q0 -29 14.5 -45.5t40.5 -16.5h59q39 0 74 30t56 80l52 297h115l-88 -499h-108l12 68q-30 -34 -64.5 -55t-63.5 -21h-63q-70 0 -111 39.5zM245 596q-39 32 -39 85q0 18 2 27l3 16h90l-3 -16
q-1 -4 -1 -12q0 -26 16 -40.5t44 -14.5h12q32 0 55 18t27 49l3 16h90l-3 -16q-12 -67 -59.5 -105.5t-119.5 -38.5h-12q-66 0 -105 32z" />
    <glyph glyph-name="Uring" unicode="&#x16e;" horiz-adv-x="711" 
d="M114 45q-57 53 -57 141q0 21 5 51l81 463h117l-81 -461q-3 -18 -3 -36q0 -50 26 -79t72 -29h107q58 0 96.5 38t50.5 106l81 461h117l-82 -463q-20 -116 -90 -180.5t-177 -64.5h-107q-99 0 -156 53zM370.5 772.5q-27.5 26.5 -27.5 69.5q0 60 37.5 96.5t99.5 36.5
q46 0 74 -26.5t28 -69.5q0 -59 -38 -96t-100 -37q-46 0 -73.5 26.5zM495.5 829q15.5 16 15.5 42q0 17 -11 27t-29 10q-26 0 -42 -15.5t-16 -41.5q0 -17 11 -27.5t30 -10.5q26 0 41.5 16z" />
    <glyph glyph-name="uring" unicode="&#x16f;" horiz-adv-x="589" 
d="M83 31.5q-41 39.5 -41 105.5q0 22 4 41l56 321h115l-57 -323q-2 -16 -2 -22q0 -29 14.5 -45.5t40.5 -16.5h59q39 0 74 30t56 80l52 297h115l-88 -499h-108l12 68q-30 -34 -64.5 -55t-63.5 -21h-63q-70 0 -111 39.5zM274.5 571.5q-27.5 26.5 -27.5 69.5q0 60 37.5 96.5
t99.5 36.5q46 0 74 -26.5t28 -69.5q0 -59 -38 -96t-100 -37q-46 0 -73.5 26.5zM399.5 628q15.5 16 15.5 42q0 17 -11 27t-29 10q-26 0 -42 -15.5t-16 -41.5q0 -17 11 -27.5t30 -10.5q26 0 41.5 16z" />
    <glyph glyph-name="Uhungarumlaut" unicode="&#x170;" horiz-adv-x="711" 
d="M114 45q-57 53 -57 141q0 21 5 51l81 463h117l-81 -461q-3 -18 -3 -36q0 -50 26 -79t72 -29h107q58 0 96.5 38t50.5 106l81 461h117l-82 -463q-20 -116 -90 -180.5t-177 -64.5h-107q-99 0 -156 53zM422 944h122l-141 -171h-103zM594 944h122l-141 -171h-103z" />
    <glyph glyph-name="uhungarumlaut" unicode="&#x171;" horiz-adv-x="589" 
d="M83 31.5q-41 39.5 -41 105.5q0 22 4 41l56 321h115l-57 -323q-2 -16 -2 -22q0 -29 14.5 -45.5t40.5 -16.5h59q39 0 74 30t56 80l52 297h115l-88 -499h-108l12 68q-30 -34 -64.5 -55t-63.5 -21h-63q-70 0 -111 39.5zM326 743h122l-141 -171h-103zM498 743h122l-141 -171
h-103z" />
    <glyph glyph-name="Uogonek" unicode="&#x172;" horiz-adv-x="711" 
d="M726 700l-82 -463q-19 -106 -78 -169t-151 -74q-29 -16 -49.5 -40.5t-25.5 -49.5l-2 -10q-1 -3 -1 -9q0 -15 10.5 -23.5t29.5 -8.5h13q15 0 33.5 5.5t31.5 14.5l-13 -75q-15 -10 -35.5 -16t-41.5 -6h-14q-51 0 -81 23t-30 62q0 10 1 16l2 13q5 28 25 55.5t48 46.5h-46
q-99 0 -156 53t-57 141q0 21 5 51l81 463h117l-81 -461q-3 -18 -3 -36q0 -50 26 -79t72 -29h107q58 0 96.5 38t50.5 106l81 461h117z" />
    <glyph glyph-name="uogonek" unicode="&#x173;" horiz-adv-x="589" 
d="M445 -147q15 0 33 5.5t32 14.5l-14 -75q-15 -10 -35.5 -16t-41.5 -6h-13q-51 0 -81 23t-30 61q0 11 1 17l2 13q5 31 29.5 62t57.5 48h-12l12 68q-30 -34 -64.5 -55t-63.5 -21h-63q-70 0 -111 39.5t-41 105.5q0 22 4 41l56 321h115l-57 -323q-2 -16 -2 -22
q0 -29 14.5 -45.5t40.5 -16.5h59q39 0 74 30t56 80l52 297h115l-88 -499q-34 -16 -57 -42t-29 -54l-2 -10q-1 -3 -1 -10q0 -14 10 -22.5t29 -8.5h14z" />
    <glyph glyph-name="Wcircumflex" unicode="&#x174;" horiz-adv-x="866" 
d="M133 15.5q-19 15.5 -20 58.5l-12 626h115l-1 -533h1l243 496h44q21 0 35.5 -12t18.5 -42l57 -441h1l189 532h119l-234 -626q-14 -37 -36 -55.5t-57 -18.5h-48l-67 508h-2l-249 -508h-48q-30 0 -49 15.5zM518 951h78l110 -178h-100l-59 102l-96 -102h-106z" />
    <glyph glyph-name="wcircumflex" unicode="&#x175;" horiz-adv-x="740" 
d="M764 499l-177 -428q-16 -37 -38 -54t-52 -17h-53l-56 336l-179 -336h-52q-61 0 -65 71l-28 428h117l10 -353l179 340h44q39 0 45 -38l50 -301l134 352h121zM421 750h78l110 -178h-100l-59 102l-96 -102h-106z" />
    <glyph glyph-name="Ycircumflex" unicode="&#x176;" horiz-adv-x="642" 
d="M266 271l-183 429h120l133 -322l247 322h134l-334 -429l-48 -271h-116zM405 951h78l110 -178h-100l-59 102l-96 -102h-106z" />
    <glyph glyph-name="ycircumflex" unicode="&#x177;" horiz-adv-x="589" 
d="M58.5 -165.5q-45.5 37.5 -45.5 99.5q0 10 1 16h113q-1 -25 14.5 -40t42.5 -15h81q39 0 66.5 28t35.5 77l13 74q-27 -32 -61 -51.5t-61 -19.5h-63q-71 0 -111.5 39t-40.5 105q0 12 4 40l55 312h115l-55 -314q-2 -16 -2 -22q0 -29 14.5 -45.5t40.5 -16.5h59q38 0 74 30.5
t55 79.5l52 288h114l-88 -499q-16 -96 -74.5 -149.5t-145.5 -53.5h-81q-76 0 -121.5 37.5zM343 750h78l110 -178h-100l-59 102l-96 -102h-106z" />
    <glyph glyph-name="Ydieresis" unicode="&#x178;" horiz-adv-x="642" 
d="M266 271l-183 429h120l133 -322l247 322h134l-334 -429l-48 -271h-116zM257.5 788q-14.5 14 -14.5 37q0 35 21 56t56 21q24 0 39 -14t15 -37q0 -34 -21.5 -55.5t-55.5 -21.5q-25 0 -39.5 14zM490 788q-15 14 -15 37q0 35 21.5 56t55.5 21q25 0 39.5 -14t14.5 -37
q0 -34 -21 -55.5t-56 -21.5q-24 0 -39 14z" />
    <glyph glyph-name="Zacute" unicode="&#x179;" horiz-adv-x="597" 
d="M-6 56l473 544h-359l17 100h523l-10 -56l-474 -544h368l-17 -100h-531zM456 944h131l-142 -171h-112z" />
    <glyph glyph-name="zacute" unicode="&#x17a;" horiz-adv-x="491" 
d="M-10 56l337 346h-264l17 97h431l-10 -56l-337 -346h271l-17 -97h-438zM372 743h131l-142 -171h-112z" />
    <glyph glyph-name="Zdotaccent" unicode="&#x17b;" horiz-adv-x="597" 
d="M-6 56l473 544h-359l17 100h523l-10 -56l-474 -544h368l-17 -100h-531zM344 783.5q-17 15.5 -17 41.5q0 40 24.5 64.5t63.5 24.5q28 0 45 -16t17 -42q0 -40 -24.5 -64t-63.5 -24q-28 0 -45 15.5z" />
    <glyph glyph-name="zdotaccent" unicode="&#x17c;" horiz-adv-x="491" 
d="M-10 56l337 346h-264l17 97h431l-10 -56l-337 -346h271l-17 -97h-438zM260 582.5q-17 15.5 -17 41.5q0 40 24.5 64.5t63.5 24.5q28 0 45 -16t17 -42q0 -40 -24.5 -64t-63.5 -24q-28 0 -45 15.5z" />
    <glyph glyph-name="Zcaron" unicode="&#x17d;" horiz-adv-x="597" 
d="M-6 56l473 544h-359l17 100h523l-10 -56l-474 -544h368l-17 -100h-531zM241 951h99l60 -102l96 102h106l-174 -178h-78z" />
    <glyph glyph-name="zcaron" unicode="&#x17e;" horiz-adv-x="491" 
d="M-10 56l337 346h-264l17 97h431l-10 -56l-337 -346h271l-17 -97h-438zM157 750h99l60 -102l96 102h106l-174 -178h-78z" />
    <glyph glyph-name="uni018F" unicode="&#x18f;" horiz-adv-x="727" 
d="M655.5 653q64.5 -55 64.5 -147q0 -26 -4 -47l-36 -204q-23 -125 -101 -194t-197 -69h-114q-103 0 -164 55.5t-61 148.5q0 22 5 52l5 29l18 102h514l14 80q3 17 3 32q0 53 -33.5 84t-92.5 31h-106q-66 0 -109.5 -36t-54.5 -101h-115q20 113 94.5 176t188.5 63h106
q111 0 175.5 -55zM502.5 136.5q46.5 42.5 60.5 118.5l4 22h-397l-5 -29q-4 -28 -4 -38q0 -53 29.5 -84.5t81.5 -31.5h114q70 0 116.5 42.5z" />
    <glyph glyph-name="florin" unicode="&#x192;" horiz-adv-x="610" 
d="M-12 -68h53q37 0 61.5 21t45.5 70l160 378h-86l17 99h110l11 24q41 92 93.5 136t140.5 44h52l-17 -98h-52q-35 0 -58 -19.5t-44 -65.5l-11 -21h104l-16 -99h-128l-164 -387q-41 -95 -94.5 -137.5t-136.5 -42.5h-58z" />
    <glyph glyph-name="Ohorn" unicode="&#x1a0;" horiz-adv-x="811" 
d="M911 704l-7 -36q-17 -90 -67 -141t-123 -51h-8q-2 -20 -4 -30l-34 -192q-22 -124 -97.5 -193t-192.5 -69h-107q-104 0 -165.5 57t-61.5 152q0 23 5 53l34 192q22 124 97 193t191 69h106q85 0 142.5 -36.5t77.5 -100.5h16q31 0 53.5 25.5t30.5 71.5l7 36h107zM588 483
q0 56 -31 89t-85 33h-105q-65 0 -110 -43.5t-58 -119.5l-33 -184q-4 -28 -4 -39q0 -57 31 -90.5t84 -33.5h105q66 0 111 43t59 120l32 184q4 19 4 41z" />
    <glyph glyph-name="ohorn" unicode="&#x1a1;" horiz-adv-x="695" 
d="M738 512l-7 -36q-16 -88 -64 -138.5t-119 -53.5l-17 -97q-17 -92 -76.5 -143.5t-151.5 -51.5h-87q-85 0 -135.5 43.5t-50.5 115.5q0 18 3 36l22 124q17 92 77 144t150 52h87q77 0 125.5 -34t59.5 -93q26 6 44.5 31t25.5 65l7 36h107zM439 329q0 36 -20.5 57.5t-55.5 21.5
h-84q-44 0 -73 -27t-37 -76l-20 -111q-2 -9 -2 -25q0 -36 20 -57t55 -21h84q43 0 73 28t38 75l20 111q2 8 2 24z" />
    <glyph glyph-name="Uhorn" unicode="&#x1af;" horiz-adv-x="817" 
d="M914 700l-7 -36q-17 -90 -67 -141t-123 -51h-31l-42 -235q-20 -116 -90 -180.5t-177 -64.5h-107q-99 0 -156 53t-57 141q0 21 5 51l81 463h117l-81 -461q-3 -18 -3 -36q0 -50 26 -79t72 -29h107q58 0 96.5 38t50.5 106l81 461h117l-24 -133h14q31 0 53.5 25.5t30.5 71.5
l7 36h107z" />
    <glyph glyph-name="uhorn" unicode="&#x1b0;" horiz-adv-x="698" 
d="M747 499l-6 -36q-16 -91 -66.5 -141.5t-123.5 -50.5h-22l-48 -271h-108l12 68q-30 -34 -64.5 -55t-63.5 -21h-63q-70 0 -111 39.5t-41 105.5q0 22 4 41l56 321h115l-57 -323q-2 -16 -2 -22q0 -29 14.5 -45.5t40.5 -16.5h59q39 0 74 30t56 80l52 297h115l-23 -133h3
q31 0 53.5 25.5t30.5 71.5l7 36h107z" />
    <glyph glyph-name="uni01CD" unicode="&#x1cd;" horiz-adv-x="670" 
d="M465 173h-278l-95 -173h-126l395 700h53q55 0 66 -53l136 -647h-117zM237 271h213l-55 284h-1zM278 951h99l60 -102l96 102h106l-174 -178h-78z" />
    <glyph glyph-name="uni01CE" unicode="&#x1ce;" horiz-adv-x="575" 
d="M68.5 24q-42.5 32 -42.5 85q0 8 2 24l6 37q12 66 61.5 102t125.5 36h62q30 0 65.5 -8t59.5 -21l10 62q2 10 2 15q0 25 -16.5 39.5t-44.5 14.5h-83q-34 0 -56.5 -15t-27.5 -41h-112q13 71 66.5 112t133.5 41h83q79 0 125.5 -36.5t46.5 -98.5q0 -14 -3 -31l-60 -341h-107
l12 63q-31 -33 -66 -52t-68 -19h-59q-73 0 -115.5 32zM256 82q39 0 75.5 22.5t55.5 59.5l5 24q-15 14 -44.5 22.5t-63.5 8.5h-63q-31 0 -51 -14.5t-24 -39.5l-6 -28q-1 -3 -1 -10q0 -20 16.5 -32.5t44.5 -12.5h56zM201 750h99l60 -102l96 102h106l-174 -178h-78z" />
    <glyph glyph-name="uni01CF" unicode="&#x1cf;" horiz-adv-x="273" 
d="M157 700h117l-123 -700h-117zM79 951h99l60 -102l96 102h106l-174 -178h-78z" />
    <glyph glyph-name="uni01D0" unicode="&#x1d0;" horiz-adv-x="255" 
d="M114 499h115l-88 -499h-115zM35 750h99l60 -102l96 102h106l-174 -178h-78z" />
    <glyph glyph-name="uni01D1" unicode="&#x1d1;" horiz-adv-x="715" 
d="M105.5 49q-61.5 57 -61.5 152q0 23 5 53l34 192q22 124 97 193t191 69h106q107 0 168.5 -56t61.5 -151q0 -23 -5 -55l-34 -192q-22 -124 -97.5 -193t-192.5 -69h-107q-104 0 -165.5 57zM382 95q66 0 111 43t59 120l32 184q4 19 4 41q0 56 -31 89t-85 33h-105
q-65 0 -110 -43.5t-58 -119.5l-33 -184q-4 -28 -4 -39q0 -57 31 -90.5t84 -33.5h105zM301 951h99l60 -102l96 102h106l-174 -178h-78z" />
    <glyph glyph-name="uni01D2" unicode="&#x1d2;" horiz-adv-x="586" 
d="M80.5 35.5q-50.5 43.5 -50.5 115.5q0 18 3 36l22 124q17 92 77 144t150 52h87q87 0 137.5 -43t50.5 -115q0 -12 -4 -38l-22 -124q-17 -92 -76.5 -143.5t-151.5 -51.5h-87q-85 0 -135.5 43.5zM306 91q43 0 73 28t38 75l20 111q2 8 2 24q0 36 -20.5 57.5t-55.5 21.5h-84
q-44 0 -73 -27t-37 -76l-20 -111q-2 -9 -2 -25q0 -36 20 -57t55 -21h84zM201 750h99l60 -102l96 102h106l-174 -178h-78z" />
    <glyph glyph-name="uni01D3" unicode="&#x1d3;" horiz-adv-x="711" 
d="M114 45q-57 53 -57 141q0 21 5 51l81 463h117l-81 -461q-3 -18 -3 -36q0 -50 26 -79t72 -29h107q58 0 96.5 38t50.5 106l81 461h117l-82 -463q-20 -116 -90 -180.5t-177 -64.5h-107q-99 0 -156 53zM298 951h99l60 -102l96 102h106l-174 -178h-78z" />
    <glyph glyph-name="uni01D4" unicode="&#x1d4;" horiz-adv-x="589" 
d="M83 31.5q-41 39.5 -41 105.5q0 22 4 41l56 321h115l-57 -323q-2 -16 -2 -22q0 -29 14.5 -45.5t40.5 -16.5h59q39 0 74 30t56 80l52 297h115l-88 -499h-108l12 68q-30 -34 -64.5 -55t-63.5 -21h-63q-70 0 -111 39.5zM202 750h99l60 -102l96 102h106l-174 -178h-78z" />
    <glyph glyph-name="uni01D5" unicode="&#x1d5;" horiz-adv-x="711" 
d="M114 45q-57 53 -57 141q0 21 5 51l81 463h117l-81 -461q-3 -18 -3 -36q0 -50 26 -79t72 -29h107q58 0 96.5 38t50.5 106l81 461h117l-82 -463q-20 -116 -90 -180.5t-177 -64.5h-107q-99 0 -156 53zM346 1048h299l-15 -84h-299zM291.5 788q-14.5 14 -14.5 37q0 35 21 56
t56 21q24 0 39 -14t15 -37q0 -34 -21.5 -55.5t-55.5 -21.5q-25 0 -39.5 14zM524 788q-15 14 -15 37q0 35 21.5 56t55.5 21q25 0 39.5 -14t14.5 -37q0 -34 -21 -55.5t-56 -21.5q-24 0 -39 14z" />
    <glyph glyph-name="uni01D6" unicode="&#x1d6;" horiz-adv-x="589" 
d="M83 31.5q-41 39.5 -41 105.5q0 22 4 41l56 321h115l-57 -323q-2 -16 -2 -22q0 -29 14.5 -45.5t40.5 -16.5h59q39 0 74 30t56 80l52 297h115l-88 -499h-108l12 68q-30 -34 -64.5 -55t-63.5 -21h-63q-70 0 -111 39.5zM250 847h299l-15 -84h-299zM195.5 587
q-14.5 14 -14.5 37q0 35 21 56t56 21q24 0 39 -14t15 -37q0 -34 -21.5 -55.5t-55.5 -21.5q-25 0 -39.5 14zM428 587q-15 14 -15 37q0 35 21.5 56t55.5 21q25 0 39.5 -14t14.5 -37q0 -34 -21 -55.5t-56 -21.5q-24 0 -39 14z" />
    <glyph glyph-name="uni01D7" unicode="&#x1d7;" horiz-adv-x="711" 
d="M114 45q-57 53 -57 141q0 21 5 51l81 463h117l-81 -461q-3 -18 -3 -36q0 -50 26 -79t72 -29h107q58 0 96.5 38t50.5 106l81 461h117l-82 -463q-20 -116 -90 -180.5t-177 -64.5h-107q-99 0 -156 53zM529 1085h110l-116 -139h-94zM291.5 788q-14.5 14 -14.5 37q0 35 21 56
t56 21q24 0 39 -14t15 -37q0 -34 -21.5 -55.5t-55.5 -21.5q-25 0 -39.5 14zM524 788q-15 14 -15 37q0 35 21.5 56t55.5 21q25 0 39.5 -14t14.5 -37q0 -34 -21 -55.5t-56 -21.5q-24 0 -39 14z" />
    <glyph glyph-name="uni01D8" unicode="&#x1d8;" horiz-adv-x="589" 
d="M83 31.5q-41 39.5 -41 105.5q0 22 4 41l56 321h115l-57 -323q-2 -16 -2 -22q0 -29 14.5 -45.5t40.5 -16.5h59q39 0 74 30t56 80l52 297h115l-88 -499h-108l12 68q-30 -34 -64.5 -55t-63.5 -21h-63q-70 0 -111 39.5zM433 884h110l-116 -139h-94zM195.5 587
q-14.5 14 -14.5 37q0 35 21 56t56 21q24 0 39 -14t15 -37q0 -34 -21.5 -55.5t-55.5 -21.5q-25 0 -39.5 14zM428 587q-15 14 -15 37q0 35 21.5 56t55.5 21q25 0 39.5 -14t14.5 -37q0 -34 -21 -55.5t-56 -21.5q-24 0 -39 14z" />
    <glyph glyph-name="uni01D9" unicode="&#x1d9;" horiz-adv-x="711" 
d="M114 45q-57 53 -57 141q0 21 5 51l81 463h117l-81 -461q-3 -18 -3 -36q0 -50 26 -79t72 -29h107q58 0 96.5 38t50.5 106l81 461h117l-82 -463q-20 -116 -90 -180.5t-177 -64.5h-107q-99 0 -156 53zM349 1097h86l49 -89l81 89h93l-147 -157h-71zM291.5 788
q-14.5 14 -14.5 37q0 35 21 56t56 21q24 0 39 -14t15 -37q0 -34 -21.5 -55.5t-55.5 -21.5q-25 0 -39.5 14zM524 788q-15 14 -15 37q0 35 21.5 56t55.5 21q25 0 39.5 -14t14.5 -37q0 -34 -21 -55.5t-56 -21.5q-24 0 -39 14z" />
    <glyph glyph-name="uni01DA" unicode="&#x1da;" horiz-adv-x="589" 
d="M83 31.5q-41 39.5 -41 105.5q0 22 4 41l56 321h115l-57 -323q-2 -16 -2 -22q0 -29 14.5 -45.5t40.5 -16.5h59q39 0 74 30t56 80l52 297h115l-88 -499h-108l12 68q-30 -34 -64.5 -55t-63.5 -21h-63q-70 0 -111 39.5zM253 896h86l49 -89l81 89h93l-147 -157h-71zM195.5 587
q-14.5 14 -14.5 37q0 35 21 56t56 21q24 0 39 -14t15 -37q0 -34 -21.5 -55.5t-55.5 -21.5q-25 0 -39.5 14zM428 587q-15 14 -15 37q0 35 21.5 56t55.5 21q25 0 39.5 -14t14.5 -37q0 -34 -21 -55.5t-56 -21.5q-24 0 -39 14z" />
    <glyph glyph-name="uni01DB" unicode="&#x1db;" horiz-adv-x="711" 
d="M114 45q-57 53 -57 141q0 21 5 51l81 463h117l-81 -461q-3 -18 -3 -36q0 -50 26 -79t72 -29h107q58 0 96.5 38t50.5 106l81 461h117l-82 -463q-20 -116 -90 -180.5t-177 -64.5h-107q-99 0 -156 53zM367 1085h104l52 -139h-88zM291.5 788q-14.5 14 -14.5 37q0 35 21 56
t56 21q24 0 39 -14t15 -37q0 -34 -21.5 -55.5t-55.5 -21.5q-25 0 -39.5 14zM524 788q-15 14 -15 37q0 35 21.5 56t55.5 21q25 0 39.5 -14t14.5 -37q0 -34 -21 -55.5t-56 -21.5q-24 0 -39 14z" />
    <glyph glyph-name="uni01DC" unicode="&#x1dc;" horiz-adv-x="589" 
d="M83 31.5q-41 39.5 -41 105.5q0 22 4 41l56 321h115l-57 -323q-2 -16 -2 -22q0 -29 14.5 -45.5t40.5 -16.5h59q39 0 74 30t56 80l52 297h115l-88 -499h-108l12 68q-30 -34 -64.5 -55t-63.5 -21h-63q-70 0 -111 39.5zM271 884h104l52 -139h-88zM195.5 587
q-14.5 14 -14.5 37q0 35 21 56t56 21q24 0 39 -14t15 -37q0 -34 -21.5 -55.5t-55.5 -21.5q-25 0 -39.5 14zM428 587q-15 14 -15 37q0 35 21.5 56t55.5 21q25 0 39.5 -14t14.5 -37q0 -34 -21 -55.5t-56 -21.5q-24 0 -39 14z" />
    <glyph glyph-name="Gcaron" unicode="&#x1e6;" horiz-adv-x="703" 
d="M103.5 48q-59.5 56 -59.5 150q0 24 5 56l34 192q21 124 96.5 193t188.5 69h109q101 0 160 -52t59 -139q0 -25 -4 -45h-115q3 15 3 29q0 48 -29 76t-78 28h-109q-65 0 -108.5 -43.5t-56.5 -119.5l-33 -184q-4 -20 -4 -41q0 -56 29 -89t80 -33h115q61 0 102.5 38.5
t54.5 107.5l6 34h-194l17 102h309l-24 -136q-20 -118 -93 -183.5t-183 -65.5h-115q-103 0 -162.5 56zM296 951h99l60 -102l96 102h106l-174 -178h-78z" />
    <glyph glyph-name="gcaron" unicode="&#x1e7;" horiz-adv-x="597" 
d="M58.5 -165.5q-45.5 37.5 -45.5 99.5q0 10 1 16h113q-1 -25 14.5 -40t42.5 -15h88q40 0 67 28t35 77l10 57q-26 -25 -55.5 -39.5t-54.5 -14.5h-69q-80 0 -127 42t-47 113q0 11 4 39l18 107q17 95 76 149t147 54h62q39 0 72.5 -16.5t49.5 -43.5l9 52h108l-88 -499
q-17 -96 -75.5 -149.5t-145.5 -53.5h-88q-76 0 -121.5 37.5zM287 101q42 0 77.5 34t48.5 88l16 87q3 43 -19 70.5t-60 27.5h-70q-44 0 -74.5 -30t-38.5 -81l-16 -93q-2 -9 -2 -26q0 -36 18 -56.5t50 -20.5h70zM198 750h99l60 -102l96 102h106l-174 -178h-78z" />
    <glyph glyph-name="Aringacute" unicode="&#x1fa;" horiz-adv-x="670" 
d="M465 173h-278l-95 -173h-126l395 700h53q55 0 66 -53l136 -647h-117zM237 271h213l-55 284h-1zM350.5 772.5q-27.5 26.5 -27.5 69.5q0 60 37.5 96.5t99.5 36.5q46 0 74 -26.5t28 -69.5q0 -59 -38 -96t-100 -37q-46 0 -73.5 26.5zM475.5 829q15.5 16 15.5 42q0 17 -11 27
t-29 10q-26 0 -42 -15.5t-16 -41.5q0 -17 11 -27.5t30 -10.5q26 0 41.5 16zM538 1196h131l-142 -171h-112z" />
    <glyph glyph-name="aringacute" unicode="&#x1fb;" horiz-adv-x="575" 
d="M68.5 24q-42.5 32 -42.5 85q0 8 2 24l6 37q12 66 61.5 102t125.5 36h62q30 0 65.5 -8t59.5 -21l10 62q2 10 2 15q0 25 -16.5 39.5t-44.5 14.5h-83q-34 0 -56.5 -15t-27.5 -41h-112q13 71 66.5 112t133.5 41h83q79 0 125.5 -36.5t46.5 -98.5q0 -14 -3 -31l-60 -341h-107
l12 63q-31 -33 -66 -52t-68 -19h-59q-73 0 -115.5 32zM256 82q39 0 75.5 22.5t55.5 59.5l5 24q-15 14 -44.5 22.5t-63.5 8.5h-63q-31 0 -51 -14.5t-24 -39.5l-6 -28q-1 -3 -1 -10q0 -20 16.5 -32.5t44.5 -12.5h56zM273.5 571.5q-27.5 26.5 -27.5 69.5q0 60 37.5 96.5
t99.5 36.5q46 0 74 -26.5t28 -69.5q0 -59 -38 -96t-100 -37q-46 0 -73.5 26.5zM398.5 628q15.5 16 15.5 42q0 17 -11 27t-29 10q-26 0 -42 -15.5t-16 -41.5q0 -17 11 -27.5t30 -10.5q26 0 41.5 16zM460 995h131l-142 -171h-112z" />
    <glyph glyph-name="AEacute" unicode="&#x1fc;" horiz-adv-x="949" 
d="M587 599l-33 -190h346l-18 -102h-346l-36 -206h385l-18 -101h-411q-35 0 -54.5 18t-19.5 49q0 6 2 18l16 90h-202l-126 -175h-120l508 700h530l-17 -101h-386zM478 572l-212 -297h160zM686 944h131l-142 -171h-112z" />
    <glyph glyph-name="aeacute" unicode="&#x1fd;" horiz-adv-x="923" 
d="M67.5 23.5q-42.5 31.5 -42.5 85.5q0 8 2 24l7 36q12 65 63 102.5t128 37.5h62q31 0 64.5 -8.5t56.5 -21.5l11 62q1 5 1 14q0 25 -16 40t-44 15h-84q-34 0 -56.5 -15t-27.5 -41h-112q13 71 67 112t135 41h82q47 0 84 -17t52 -45h1q26 29 65 45.5t79 16.5h74q82 0 130 -43
t48 -116q0 -18 -3 -38l-17 -97h-366l-5 -30q-2 -14 -2 -20q0 -34 20.5 -54t56.5 -20h70q42 0 69 19t33 52h113q-14 -78 -72.5 -123t-147.5 -45h-69q-54 0 -95 20.5t-57 54.5h-1q-35 -36 -78.5 -55.5t-89.5 -19.5h-73q-73 0 -115.5 31.5zM782 299l2 13q2 16 2 23q0 35 -19 55
t-52 20h-74q-40 0 -70 -27.5t-39 -73.5l-2 -10h252zM257 83q40 0 75.5 21.5t55.5 59.5l4 24q-14 14 -43.5 22.5t-63.5 8.5h-62q-32 0 -53 -14.5t-25 -39.5l-5 -28q-1 -3 -1 -10q0 -20 16.5 -32t44.5 -12h57zM590 743h131l-142 -171h-112z" />
    <glyph glyph-name="Oslashacute" unicode="&#x1fe;" horiz-adv-x="715" 
d="M654 643q53 -53 53 -142q0 -23 -5 -55l-34 -192q-22 -124 -97.5 -193t-192.5 -69h-107q-62 0 -112 22l-53 -68h-97l88 112q-53 56 -53 143q0 23 5 53l34 192q22 124 97 193t191 69h106q64 0 114 -22l47 60h97zM162 218q0 -32 13 -61l345 439q-21 9 -48 9h-105
q-65 0 -110 -43.5t-58 -119.5l-33 -184q-4 -28 -4 -40zM588 483q0 36 -12 61l-346 -441q22 -8 47 -8h105q66 0 111 43t59 120l32 184q4 28 4 41zM516 944h131l-142 -171h-112z" />
    <glyph glyph-name="oslashacute" unicode="&#x1ff;" horiz-adv-x="586" 
d="M556 349q0 -18 -3 -38l-22 -124q-17 -92 -76.5 -143.5t-151.5 -51.5h-87q-41 0 -77 11l-37 -45h-94l67 82q-45 43 -45 111q0 18 3 36l22 124q17 92 77 144t150 52h87q42 0 78 -11l37 46h94l-67 -82q45 -43 45 -111zM147 168q0 -20 5 -33l222 272q-3 1 -11 1h-84
q-44 0 -73 -27t-37 -76l-20 -111q-2 -9 -2 -26zM439 330q0 19 -6 34l-222 -272q3 -1 11 -1h84q43 0 73 28t38 75l20 111q2 9 2 25zM416 743h131l-142 -171h-112z" />
    <glyph glyph-name="uni0218" unicode="&#x218;" horiz-adv-x="646" 
d="M88.5 40q-54.5 48 -54.5 130q0 25 4 46h115q-2 -10 -2 -27q0 -44 24 -69t67 -25h111q50 0 83 21t40 57l8 44q1 4 1 10q0 23 -18 39t-51 22l-177 30q-73 13 -111 47.5t-38 87.5q0 18 2 28l10 55q15 81 77.5 126.5t159.5 45.5h112q88 0 139.5 -44.5t51.5 -120.5
q0 -22 -4 -41h-114q2 16 2 24q0 36 -21 57.5t-58 21.5h-112q-47 0 -79 -20.5t-38 -55.5l-7 -36q-1 -4 -1 -12q0 -23 17 -38.5t49 -21.5l176 -32q74 -13 113.5 -47t39.5 -86q0 -7 -2 -25l-11 -65q-15 -83 -78 -128.5t-163 -45.5h-114q-94 0 -148.5 48zM122 -236l29 21
q33 24 51 51t23 60l7 36h114l-6 -36q-11 -64 -42 -111.5t-85 -83.5l-32 -22z" />
    <glyph glyph-name="uni0219" unicode="&#x219;" horiz-adv-x="539" 
d="M67 29.5q-47 37.5 -47 101.5q0 14 3 29h113q-1 -5 -1 -14q0 -26 17 -41.5t48 -15.5h89q35 0 55.5 11t24.5 32l5 22q2 13 -7.5 23.5t-28.5 14.5l-168 30q-51 10 -79.5 37t-28.5 64q0 5 2 17l6 33q11 63 63 98.5t134 35.5h80q77 0 121 -35t44 -94q0 -18 -2 -27h-113
q1 4 1 12q0 22 -14.5 34.5t-40.5 12.5h-79q-33 0 -54.5 -11t-25.5 -31l-4 -20q-2 -13 7 -23.5t29 -13.5l173 -32q48 -10 75 -37t27 -63q0 -10 -1 -15l-7 -37q-11 -64 -63 -99.5t-135 -35.5h-89q-82 0 -129 37.5zM68 -236l29 21q33 24 51 51t23 60l7 36h114l-6 -36
q-11 -64 -42 -111.5t-85 -83.5l-32 -22z" />
    <glyph glyph-name="uni021A" unicode="&#x21a;" horiz-adv-x="597" 
d="M301 599h-222l18 101h561l-18 -101h-222l-105 -599h-117zM74 -236l29 21q33 24 51 51t23 60l7 36h114l-6 -36q-11 -64 -42 -111.5t-85 -83.5l-32 -22z" />
    <glyph glyph-name="uni021B" unicode="&#x21b;" horiz-adv-x="401" 
d="M126 27q-34 27 -34 84q0 24 4 47l43 242h-88l17 99h91l27 151h112l-27 -151h129l-17 -99h-129l-43 -238q-2 -16 -2 -21q0 -22 11 -32t35 -10h75l-18 -99h-81q-71 0 -105 27zM19 -236l29 21q33 24 51 51t23 60l7 36h114l-6 -36q-11 -64 -42 -111.5t-85 -83.5l-32 -22z" />
    <glyph glyph-name="uni0237" unicode="&#x237;" horiz-adv-x="277" 
d="M-102 -100h56q41 0 62.5 24t31.5 80l88 496h115l-87 -491q-20 -111 -72 -159.5t-155 -48.5h-56z" />
    <glyph glyph-name="uni0251" unicode="&#x251;" horiz-adv-x="603" 
d="M73 33.5q-44 41.5 -44 110.5q0 22 4 42l20 116q17 94 80 149.5t151 55.5h63q36 0 66.5 -16.5t45.5 -44.5l10 53h107l-62 -352q-2 -12 -2 -16q0 -31 36 -31h25l-18 -100h-46q-41 0 -66.5 17.5t-30.5 47.5h-1q-26 -31 -65 -52t-76 -21h-78q-75 0 -119 41.5zM284 91
q43 0 78.5 33.5t49.5 88.5l16 96q3 45 -18 72t-60 27h-70q-42 0 -73 -30.5t-40 -81.5l-18 -103q-2 -9 -2 -26q0 -35 18.5 -55.5t50.5 -20.5h68z" />
    <glyph glyph-name="uni0259" unicode="&#x259;" horiz-adv-x="568" 
d="M72.5 34.5q-47.5 42.5 -47.5 115.5q0 18 3 39l18 97h370l6 30q2 16 2 22q0 33 -21 52.5t-57 19.5h-75q-41 0 -68.5 -19.5t-33.5 -51.5h-112q13 78 73 123t150 45h74q85 0 135 -41t50 -110q0 -16 -3 -34l-23 -134q-17 -91 -78.5 -143.5t-151.5 -52.5h-80
q-83 0 -130.5 42.5zM290 89q42 0 71 27.5t38 73.5l2 10h-257l-2 -13q-2 -9 -2 -25q0 -34 18.5 -53.5t51.5 -19.5h80z" />
    <glyph glyph-name="uni02BB" unicode="&#x2bb;" horiz-adv-x="241" 
d="M75 564q12 66 42.5 113t84.5 82l33 22l58 -85l-29 -21q-32 -23 -50 -50t-24 -61l-8 -43h-115z" />
    <glyph glyph-name="uni02BC" unicode="&#x2bc;" horiz-adv-x="241" 
d="M75 571l29 21q32 23 50 50t24 61l8 43h114l-7 -43q-11 -64 -42 -111t-85 -84l-33 -22z" />
    <glyph glyph-name="uni02BE" unicode="&#x2be;" 
d="M59 586q26 0 42 16t16 42q0 16 -11.5 26.5t-29.5 10.5l12 67q45 0 72.5 -26.5t27.5 -69.5q0 -59 -38.5 -96t-101.5 -37z" />
    <glyph glyph-name="uni02BF" unicode="&#x2bf;" 
d="M-24.5 545.5q-27.5 26.5 -27.5 69.5q0 60 38.5 96.5t101.5 36.5l-12 -67q-25 0 -41 -15.5t-16 -41.5q0 -17 11 -27.5t30 -10.5l-12 -67q-45 0 -72.5 26.5z" />
    <glyph glyph-name="circumflex" unicode="&#x2c6;" horiz-adv-x="437" 
d="M456 572h-100l-60 102l-95 -102h-106l174 178h77z" />
    <glyph glyph-name="caron" unicode="&#x2c7;" horiz-adv-x="437" 
d="M127 750h99l60 -102l96 102h106l-174 -178h-78z" />
    <glyph glyph-name="uni02C8" unicode="&#x2c8;" 
d="M27 727h115l-34 -191h-115z" />
    <glyph glyph-name="uni02C9" unicode="&#x2c9;" horiz-adv-x="492" 
d="M128 679h387l-16 -90h-387z" />
    <glyph glyph-name="uni02CA" unicode="&#x2ca;" 
d="M-48 585l166 161l65 -73l-181 -143z" />
    <glyph glyph-name="uni02CB" unicode="&#x2cb;" 
d="M-33 673l91 73l109 -161l-70 -55z" />
    <glyph glyph-name="uni02CC" unicode="&#x2cc;" 
d="M-107 -40h114l-34 -191h-114z" />
    <glyph glyph-name="breve" unicode="&#x2d8;" horiz-adv-x="409" 
d="M155 596q-39 32 -39 85q0 18 2 27l3 16h90l-3 -16q-1 -4 -1 -12q0 -26 16 -40.5t44 -14.5h12q32 0 55 18t27 49l3 16h90l-3 -16q-12 -67 -59.5 -105.5t-119.5 -38.5h-12q-66 0 -105 32z" />
    <glyph glyph-name="dotaccent" unicode="&#x2d9;" horiz-adv-x="223" 
d="M122 582.5q-17 15.5 -17 41.5q0 40 24.5 64.5t63.5 24.5q28 0 45 -16t17 -42q0 -40 -24.5 -64t-63.5 -24q-28 0 -45 15.5z" />
    <glyph glyph-name="ring" unicode="&#x2da;" horiz-adv-x="311" 
d="M135.5 571.5q-27.5 26.5 -27.5 69.5q0 60 37.5 96.5t99.5 36.5q46 0 74 -26.5t28 -69.5q0 -59 -38 -96t-100 -37q-46 0 -73.5 26.5zM260.5 628q15.5 16 15.5 42q0 17 -11 27t-29 10q-26 0 -42 -15.5t-16 -41.5q0 -17 11 -27.5t30 -10.5q26 0 41.5 16z" />
    <glyph glyph-name="ogonek" unicode="&#x2db;" horiz-adv-x="291" 
d="M1 -201q-30 23 -30 62q0 10 1 16l2 13q6 31 30 62t57 48h96q-33 -16 -56.5 -42.5t-29.5 -53.5l-2 -10q-1 -3 -1 -9q0 -15 10.5 -23.5t29.5 -8.5h13q15 0 33.5 5.5t31.5 14.5l-13 -75q-15 -10 -35.5 -16t-41.5 -6h-14q-51 0 -81 23z" />
    <glyph glyph-name="tilde" unicode="&#x2dc;" horiz-adv-x="435" 
d="M305.5 574q-16.5 10 -36.5 29q-13 12 -22 18t-18 6h-8q-14 0 -25 -14t-16 -38h-84q11 62 44.5 97.5t82.5 35.5h7q24 0 42 -11t38 -30q12 -11 20 -16.5t15 -5.5h8q13 0 23.5 14t15.5 38h84q-12 -63 -44.5 -98t-79.5 -35h-7q-23 0 -39.5 10z" />
    <glyph glyph-name="hungarumlaut" unicode="&#x2dd;" horiz-adv-x="462" 
d="M217 743h122l-141 -171h-103zM389 743h122l-141 -171h-103z" />
    <glyph glyph-name="gravecomb" unicode="&#x300;" 
d="M-78 743h124l63 -171h-105z" />
    <glyph glyph-name="acutecomb" unicode="&#x301;" 
d="M123 743h131l-142 -171h-112z" />
    <glyph glyph-name="uni0302" unicode="&#x302;" 
d="M49 750h78l110 -178h-100l-59 102l-96 -102h-106z" />
    <glyph glyph-name="tildecomb" unicode="&#x303;" 
d="M87.5 574q-16.5 10 -36.5 29q-13 12 -22 18t-18 6h-8q-14 0 -25 -14t-16 -38h-84q11 62 44.5 97.5t82.5 35.5h7q24 0 42 -11t38 -30q12 -11 20 -16.5t15 -5.5h8q13 0 23.5 14t15.5 38h84q-12 -63 -44.5 -98t-79.5 -35h-7q-23 0 -39.5 10z" />
    <glyph glyph-name="uni0304" unicode="&#x304;" 
d="M-74 673h298l-15 -88h-299z" />
    <glyph glyph-name="uni0306" unicode="&#x306;" 
d="M-49 596q-39 32 -39 85q0 18 2 27l3 16h90l-3 -16q-1 -4 -1 -12q0 -26 16 -40.5t44 -14.5h12q32 0 55 18t27 49l3 16h90l-3 -16q-12 -67 -59.5 -105.5t-119.5 -38.5h-12q-66 0 -105 32z" />
    <glyph glyph-name="uni0307" unicode="&#x307;" 
d="M11 582.5q-17 15.5 -17 41.5q0 40 24.5 64.5t63.5 24.5q28 0 45 -16t17 -42q0 -40 -24.5 -64t-63.5 -24q-28 0 -45 15.5z" />
    <glyph glyph-name="uni0308" unicode="&#x308;" 
d="M-98.5 587q-14.5 14 -14.5 37q0 35 21 56t56 21q24 0 39 -14t15 -37q0 -34 -21.5 -55.5t-55.5 -21.5q-25 0 -39.5 14zM134 587q-15 14 -15 37q0 35 21.5 56t55.5 21q25 0 39.5 -14t14.5 -37q0 -34 -21 -55.5t-56 -21.5q-24 0 -39 14z" />
    <glyph glyph-name="hookabovecomb" unicode="&#x309;" 
d="M9 581q4 21 19.5 34t42.5 27q23 12 34.5 21.5t14.5 22.5l2 11q5 31 -28 31h-20q-38 0 -45 -40h-81q19 113 132 113h19q54 0 81.5 -20.5t27.5 -60.5q0 -7 -2 -23l-2 -11q-5 -28 -21.5 -44t-45.5 -33q-18 -11 -27.5 -18.5t-10.5 -16.5l-3 -13h-91z" />
    <glyph glyph-name="uni030A" unicode="&#x30a;" 
d="M-19.5 571.5q-27.5 26.5 -27.5 69.5q0 60 37.5 96.5t99.5 36.5q46 0 74 -26.5t28 -69.5q0 -59 -38 -96t-100 -37q-46 0 -73.5 26.5zM105.5 628q15.5 16 15.5 42q0 17 -11 27t-29 10q-26 0 -42 -15.5t-16 -41.5q0 -17 11 -27.5t30 -10.5q26 0 41.5 16z" />
    <glyph glyph-name="uni030B" unicode="&#x30b;" 
d="M32 743h122l-141 -171h-103zM204 743h122l-141 -171h-103z" />
    <glyph glyph-name="uni030C" unicode="&#x30c;" 
d="M-92 750h99l60 -102l96 102h106l-174 -178h-78z" />
    <glyph glyph-name="uni031B" unicode="&#x31b;" 
d="M-71 493h34q31 0 53.5 25.5t30.5 71.5l7 36h107l-7 -36q-17 -90 -67 -141t-123 -51h-52z" />
    <glyph glyph-name="dotbelowcomb" unicode="&#x323;" 
d="M-126 -194q-17 16 -17 42q0 40 24 64t63 24q28 0 45 -15.5t17 -41.5q0 -40 -24 -64.5t-63 -24.5q-28 0 -45 16z" />
    <glyph glyph-name="uni0324" unicode="&#x324;" 
d="M-231 -164q-15 14 -15 37q0 34 21 55.5t56 21.5q25 0 39.5 -14t14.5 -37q0 -34 -21 -55.5t-55 -21.5q-25 0 -40 14zM1.5 -164q-14.5 14 -14.5 37q0 35 21 56t55 21q25 0 39.5 -14t14.5 -37q0 -35 -21 -56t-56 -21q-24 0 -38.5 14z" />
    <glyph glyph-name="uni0326" unicode="&#x326;" 
d="M-361 -236l29 21q33 24 51 51t23 60l7 36h114l-6 -36q-11 -64 -42 -111.5t-85 -83.5l-32 -22z" />
    <glyph glyph-name="uni0327" unicode="&#x327;" 
d="M-168 -170h75q19 0 32 7t16 19l2 14q2 11 -6.5 18t-25.5 7h-60l9 49l49 82h87l-47 -75h7q35 0 55 -17t20 -48q0 -10 -1 -15l-2 -17q-7 -45 -41.5 -70t-89.5 -25h-91z" />
    <glyph glyph-name="uni0328" unicode="&#x328;" 
d="M-148 -201q-30 23 -30 62q0 10 1 16l2 13q6 31 30 62t57 48h96q-33 -16 -56.5 -42.5t-29.5 -53.5l-2 -10q-1 -3 -1 -9q0 -15 10.5 -23.5t29.5 -8.5h13q15 0 33.5 5.5t31.5 14.5l-13 -75q-15 -10 -35.5 -16t-41.5 -6h-14q-51 0 -81 23z" />
    <glyph glyph-name="uni032E" unicode="&#x32e;" 
d="M-188 -192q-39 32 -39 85q0 18 2 27l3 16h90l-3 -16q-1 -4 -1 -12q0 -26 16 -40.5t44 -14.5h12q32 0 55 18t27 49l3 16h90l-3 -16q-12 -67 -59.5 -105.5t-119.5 -38.5h-12q-66 0 -105 32z" />
    <glyph glyph-name="uni0331" unicode="&#x331;" 
d="M-207 -79h298l-16 -89h-298z" />
    <glyph glyph-name="uni0394" unicode="&#x394;" horiz-adv-x="724" 
d="M15 86l385 614h89l162 -614l-15 -86h-636zM536 101l-113 449l-278 -449h391z" />
    <glyph glyph-name="uni03A9" unicode="&#x3a9;" horiz-adv-x="783" 
d="M18 101h192l12 69q-62 10 -95.5 50t-33.5 103q0 25 4 46l19 107q19 109 94.5 170.5t190.5 61.5h114q107 0 168.5 -52t61.5 -140q0 -26 -4 -47l-17 -100q-15 -82 -65.5 -134.5t-126.5 -65.5l-12 -68h193l-18 -101h-307l46 258h46q50 0 84 30t44 83l17 98q2 10 2 28
q0 50 -31.5 79.5t-85.5 29.5h-114q-66 0 -109 -34.5t-54 -95.5l-19 -105q-2 -9 -2 -27q0 -41 24.5 -63.5t69.5 -22.5h46l-46 -258h-306z" />
    <glyph glyph-name="uni03BC" unicode="&#x3bc;" horiz-adv-x="589" 
d="M569 499l-88 -499h-108l13 68q-30 -35 -66 -55.5t-67 -20.5h-49q-22 0 -41 7.5t-32 21.5l-36 -204h-113l120 682h115l-57 -326q-2 -14 -2 -20q0 -28 15.5 -44.5t40.5 -16.5h58q37 0 74 31t56 79l52 297h115z" />
    <glyph glyph-name="pi" unicode="&#x3c0;" horiz-adv-x="740" 
d="M560 162q-2 -16 -2 -22q0 -22 11 -31.5t35 -9.5h65l-18 -99h-71q-71 0 -105 27t-34 85q0 23 4 46l43 242h-187l-71 -400h-115l71 400h-115l17 99h652l-17 -99h-120z" />
    <glyph glyph-name="uni0E01" unicode="&#xe01;" horiz-adv-x="625" 
d="M113 256q1 5 1 15q0 27 -17 45.5t-49 23.5q33 98 101 158t151 60h122q75 0 118.5 -37.5t43.5 -101.5q0 -16 -3 -34l-69 -385h-115l68 380q1 6 1 17q0 28 -17.5 44.5t-47.5 16.5h-106q-31 0 -64 -23t-54 -61q25 -14 39 -39.5t14 -56.5q0 -6 -2 -22l-45 -256h-115z" />
    <glyph glyph-name="uni0E02" unicode="&#xe02;" horiz-adv-x="597" 
d="M181 17q-18 17 -18 46q0 10 1 16l24 137q3 15 13 28t30 32q28 26 45.5 50.5t23.5 60.5l4 25q1 6 1 16q0 28 -15.5 44t-44.5 16h-18q-49 0 -70 -26v-1q16 4 27 4q35 0 55 -20.5t20 -53.5q0 -49 -35.5 -83t-87.5 -34q-42 0 -66.5 23t-24.5 61q0 7 2 21l6 31
q13 69 60.5 108.5t118.5 39.5h30q63 0 99.5 -31t36.5 -85q0 -8 -2 -26l-5 -30q-7 -38 -21 -63t-37 -53q-13 -15 -20.5 -26t-9.5 -23l-22 -126h64q41 0 52 55l70 400h115l-71 -405q-13 -71 -53.5 -108t-104.5 -37h-121q-33 0 -51 17zM180 347q15 15 15 37q0 14 -10 23t-27 9
q-22 0 -36.5 -14.5t-14.5 -36.5q0 -15 10 -24t27 -9q21 0 36 15z" />
    <glyph glyph-name="uni0E03" unicode="&#xe03;" horiz-adv-x="609" 
d="M193 17q-18 17 -18 46q0 10 1 16l25 135q3 17 15.5 34.5t35.5 43.5q30 35 46.5 58.5t22.5 53.5l5 29q3 15 3 26q0 26 -15 26h-7l-58 -45l-43 47h-9q-37 0 -51 -44v-2q16 4 28 4q33 0 53.5 -19.5t20.5 -50.5q0 -48 -34 -82.5t-86 -34.5q-41 0 -64.5 22t-23.5 60q0 7 2 23
l8 43q13 74 52 113t102 39h19l37 -42l49 42h26q84 0 84 -81q0 -16 -5 -43l-5 -30q-7 -37 -20.5 -61t-36.5 -56q-16 -21 -25 -36t-12 -33l-22 -123h64q41 0 52 55l71 400h114l-71 -405q-13 -71 -53.5 -108t-104.5 -37h-121q-33 0 -51 17zM171.5 329q14.5 15 14.5 37
q0 15 -9.5 23.5t-26.5 8.5q-21 0 -35.5 -14.5t-14.5 -36.5q0 -15 9.5 -24t26.5 -9q21 0 35.5 15z" />
    <glyph glyph-name="uni0E04" unicode="&#xe04;" horiz-adv-x="645" 
d="M552.5 516q48.5 -42 48.5 -113q0 -11 -4 -39l-64 -364h-113l64 364q2 16 2 22q0 33 -18.5 52.5t-51.5 19.5h-110q-45 0 -74 -25t-37 -69l-36 -202h2l65 109q24 39 50.5 57.5t59.5 18.5q43 0 69 -24.5t26 -61.5q0 -52 -34.5 -86.5t-87.5 -34.5q-20 0 -37 7.5t-27 20.5
l-106 -168h-115l64 364q16 91 74.5 142.5t147.5 51.5h110q84 0 132.5 -42zM294 272.5q-16 -15.5 -16 -38.5q0 -17 10 -26t28 -9q23 0 38 15.5t15 38.5q0 16 -10 25.5t-27 9.5q-22 0 -38 -15.5z" />
    <glyph glyph-name="uni0E05" unicode="&#xe05;" horiz-adv-x="651" 
d="M571.5 523q37.5 -35 37.5 -99q0 -24 -4 -45l-66 -379h-114l67 377q3 15 3 26q0 25 -11.5 39.5t-31.5 14.5h-10l-91 -61l-70 61h-10q-28 0 -47 -21.5t-26 -60.5l-39 -213h2l63 106q24 40 52 59.5t63 19.5q43 0 68 -23t25 -60q0 -53 -35.5 -88.5t-88.5 -35.5q-20 0 -36.5 7
t-26.5 19l-106 -166h-115l67 377q15 86 64 133.5t125 47.5h22l60 -58l81 58h22q69 0 106.5 -35zM294 272.5q-16 -15.5 -16 -38.5q0 -16 10.5 -25.5t28.5 -9.5q23 0 38 15.5t15 38.5q0 16 -10.5 25.5t-27.5 9.5q-22 0 -38 -15.5z" />
    <glyph glyph-name="uni0E06" unicode="&#xe06;" horiz-adv-x="666" 
d="M89 17q-30 27 -30 71q0 68 51.5 109.5t130.5 41.5l1 6q1 15 10.5 29.5t28.5 37.5q24 30 36.5 49t17.5 43l5 29q3 15 3 26q0 26 -15 26h-8l-58 -45l-44 47h-13q-37 0 -51 -44v-2q16 4 28 4q33 0 53.5 -19.5t20.5 -50.5q0 -48 -34 -82.5t-86 -34.5q-41 0 -64.5 22t-23.5 60
q0 7 2 23l8 43q13 74 51.5 113t100.5 39h26l37 -42l48 42h28q43 0 66.5 -21.5t23.5 -64.5q0 -19 -4 -38l-6 -30q-7 -32 -19.5 -56t-33.5 -53q-15 -21 -23.5 -35.5t-11.5 -30.5l-3 -12q33 -10 66 -34.5t58 -55.5l75 423h114l-97 -550h-106q-27 51 -66.5 89t-77.5 49l-21 -114
q-16 -15 -47 -24.5t-66 -9.5q-51 0 -81 27zM179.5 329q14.5 15 14.5 37q0 15 -9.5 23.5t-26.5 8.5q-21 0 -35.5 -14.5t-14.5 -36.5q0 -15 9.5 -24t26.5 -9q21 0 35.5 15zM199 63l18 104h-8q-33 0 -52.5 -20.5t-19.5 -52.5q0 -18 9.5 -27t27.5 -9t25 5z" />
    <glyph glyph-name="uni0E07" unicode="&#xe07;" horiz-adv-x="529" 
d="M469 535q29 -25 29 -67q0 -8 -2 -22l-57 -323q-11 -58 -45.5 -90.5t-86.5 -32.5h-70q-28 0 -47.5 12t-27.5 35l-122 319h122l102 -269h31q25 0 31 34l36 204q-4 -1 -12 -1q-44 0 -69.5 25.5t-25.5 66.5q0 58 39 96t99 38q47 0 76 -25zM408 416q16 16 16 40q0 17 -10 26.5
t-29 9.5q-24 0 -40 -16t-16 -40q0 -17 10.5 -26.5t28.5 -9.5q24 0 40 16z" />
    <glyph glyph-name="uni0E08" unicode="&#xe08;" horiz-adv-x="598" 
d="M512 519.5q44 -38.5 44 -102.5q0 -17 -3 -35l-40 -232q-13 -74 -55.5 -112t-110.5 -38h-105q-32 0 -50.5 17t-18.5 46q0 10 1 16l10 60h-8q-42 0 -68 24.5t-26 63.5q0 55 37.5 91t95.5 36q46 0 73.5 -23.5t27.5 -64.5q0 -7 -2 -21l-27 -150h58q24 0 37 14t18 44l41 230
q2 12 2 18q0 26 -15 41.5t-40 15.5h-125q-40 0 -66 -21t-33 -58h-113q15 84 72.5 131.5t144.5 47.5h124q76 0 120 -38.5zM230 216q16 16 16 39q0 17 -10 26.5t-29 9.5q-23 0 -39 -16t-16 -39q0 -17 10.5 -26.5t28.5 -9.5q23 0 39 16z" />
    <glyph glyph-name="uni0E09" unicode="&#xe09;" horiz-adv-x="630" 
d="M552 230l-38 -25q25 -11 38 -32.5t13 -49.5q0 -58 -38 -95.5t-97 -37.5q-44 0 -72 23.5t-31 61.5l-122 -75h-102l23 129h-3q-42 0 -67.5 24.5t-25.5 62.5q0 56 36 92t92 36q45 0 71.5 -24t26.5 -64q0 -7 -2 -21l-24 -135l208 124l28 159q2 12 2 18q0 26 -14.5 41.5
t-39.5 15.5h-134q-40 0 -66 -20.5t-32 -57.5h-114q15 83 72.5 130.5t143.5 47.5h135q75 0 119 -38.5t44 -103.5q0 -16 -3 -34zM107.5 200q10.5 -10 27.5 -10q24 0 39.5 16t15.5 40q0 16 -10.5 25.5t-27.5 9.5q-23 0 -39 -16t-16 -39q0 -16 10.5 -26zM476.5 74
q15.5 16 15.5 40q0 17 -10 27t-28 10q-23 0 -38.5 -16.5t-15.5 -40.5q0 -17 10 -26.5t28 -9.5q23 0 38.5 16z" />
    <glyph glyph-name="uni0E0A" unicode="&#xe0a;" horiz-adv-x="598" 
d="M627 594l-5 -18q-20 -73 -53 -115.5t-83 -67.5q25 -11 39 -31t14 -44q0 -10 -1 -15l-27 -158q-12 -68 -56.5 -106.5t-111.5 -38.5h-111q-32 0 -50.5 16t-18.5 45q0 6 2 18l23 137q3 16 13.5 29.5t29.5 30.5q28 26 45.5 50.5t23.5 60.5l4 25q1 6 1 16q0 28 -15.5 44
t-44.5 16h-18q-49 0 -70 -26v-1q16 4 27 4q35 0 55 -20.5t20 -53.5q0 -49 -35.5 -83t-87.5 -34q-42 0 -66.5 23t-24.5 61q0 7 2 21l6 31q13 69 60.5 108.5t118.5 39.5h30q63 0 99.5 -31t36.5 -84q0 -11 -1 -17q42 8 71 43.5t51 106.5l5 18h103zM121.5 401.5
q-14.5 -14.5 -14.5 -36.5q0 -15 10 -24t27 -9q21 0 36 15t15 37q0 14 -10 23t-27 9q-22 0 -36.5 -14.5zM430 318q0 36 -44 45q-8 -29 -21 -49.5t-33 -43.5q-13 -16 -20 -27t-9 -22l-22 -126h69q41 0 52 55l27 155q1 4 1 13z" />
    <glyph glyph-name="uni0E0B" unicode="&#xe0b;" horiz-adv-x="610" 
d="M640 594l-6 -18q-23 -73 -54.5 -115.5t-81.5 -67.5q26 -11 40 -31t14 -45q0 -9 -1 -14l-28 -158q-13 -71 -53.5 -108t-104.5 -37h-121q-33 0 -51.5 16.5t-18.5 44.5q0 6 2 18l25 135q3 17 15.5 34.5t35.5 43.5q30 35 46.5 58.5t22.5 53.5l5 29q3 15 3 26q0 26 -15 26h-7
l-58 -45l-43 47h-9q-37 0 -51 -44v-2q16 4 28 4q33 0 53.5 -19.5t20.5 -50.5q0 -48 -34 -82.5t-86 -34.5q-41 0 -64.5 22t-23.5 60q0 7 2 23l8 43q13 74 52 113t102 39h19l37 -42l49 42h26q82 0 82 -79q0 -17 -5 -45l-1 -8q39 9 67 44.5t52 105.5l7 18h103zM114.5 383.5
q-14.5 -14.5 -14.5 -36.5q0 -15 9.5 -24t26.5 -9q21 0 35.5 15t14.5 37q0 15 -9.5 23.5t-26.5 8.5q-21 0 -35.5 -14.5zM443 317q0 39 -48 46q-12 -33 -44 -75q-17 -24 -25 -38t-11 -32l-22 -123h69q43 0 52 55l28 155q1 4 1 12z" />
    <glyph glyph-name="uni0E0C" unicode="&#xe0c;" horiz-adv-x="922" 
d="M907 550l-97 -550h-106q-25 47 -64 84t-78 51l-20 -115q-18 -14 -43.5 -22t-56.5 -8q-47 0 -73.5 27t-26.5 71q0 52 29.5 92t78.5 55l26 145q1 6 1 17q0 28 -17.5 44.5t-47.5 16.5h-117q-31 0 -64 -23t-54 -61q24 -14 37.5 -39.5t13.5 -55.5q0 -7 -2 -23l-8 -49q3 1 10 1
q42 0 66 -24t24 -64q0 -56 -38 -93t-96 -37q-47 0 -74.5 24.5t-27.5 65.5q0 7 2 21l27 155q1 5 1 16q0 27 -16 45t-48 23q33 98 101 158t151 60h132q75 0 117.5 -37.5t42.5 -100.5q0 -17 -3 -35l-26 -150q43 -13 85.5 -40t70.5 -60l73 415h115zM495 171h-10q-30 0 -48.5 -21
t-18.5 -54q0 -37 34 -37q16 0 24 5zM236.5 136.5q-10.5 9.5 -28.5 9.5q-23 0 -39 -16t-16 -39q0 -17 10.5 -26.5t28.5 -9.5q23 0 39 16t16 39q0 17 -10.5 26.5z" />
    <glyph glyph-name="uni0E0D" unicode="&#xe0d;" horiz-adv-x="926" 
d="M911 550l-71 -400q-13 -74 -53.5 -112t-107.5 -38h-206q-32 0 -51 16.5t-19 45.5q0 5 2 17l54 301q1 6 1 16q0 29 -17.5 45.5t-47.5 16.5h-100q-31 0 -64 -23t-54 -61q24 -14 37.5 -39.5t13.5 -55.5q0 -7 -2 -23l-8 -49q3 1 10 1q42 0 66 -24t24 -64q0 -56 -38 -93
t-96 -37q-47 0 -74.5 24.5t-27.5 65.5q0 7 2 21l27 155q1 5 1 16q0 27 -16 45t-48 23q33 98 101 158t151 60h114q75 0 118 -37.5t43 -101.5q0 -16 -3 -34l-51 -285h149q25 0 38 13t18 41l71 396h114zM236.5 136.5q-10.5 9.5 -28.5 9.5q-23 0 -39 -16t-16 -39
q0 -17 10.5 -26.5t28.5 -9.5q23 0 39 16t16 39q0 17 -10.5 26.5zM642 -144.5q37 31.5 57 89.5h106q-32 -102 -100 -154.5t-171 -52.5q-88 0 -136.5 28.5t-48.5 80.5q0 51 34.5 83t87.5 32q44 0 69.5 -22t25.5 -58q0 -32 -18 -58h10q47 0 84 31.5zM487.5 -164
q14.5 15 14.5 37q0 15 -9.5 24t-26.5 9q-22 0 -36.5 -15t-14.5 -37q0 -15 10 -24t26 -9q22 0 36.5 15z" />
    <glyph glyph-name="uni0E0E" unicode="&#xe0e;" horiz-adv-x="640" 
d="M556.5 520.5q43.5 -37.5 43.5 -101.5q0 -16 -3 -34l-82 -463q-13 -71 -57.5 -116.5t-114.5 -60.5l-105 74q-14 -35 -44.5 -55.5t-67.5 -20.5q-43 0 -70 24t-27 62q0 53 36 88t91 35q26 0 46 -8t47 -27l100 -68q20 7 33 26t18 47l81 458q1 6 1 16q0 29 -17.5 45.5
t-47.5 16.5h-92q-32 0 -64.5 -23t-54.5 -61q28 -16 46 -40.5t18 -54.5q0 -5 -2 -17l-29 -162q-8 -50 -43 -80t-87 -30q-47 0 -75 25.5t-28 65.5q0 55 35 90.5t89 35.5q9 0 13 -1l10 56q1 4 1 12q0 27 -21 43.5t-55 22.5q33 98 100.5 158t150.5 60h109q75 0 118.5 -37.5z
M153 70.5q16 16.5 16 39.5q0 16 -10.5 26t-28.5 10q-23 0 -39 -16.5t-16 -39.5q0 -16 10.5 -26t28.5 -10q23 0 39 16.5zM171.5 -182q15.5 16 15.5 39q0 16 -10.5 25.5t-27.5 9.5q-23 0 -38.5 -16t-15.5 -39q0 -16 10 -25.5t28 -9.5q23 0 38.5 16z" />
    <glyph glyph-name="uni0E0F" unicode="&#xe0f;" horiz-adv-x="640" 
d="M556.5 520.5q43.5 -37.5 43.5 -101.5q0 -16 -3 -34l-84 -473q-12 -67 -54 -111t-108 -54l-62 69l-59 -69l-53 60q-16 -30 -43 -47t-58 -17q-42 0 -67 23t-25 60q0 53 34 87.5t87 34.5q27 0 46 -9.5t36 -29.5l53 -61l57 65l60 -64q18 10 28 28t16 51l80 452q1 6 1 16
q0 29 -17.5 45.5t-47.5 16.5h-92q-32 0 -64.5 -23t-54.5 -61q28 -16 46 -40.5t18 -54.5q0 -5 -2 -17l-28 -158q-8 -50 -43.5 -80.5t-87.5 -30.5q-46 0 -74 25.5t-28 65.5q0 55 35 90.5t89 35.5q9 0 13 -1l9 53q1 4 1 12q0 27 -21 43.5t-55 22.5q33 98 100.5 158t150.5 60
h109q75 0 118.5 -37.5zM154 74q16 16 16 39q0 17 -10.5 26.5t-28.5 9.5q-23 0 -39 -16t-16 -39q0 -17 10.5 -26.5t28.5 -9.5q23 0 39 16zM120.5 -184q15.5 16 15.5 39q0 16 -10.5 25.5t-27.5 9.5q-23 0 -38.5 -16t-15.5 -39q0 -16 10.5 -25.5t27.5 -9.5q23 0 38.5 16z" />
    <glyph glyph-name="uni0E10" unicode="&#xe10;" horiz-adv-x="560" 
d="M212 461q-23 -12 -30 -35q94 -15 182.5 -40t135.5 -54l-33 -185q-12 -70 -54.5 -108.5t-106.5 -38.5h-99q-31 0 -49 16t-18 43q0 5 2 17l5 26h-5q-41 0 -65.5 23.5t-24.5 60.5q0 53 35.5 88t90.5 35q42 0 68 -23t26 -60q0 -6 -2 -22l-20 -113h51q25 0 37.5 14.5
t18.5 47.5l24 138q-44 21 -129.5 40t-193.5 32q17 95 69 146t139 51q31 0 55.5 -5.5t54.5 -15.5q27 -9 42 -12.5t33 -3.5q34 0 66 9t51 25l-15 -87q-20 -16 -47 -24t-55 -8q-23 0 -43 4.5t-49 13.5q-33 9 -51 13t-39 4q-34 0 -57 -12zM192.5 175.5q15.5 15.5 15.5 37.5
q0 16 -10 25.5t-28 9.5q-22 0 -37.5 -15.5t-15.5 -38.5q0 -15 10.5 -24.5t26.5 -9.5q23 0 38.5 15.5zM453 -23q19 -16 19 -44q0 -9 -1 -14l-14 -79q-9 -50 -47.5 -82t-94.5 -37l-52 64l-59 -64l-47 60q-16 -29 -43.5 -46.5t-58.5 -17.5q-41 0 -66.5 23.5t-25.5 61.5
q0 52 34 86t87 34q26 0 44.5 -9.5t35.5 -30.5l52 -67l54 59l67 -78q16 3 28 14.5t15 26.5l1 9h-4q-29 0 -47 17t-18 43q0 38 25.5 62.5t64.5 24.5q32 0 51 -16zM413.5 -101.5q10.5 10.5 10.5 26.5q0 11 -7 18t-20 7q-15 0 -25.5 -11t-10.5 -27q0 -11 7 -17.5t19 -6.5
q16 0 26.5 10.5zM99.5 -209q15.5 16 15.5 39q0 16 -10.5 25.5t-27.5 9.5q-22 0 -38 -16t-16 -38q0 -16 10.5 -26t27.5 -10q23 0 38.5 16z" />
    <glyph glyph-name="uni0E11" unicode="&#xe11;" horiz-adv-x="674" 
d="M165 148q5 30 20 56t44 62q6 8 29 37t38 58t20 58l3 14q2 9 2 24q0 28 -16 28h-6l-55 -45l-42 47h-9q-38 0 -52 -45l1 -1q14 4 27 4q33 0 53.5 -19.5t20.5 -50.5q0 -48 -34 -82.5t-85 -34.5q-41 0 -64.5 22t-23.5 59q0 15 2 23l7 44q14 74 53.5 113t102.5 39h18l36 -42
l46 42h26q36 0 56 -19t20 -54q0 -13 -3 -28l-1 -5l-5 -22h2q7 10 28 33l81 95h16q57 0 86.5 -28.5t29.5 -82.5q0 -23 -4 -43l-71 -404h-115l72 406q2 14 2 19q0 27 -18 27h-5l-107 -122q-60 -69 -82 -104t-28 -70l-27 -156h-115zM167 328.5q15 14.5 15 36.5q0 14 -10 23.5
t-26 9.5q-22 0 -36.5 -14.5t-14.5 -36.5q0 -15 10 -24t26 -9q21 0 36 14.5z" />
    <glyph glyph-name="uni0E12" unicode="&#xe12;" horiz-adv-x="938" 
d="M923 550l-97 -550h-103q-26 48 -60.5 84t-68.5 50l-20 -113q-39 -31 -99 -31q-44 0 -69.5 25t-25.5 68q0 49 28.5 89.5t73.5 53.5l27 151q2 16 2 23q0 27 -11.5 42t-32.5 15h-11l-98 -61l-77 61h-14q-26 0 -44 -21.5t-26 -60.5l-52 -294h8q37 2 73 20t60 49h-2
q-39 0 -61.5 22t-22.5 58q0 52 33.5 85t86.5 33q42 0 67.5 -21t25.5 -57q0 -62 -39 -120.5t-105.5 -99t-143.5 -50.5h-101l67 377q16 88 64.5 134.5t124.5 46.5h22l68 -58l87 58h22q70 0 107.5 -35t37.5 -99q0 -24 -4 -45l-25 -146q40 -12 77.5 -38t63.5 -59l73 414h114z
M271 215q10 -9 27 -9q23 0 38 15.5t15 37.5q0 16 -10 25t-27 9q-22 0 -37.5 -15.5t-15.5 -37.5q0 -16 10 -25zM530 167h-9q-31 0 -49.5 -21t-18.5 -54q0 -18 8.5 -27.5t24.5 -9.5q18 0 25 5z" />
    <glyph glyph-name="uni0E13" unicode="&#xe13;" horiz-adv-x="916" 
d="M856.5 168q10.5 -20 10.5 -45q0 -58 -38 -95.5t-97 -37.5q-46 0 -74.5 25.5t-28.5 66.5q0 16 5 34q-73 -40 -147 -116h-98l67 380q1 6 1 17q0 28 -17.5 44.5t-47.5 16.5h-97q-31 0 -64 -23t-54 -61q24 -14 37.5 -39.5t13.5 -55.5q0 -7 -2 -23l-8 -49q3 1 10 1
q42 0 66 -24t24 -64q0 -56 -38 -93t-96 -37q-47 0 -74.5 24.5t-27.5 65.5q0 7 2 21l27 155q1 5 1 16q0 27 -16 45t-48 23q33 98 101 158t151 60h112q75 0 118 -37.5t43 -101.5q0 -16 -3 -34l-46 -258q44 35 95 61.5t97 35.5l58 326h114l-62 -349q20 -13 30.5 -33zM779 74
q16 16 16 40q0 17 -10.5 27t-28.5 10q-23 0 -39 -17t-16 -40q0 -17 10.5 -26.5t28.5 -9.5q23 0 39 16zM236.5 136.5q-10.5 9.5 -28.5 9.5q-23 0 -39 -16t-16 -39q0 -17 10.5 -26.5t28.5 -9.5q23 0 39 16t16 39q0 17 -10.5 26.5z" />
    <glyph glyph-name="uni0E14" unicode="&#xe14;" horiz-adv-x="649" 
d="M555 515.5q49 -42.5 49 -114.5q0 -17 -3 -37l-64 -364h-114l64 364q2 16 2 22q0 33 -19 52.5t-52 19.5h-110q-44 0 -73 -26t-37 -72l-48 -276h9q40 0 78 17.5t64 46.5h-5q-39 0 -62 23t-23 60q0 53 35.5 88t90.5 35q43 0 69 -24.5t26 -62.5q0 -66 -41 -126.5t-110.5 -99
t-151.5 -41.5h-105l63 360q17 93 76.5 145.5t149.5 52.5h108q85 0 134 -42.5zM286.5 213.5q10.5 -9.5 27.5 -9.5q22 0 37.5 15.5t15.5 38.5q0 16 -10 25.5t-27 9.5q-23 0 -38.5 -15.5t-15.5 -38.5q0 -16 10.5 -25.5z" />
    <glyph glyph-name="uni0E15" unicode="&#xe15;" horiz-adv-x="653" 
d="M573.5 523q37.5 -35 37.5 -99q0 -24 -4 -45l-66 -379h-114l67 377q3 15 3 26q0 25 -11.5 39.5t-31.5 14.5h-10l-92 -61l-71 61h-10q-26 0 -44 -21.5t-26 -60.5l-51 -291h9q40 0 78 16.5t64 45.5h-5q-39 0 -62 23t-23 60q0 53 35.5 88t90.5 35q43 0 69 -24.5t26 -62.5
q0 -66 -41 -126t-110.5 -98t-151.5 -41h-105l67 377q16 88 64.5 134.5t124.5 46.5h22l61 -58l82 58h22q69 0 106.5 -35zM286.5 211.5q10.5 -9.5 27.5 -9.5q22 0 37.5 15.5t15.5 38.5q0 16 -10 25.5t-27 9.5q-23 0 -38.5 -15.5t-15.5 -38.5q0 -16 10.5 -25.5z" />
    <glyph glyph-name="uni0E16" unicode="&#xe16;" horiz-adv-x="625" 
d="M541 520.5q43 -37.5 43 -101.5q0 -16 -3 -34l-68 -385h-115l68 380q1 6 1 16q0 29 -17.5 45.5t-47.5 16.5h-107q-31 0 -64 -23t-54 -61q24 -14 37.5 -39.5t13.5 -55.5q0 -7 -2 -23l-8 -49q3 1 10 1q42 0 66 -24t24 -64q0 -56 -38 -93t-96 -37q-47 0 -74.5 24.5
t-27.5 65.5q0 7 2 21l27 155q1 5 1 16q0 27 -16 45t-48 23q33 98 101 158t151 60h123q75 0 118 -37.5zM236.5 136.5q-10.5 9.5 -28.5 9.5q-23 0 -39 -16t-16 -39q0 -17 10.5 -26.5t28.5 -9.5q23 0 39 16t16 39q0 17 -10.5 26.5z" />
    <glyph glyph-name="uni0E17" unicode="&#xe17;" horiz-adv-x="670" 
d="M597.5 527q33.5 -31 33.5 -88q0 -17 -3 -37l-71 -402h-115l72 405q2 14 2 20q0 28 -22 28h-4l-247 -453h-139l59 334h-10q-44 0 -70 25.5t-26 66.5q0 58 39 96t99 38q47 0 74.5 -25t27.5 -66q0 -7 -2 -23l-50 -286h1l214 398h42q62 0 95.5 -31zM139.5 409
q10.5 -10 28.5 -10q24 0 40 16.5t16 39.5q0 17 -10.5 27t-29.5 10q-23 0 -39 -16.5t-16 -40.5q0 -16 10.5 -26z" />
    <glyph glyph-name="uni0E18" unicode="&#xe18;" horiz-adv-x="582" 
d="M80.5 16.5q-18.5 16.5 -18.5 44.5q0 6 2 18l30 176h112l-27 -159h151q25 0 39.5 13t18.5 40l20 111q-34 17 -128 36t-221 35q20 114 74 171.5t147 57.5q29 0 53 -5t55 -15q29 -9 47.5 -13.5t39.5 -4.5q31 0 59 9t48 26l-15 -92q-16 -16 -44 -25.5t-60 -9.5q-24 0 -45.5 5
t-49.5 14q-27 9 -47.5 13.5t-42.5 4.5q-71 0 -92 -69q114 -16 206 -40.5t137 -51.5l-28 -159q-25 -147 -164 -147h-206q-32 0 -50.5 16.5z" />
    <glyph glyph-name="uni0E19" unicode="&#xe19;" horiz-adv-x="654" 
d="M595 168.5q11 -20.5 11 -45.5q0 -58 -39 -95.5t-98 -37.5q-46 0 -74 26t-28 67q0 18 5 36q-45 -22 -88.5 -53t-78.5 -66h-101l59 334h-10q-44 0 -70 25.5t-26 65.5q0 59 38.5 97t99.5 38q47 0 75.5 -25t28.5 -67q0 -6 -2 -22l-56 -319q45 36 104 64t109 38l57 321h115
l-62 -349q20 -12 31 -32.5zM210 416q16 16 16 40q0 17 -10.5 26.5t-29.5 9.5q-23 0 -39.5 -16t-16.5 -40q0 -17 10.5 -26.5t29.5 -9.5q24 0 40 16zM517 74.5q16 16.5 16 39.5q0 17 -10.5 27t-28.5 10q-23 0 -39 -16.5t-16 -40.5q0 -17 10.5 -26.5t28.5 -9.5q23 0 39 16.5z
" />
    <glyph glyph-name="uni0E1A" unicode="&#xe1a;" horiz-adv-x="666" 
d="M651 550l-71 -400q-13 -74 -54.5 -112t-109.5 -38h-231q-32 0 -51 16.5t-19 45.5q0 5 2 17l46 255h-10q-44 0 -70 25.5t-26 66.5q0 58 39 96t99 38q47 0 75.5 -25t28.5 -67q0 -6 -2 -22l-61 -346h172q48 0 58 54l70 396h115zM210 416q16 16 16 40q0 17 -10.5 26.5
t-29.5 9.5q-23 0 -39.5 -16t-16.5 -40q0 -17 10.5 -26.5t29.5 -9.5q24 0 40 16z" />
    <glyph glyph-name="uni0E1B" unicode="&#xe1b;" horiz-adv-x="668" 
d="M690 762l-108 -612q-27 -150 -164 -150h-233q-32 0 -51 16.5t-19 45.5q0 5 2 17l46 255h-10q-44 0 -70 25.5t-26 66.5q0 58 39 96t99 38q47 0 75.5 -25t28.5 -67q0 -6 -2 -22l-61 -346h174q48 0 58 54l107 608h115zM210 416q16 16 16 40q0 17 -10.5 26.5t-29.5 9.5
q-23 0 -39.5 -16t-16.5 -40q0 -17 10.5 -26.5t29.5 -9.5q24 0 40 16z" />
    <glyph glyph-name="uni0E1C" unicode="&#xe1c;" horiz-adv-x="640" 
d="M625 550l-84 -473q-6 -34 -31.5 -55.5t-60.5 -21.5h-43l-93 196l-166 -196h-45q-30 0 -47.5 16.5t-17.5 44.5q0 10 1 16l66 372q9 51 45 81t88 30q46 0 74 -25.5t28 -66.5q0 -55 -36 -91.5t-92 -36.5q-11 0 -16 1l-38 -217l150 174h19q15 0 23.5 -6t15.5 -20l72 -148
l76 426h112zM189 478.5q-16 -16.5 -16 -40.5q0 -16 10.5 -26t28.5 -10q24 0 40 16.5t16 39.5q0 17 -10.5 27t-28.5 10q-24 0 -40 -16.5z" />
    <glyph glyph-name="uni0E1D" unicode="&#xe1d;" horiz-adv-x="642" 
d="M664 762l-121 -685q-6 -34 -31.5 -55.5t-60.5 -21.5h-43l-94 196l-167 -196h-45q-30 0 -47.5 16.5t-17.5 44.5q0 10 1 16l66 372q9 51 45 81t88 30q46 0 74 -25.5t28 -66.5q0 -55 -36 -91.5t-92 -36.5q-11 0 -16 1l-38 -217l151 174h19q15 0 23.5 -6t15.5 -20l73 -148
l113 638h112zM189 478.5q-16 -16.5 -16 -40.5q0 -16 10.5 -26t28.5 -10q24 0 40 16.5t16 39.5q0 17 -10.5 27t-28.5 10q-24 0 -40 -16.5z" />
    <glyph glyph-name="uni0E1E" unicode="&#xe1e;" horiz-adv-x="722" 
d="M707 550l-83 -466q-7 -38 -34 -61t-65 -23h-53l-47 353l-174 -353h-56q-34 0 -54 17.5t-20 48.5q0 6 2 18l44 251q-4 -1 -14 -1q-44 0 -70 25.5t-26 66.5q0 59 38.5 96.5t98.5 37.5q47 0 74 -24.5t27 -66.5q0 -7 -2 -23l-55 -313h1l182 365h26q13 0 21.5 -9.5t10.5 -24.5
l46 -331h2l73 417h107zM139.5 409.5q10.5 -9.5 28.5 -9.5q25 0 40.5 16t15.5 40q0 17 -10 26.5t-29 9.5q-23 0 -39.5 -16t-16.5 -40q0 -17 10.5 -26.5z" />
    <glyph glyph-name="uni0E1F" unicode="&#xe1f;" horiz-adv-x="724" 
d="M746 762l-120 -678q-7 -38 -34 -61t-65 -23h-53l-48 353l-175 -353h-56q-34 0 -54 17.5t-20 48.5q0 6 2 18l44 251q-4 -1 -14 -1q-44 0 -70 25.5t-26 66.5q0 59 38.5 96.5t98.5 37.5q47 0 74 -24.5t27 -66.5q0 -7 -2 -23l-55 -313h1l183 365h26q13 0 21.5 -9.5
t10.5 -24.5l47 -331h2l110 629h107zM139.5 409.5q10.5 -9.5 28.5 -9.5q25 0 40.5 16t15.5 40q0 17 -10 26.5t-29 9.5q-23 0 -39.5 -16t-16.5 -40q0 -17 10.5 -26.5z" />
    <glyph glyph-name="uni0E20" unicode="&#xe20;" horiz-adv-x="638" 
d="M554.5 520.5q43.5 -37.5 43.5 -101.5q0 -16 -3 -34l-69 -385h-114l67 380q1 6 1 16q0 29 -17.5 45.5t-47.5 16.5h-90q-32 0 -64.5 -23t-54.5 -61q28 -16 46 -40.5t18 -54.5q0 -5 -2 -17l-29 -162q-8 -50 -43 -80t-87 -30q-47 0 -75 25.5t-28 65.5q0 55 35 90.5t89 35.5
q9 0 13 -1l10 56q1 4 1 12q0 27 -21 43.5t-55 22.5q33 98 100.5 158t150.5 60h107q75 0 118.5 -37.5zM153 70.5q16 16.5 16 39.5q0 16 -10.5 26t-28.5 10q-23 0 -39 -16.5t-16 -39.5q0 -16 10.5 -26t28.5 -10q23 0 39 16.5z" />
    <glyph glyph-name="uni0E21" unicode="&#xe21;" horiz-adv-x="638" 
d="M623 550l-97 -550h-104q-26 48 -71 86t-95 53l-20 -119q-20 -14 -49.5 -22t-62.5 -8q-49 0 -79 26.5t-30 73.5q0 63 41.5 105.5t106.5 47.5l16 92q-3 -1 -11 -1q-44 0 -70 25.5t-26 65.5q0 59 38.5 97t99.5 38q47 0 76 -25t29 -67q0 -8 -2 -22l-38 -211q45 -14 89 -41
t71 -58l74 414h114zM224 415.5q16 16.5 16 39.5q0 17 -10.5 27t-29.5 10q-23 0 -39 -16.5t-16 -40.5q0 -16 10.5 -26t28.5 -10q24 0 40 16.5zM173 171h-9q-31 0 -51.5 -21t-20.5 -52q0 -37 37 -37q17 0 26 5z" />
    <glyph glyph-name="uni0E22" unicode="&#xe22;" horiz-adv-x="614" 
d="M599 550l-71 -400q-14 -74 -55.5 -112t-109.5 -38h-261q-32 0 -50.5 17t-18.5 45q0 5 2 17l11 57q7 38 30.5 69.5t58.5 47.5v1q-27 14 -41.5 40.5t-14.5 62.5q0 55 24.5 101.5t66 74t90.5 27.5q46 0 74 -25t28 -64q0 -53 -34.5 -88t-87.5 -35q-38 0 -58 20q-2 -12 -2 -19
q0 -58 90 -58h45l-14 -83h-45q-41 0 -65.5 -18t-30.5 -52l-6 -39h201q48 0 59 54l70 397h115zM211.5 482.5q-16.5 -16.5 -16.5 -40.5q0 -16 11 -26t29 -10q24 0 40 16.5t16 39.5q0 17 -10.5 27t-28.5 10q-24 0 -40.5 -16.5z" />
    <glyph glyph-name="uni0E23" unicode="&#xe23;" horiz-adv-x="520" 
d="M169 394q186 -32 276 -89l-35 -201q-9 -51 -46 -82.5t-90 -31.5q-48 0 -76.5 26t-28.5 68q0 58 37 94.5t95 36.5q9 0 13 -1l8 49q-84 41 -279 69q20 113 72.5 170.5t146.5 57.5q28 0 50 -5.5t51 -15.5q22 -8 39 -12.5t37 -4.5q29 0 58 9t49 26l-17 -96q-40 -32 -97 -32
q-35 0 -86 17q-31 9 -48 13t-39 4q-72 0 -90 -69zM321.5 74q16.5 16 16.5 40q0 17 -10.5 26.5t-29.5 9.5q-23 0 -39.5 -16t-16.5 -40q0 -16 11 -26t29 -10q23 0 39.5 16z" />
    <glyph glyph-name="uni0E24" unicode="&#xe24;" horiz-adv-x="627" 
d="M543 520.5q43 -37.5 43 -101.5q0 -16 -3 -34l-103 -585h-115l103 580q1 6 1 16q0 29 -17.5 45.5t-47.5 16.5h-109q-31 0 -64 -23t-54 -61q24 -14 37.5 -39.5t13.5 -55.5q0 -7 -2 -23l-8 -49q3 1 10 1q42 0 66 -24t24 -64q0 -56 -38 -93t-96 -37q-47 0 -74.5 24.5
t-27.5 65.5q0 7 2 21l27 155q1 5 1 16q0 27 -16 45t-48 23q33 98 101 158t151 60h125q75 0 118 -37.5zM236.5 136.5q-10.5 9.5 -28.5 9.5q-23 0 -39 -16t-16 -39q0 -17 10.5 -26.5t28.5 -9.5q23 0 39 16t16 39q0 17 -10.5 26.5z" />
    <glyph glyph-name="uni0E25" unicode="&#xe25;" horiz-adv-x="602" 
d="M517 519.5q44 -38.5 44 -103.5q0 -16 -3 -34l-68 -382h-114l12 68q2 13 2 37q0 69 -33 108t-92 39q-34 0 -58.5 -13.5t-35.5 -36.5h11q41 0 65 -23.5t24 -61.5q0 -56 -37 -91.5t-95 -35.5q-47 0 -74.5 24.5t-27.5 64.5q0 6 2 20l14 75q14 82 72 128t148 46q53 0 92.5 -20
t59.5 -56l20 111q2 12 2 18q0 26 -15 41.5t-40 15.5h-112q-39 0 -65.5 -20t-32.5 -54h-112q14 81 71 127.5t144 46.5h112q76 0 120 -38.5zM190.5 134.5q-10.5 9.5 -28.5 9.5q-23 0 -39 -16t-16 -39q0 -17 10.5 -26.5t28.5 -9.5q23 0 39 16.5t16 38.5q0 17 -10.5 26.5z" />
    <glyph glyph-name="uni0E26" unicode="&#xe26;" horiz-adv-x="640" 
d="M556.5 520.5q43.5 -37.5 43.5 -101.5q0 -16 -3 -34l-104 -585h-114l102 580q1 6 1 16q0 29 -17.5 45.5t-47.5 16.5h-92q-32 0 -64.5 -23t-54.5 -61q28 -16 46 -40.5t18 -54.5q0 -5 -2 -17l-29 -162q-8 -50 -43 -80t-87 -30q-47 0 -75 25.5t-28 65.5q0 55 35 90.5t89 35.5
q9 0 13 -1l10 56q1 4 1 12q0 27 -21 43.5t-55 22.5q33 98 100.5 158t150.5 60h109q75 0 118.5 -37.5zM153 70.5q16 16.5 16 39.5q0 16 -10.5 26t-28.5 10q-23 0 -39 -16.5t-16 -39.5q0 -16 10.5 -26t28.5 -10q23 0 39 16.5z" />
    <glyph glyph-name="uni0E27" unicode="&#xe27;" horiz-adv-x="550" 
d="M465 521.5q43 -36.5 43 -101.5q0 -17 -3 -37l-49 -279q-9 -51 -46 -82.5t-89 -31.5q-48 0 -77 26t-29 68q0 58 37 94.5t96 36.5q9 0 13 -1l29 169q2 14 2 20q0 26 -14 40.5t-39 14.5h-89q-36 0 -60.5 -26t-32.5 -72h-114q17 93 72.5 145.5t138.5 52.5h89q79 0 122 -36.5z
M368 74q16 16 16 40q0 17 -10.5 26.5t-28.5 9.5q-24 0 -40 -16t-16 -40q0 -17 10.5 -26.5t28.5 -9.5q24 0 40 16z" />
    <glyph glyph-name="uni0E28" unicode="&#xe28;" horiz-adv-x="648" 
d="M654 615l-4 -11q-28 -70 -89 -101q42 -37 42 -100q0 -11 -4 -39l-64 -364h-114l64 364q2 16 2 22q0 33 -19 52.5t-52 19.5h-110q-45 0 -74 -25t-37 -69l-36 -202h2l65 109q24 39 50.5 57.5t59.5 18.5q43 0 69 -24.5t26 -61.5q0 -52 -34.5 -86.5t-87.5 -34.5
q-20 0 -37 7.5t-27 20.5l-106 -168h-115l64 364q16 91 74.5 142.5t147.5 51.5h123q44 0 65.5 10.5t36.5 37.5l5 9h114zM294 272.5q-16 -15.5 -16 -38.5q0 -17 10 -26t28 -9q23 0 38 15.5t15 38.5q0 16 -10 25.5t-27 9.5q-22 0 -38 -15.5z" />
    <glyph glyph-name="uni0E29" unicode="&#xe29;" horiz-adv-x="719" 
d="M740 373l-6 -15q-19 -61 -53 -99t-80 -52l-10 -57q-13 -74 -54.5 -112t-109.5 -38h-242q-32 0 -51 16.5t-19 45.5q0 5 2 17l46 255h-10q-44 0 -70 25.5t-26 66.5q0 58 39 96t99 38q47 0 75.5 -25t28.5 -67q0 -6 -2 -22l-61 -346h188q49 0 58 54l8 44h-111q-38 0 -62 22.5
t-24 57.5q0 49 31.5 81t80.5 32q37 0 60.5 -21t23.5 -54q0 -20 -6 -35h21l48 269h110l-45 -255q27 18 42 63l6 15h75zM210 416q16 16 16 40q0 17 -10.5 26.5t-29.5 9.5q-23 0 -39.5 -16t-16.5 -40q0 -17 10.5 -26.5t29.5 -9.5q24 0 40 16zM420 268.5q14 14.5 14 35.5
q0 14 -9.5 23t-24.5 9q-20 0 -34.5 -14.5t-14.5 -34.5q0 -15 9.5 -24t25.5 -9q20 0 34 14.5z" />
    <glyph glyph-name="uni0E2A" unicode="&#xe2a;" horiz-adv-x="602" 
d="M623 615l-4 -11q-32 -75 -95 -104q37 -31 37 -84q0 -15 -3 -30l-68 -386h-114l12 68q2 13 2 37q0 69 -33 108t-92 39q-34 0 -58.5 -13.5t-35.5 -36.5h9q42 0 66.5 -23.5t24.5 -61.5q0 -56 -37 -91.5t-95 -35.5q-47 0 -74.5 24.5t-27.5 64.5q0 6 2 20l14 75q14 82 72 128
t148 46q53 0 92.5 -20t59.5 -56l20 111q2 12 2 18q0 26 -15 41.5t-40 15.5h-112q-39 0 -65.5 -20t-32.5 -54h-112q14 81 71 127.5t144 46.5h130q34 0 53.5 11.5t34.5 36.5l6 9h114zM190.5 134.5q-10.5 9.5 -28.5 9.5q-23 0 -39 -16t-16 -39q0 -17 10.5 -26.5t28.5 -9.5
q23 0 39 16.5t16 38.5q0 17 -10.5 26.5z" />
    <glyph glyph-name="uni0E2B" unicode="&#xe2b;" horiz-adv-x="660" 
d="M630 402.5q-19 -29.5 -50 -46.5q19 -21 19 -53q0 -7 -2 -21l-50 -282h-115l49 274q1 3 1 9q0 12 -11 12l-258 -295h-109l59 334h-10q-44 0 -70 25.5t-26 65.5q0 59 38.5 97t99.5 38q47 0 75.5 -25t28.5 -67q0 -6 -2 -22l-51 -294l190 216q-12 12 -18.5 29t-6.5 36
q0 54 38.5 90.5t96.5 36.5q47 0 75 -26t28 -66q0 -36 -19 -65.5zM561 418.5q16 16.5 16 40.5q0 17 -10.5 26.5t-28.5 9.5q-23 0 -39.5 -16t-16.5 -41q0 -17 10.5 -26.5t29.5 -9.5q23 0 39 16.5zM210 416q16 16 16 40q0 17 -10.5 26.5t-29.5 9.5q-23 0 -39.5 -16t-16.5 -40
q0 -17 10.5 -26.5t29.5 -9.5q24 0 40 16z" />
    <glyph glyph-name="uni0E2C" unicode="&#xe2c;" horiz-adv-x="725" 
d="M838 750l-6 -17q-16 -48 -46.5 -85.5t-69.5 -60.5l-90 -503q-7 -38 -34 -61t-65 -23h-53l-48 353l-175 -353h-56q-34 0 -54 17.5t-20 48.5q0 6 2 18l44 251q-4 -1 -14 -1q-44 0 -70 25.5t-26 66.5q0 59 38.5 96.5t98.5 37.5q47 0 74 -24.5t27 -66.5q0 -7 -2 -23l-55 -313
h1l183 365h26q13 0 21.5 -9.5t10.5 -24.5l47 -331h2l74 424q-48 1 -75 26t-27 65q0 53 37 88.5t92 35.5q42 0 68 -23t26 -62q0 -7 -1 -12q21 22 34 58l7 17h74zM580.5 630q10.5 -9 27.5 -9q22 0 37 15.5t15 37.5q0 15 -10.5 24.5t-26.5 9.5q-22 0 -37.5 -15.5t-15.5 -37.5
q0 -16 10.5 -25zM139.5 409.5q10.5 -9.5 28.5 -9.5q25 0 40.5 16t15.5 40q0 17 -10 26.5t-29 9.5q-23 0 -39.5 -16t-16.5 -40q0 -17 10.5 -26.5z" />
    <glyph glyph-name="uni0E2D" unicode="&#xe2d;" horiz-adv-x="611" 
d="M526 519.5q44 -38.5 44 -103.5q0 -16 -3 -34l-41 -232q-13 -74 -54 -112t-109 -38h-248q-32 0 -50.5 16.5t-18.5 44.5q0 6 2 18l29 169q9 49 44.5 78.5t86.5 29.5q45 0 73 -25t28 -64q0 -53 -35 -87t-90 -34q-9 0 -14 1l-9 -52h192q26 0 40.5 14t19.5 42l41 232
q2 12 2 18q0 26 -14.5 41.5t-39.5 15.5h-130q-39 0 -65.5 -20t-32.5 -54h-112q14 82 71.5 128t143.5 46h130q75 0 119 -38.5zM162.5 277.5q-15.5 -15.5 -15.5 -38.5q0 -16 10.5 -26t27.5 -10q23 0 38.5 16t15.5 38q0 17 -10.5 26.5t-28.5 9.5q-22 0 -37.5 -15.5z" />
    <glyph glyph-name="uni0E2E" unicode="&#xe2e;" horiz-adv-x="611" 
d="M546 514q25 -33 25 -83q0 -13 -4 -41l-42 -240q-13 -74 -54 -112t-109 -38h-246q-32 0 -50.5 16.5t-18.5 44.5q0 6 2 18l26 151q9 48 44 77.5t86 29.5q45 0 72.5 -24.5t27.5 -63.5q0 -52 -35 -86t-88 -34q-10 0 -14 1l-6 -37h193q27 0 41 14t19 43l39 222q3 15 3 27h-2
q-58 -58 -139 -58h-106q-60 0 -94 25t-34 68q0 58 42.5 91t117.5 33h196q15 0 22 -1l9 29l6 20h99l-7 -24q-11 -39 -21 -68zM396 427q29 15 43 57q-10 4 -24 4h-174q-27 0 -43 -12t-16 -33q0 -14 11 -22.5t30 -8.5h105q39 0 68 15zM159 259.5q-16 -15.5 -16 -38.5
q0 -16 10.5 -26t27.5 -10q23 0 38.5 15.5t15.5 38.5q0 16 -10.5 26t-27.5 10q-22 0 -38 -15.5z" />
    <glyph glyph-name="uni0E2F" unicode="&#xe2f;" horiz-adv-x="565" 
d="M550 550l-64 -362q-17 -95 -70.5 -141.5t-147.5 -46.5h-49l17 100h49q71 0 86 88l26 149q-27 -27 -70 -42.5t-91 -15.5q-86 0 -136 37.5t-50 100.5q0 62 39 102t100 40q45 0 73 -25.5t28 -66.5q0 -31 -13 -56t-36 -42q16 -2 25 -2q66 0 114 49.5t64 133.5h106zM139 476.5
q-16 -16.5 -16 -40.5q0 -17 10 -26.5t29 -9.5q24 0 40 16t16 40q0 17 -10.5 27t-28.5 10q-24 0 -40 -16.5z" />
    <glyph glyph-name="uni0E30" unicode="&#xe30;" horiz-adv-x="513" 
d="M120.5 329.5q-50.5 31.5 -50.5 87.5q0 57 37 94t95 37q44 0 71.5 -24.5t27.5 -63.5q0 -48 -31 -77h9q52 0 92 41.5t57 116.5h103q-22 -114 -94 -178.5t-174 -64.5q-92 0 -142.5 31.5zM156 468.5q-15 -15.5 -15 -38.5q0 -16 10 -25.5t27 -9.5q22 0 37.5 15.5t15.5 38.5
q0 16 -10.5 25.5t-27.5 9.5q-22 0 -37 -15.5zM319.5 130.5q40.5 41.5 57.5 116.5h102q-22 -114 -93.5 -178.5t-173.5 -64.5q-93 0 -143.5 31.5t-50.5 87.5q0 57 37 94t95 37q44 0 71.5 -24.5t27.5 -63.5q0 -48 -31 -77h9q52 0 92.5 41.5zM99 110.5q10 -9.5 27 -9.5
q23 0 38.5 16t15.5 38q0 16 -10.5 25.5t-27.5 9.5q-22 0 -37.5 -15.5t-15.5 -38.5q0 -16 10 -25.5z" />
    <glyph glyph-name="uni0E31" unicode="&#xe31;" 
d="M-239 658q-54 31 -54 87q0 53 34.5 86t89.5 33q42 0 68 -22t26 -59q0 -28 -11 -45.5t-24 -26.5v-1q13 -3 32 -3q61 0 100.5 39t53.5 112h98q-21 -113 -88 -172t-175 -59q-96 0 -150 31zM-154 735q15 15 15 37q0 16 -9.5 25t-26.5 9q-22 0 -37.5 -15t-15.5 -37
q0 -16 10 -25t27 -9q22 0 37 15z" />
    <glyph glyph-name="uni0E32" unicode="&#xe32;" horiz-adv-x="535" 
d="M376 383q2 12 2 18q0 26 -14.5 41.5t-39.5 15.5h-74q-36 0 -61 -26t-33 -73h-113q17 94 72.5 146.5t138.5 52.5h75q76 0 120 -38t44 -102q0 -17 -3 -35l-68 -383h-114z" />
    <glyph glyph-name="uni0E33" unicode="&#xe33;" horiz-adv-x="535" 
d="M-143 654q-29 27 -29 70q0 39 19 71t51.5 50t72.5 18q48 0 77 -26.5t29 -69.5q0 -60 -41 -100t-103 -40q-47 0 -76 27zM-13 713q18 18 18 43q0 18 -12 29t-31 11q-26 0 -44 -17.5t-18 -43.5q0 -18 12 -29t32 -11q25 0 43 18zM376 383q2 12 2 18q0 26 -14.5 41.5
t-39.5 15.5h-74q-36 0 -61 -26t-33 -73h-113q17 94 72.5 146.5t138.5 52.5h75q76 0 120 -38t44 -102q0 -17 -3 -35l-68 -383h-114z" />
    <glyph glyph-name="uni0E34" unicode="&#xe34;" 
d="M-206.5 662.5q-91.5 10.5 -224.5 10.5h-31q31 91 101 145t161 54q95 0 149 -51t54 -141q0 -27 -6 -59q-112 31 -203.5 41.5zM-120 776.5q-31 23.5 -87 23.5q-42 0 -76.5 -16.5t-55.5 -47.5q68 2 134.5 -5t117.5 -21q-2 43 -33 66.5z" />
    <glyph glyph-name="uni0E35" unicode="&#xe35;" 
d="M48 907l-51 -286q-112 31 -203.5 41.5t-224.5 10.5h-31q29 91 97.5 145t157.5 54q43 0 79 -14.5t56 -38.5l16 88h104zM-204.5 731q66.5 -7 117.5 -21q-2 43 -33 66.5t-87 23.5q-42 0 -76.5 -16.5t-55.5 -47.5q68 2 134.5 -5z" />
    <glyph glyph-name="uni0E36" unicode="&#xe36;" 
d="M53 777.5q-23 -29.5 -60 -39.5q10 -24 10 -61q0 -26 -6 -56q-112 31 -203 41.5t-222 10.5h-31q29 91 97.5 145t157.5 54q26 0 50.5 -5t40.5 -13q14 30 41.5 48.5t62.5 18.5q39 0 62 -21t23 -55q0 -38 -23 -67.5zM3 800.5q14 14.5 14 34.5q0 14 -9.5 23t-25.5 9
q-20 0 -34 -14.5t-14 -34.5q0 -14 9.5 -23t25.5 -9q20 0 34 14.5zM-205.5 731q65.5 -7 117.5 -21q-1 41 -33.5 65.5t-85.5 24.5q-42 0 -76.5 -16.5t-55.5 -47.5q68 2 133.5 -5z" />
    <glyph glyph-name="uni0E37" unicode="&#xe37;" 
d="M48 907l-51 -285q-113 30 -204.5 40.5t-223.5 10.5h-31q30 91 95 142t154 51q10 0 15 -1l7 42h92l-11 -61q29 -14 45 -37l17 98h96zM-204.5 731q66.5 -7 117.5 -21q-1 43 -34 66.5t-89 23.5q-42 0 -75 -16.5t-54 -47.5q68 2 134.5 -5z" />
    <glyph glyph-name="uni0E38" unicode="&#xe38;" 
d="M-167.5 -84q27.5 -24 27.5 -64q0 -6 -2 -20l-34 -191h-112l15 85h-5q-43 0 -70 24.5t-27 63.5q0 55 38 90.5t96 35.5q46 0 73.5 -24zM-226.5 -197.5q15.5 15.5 15.5 38.5q0 16 -10.5 26t-27.5 10q-23 0 -38.5 -16t-15.5 -39q0 -16 10.5 -25.5t27.5 -9.5q23 0 38.5 15.5z
" />
    <glyph glyph-name="uni0E39" unicode="&#xe39;" 
d="M-123 -63l-37 -212q-8 -38 -34.5 -60.5t-66.5 -22.5h-155q-16 0 -24 7t-8 19q0 5 1 8l10 58h-9q-42 0 -67.5 23t-25.5 60q0 53 36 88t91 35q44 0 70 -23t26 -63q0 -6 -2 -20l-20 -114h60q6 0 11.5 5t6.5 12l35 200h102zM-397.5 -194.5q15.5 15.5 15.5 38.5
q0 16 -10.5 25.5t-27.5 9.5q-22 0 -37.5 -16t-15.5 -38q0 -16 10 -25.5t27 -9.5q23 0 38.5 15.5z" />
    <glyph glyph-name="uni0E3A" unicode="&#xe3a;" 
d="M-250.5 -189.5q-16.5 15.5 -16.5 41.5q0 40 24 64t63 24q28 0 45 -15.5t17 -41.5q0 -39 -24 -63.5t-64 -24.5q-28 0 -44.5 15.5z" />
    <glyph glyph-name="uni0E3F" unicode="&#xe3f;" horiz-adv-x="681" 
d="M618 420.5q-22 -31.5 -55 -49.5v-1q39 -14 61.5 -44.5t22.5 -70.5q0 -16 -2 -25l-9 -50q-14 -86 -74 -133t-154 -47h-59l-18 -105h-114l18 105h-125q-34 0 -53.5 18t-19.5 49q0 5 2 17l109 616h211l18 105h114l-18 -105q85 -1 135.5 -38t50.5 -96q0 -14 -3 -28l-9 -51
q-7 -35 -29 -66.5zM538 541q0 26 -21 41.5t-58 15.5h-213l-34 -197h220q37 0 64 24t34 62l7 41q1 4 1 13zM530 244q0 27 -20.5 44t-55.5 17h-259l-36 -203h243q49 0 79.5 22t38.5 61l9 45q1 5 1 14z" />
    <glyph glyph-name="uni0E40" unicode="&#xe40;" horiz-adv-x="331" 
d="M257.5 191q25.5 -25 25.5 -65q0 -59 -38.5 -97t-98.5 -38q-47 0 -76.5 25.5t-29.5 67.5q0 8 2 22l79 444h115l-59 -335q3 1 11 1q44 0 69.5 -25zM193 75q16 16 16 41q0 16 -10.5 26t-28.5 10q-24 0 -40 -16.5t-16 -39.5q0 -17 11 -27t29 -10q23 0 39 16z" />
    <glyph glyph-name="uni0E41" unicode="&#xe41;" horiz-adv-x="622" 
d="M257.5 191q25.5 -25 25.5 -65q0 -59 -38.5 -97t-98.5 -38q-47 0 -76.5 25.5t-29.5 67.5q0 8 2 22l79 444h115l-59 -335q3 1 11 1q44 0 69.5 -25zM548.5 191q25.5 -25 25.5 -65q0 -59 -38 -97t-99 -38q-47 0 -76 25t-29 68q0 6 2 22l78 444h115l-59 -335q3 1 11 1
q44 0 69.5 -25zM193 75q16 16 16 41q0 16 -10.5 26t-28.5 10q-24 0 -40 -16.5t-16 -39.5q0 -17 11 -27t29 -10q23 0 39 16zM485 75q16 16 16 41q0 16 -11 26t-29 10q-23 0 -39 -16.5t-16 -39.5q0 -17 10.5 -27t28.5 -10q24 0 40 16z" />
    <glyph glyph-name="uni0E42" unicode="&#xe42;" horiz-adv-x="416" 
d="M479 913q26 10 48 28l-18 -97q-17 -16 -42.5 -26t-53.5 -10q-23 0 -41 5.5t-43 16.5t-40.5 15.5t-34.5 4.5q-29 0 -49 -16.5t-27 -44.5q114 -43 167 -103l-83 -471q3 1 11 1q44 0 69.5 -25t25.5 -65q0 -59 -38.5 -97t-98.5 -38q-47 0 -76.5 25.5t-29.5 67.5q0 8 2 22
l96 542q-26 23 -70 45.5t-99 38.5q19 106 69 160t135 54q26 0 46.5 -6t51.5 -18q23 -10 38.5 -14.5t32.5 -4.5q26 0 52 10zM283.5 142q-10.5 10 -28.5 10q-24 0 -40 -16.5t-16 -39.5q0 -17 11 -27t29 -10q23 0 39 16t16 41q0 16 -10.5 26z" />
    <glyph glyph-name="uni0E43" unicode="&#xe43;" horiz-adv-x="432" 
d="M425.5 919.5q42.5 -35.5 42.5 -95.5q0 -14 -3 -31l-4 -28q-7 -43 -25 -73.5t-51 -71.5q-24 -29 -36 -47t-15 -39l-56 -318h9q45 0 71 -23.5t26 -64.5q0 -59 -39.5 -98t-100.5 -39q-47 0 -75 25t-28 67q0 7 2 23l77 435q4 22 18 41.5t39 45.5q34 36 54.5 66t27.5 71l5 28
q1 6 1 16q0 30 -17 47.5t-47 17.5h-33q-29 0 -51.5 -9.5t-36.5 -27.5l1 -1q13 5 28 5q36 0 57.5 -22.5t21.5 -57.5q0 -54 -36.5 -89.5t-91.5 -35.5q-44 0 -71 25t-27 66q0 7 2 23l6 32q14 81 68 127t135 46h36q74 0 116.5 -35.5zM144.5 769q-14.5 -15 -14.5 -37
q0 -15 10 -24t26 -9q22 0 36.5 15t14.5 37q0 15 -10 24t-26 9q-22 0 -36.5 -15zM299.5 142q-10.5 10 -28.5 10q-24 0 -40 -16.5t-16 -39.5q0 -17 11 -27t29 -10q23 0 39 16t16 41q0 16 -10.5 26z" />
    <glyph glyph-name="uni0E44" unicode="&#xe44;" horiz-adv-x="448" 
d="M389 929.5q20 -16.5 20 -48.5q0 -6 -2 -22l-113 -643h10q45 0 71 -23.5t26 -64.5q0 -59 -40 -98t-101 -39q-47 0 -74.5 25t-27.5 67q0 7 2 23l124 707l-111 -118h-22q-15 0 -24.5 7t-15.5 22l-86 217h99l50 -135l133 140h25q37 0 57 -16.5zM316 142q-11 10 -29 10
q-23 0 -39 -16.5t-16 -39.5q0 -17 10.5 -27t28.5 -10q24 0 40 16t16 41q0 16 -11 26z" />
    <glyph glyph-name="uni0E45" unicode="&#xe45;" horiz-adv-x="535" 
d="M376 383q2 12 2 18q0 26 -14.5 41.5t-39.5 15.5h-74q-36 0 -61 -26t-33 -73h-113q17 94 72.5 146.5t138.5 52.5h75q76 0 120 -37.5t44 -102.5q0 -17 -3 -35l-104 -583h-114z" />
    <glyph glyph-name="uni0E46" unicode="&#xe46;" horiz-adv-x="568" 
d="M502.5 529.5q28.5 -28.5 28.5 -83.5q0 -23 -4 -43l-82 -463q-16 -98 -66 -143t-141 -45h-50l17 100h49q32 0 50.5 21t26.5 67l82 467q3 17 3 29q0 27 -14 27h-10l-87 -74l-66 75h-10q-20 0 -37 -17.5t-27 -49.5q6 1 19 1q43 0 69.5 -24.5t26.5 -64.5q0 -59 -37.5 -95
t-96.5 -36q-46 0 -74 25.5t-28 69.5q0 12 3 27l6 35q20 108 70 165.5t125 57.5h18l52 -66l75 66h27q54 0 82.5 -28.5zM198.5 326q-10.5 10 -28.5 10q-24 0 -40.5 -16t-16.5 -41q0 -17 11 -27t29 -10q24 0 40 16t16 42q0 16 -10.5 26z" />
    <glyph glyph-name="uni0E47" unicode="&#xe47;" 
d="M-14 776.5q22 -19.5 22 -50.5q0 -44 -31 -71.5t-81 -27.5q-47 0 -83.5 15t-56.5 42l-36 -52h-23q-53 0 -83 28t-30 74q0 75 50 115t141 40h112q27 0 44.5 15t23.5 52h91q-13 -75 -53 -107t-110 -32h-118q-44 0 -67 -19.5t-23 -55.5q0 -18 8 -28.5t21 -10.5h4l49 71h39
q1 -28 8.5 -44t25.5 -23q0 38 28.5 63.5t70.5 25.5q35 0 57 -19.5zM-59 689.5q12 12.5 12 30.5q0 13 -8 20t-22 7q-18 0 -30 -12t-12 -30q0 -13 8 -20.5t22 -7.5q18 0 30 12.5z" />
    <glyph glyph-name="uni0E48" unicode="&#xe48;" 
d="M-78 842h114l-37 -210h-114z" />
    <glyph glyph-name="uni0E49" unicode="&#xe49;" 
d="M124 871q-28 -120 -104 -182t-199 -62q-94 0 -141 10l9 50q86 2 116 29q-10 -3 -21 -3q-35 0 -56 19.5t-21 50.5q0 45 31.5 74.5t80.5 29.5q39 0 63 -20t24 -53q0 -24 -12.5 -56t-31.5 -55v-1q63 7 105.5 50.5t62.5 118.5h94zM-168.5 772q13.5 13 13.5 31q0 13 -9 21
t-24 8q-18 0 -31 -12.5t-13 -31.5q0 -13 8.5 -21t23.5 -8q18 0 31.5 13z" />
    <glyph glyph-name="uni0E4A" unicode="&#xe4a;" 
d="M107 857q-20 -118 -65 -171.5t-126 -53.5h-57l-10 36q19 23 32.5 54.5t13.5 62.5q0 12 -3 19.5t-8 7.5h-4l-65 -59l-49 62h-9q-40 0 -64 -22h8q34 0 54 -19t20 -48q0 -44 -29.5 -72t-75.5 -28q-36 0 -58 21t-22 55q0 49 25 90t68 65t94 24h14l35 -51l54 51h14
q36 0 58 -24.5t22 -64.5q0 -24 -7.5 -50t-19.5 -42l1 -1q32 5 51.5 43.5t32.5 114.5h75zM-290 740.5q-9 7.5 -23 7.5q-18 0 -31 -12.5t-13 -31.5q0 -13 9 -20.5t23 -7.5q18 0 31 12.5t13 31.5q0 13 -9 20.5z" />
    <glyph glyph-name="uni0E4B" unicode="&#xe4b;" 
d="M-92 717h-108l14 83h109l15 85h100l-15 -85h109l-15 -83h-108l-15 -85h-101z" />
    <glyph glyph-name="uni0E4C" unicode="&#xe4c;" 
d="M107 903q-18 -71 -61 -111t-103 -40h-26q2 -10 2 -14q0 -47 -34.5 -79t-86.5 -32q-45 0 -72 24.5t-27 62.5q0 54 35.5 88t90.5 34h114q25 0 44 17.5t30 49.5h94zM-160.5 702.5q15.5 15.5 15.5 37.5q0 16 -10 25t-27 9q-23 0 -38 -15t-15 -38q0 -15 10 -24.5t28 -9.5
q21 0 36.5 15.5z" />
    <glyph glyph-name="uni0E4D" unicode="&#xe4d;" 
d="M-143 654q-29 27 -29 70q0 39 19 71t51.5 50t72.5 18q48 0 77 -26.5t29 -69.5q0 -60 -41 -100t-103 -40q-47 0 -76 27zM-13 713q18 18 18 43q0 18 -12 29t-31 11q-26 0 -44 -17.5t-18 -43.5q0 -18 12 -29t32 -11q25 0 43 18z" />
    <glyph glyph-name="uni0E4E" unicode="&#xe4e;" 
d="M-76.5 900.5q-17.5 -10.5 -17.5 -30.5q0 -17 18.5 -27t57.5 -15l-11 -60q-47 12 -100 12q-35 0 -53.5 -12.5t-18.5 -36.5q0 -32 57 -32q46 0 85 17l-12 -67q-17 -10 -44.5 -16t-57.5 -6q-57 0 -90.5 24t-33.5 65q0 50 34 80.5t96 37.5q-17 19 -17 42q0 51 42 79t116 28
q28 0 55.5 -5t46.5 -13l-12 -69q-52 15 -91 15q-32 0 -49.5 -10.5z" />
    <glyph glyph-name="uni0E4F" unicode="&#xe4f;" horiz-adv-x="657" 
d="M159.5 20.5q-55.5 28.5 -86 79.5t-30.5 118q0 102 42 180t119 120.5t177 42.5q72 0 127 -28.5t85 -80t30 -118.5q0 -102 -42 -179.5t-118 -120t-176 -42.5q-72 0 -127.5 28.5zM423.5 104q54.5 31 84.5 87t30 129q0 72 -46 116t-122 44q-72 0 -127 -31t-85 -87.5
t-30 -130.5q0 -71 46.5 -114.5t123.5 -43.5q71 0 125.5 31zM221 163.5q-35 32.5 -35 84.5q0 77 46.5 124t122.5 47q57 0 92 -32t35 -85q0 -77 -47 -124t-123 -47q-56 0 -91 32.5zM383.5 227.5q23.5 23.5 23.5 62.5q0 25 -17 40.5t-44 15.5q-38 0 -61.5 -23.5t-23.5 -62.5
q0 -25 16.5 -40.5t43.5 -15.5q39 0 62.5 23.5z" />
    <glyph glyph-name="uni0E50" unicode="&#xe50;" horiz-adv-x="649" 
d="M103 44q-62 52 -62 141q0 24 4 45l7 40q19 112 95 174.5t190 62.5h40q107 0 169 -52t62 -139q0 -25 -4 -46l-7 -40q-19 -112 -94.5 -175t-190.5 -63h-40q-107 0 -169 52zM315 91q68 0 112 36.5t56 102.5l7 40q3 15 3 29q0 50 -32.5 79.5t-89.5 29.5h-38
q-67 0 -110.5 -36.5t-55.5 -101.5l-7 -40q-3 -15 -3 -30q0 -50 32.5 -79.5t87.5 -29.5h38z" />
    <glyph glyph-name="uni0E51" unicode="&#xe51;" horiz-adv-x="645" 
d="M236 35h45q76 0 128.5 49.5t67.5 135.5l9 46q3 15 3 30q0 52 -32.5 82t-89.5 30h-38q-72 0 -117.5 -32.5t-54.5 -90.5l-5 -27q-2 -14 -2 -21q0 -26 12.5 -41t36.5 -17v1q-6 11 -6 24q0 47 36.5 80t89.5 33q45 0 72.5 -24t27.5 -63q0 -64 -49 -103t-128 -39q-96 0 -148 36
t-52 102q0 16 3 32l5 27q18 105 92.5 163.5t190.5 58.5h40q107 0 169 -52.5t62 -142.5q0 -25 -4 -46l-9 -46q-23 -131 -110 -206t-217 -75h-45zM332.5 178q15.5 16 15.5 39q0 16 -10.5 26t-28.5 10q-22 0 -38 -16t-16 -39q0 -16 10.5 -26t28.5 -10q23 0 38.5 16z" />
    <glyph glyph-name="uni0E52" unicode="&#xe52;" horiz-adv-x="749" 
d="M686 476.5q27 -27.5 27 -82.5q0 -21 -5 -51l-28 -151q-17 -92 -77.5 -142t-159.5 -50h-193q-90 0 -141.5 41.5t-51.5 112.5q0 17 3 36l44 253q6 33 6 61q0 42 -16 72t-49 51l86 83q49 -35 72 -80t23 -107q0 -34 -8 -80l-44 -245q-2 -16 -2 -22q0 -37 22 -58t61 -21h192
q50 0 83 27t41 74l26 145q4 19 4 36q0 28 -17 28h-5l-59 -76h-32q-2 40 -17 62t-39 22h-15q-24 0 -39.5 -15.5t-20.5 -40.5l-1 -3h11q41 0 66.5 -23.5t25.5 -59.5q0 -54 -36 -89t-92 -35q-44 0 -70.5 23t-26.5 62q0 6 2 20l14 81q14 81 57 126.5t106 45.5h23q32 0 56 -18.5
t35 -50.5l52 66h27q53 0 80 -27.5zM382.5 289.5q-10.5 9.5 -27.5 9.5q-23 0 -39 -15.5t-16 -38.5q0 -17 10.5 -26.5t28.5 -9.5q23 0 38.5 16t15.5 39q0 16 -10.5 25.5z" />
    <glyph glyph-name="uni0E53" unicode="&#xe53;" horiz-adv-x="673" 
d="M82.5 39q-42.5 49 -42.5 133q0 25 5 58l4 25q18 118 75.5 185t140.5 67h26l74 -86l103 86h26q64 0 99 -33t35 -93q0 -23 -4 -43l-59 -338h-115l61 344q2 8 2 23q0 38 -28 38h-9l-125 -100l-93 99h-8q-31 0 -55 -39t-35 -110l-4 -25q-4 -19 -4 -41q0 -17 3 -29h1
q13 22 38 35.5t52 13.5q45 0 70.5 -24t25.5 -64q0 -57 -40.5 -94t-102.5 -37q-74 0 -116.5 49zM255 70q16 16 16 39q0 17 -10 26.5t-28 9.5q-23 0 -38.5 -16t-15.5 -39q0 -16 10.5 -26t27.5 -10q22 0 38 16z" />
    <glyph glyph-name="uni0E54" unicode="&#xe54;" horiz-adv-x="642" 
d="M158 231q-4 -30 -4 -42q0 -101 109 -101q23 0 74 7q7 1 23.5 3t28.5 2l1 1q-73 55 -73 121q0 59 37 97t95 38q45 0 72.5 -24.5t27.5 -63.5q0 -46 -28.5 -79.5t-74.5 -41.5q32 -25 68 -37t94 -27l-39 -91q-44 16 -65.5 20t-53.5 4q-20 0 -43.5 -3.5t-46.5 -8.5
q-24 -5 -50.5 -9t-50.5 -4q-108 0 -163.5 46t-55.5 136q0 24 5 57l5 30q19 114 93.5 176t194.5 62h105q65 0 104 48t58 153h108q-27 -154 -96.5 -226t-190.5 -72h-92q-70 0 -114.5 -37t-56.5 -104zM403 278q-16 -16 -16 -39q0 -16 10.5 -25.5t28.5 -9.5q23 0 38.5 16
t15.5 38q0 16 -10.5 26t-27.5 10q-23 0 -39 -16z" />
    <glyph glyph-name="uni0E55" unicode="&#xe55;" horiz-adv-x="642" 
d="M158 231q-4 -30 -4 -42q0 -101 109 -101q23 0 74 7q7 1 23.5 3t28.5 2l1 1q-73 55 -73 121q0 59 37 97t95 38q45 0 72.5 -24.5t27.5 -63.5q0 -46 -28.5 -79.5t-74.5 -41.5q32 -25 68 -37t94 -27l-39 -91q-44 16 -65.5 20t-53.5 4q-20 0 -43.5 -3.5t-46.5 -8.5
q-24 -5 -50.5 -9t-50.5 -4q-108 0 -163.5 46t-55.5 136q0 24 5 57l5 30q14 86 60.5 143t120.5 80q-15 23 -15 51q0 38 19 69.5t52.5 49.5t73.5 18q49 0 79 -27t30 -71q0 -41 -24 -75q63 1 101.5 49t57.5 152h108q-27 -154 -96.5 -226t-190.5 -72h-92q-70 0 -114.5 -37
t-56.5 -104zM311.5 584q-16.5 -17 -16.5 -41q0 -17 11 -27t29 -10q23 0 39.5 16.5t16.5 40.5q0 17 -10.5 27.5t-28.5 10.5q-24 0 -40.5 -17zM403 278q-16 -16 -16 -39q0 -16 10.5 -25.5t28.5 -9.5q23 0 38.5 16t15.5 38q0 16 -10.5 26t-27.5 10q-23 0 -39 -16z" />
    <glyph glyph-name="uni0E56" unicode="&#xe56;" horiz-adv-x="657" 
d="M557 457.5q60 -49.5 60 -138.5q0 -25 -4 -48l-7 -39q-20 -116 -93.5 -178t-193.5 -62h-40q-66 0 -118 19t-81 53.5t-29 78.5q0 60 37.5 98.5t96.5 38.5q45 0 72.5 -24.5t27.5 -64.5q0 -30 -13.5 -55t-37.5 -40q17 -5 49 -5h40q70 0 113.5 36.5t55.5 105.5l6 38q3 17 3 31
q0 50 -31 78t-86 28h-40q-43 0 -85 -16t-72 -45h-69l1 35q0 82 -20 141.5t-69 119.5l94 67q45 -54 69 -112.5t31 -131.5q29 20 64.5 30.5t68.5 10.5h31q109 0 169 -49.5zM139 200q-16 -16 -16 -39q0 -16 10.5 -25.5t28.5 -9.5q23 0 38.5 16t15.5 38q0 16 -10.5 26t-27.5 10
q-23 0 -39 -16z" />
    <glyph glyph-name="uni0E57" unicode="&#xe57;" horiz-adv-x="846" 
d="M83 39q-43 49 -43 134q0 24 5 57l4 25q18 115 76 183.5t139 68.5h26l65 -86l92 86h26q62 0 97 -34t35 -95q0 -12 -4 -40l-41 -238h42q19 0 32.5 15.5t17.5 42.5l95 542h114l-96 -541q-13 -77 -56.5 -118t-112.5 -41h-167l62 344q2 16 2 21q0 19 -7.5 29.5t-21.5 10.5h-8
l-116 -100l-83 99h-8q-29 0 -54 -41t-35 -108l-4 -25q-4 -19 -4 -41q0 -17 3 -29h1q13 22 37.5 35.5t51.5 13.5q44 0 70.5 -24.5t26.5 -64.5q0 -58 -40 -94t-102 -36q-74 0 -117 49zM255 70q16 16 16 39q0 17 -10 26.5t-28 9.5q-23 0 -38.5 -16t-15.5 -39q0 -16 10.5 -26
t27.5 -10q22 0 38 16z" />
    <glyph glyph-name="uni0E58" unicode="&#xe58;" horiz-adv-x="701" 
d="M623.5 318.5q27.5 -24.5 27.5 -66.5q0 -16 -2 -24l-4 -20q-18 -100 -72.5 -158t-132.5 -58h-22q-51 0 -90.5 29t-55.5 79l-74 -109q-74 8 -116 58t-42 128q0 21 5 53l5 33q20 111 92.5 173.5t182.5 62.5h133q46 0 77 18.5t51.5 62t34.5 120.5h108q-22 -120 -58.5 -185
t-91 -90.5t-137.5 -25.5h-121q-63 0 -104.5 -36t-52.5 -100l-7 -40q-3 -18 -3 -35q0 -29 8 -51t23 -33l103 156h41q-1 -9 -1 -27q0 -70 25 -108t70 -38h21q53 0 79 45h-10q-42 0 -67 24t-25 61q0 55 36.5 90.5t92.5 35.5q46 0 73.5 -24.5zM567 206q16 16 16 39
q0 16 -10.5 25.5t-28.5 9.5q-22 0 -38 -15.5t-16 -38.5q0 -16 10.5 -26t27.5 -10q23 0 39 16z" />
    <glyph glyph-name="uni0E59" unicode="&#xe59;" horiz-adv-x="747" 
d="M824 700l-17 -100q-18 -105 -38 -169.5t-51 -99.5t-78 -35h-10q-38 0 -58.5 22.5t-41.5 63.5q-12 25 -21 37t-22 12h-9q-10 0 -21 -9.5t-16 -21.5q-4 -76 38 -144.5t116 -113.5l-74 -85q-80 47 -129.5 124.5t-56.5 166.5q-2 27 -13.5 39t-34.5 12h-20q-35 0 -61 -35
t-36 -98l-4 -27q-3 -21 -3 -41q0 -11 2 -31q32 41 84 41q45 0 73 -25t28 -65q0 -56 -39 -92t-101 -36q-75 0 -118 51.5t-43 138.5q0 25 5 58l4 28q16 108 73.5 170.5t140.5 62.5h30q25 0 47.5 -7.5t35.5 -20.5q44 59 93 59h15q44 0 65 -23.5t38 -64.5q11 -24 17.5 -34
t17.5 -10h5q19 0 33 48t33 154l17 100h105zM203 128.5q-16 -15.5 -16 -38.5q0 -16 10.5 -26t27.5 -10q23 0 39 16t16 39q0 16 -10.5 25.5t-28.5 9.5q-22 0 -38 -15.5z" />
    <glyph glyph-name="uni0E5A" unicode="&#xe5a;" horiz-adv-x="787" 
d="M772 550l-97 -550h-114l63 356q-25 -21 -57 -36.5t-62 -20.5l-19 -111q-16 -93 -68.5 -140.5t-149.5 -47.5h-49l17 100h49q71 0 86 88l26 149q-27 -27 -70 -42.5t-91 -15.5q-86 0 -136 37.5t-50 100.5q0 62 39 102t100 40q45 0 73 -25.5t28 -66.5q0 -31 -13 -56t-36 -42
q16 -2 25 -2q66 0 114 49.5t64 133.5h106l-28 -154q54 11 91.5 51.5t50.5 102.5h108zM139 476.5q-16 -16.5 -16 -40.5q0 -17 10 -26.5t29 -9.5q24 0 40 16t16 40q0 17 -10.5 27t-28.5 10q-24 0 -40 -16.5z" />
    <glyph glyph-name="uni0E5B" unicode="&#xe5b;" horiz-adv-x="1216" 
d="M1213 336l-12 -72q-11 -8 -29 -12.5t-36 -4.5t-34 5.5t-26 14.5q-13 -25 -31.5 -48.5t-36.5 -37.5h-39q3 24 3 46q0 39 -8 55q-12 -38 -30.5 -77t-36.5 -62h-52q7 46 7 81q0 43 -8 67q-13 -45 -36.5 -99t-48.5 -94h-64q11 66 11 120q0 53 -10 82q-33 -143 -136 -223.5
t-252 -80.5q-83 0 -143 31t-92 87t-32 130q0 97 43.5 174.5t119 121t167.5 43.5q98 0 154.5 -51.5t56.5 -138.5q0 -70 -29.5 -125t-81 -86.5t-116.5 -31.5q-69 0 -109.5 32.5t-40.5 86.5q0 61 39.5 101.5t98.5 40.5q44 0 70 -24t26 -65q0 -33 -14.5 -59.5t-40.5 -42.5h5
q41 0 71 36.5t37 94.5q1 8 1 22q0 56 -37 88t-103 32q-62 0 -112 -31.5t-78 -86.5t-28 -125q0 -78 48 -121t136 -43t158.5 39t110.5 114.5t40 180.5q0 40 -7 69h71q33 -42 54.5 -102.5t22.5 -115.5q12 32 21 79.5t10 91.5h43q26 -31 42.5 -76t15.5 -83q10 24 19 61.5
t11 69.5h36q19 -24 34 -58.5t19 -65.5q15 25 25 72l2 12h49q1 -28 13.5 -40.5t38.5 -12.5q35 0 60 15zM284 260q11 -10 30 -10q25 0 41.5 16.5t16.5 41.5q0 17 -10.5 27.5t-29.5 10.5q-25 0 -42 -17.5t-17 -41.5q0 -17 11 -27z" />
    <glyph glyph-name="uni1E0C" unicode="&#x1e0c;" horiz-adv-x="693" 
d="M56.5 17.5q-19.5 17.5 -19.5 48.5q0 6 2 18l109 616h308q109 0 171 -52.5t62 -141.5q0 -24 -4 -44l-35 -204q-22 -127 -95 -192.5t-195 -65.5h-250q-34 0 -53.5 17.5zM362 103q71 0 114 40.5t57 118.5l35 196q3 17 3 30q0 51 -32.5 80t-90.5 29h-202l-87 -494h203z
M219 -194q-17 16 -17 42q0 40 24 64t63 24q28 0 45 -15.5t17 -41.5q0 -40 -24 -64.5t-63 -24.5q-28 0 -45 16z" />
    <glyph glyph-name="uni1E0D" unicode="&#x1e0d;" horiz-adv-x="595" 
d="M74.5 33q-45.5 41 -45.5 112q0 22 4 41l20 116q17 96 76 150.5t148 54.5h60q37 0 67.5 -13.5t47.5 -37.5l44 244h114l-123 -700h-108l12 69q-27 -36 -62 -56.5t-69 -20.5h-61q-79 0 -124.5 41zM277 91q43 0 81 34.5t51 85.5l18 100q1 44 -21 70.5t-59 26.5h-63
q-45 0 -76.5 -30t-40.5 -82l-18 -103q-3 -15 -3 -27q0 -35 19 -55t53 -20h59zM167 -194q-17 16 -17 42q0 40 24 64t63 24q28 0 45 -15.5t17 -41.5q0 -40 -24 -64.5t-63 -24.5q-28 0 -45 16z" />
    <glyph glyph-name="uni1E0E" unicode="&#x1e0e;" horiz-adv-x="693" 
d="M56.5 17.5q-19.5 17.5 -19.5 48.5q0 6 2 18l109 616h308q109 0 171 -52.5t62 -141.5q0 -24 -4 -44l-35 -204q-22 -127 -95 -192.5t-195 -65.5h-250q-34 0 -53.5 17.5zM362 103q71 0 114 40.5t57 118.5l35 196q3 17 3 30q0 51 -32.5 80t-90.5 29h-202l-87 -494h203z
M138 -79h298l-16 -89h-298z" />
    <glyph glyph-name="uni1E0F" unicode="&#x1e0f;" horiz-adv-x="595" 
d="M74.5 33q-45.5 41 -45.5 112q0 22 4 41l20 116q17 96 76 150.5t148 54.5h60q37 0 67.5 -13.5t47.5 -37.5l44 244h114l-123 -700h-108l12 69q-27 -36 -62 -56.5t-69 -20.5h-61q-79 0 -124.5 41zM277 91q43 0 81 34.5t51 85.5l18 100q1 44 -21 70.5t-59 26.5h-63
q-45 0 -76.5 -30t-40.5 -82l-18 -103q-3 -15 -3 -27q0 -35 19 -55t53 -20h59zM86 -79h298l-16 -89h-298z" />
    <glyph glyph-name="uni1E20" unicode="&#x1e20;" horiz-adv-x="703" 
d="M103.5 48q-59.5 56 -59.5 150q0 24 5 56l34 192q21 124 96.5 193t188.5 69h109q101 0 160 -52t59 -139q0 -25 -4 -45h-115q3 15 3 29q0 48 -29 76t-78 28h-109q-65 0 -108.5 -43.5t-56.5 -119.5l-33 -184q-4 -20 -4 -41q0 -56 29 -89t80 -33h115q61 0 102.5 38.5
t54.5 107.5l6 34h-194l17 102h309l-24 -136q-20 -118 -93 -183.5t-183 -65.5h-115q-103 0 -162.5 56zM314 874h298l-15 -88h-299z" />
    <glyph glyph-name="uni1E21" unicode="&#x1e21;" horiz-adv-x="597" 
d="M58.5 -165.5q-45.5 37.5 -45.5 99.5q0 10 1 16h113q-1 -25 14.5 -40t42.5 -15h88q40 0 67 28t35 77l10 57q-26 -25 -55.5 -39.5t-54.5 -14.5h-69q-80 0 -127 42t-47 113q0 11 4 39l18 107q17 95 76 149t147 54h62q39 0 72.5 -16.5t49.5 -43.5l9 52h108l-88 -499
q-17 -96 -75.5 -149.5t-145.5 -53.5h-88q-76 0 -121.5 37.5zM287 101q42 0 77.5 34t48.5 88l16 87q3 43 -19 70.5t-60 27.5h-70q-44 0 -74.5 -30t-38.5 -81l-16 -93q-2 -9 -2 -26q0 -36 18 -56.5t50 -20.5h70zM216 673h298l-15 -88h-299z" />
    <glyph glyph-name="uni1E24" unicode="&#x1e24;" horiz-adv-x="715" 
d="M147 700h117l-53 -297h346l53 297h116l-123 -700h-116l52 301h-346l-52 -301h-117zM229 -194q-17 16 -17 42q0 40 24 64t63 24q28 0 45 -15.5t17 -41.5q0 -40 -24 -64.5t-63 -24.5q-28 0 -45 16z" />
    <glyph glyph-name="uni1E25" unicode="&#x1e25;" horiz-adv-x="593" 
d="M143 700h115l-45 -257q28 30 61.5 47t64.5 17h58q72 0 113 -38t41 -103q0 -17 -3 -37l-57 -329h-115l57 326q2 14 2 21q0 27 -14.5 43.5t-39.5 16.5h-64q-39 0 -75.5 -29t-53.5 -76l-53 -302h-115zM174 -194q-17 16 -17 42q0 40 24 64t63 24q28 0 45 -15.5t17 -41.5
q0 -40 -24 -64.5t-63 -24.5q-28 0 -45 16z" />
    <glyph glyph-name="uni1E2A" unicode="&#x1e2a;" horiz-adv-x="715" 
d="M147 700h117l-53 -297h346l53 297h116l-123 -700h-116l52 301h-346l-52 -301h-117zM167 -192q-39 32 -39 85q0 18 2 27l3 16h90l-3 -16q-1 -4 -1 -12q0 -26 16 -40.5t44 -14.5h12q32 0 55 18t27 49l3 16h90l-3 -16q-12 -67 -59.5 -105.5t-119.5 -38.5h-12q-66 0 -105 32z
" />
    <glyph glyph-name="uni1E2B" unicode="&#x1e2b;" horiz-adv-x="593" 
d="M143 700h115l-45 -257q28 30 61.5 47t64.5 17h58q72 0 113 -38t41 -103q0 -17 -3 -37l-57 -329h-115l57 326q2 14 2 21q0 27 -14.5 43.5t-39.5 16.5h-64q-39 0 -75.5 -29t-53.5 -76l-53 -302h-115zM112 -192q-39 32 -39 85q0 18 2 27l3 16h90l-3 -16q-1 -4 -1 -12
q0 -26 16 -40.5t44 -14.5h12q32 0 55 18t27 49l3 16h90l-3 -16q-12 -67 -59.5 -105.5t-119.5 -38.5h-12q-66 0 -105 32z" />
    <glyph glyph-name="uni1E36" unicode="&#x1e36;" horiz-adv-x="579" 
d="M56 17.5q-20 17.5 -20 48.5q0 6 2 18l109 616h117l-106 -598h380l-17 -102h-411q-34 0 -54 17.5zM195 -194q-17 16 -17 42q0 40 24 64t63 24q28 0 45 -15.5t17 -41.5q0 -40 -24 -64.5t-63 -24.5q-28 0 -45 16z" />
    <glyph glyph-name="uni1E37" unicode="&#x1e37;" horiz-adv-x="287" 
d="M76 25q-34 25 -34 80q0 22 4 43l97 552h115l-97 -547q-2 -12 -2 -18q0 -18 10.5 -27t34.5 -9h48l-17 -99h-54q-71 0 -105 25zM42 -194q-17 16 -17 42q0 40 24 64t63 24q28 0 45 -15.5t17 -41.5q0 -40 -24 -64.5t-63 -24.5q-28 0 -45 16z" />
    <glyph glyph-name="uni1E38" unicode="&#x1e38;" horiz-adv-x="579" 
d="M56 17.5q-20 17.5 -20 48.5q0 6 2 18l109 616h117l-106 -598h380l-17 -102h-411q-34 0 -54 17.5zM195 -194q-17 16 -17 42q0 40 24 64t63 24q28 0 45 -15.5t17 -41.5q0 -40 -24 -64.5t-63 -24.5q-28 0 -45 16zM87 874h298l-15 -88h-299z" />
    <glyph glyph-name="uni1E39" unicode="&#x1e39;" horiz-adv-x="287" 
d="M76 25q-34 25 -34 80q0 22 4 43l97 552h115l-97 -547q-2 -12 -2 -18q0 -18 10.5 -27t34.5 -9h48l-17 -99h-54q-71 0 -105 25zM42 -194q-17 16 -17 42q0 40 24 64t63 24q28 0 45 -15.5t17 -41.5q0 -40 -24 -64.5t-63 -24.5q-28 0 -45 16zM83 874h298l-15 -88h-299z" />
    <glyph glyph-name="uni1E3A" unicode="&#x1e3a;" horiz-adv-x="579" 
d="M56 17.5q-20 17.5 -20 48.5q0 6 2 18l109 616h117l-106 -598h380l-17 -102h-411q-34 0 -54 17.5zM114 -79h298l-16 -89h-298z" />
    <glyph glyph-name="uni1E3B" unicode="&#x1e3b;" horiz-adv-x="287" 
d="M76 25q-34 25 -34 80q0 22 4 43l97 552h115l-97 -547q-2 -12 -2 -18q0 -18 10.5 -27t34.5 -9h48l-17 -99h-54q-71 0 -105 25zM-39 -79h298l-16 -89h-298z" />
    <glyph glyph-name="uni1E42" unicode="&#x1e42;" horiz-adv-x="814" 
d="M147 700h99l160 -432l306 432h113l-123 -700h-115l85 483l-219 -306q-17 -23 -32 -34t-32 -11h-33l-133 351l-85 -483h-114zM282 -194q-17 16 -17 42q0 40 24 64t63 24q28 0 45 -15.5t17 -41.5q0 -40 -24 -64.5t-63 -24.5q-28 0 -45 16z" />
    <glyph glyph-name="uni1E43" unicode="&#x1e43;" horiz-adv-x="844" 
d="M765 470.5q39 -36.5 39 -99.5q0 -17 -3 -37l-59 -334h-115l60 335q2 12 2 18q0 25 -12 39.5t-33 14.5h-48q-32 0 -60 -24t-41 -63l-57 -320h-114l58 332q2 16 2 22q0 24 -11.5 38.5t-31.5 14.5h-45q-33 0 -63 -29.5t-45 -76.5l-53 -301h-115l88 499h107l-11 -63
q24 32 55 51.5t57 19.5h55q39 0 68 -19.5t42 -54.5q26 35 58 54.5t65 19.5h54q68 0 107 -36.5zM299 -194q-17 16 -17 42q0 40 24 64t63 24q28 0 45 -15.5t17 -41.5q0 -40 -24 -64.5t-63 -24.5q-28 0 -45 16z" />
    <glyph glyph-name="uni1E44" unicode="&#x1e44;" horiz-adv-x="709" 
d="M147 700h100l269 -512l90 512h114l-123 -700h-100l-269 511l-90 -511h-114zM400 783.5q-17 15.5 -17 41.5q0 40 24.5 64.5t63.5 24.5q28 0 45 -16t17 -42q0 -40 -24.5 -64t-63.5 -24q-28 0 -45 15.5z" />
    <glyph glyph-name="uni1E45" unicode="&#x1e45;" horiz-adv-x="591" 
d="M108 499h107l-11 -65q29 34 64.5 53.5t68.5 19.5h59q71 0 112 -38t41 -102q0 -18 -3 -38l-57 -329h-115l57 326q2 14 2 21q0 27 -14.5 43.5t-39.5 16.5h-62q-39 0 -75.5 -29.5t-53.5 -75.5l-53 -302h-115zM314 582.5q-17 15.5 -17 41.5q0 40 24.5 64.5t63.5 24.5
q28 0 45 -16t17 -42q0 -40 -24.5 -64t-63.5 -24q-28 0 -45 15.5z" />
    <glyph glyph-name="uni1E46" unicode="&#x1e46;" horiz-adv-x="709" 
d="M147 700h100l269 -512l90 512h114l-123 -700h-100l-269 511l-90 -511h-114zM229 -194q-17 16 -17 42q0 40 24 64t63 24q28 0 45 -15.5t17 -41.5q0 -40 -24 -64.5t-63 -24.5q-28 0 -45 16z" />
    <glyph glyph-name="uni1E47" unicode="&#x1e47;" horiz-adv-x="591" 
d="M108 499h107l-11 -65q29 34 64.5 53.5t68.5 19.5h59q71 0 112 -38t41 -102q0 -18 -3 -38l-57 -329h-115l57 326q2 14 2 21q0 27 -14.5 43.5t-39.5 16.5h-62q-39 0 -75.5 -29.5t-53.5 -75.5l-53 -302h-115zM174 -194q-17 16 -17 42q0 40 24 64t63 24q28 0 45 -15.5
t17 -41.5q0 -40 -24 -64.5t-63 -24.5q-28 0 -45 16z" />
    <glyph glyph-name="uni1E48" unicode="&#x1e48;" horiz-adv-x="709" 
d="M147 700h100l269 -512l90 512h114l-123 -700h-100l-269 511l-90 -511h-114zM148 -79h298l-16 -89h-298z" />
    <glyph glyph-name="uni1E49" unicode="&#x1e49;" horiz-adv-x="591" 
d="M108 499h107l-11 -65q29 34 64.5 53.5t68.5 19.5h59q71 0 112 -38t41 -102q0 -18 -3 -38l-57 -329h-115l57 326q2 14 2 21q0 27 -14.5 43.5t-39.5 16.5h-62q-39 0 -75.5 -29.5t-53.5 -75.5l-53 -302h-115zM93 -79h298l-16 -89h-298z" />
    <glyph glyph-name="uni1E5A" unicode="&#x1e5a;" horiz-adv-x="669" 
d="M147 700h348q82 0 130 -38t48 -102q0 -14 -3 -31l-12 -71q-10 -54 -47 -93t-99 -57v-2q29 -19 43 -49t20 -76l24 -181h-121l-23 173q-6 45 -28.5 69t-58.5 24h-181l-46 -266h-117zM424 367q46 0 78 25t39 65l12 69q1 5 1 13q0 27 -17.5 43t-47.5 16h-243l-41 -231h219z
M219 -194q-17 16 -17 42q0 40 24 64t63 24q28 0 45 -15.5t17 -41.5q0 -40 -24 -64.5t-63 -24.5q-28 0 -45 16z" />
    <glyph glyph-name="uni1E5B" unicode="&#x1e5b;" horiz-adv-x="374" 
d="M108 499h107l-12 -68q27 32 65 51t78 19h64l-18 -100h-60q-57 0 -98 -35t-51 -91l-48 -275h-115zM-5 -194q-17 16 -17 42q0 40 24 64t63 24q28 0 45 -15.5t17 -41.5q0 -40 -24 -64.5t-63 -24.5q-28 0 -45 16z" />
    <glyph glyph-name="uni1E5C" unicode="&#x1e5c;" horiz-adv-x="669" 
d="M147 700h348q82 0 130 -38t48 -102q0 -14 -3 -31l-12 -71q-10 -54 -47 -93t-99 -57v-2q29 -19 43 -49t20 -76l24 -181h-121l-23 173q-6 45 -28.5 69t-58.5 24h-181l-46 -266h-117zM424 367q46 0 78 25t39 65l12 69q1 5 1 13q0 27 -17.5 43t-47.5 16h-243l-41 -231h219z
M219 -194q-17 16 -17 42q0 40 24 64t63 24q28 0 45 -15.5t17 -41.5q0 -40 -24 -64.5t-63 -24.5q-28 0 -45 16zM291 874h298l-15 -88h-299z" />
    <glyph glyph-name="uni1E5D" unicode="&#x1e5d;" horiz-adv-x="374" 
d="M108 499h107l-12 -68q27 32 65 51t78 19h64l-18 -100h-60q-57 0 -98 -35t-51 -91l-48 -275h-115zM-5 -194q-17 16 -17 42q0 40 24 64t63 24q28 0 45 -15.5t17 -41.5q0 -40 -24 -64.5t-63 -24.5q-28 0 -45 16zM137 673h298l-15 -88h-299z" />
    <glyph glyph-name="uni1E5E" unicode="&#x1e5e;" horiz-adv-x="669" 
d="M147 700h348q82 0 130 -38t48 -102q0 -14 -3 -31l-12 -71q-10 -54 -47 -93t-99 -57v-2q29 -19 43 -49t20 -76l24 -181h-121l-23 173q-6 45 -28.5 69t-58.5 24h-181l-46 -266h-117zM424 367q46 0 78 25t39 65l12 69q1 5 1 13q0 27 -17.5 43t-47.5 16h-243l-41 -231h219z
M138 -79h298l-16 -89h-298z" />
    <glyph glyph-name="uni1E5F" unicode="&#x1e5f;" horiz-adv-x="374" 
d="M108 499h107l-12 -68q27 32 65 51t78 19h64l-18 -100h-60q-57 0 -98 -35t-51 -91l-48 -275h-115zM-86 -79h298l-16 -89h-298z" />
    <glyph glyph-name="uni1E60" unicode="&#x1e60;" horiz-adv-x="646" 
d="M88.5 40q-54.5 48 -54.5 130q0 25 4 46h115q-2 -10 -2 -27q0 -44 24 -69t67 -25h111q50 0 83 21t40 57l8 44q1 4 1 10q0 23 -18 39t-51 22l-177 30q-73 13 -111 47.5t-38 87.5q0 18 2 28l10 55q15 81 77.5 126.5t159.5 45.5h112q88 0 139.5 -44.5t51.5 -120.5
q0 -22 -4 -41h-114q2 16 2 24q0 36 -21 57.5t-58 21.5h-112q-47 0 -79 -20.5t-38 -55.5l-7 -36q-1 -4 -1 -12q0 -23 17 -38.5t49 -21.5l176 -32q74 -13 113.5 -47t39.5 -86q0 -7 -2 -25l-11 -65q-15 -83 -78 -128.5t-163 -45.5h-114q-94 0 -148.5 48zM357 783.5
q-17 15.5 -17 41.5q0 40 24.5 64.5t63.5 24.5q28 0 45 -16t17 -42q0 -40 -24.5 -64t-63.5 -24q-28 0 -45 15.5z" />
    <glyph glyph-name="uni1E61" unicode="&#x1e61;" horiz-adv-x="539" 
d="M67 29.5q-47 37.5 -47 101.5q0 14 3 29h113q-1 -5 -1 -14q0 -26 17 -41.5t48 -15.5h89q35 0 55.5 11t24.5 32l5 22q2 13 -7.5 23.5t-28.5 14.5l-168 30q-51 10 -79.5 37t-28.5 64q0 5 2 17l6 33q11 63 63 98.5t134 35.5h80q77 0 121 -35t44 -94q0 -18 -2 -27h-113
q1 4 1 12q0 22 -14.5 34.5t-40.5 12.5h-79q-33 0 -54.5 -11t-25.5 -31l-4 -20q-2 -13 7 -23.5t29 -13.5l173 -32q48 -10 75 -37t27 -63q0 -10 -1 -15l-7 -37q-11 -64 -63 -99.5t-135 -35.5h-89q-82 0 -129 37.5zM268 582.5q-17 15.5 -17 41.5q0 40 24.5 64.5t63.5 24.5
q28 0 45 -16t17 -42q0 -40 -24.5 -64t-63.5 -24q-28 0 -45 15.5z" />
    <glyph glyph-name="uni1E62" unicode="&#x1e62;" horiz-adv-x="646" 
d="M88.5 40q-54.5 48 -54.5 130q0 25 4 46h115q-2 -10 -2 -27q0 -44 24 -69t67 -25h111q50 0 83 21t40 57l8 44q1 4 1 10q0 23 -18 39t-51 22l-177 30q-73 13 -111 47.5t-38 87.5q0 18 2 28l10 55q15 81 77.5 126.5t159.5 45.5h112q88 0 139.5 -44.5t51.5 -120.5
q0 -22 -4 -41h-114q2 16 2 24q0 36 -21 57.5t-58 21.5h-112q-47 0 -79 -20.5t-38 -55.5l-7 -36q-1 -4 -1 -12q0 -23 17 -38.5t49 -21.5l176 -32q74 -13 113.5 -47t39.5 -86q0 -7 -2 -25l-11 -65q-15 -83 -78 -128.5t-163 -45.5h-114q-94 0 -148.5 48zM217 -194
q-17 16 -17 42q0 40 24 64t63 24q28 0 45 -15.5t17 -41.5q0 -40 -24 -64.5t-63 -24.5q-28 0 -45 16z" />
    <glyph glyph-name="uni1E63" unicode="&#x1e63;" horiz-adv-x="539" 
d="M67 29.5q-47 37.5 -47 101.5q0 14 3 29h113q-1 -5 -1 -14q0 -26 17 -41.5t48 -15.5h89q35 0 55.5 11t24.5 32l5 22q2 13 -7.5 23.5t-28.5 14.5l-168 30q-51 10 -79.5 37t-28.5 64q0 5 2 17l6 33q11 63 63 98.5t134 35.5h80q77 0 121 -35t44 -94q0 -18 -2 -27h-113
q1 4 1 12q0 22 -14.5 34.5t-40.5 12.5h-79q-33 0 -54.5 -11t-25.5 -31l-4 -20q-2 -13 7 -23.5t29 -13.5l173 -32q48 -10 75 -37t27 -63q0 -10 -1 -15l-7 -37q-11 -64 -63 -99.5t-135 -35.5h-89q-82 0 -129 37.5zM164 -194q-17 16 -17 42q0 40 24 64t63 24q28 0 45 -15.5
t17 -41.5q0 -40 -24 -64.5t-63 -24.5q-28 0 -45 16z" />
    <glyph glyph-name="uni1E6C" unicode="&#x1e6c;" horiz-adv-x="597" 
d="M301 599h-222l18 101h561l-18 -101h-222l-105 -599h-117zM170 -194q-17 16 -17 42q0 40 24 64t63 24q28 0 45 -15.5t17 -41.5q0 -40 -24 -64.5t-63 -24.5q-28 0 -45 16z" />
    <glyph glyph-name="uni1E6D" unicode="&#x1e6d;" horiz-adv-x="401" 
d="M126 27q-34 27 -34 84q0 24 4 47l43 242h-88l17 99h91l27 151h112l-27 -151h129l-17 -99h-129l-43 -238q-2 -16 -2 -21q0 -22 11 -32t35 -10h75l-18 -99h-81q-71 0 -105 27zM115 -194q-17 16 -17 42q0 40 24 64t63 24q28 0 45 -15.5t17 -41.5q0 -40 -24 -64.5t-63 -24.5
q-28 0 -45 16z" />
    <glyph glyph-name="uni1E6E" unicode="&#x1e6e;" horiz-adv-x="597" 
d="M301 599h-222l18 101h561l-18 -101h-222l-105 -599h-117zM89 -79h298l-16 -89h-298z" />
    <glyph glyph-name="uni1E6F" unicode="&#x1e6f;" horiz-adv-x="401" 
d="M126 27q-34 27 -34 84q0 24 4 47l43 242h-88l17 99h91l27 151h112l-27 -151h129l-17 -99h-129l-43 -238q-2 -16 -2 -21q0 -22 11 -32t35 -10h75l-18 -99h-81q-71 0 -105 27zM34 -79h298l-16 -89h-298z" />
    <glyph glyph-name="Wgrave" unicode="&#x1e80;" horiz-adv-x="866" 
d="M133 15.5q-19 15.5 -20 58.5l-12 626h115l-1 -533h1l243 496h44q21 0 35.5 -12t18.5 -42l57 -441h1l189 532h119l-234 -626q-14 -37 -36 -55.5t-57 -18.5h-48l-67 508h-2l-249 -508h-48q-30 0 -49 15.5zM391 944h124l63 -171h-105z" />
    <glyph glyph-name="wgrave" unicode="&#x1e81;" horiz-adv-x="740" 
d="M764 499l-177 -428q-16 -37 -38 -54t-52 -17h-53l-56 336l-179 -336h-52q-61 0 -65 71l-28 428h117l10 -353l179 340h44q39 0 45 -38l50 -301l134 352h121zM294 743h124l63 -171h-105z" />
    <glyph glyph-name="Wacute" unicode="&#x1e82;" horiz-adv-x="866" 
d="M133 15.5q-19 15.5 -20 58.5l-12 626h115l-1 -533h1l243 496h44q21 0 35.5 -12t18.5 -42l57 -441h1l189 532h119l-234 -626q-14 -37 -36 -55.5t-57 -18.5h-48l-67 508h-2l-249 -508h-48q-30 0 -49 15.5zM592 944h131l-142 -171h-112z" />
    <glyph glyph-name="wacute" unicode="&#x1e83;" horiz-adv-x="740" 
d="M764 499l-177 -428q-16 -37 -38 -54t-52 -17h-53l-56 336l-179 -336h-52q-61 0 -65 71l-28 428h117l10 -353l179 340h44q39 0 45 -38l50 -301l134 352h121zM495 743h131l-142 -171h-112z" />
    <glyph glyph-name="Wdieresis" unicode="&#x1e84;" horiz-adv-x="866" 
d="M133 15.5q-19 15.5 -20 58.5l-12 626h115l-1 -533h1l243 496h44q21 0 35.5 -12t18.5 -42l57 -441h1l189 532h119l-234 -626q-14 -37 -36 -55.5t-57 -18.5h-48l-67 508h-2l-249 -508h-48q-30 0 -49 15.5zM370.5 788q-14.5 14 -14.5 37q0 35 21 56t56 21q24 0 39 -14
t15 -37q0 -34 -21.5 -55.5t-55.5 -21.5q-25 0 -39.5 14zM603 788q-15 14 -15 37q0 35 21.5 56t55.5 21q25 0 39.5 -14t14.5 -37q0 -34 -21 -55.5t-56 -21.5q-24 0 -39 14z" />
    <glyph glyph-name="wdieresis" unicode="&#x1e85;" horiz-adv-x="740" 
d="M764 499l-177 -428q-16 -37 -38 -54t-52 -17h-53l-56 336l-179 -336h-52q-61 0 -65 71l-28 428h117l10 -353l179 340h44q39 0 45 -38l50 -301l134 352h121zM273.5 587q-14.5 14 -14.5 37q0 35 21 56t56 21q24 0 39 -14t15 -37q0 -34 -21.5 -55.5t-55.5 -21.5
q-25 0 -39.5 14zM506 587q-15 14 -15 37q0 35 21.5 56t55.5 21q25 0 39.5 -14t14.5 -37q0 -34 -21 -55.5t-56 -21.5q-24 0 -39 14z" />
    <glyph glyph-name="uni1E8E" unicode="&#x1e8e;" horiz-adv-x="642" 
d="M266 271l-183 429h120l133 -322l247 322h134l-334 -429l-48 -271h-116zM367 783.5q-17 15.5 -17 41.5q0 40 24.5 64.5t63.5 24.5q28 0 45 -16t17 -42q0 -40 -24.5 -64t-63.5 -24q-28 0 -45 15.5z" />
    <glyph glyph-name="uni1E8F" unicode="&#x1e8f;" horiz-adv-x="589" 
d="M58.5 -165.5q-45.5 37.5 -45.5 99.5q0 10 1 16h113q-1 -25 14.5 -40t42.5 -15h81q39 0 66.5 28t35.5 77l13 74q-27 -32 -61 -51.5t-61 -19.5h-63q-71 0 -111.5 39t-40.5 105q0 12 4 40l55 312h115l-55 -314q-2 -16 -2 -22q0 -29 14.5 -45.5t40.5 -16.5h59q38 0 74 30.5
t55 79.5l52 288h114l-88 -499q-16 -96 -74.5 -149.5t-145.5 -53.5h-81q-76 0 -121.5 37.5zM305 582.5q-17 15.5 -17 41.5q0 40 24.5 64.5t63.5 24.5q28 0 45 -16t17 -42q0 -40 -24.5 -64t-63.5 -24q-28 0 -45 15.5z" />
    <glyph glyph-name="uni1E92" unicode="&#x1e92;" horiz-adv-x="597" 
d="M-6 56l473 544h-359l17 100h523l-10 -56l-474 -544h368l-17 -100h-531zM172 -194q-17 16 -17 42q0 40 24 64t63 24q28 0 45 -15.5t17 -41.5q0 -40 -24 -64.5t-63 -24.5q-28 0 -45 16z" />
    <glyph glyph-name="uni1E93" unicode="&#x1e93;" horiz-adv-x="491" 
d="M-10 56l337 346h-264l17 97h431l-10 -56l-337 -346h271l-17 -97h-438zM119 -194q-17 16 -17 42q0 40 24 64t63 24q28 0 45 -15.5t17 -41.5q0 -40 -24 -64.5t-63 -24.5q-28 0 -45 16z" />
    <glyph glyph-name="uni1E97" unicode="&#x1e97;" horiz-adv-x="401" 
d="M126 27q-34 27 -34 84q0 24 4 47l43 242h-88l17 99h91l27 151h112l-27 -151h129l-17 -99h-129l-43 -238q-2 -16 -2 -21q0 -22 11 -32t35 -10h75l-18 -99h-81q-71 0 -105 27zM110.5 738q-14.5 14 -14.5 37q0 35 21 56t56 21q24 0 39 -14t15 -37q0 -34 -21.5 -55.5
t-55.5 -21.5q-25 0 -39.5 14zM343 738q-15 14 -15 37q0 35 21.5 56t55.5 21q25 0 39.5 -14t14.5 -37q0 -34 -21 -55.5t-56 -21.5q-24 0 -39 14z" />
    </font>
</defs>
</svg>
