<?xml version="1.0" standalone="no"?>
<!DOCTYPE svg PUBLIC "-//W3C//DTD SVG 1.1//EN" "http://www.w3.org/Graphics/SVG/1.1/DTD/svg11.dtd" >
<svg xmlns="http://www.w3.org/2000/svg" xmlns:xlink="http://www.w3.org/1999/xlink" version="1.1">
<metadata>
Created by FontForge 20170731 at Fri Sep  7 16:43:17 2018
 By Aleksey,,,
Copyright 2018 Bai Jamjuree (https://github.com/cadsondemak/Bai-Jamjuree)
</metadata>
<defs>
<font id="BaiJamjuree-Italic" horiz-adv-x="0" >
  <font-face 
    font-family="Bai Jamjuree"
    font-weight="400"
    font-style="italic"
    font-stretch="normal"
    units-per-em="1000"
    panose-1="0 0 5 0 0 0 0 0 0 0"
    ascent="800"
    descent="-200"
    x-height="499"
    cap-height="700"
    bbox="-561 -488 1315 1206"
    underline-thickness="50"
    underline-position="-150"
    slope="-10"
    unicode-range="U+000D-FB02"
  />
<missing-glyph horiz-adv-x="491" 
d="M60 712h409v-712h-409v712zM402 66v580h-274v-580h274z" />
    <glyph glyph-name="fi" unicode="fi" horiz-adv-x="566" 
d="M446 0h-72l77 437h-220l-77 -437h-72l77 437h-86l11 64h86l7 37q15 81 64 123.5t130 42.5h128l-11 -62h-128q-47 0 -74 -25.5t-37 -78.5l-7 -37h292z" />
    <glyph glyph-name="fl" unicode="fl" horiz-adv-x="610" 
d="M468 111q0 -24 13 -35.5t42 -11.5h34l-11 -64h-34q-60 0 -89 20.5t-29 71.5q0 23 4 44l53 301h-220l-77 -437h-72l77 437h-86l11 64h86l7 37q15 81 64 123.5t130 42.5h68l-11 -62h-68q-47 0 -74 -25.5t-37 -78.5l-7 -37h220l36 204h72l-100 -569q-2 -9 -2 -25z" />
    <glyph glyph-name="uni0E240E45" unicode="&#xe24;&#xe45;" horiz-adv-x="933" 
d="M846.5 524q35.5 -34 35.5 -91q0 -17 -3 -35l-105 -598h-72l105 598q2 16 2 23q0 34 -18.5 53.5t-52.5 19.5h-75q-38 0 -68.5 -25.5t-43.5 -68.5l-106 -600h-72l106 600q2 14 2 19q0 34 -22 54.5t-60 20.5h-111q-41 0 -81.5 -30t-65.5 -79q26 -14 40 -38t14 -54
q0 -8 -2 -24l-16 -93q17 7 35 7q37 0 59 -21.5t22 -56.5q0 -50 -32.5 -82.5t-83.5 -32.5q-41 0 -65.5 21.5t-24.5 57.5q0 6 2 18l32 182q2 14 2 20q0 55 -64 68q16 52 50.5 98.5t81.5 74.5t97 28h129q42 0 72 -17t46 -46q26 29 62.5 46t76.5 17h75q62 0 97.5 -34zM157.5 118
q-16.5 -17 -16.5 -41q0 -17 11 -27.5t30 -10.5q24 0 40.5 16.5t16.5 41.5q0 17 -10.5 27.5t-29.5 10.5q-25 0 -41.5 -17z" />
    <glyph glyph-name="uni0E260E45" unicode="&#xe26;&#xe45;" horiz-adv-x="950" 
d="M863 524q36 -34 36 -92q0 -16 -3 -34l-105 -598h-72l105 598q2 16 2 22q0 34 -19 54t-52 20h-74q-38 0 -69 -25.5t-44 -68.5l-106 -600h-72l106 600q2 14 2 20q0 34 -22 54t-59 20h-95q-41 0 -81.5 -30t-65.5 -79q29 -16 47 -42t18 -56q0 -6 -2 -18l-32 -182
q-8 -44 -38.5 -70.5t-73.5 -26.5q-38 0 -63 22t-25 57q0 49 32 81.5t81 32.5q18 0 31 -5l16 91q1 5 1 15q0 29 -19.5 47.5t-54.5 25.5q16 52 50.5 98.5t81.5 74.5t97 28h113q40 0 70.5 -17t46.5 -46q27 29 63.5 46t76.5 17h74q61 0 97 -34zM139.5 56q16.5 17 16.5 41
q0 17 -11 27.5t-30 10.5q-24 0 -40.5 -16.5t-16.5 -41.5q0 -17 10.5 -27.5t29.5 -10.5q25 0 41.5 17z" />
    <glyph glyph-name=".notdef" horiz-adv-x="491" 
d="M60 712h409v-712h-409v712zM402 66v580h-274v-580h274z" />
    <glyph glyph-name=".null" 
 />
    <glyph glyph-name="nonmarkingreturn" unicode="&#xd;" horiz-adv-x="260" 
 />
    <glyph glyph-name="NULL" 
 />
    <glyph glyph-name="NULL" 
 />
    <glyph glyph-name="space" unicode=" " horiz-adv-x="260" 
 />
    <glyph glyph-name="exclam" unicode="!" horiz-adv-x="272" 
d="M180 700h72l-89 -501h-72zM57.5 1.5q-12.5 11.5 -12.5 31.5q0 29 17.5 47t46.5 18q20 0 32.5 -12t12.5 -31q0 -29 -17.5 -47t-45.5 -18q-21 0 -33.5 11.5z" />
    <glyph glyph-name="quotedbl" unicode="&#x22;" horiz-adv-x="340" 
d="M136 700h72l-38 -215h-72zM292 700h72l-38 -215h-72z" />
    <glyph glyph-name="numbersign" unicode="#" horiz-adv-x="691" 
d="M169 183h-124l11 64h124l36 203h-124l11 64h124l33 186h72l-33 -186h186l33 186h72l-33 -186h124l-11 -64h-124l-36 -203h124l-11 -64h-124l-32 -183h-72l32 183h-186l-32 -183h-72zM438 247l36 203h-186l-36 -203h186z" />
    <glyph glyph-name="dollar" unicode="$" horiz-adv-x="627" 
d="M541 521q3 15 3 27q0 44 -26.5 69t-72.5 25h-113q-58 0 -95 -25t-46 -69l-10 -54q-1 -5 -1 -13q0 -29 22 -50t59 -28l174 -31q64 -11 101 -46.5t37 -84.5q0 -7 -2 -23l-12 -64q-15 -80 -70.5 -121t-146.5 -41h-34l-18 -102h-72l18 102h-9q-85 0 -134.5 44t-49.5 119
q0 22 4 42h72q-3 -16 -3 -32q0 -49 30 -78t81 -29h111q61 0 100 25.5t47 70.5l12 64q1 4 1 13q0 28 -22.5 48.5t-60.5 27.5l-175 30q-63 10 -99 46t-36 87q0 8 2 24l10 54q14 76 71 118t144 42h30l18 102h72l-18 -102h11q80 0 126 -40t46 -109q0 -12 -4 -38h-72z" />
    <glyph glyph-name="percent" unicode="%" horiz-adv-x="960" 
d="M715 722h72l-508 -747h-72zM114 291.5q-33 31.5 -33 84.5q0 15 3 31l27 154q12 69 52 108t100 39h56q57 0 90 -31.5t33 -84.5q0 -14 -3 -31l-27 -154q-12 -69 -52 -108t-100 -39h-56q-57 0 -90 31.5zM260 317q35 0 58.5 23.5t30.5 66.5l27 154q2 8 2 24q0 30 -15.5 48
t-43.5 18h-56q-35 0 -58.5 -23.5t-30.5 -66.5l-27 -154q-2 -8 -2 -24q0 -30 15.5 -48t43.5 -18h56zM587 23.5q-33 31.5 -33 84.5q0 15 3 31l27 154q12 69 52 108t100 39h56q57 0 90 -31.5t33 -84.5q0 -14 -3 -31l-27 -154q-12 -69 -52 -108t-100 -39h-56q-57 0 -90 31.5z
M733 49q35 0 58 23.5t31 66.5l27 154q2 16 2 23q0 31 -15.5 49t-43.5 18h-56q-35 0 -58 -23.5t-31 -66.5l-27 -154q-2 -16 -2 -23q0 -31 15.5 -49t43.5 -18h56z" />
    <glyph glyph-name="ampersand" unicode="&#x26;" horiz-adv-x="647" 
d="M500 126l81 -126h-82l-47 72q-41 -39 -89 -59.5t-99 -20.5h-52q-81 0 -128 36.5t-47 97.5q0 14 3 29l7 41q11 65 57 108t140 90l-19 33q-30 51 -30 95q0 7 2 23l4 20q13 67 58.5 105t113.5 38h40q63 0 98.5 -29t35.5 -79q0 -15 -3 -30l-4 -20q-7 -33 -22 -56.5
t-51.5 -49.5t-104.5 -60l-22 -11l122 -189q36 56 55 127h66q-25 -107 -83 -185zM263 526q0 -29 20 -63l26 -44l23 12q72 38 102.5 61.5t37.5 57.5l4 20q2 12 2 18q0 27 -17 42.5t-48 15.5h-40q-41 0 -68.5 -21.5t-35.5 -59.5l-4 -19q-2 -14 -2 -20zM344 74q39 18 73 52
l-141 217q-51 -26 -81 -45t-50 -43.5t-26 -58.5l-7 -41q-2 -12 -2 -17q0 -38 27.5 -60t74.5 -22h52q41 0 80 18z" />
    <glyph glyph-name="quotesingle" unicode="'" horiz-adv-x="184" 
d="M136 700h72l-38 -215h-72z" />
    <glyph glyph-name="parenleft" unicode="(" horiz-adv-x="306" 
d="M40 93q0 71 15 147l4 20q26 133 77.5 240t134.5 200h78q-86 -99 -139.5 -206t-78.5 -234l-4 -20q-13 -65 -13 -132q0 -151 76 -310h-78q-72 147 -72 295z" />
    <glyph glyph-name="parenright" unicode=")" horiz-adv-x="306" 
d="M96 5q53 107 79 233l4 20q14 70 14 132q0 151 -78 310h78q73 -149 73 -298q0 -69 -15 -144l-4 -20q-26 -133 -78 -239.5t-135 -200.5h-78q87 100 140 207z" />
    <glyph glyph-name="asterisk" unicode="*" horiz-adv-x="442" 
d="M250 586l-120 -68l-17 52l129 64l-107 63l36 52l96 -68l20 115h62l-20 -115l120 68l16 -52l-129 -63l107 -64l-35 -52l-96 68l-20 -115h-62z" />
    <glyph glyph-name="plus" unicode="+" horiz-adv-x="568" 
d="M256 293h-192l11 62h192l34 192h72l-34 -192h192l-11 -62h-192l-34 -192h-72z" />
    <glyph glyph-name="comma" unicode="," horiz-adv-x="216" 
d="M-45 -76l17 10q34 20 52.5 46.5t24.5 61.5l9 49h72l-9 -49q-10 -57 -38 -96.5t-76 -65.5l-21 -12z" />
    <glyph glyph-name="hyphen" unicode="-" horiz-adv-x="377" 
d="M63 287h264l-11 -64h-265z" />
    <glyph glyph-name="period" unicode="." horiz-adv-x="220" 
d="M31.5 1.5q-12.5 11.5 -12.5 31.5q0 29 17.5 47t46.5 18q20 0 32.5 -12t12.5 -31q0 -29 -17.5 -47t-45.5 -18q-21 0 -33.5 11.5z" />
    <glyph glyph-name="slash" unicode="/" horiz-adv-x="520" 
d="M493 722h76l-507 -747h-76z" />
    <glyph glyph-name="zero" unicode="0" horiz-adv-x="646" 
d="M106.5 40q-50.5 48 -50.5 129q0 26 4 47l47 268q19 106 81 165t154 59h106q83 0 130.5 -47t47.5 -126q0 -21 -5 -51l-47 -268q-19 -106 -79.5 -165t-151.5 -59h-106q-80 0 -130.5 48zM341 58q60 0 103 43t56 115l47 268q4 19 4 41q0 54 -28.5 85.5t-78.5 31.5h-102
q-62 0 -104.5 -42t-56.5 -116l-47 -268q-4 -28 -4 -39q0 -55 29.5 -87t79.5 -32h102z" />
    <glyph glyph-name="one" unicode="1" horiz-adv-x="357" 
d="M262 620l-175 -81l12 70l187 91h64l-123 -700h-74z" />
    <glyph glyph-name="two" unicode="2" horiz-adv-x="556" 
d="M20 66q9 52 35 93.5t78 75.5l282 188q58 39 68 92l6 32q2 14 2 19q0 35 -25 55.5t-67 20.5h-92q-55 0 -91.5 -35.5t-47.5 -98.5h-74q16 94 73 147t142 53h94q73 0 118 -36t45 -96q0 -14 -3 -29l-6 -32q-16 -85 -105 -143l-273 -179q-40 -27 -59 -54.5t-26 -72.5h394
l-12 -66h-468z" />
    <glyph glyph-name="three" unicode="3" horiz-adv-x="590" 
d="M536 671q46 -37 46 -100q0 -15 -3 -32l-7 -40q-8 -47 -36 -83t-72 -56q34 -17 53.5 -47t19.5 -69q0 -14 -3 -29l-7 -40q-15 -86 -73.5 -134.5t-147.5 -48.5h-98q-81 0 -128.5 43.5t-47.5 117.5q0 22 4 42h72q-3 -16 -3 -31q0 -49 27.5 -77.5t76.5 -28.5h98
q60 0 98.5 30.5t48.5 86.5l7 40q2 9 2 26q0 43 -29 64t-83 21h-107l11 64h107q56 0 91 27.5t45 81.5l7 40q2 14 2 21q0 38 -25.5 60t-69.5 22h-98q-57 0 -95 -36t-49 -101h-74q16 96 74 149.5t144 53.5h98q78 0 124 -37z" />
    <glyph glyph-name="four" unicode="4" horiz-adv-x="583" 
d="M371 144h-307q-50 0 -50 32q0 6 1 10l4 20l454 494h70l-87 -490h88l-11 -66h-88l-26 -144h-74zM388 210l67 380h-1l-349 -380h283z" />
    <glyph glyph-name="five" unicode="5" horiz-adv-x="598" 
d="M87 33q-46 41 -46 109q0 18 3 37h72q-3 -15 -3 -27q0 -44 26.5 -69t72.5 -25h95q60 0 100.5 33.5t50.5 92.5l11 62q2 16 2 22q0 44 -30.5 69.5t-83.5 25.5h-256l60 337h436l-12 -66h-362l-36 -205h173q86 0 136 -40t50 -108q0 -17 -3 -35l-11 -62q-16 -91 -75.5 -141.5
t-149.5 -50.5h-95q-79 0 -125 41z" />
    <glyph glyph-name="six" unicode="6" horiz-adv-x="606" 
d="M107.5 40.5q-50.5 48.5 -50.5 132.5q0 22 5 52l44 250q20 110 83 171.5t157 61.5h86q75 0 119.5 -40.5t44.5 -108.5q0 -12 -4 -38h-72q3 15 3 29q0 42 -24.5 67t-66.5 25h-86q-64 0 -108 -44t-58 -123l-22 -124q35 44 79.5 68.5t91.5 24.5h65q78 0 125.5 -43.5
t47.5 -115.5q0 -22 -4 -41l-7 -38q-19 -101 -81.5 -157.5t-156.5 -56.5h-73q-87 0 -137.5 48.5zM319 58q65 0 108 39t55 109l7 40q3 17 3 31q0 46 -27 73.5t-73 27.5h-66q-58 0 -109 -42t-73 -102l-7 -36q-3 -16 -3 -33q0 -49 30 -78t84 -29h71z" />
    <glyph glyph-name="seven" unicode="7" horiz-adv-x="492" 
d="M117 20q25 121 67 187l270 427h-366l12 66h452l-8 -46l-282 -447q-25 -38 -43 -88t-28 -99l-4 -20h-74z" />
    <glyph glyph-name="eight" unicode="8" horiz-adv-x="620" 
d="M83.5 33.5q-52.5 41.5 -52.5 110.5q0 19 2 29l5 30q19 108 133 157v1q-60 38 -60 107q0 15 3 31l7 40q14 80 71 124.5t145 44.5h85q84 0 133 -38t49 -101q0 -15 -3 -30l-7 -40q-16 -93 -106 -139v-1q80 -42 80 -125q0 -14 -3 -31l-5 -30q-14 -85 -75.5 -133t-156.5 -48
h-105q-87 0 -139.5 41.5zM377 390q55 0 95.5 30.5t48.5 78.5l7 40q2 14 2 19q0 38 -29 61t-79 23h-85q-59 0 -97 -27t-46 -76l-7 -40q-2 -14 -2 -20q0 -41 29 -65t78 -24h85zM329 58q65 0 106.5 30.5t50.5 84.5l5 30q2 14 2 21q0 47 -34 74.5t-93 27.5h-85q-66 0 -113 -34
t-56 -89l-5 -30q-2 -14 -2 -20q0 -43 31.5 -69t87.5 -26h105z" />
    <glyph glyph-name="nine" unicode="9" horiz-adv-x="612" 
d="M99 32q-46 40 -46 107q0 17 3 35h72q-2 -16 -2 -24q0 -42 27 -67t73 -25h86q60 0 100 40.5t53 112.5l22 121q-38 -38 -76.5 -57t-85.5 -19h-67q-81 0 -128 43.5t-47 117.5q0 22 4 42l7 40q17 98 82 153.5t162 55.5h70q87 0 137 -44.5t50 -119.5q0 -22 -4 -42l-52 -291
q-19 -104 -78.5 -161.5t-149.5 -57.5h-86q-80 0 -126 40zM328 322q56 0 106 33.5t72 85.5l12 69q3 15 3 28q0 48 -30.5 76t-82.5 28h-70q-68 0 -113 -37.5t-57 -105.5l-7 -40q-3 -16 -3 -32q0 -48 27 -76.5t73 -28.5h70z" />
    <glyph glyph-name="colon" unicode=":" horiz-adv-x="220" 
d="M98.5 378.5q-12.5 11.5 -12.5 31.5q0 29 17.5 47t46.5 18q20 0 32.5 -12t12.5 -31q0 -29 -17.5 -47t-45.5 -18q-21 0 -33.5 11.5zM38.5 36.5q-12.5 11.5 -12.5 31.5q0 29 17.5 47t46.5 18q20 0 32.5 -12t12.5 -31q0 -29 -17.5 -47t-45.5 -18q-21 0 -33.5 11.5z" />
    <glyph glyph-name="semicolon" unicode=";" horiz-adv-x="227" 
d="M105.5 379q-12.5 12 -12.5 31q0 29 17.5 47t45.5 18q21 0 33.5 -11.5t12.5 -31.5q0 -29 -17.5 -47t-46.5 -18q-20 0 -32.5 12zM-45 -76l17 10q33 20 51.5 46t25.5 62l9 49h72l-9 -49q-10 -56 -38 -95.5t-76 -66.5l-21 -12z" />
    <glyph glyph-name="less" unicode="&#x3c;" horiz-adv-x="572" 
d="M39 268l10 56l527 268l-15 -80l-434 -218l357 -218l-12 -76z" />
    <glyph glyph-name="equal" unicode="=" horiz-adv-x="525" 
d="M88 431h413l-11 -62h-413zM56 249h413l-11 -62h-413z" />
    <glyph glyph-name="greater" unicode="&#x3e;" horiz-adv-x="572" 
d="M27 83l434 218l-357 218l12 73l433 -268l-10 -56l-527 -268z" />
    <glyph glyph-name="question" unicode="?" horiz-adv-x="564" 
d="M237 218q7 41 28 72t46 51.5t66 48.5q49 34 73 57.5t29 56.5l6 36q2 14 2 19q0 38 -25.5 60t-69.5 22h-86q-56 0 -96 -33.5t-50 -88.5h-72q15 85 75 136.5t143 51.5h86q78 0 124 -37t46 -100q0 -15 -3 -30l-6 -36q-9 -50 -38.5 -81.5t-84.5 -69.5q-53 -36 -82 -66
t-38 -77l-9 -49h-74zM201.5 1.5q-12.5 11.5 -12.5 31.5q0 29 18 47t47 18q20 0 32.5 -12t12.5 -31q0 -29 -17.5 -47t-46.5 -18q-21 0 -33.5 11.5z" />
    <glyph glyph-name="at" unicode="@" horiz-adv-x="872" 
d="M160 -3q-53 26 -82.5 73t-29.5 110q0 26 4 49l35 199q25 140 114.5 219t225.5 79h199q70 0 123 -25t82 -71t29 -107q0 -26 -4 -47l-29 -166q-14 -79 -53.5 -123t-97.5 -44h-35q-30 0 -53.5 19t-30.5 49h-1q-27 -37 -60.5 -57.5t-67.5 -20.5h-55q-57 0 -92 34t-35 90
q0 17 3 33l17 95q14 80 62 124.5t118 44.5h47q32 0 59 -14t38 -37l8 46h62l-49 -280q-1 -6 -1 -17q0 -21 10.5 -34t30.5 -13h31q58 0 77 105l30 166q4 26 4 38q0 68 -45 108t-122 40h-199q-109 0 -180.5 -62t-91.5 -172l-35 -199q-4 -28 -4 -40q0 -71 44.5 -112.5
t122.5 -41.5h176q41 0 87.5 13t81.5 34l26 -52q-36 -27 -88.5 -43t-109.5 -16h-173q-70 0 -123 26zM428 193q43 0 75 30t46 80l18 101q3 40 -17 65t-55 25h-47q-44 0 -74 -28.5t-40 -80.5l-17 -95q-2 -9 -2 -25q0 -33 16.5 -52.5t45.5 -19.5h51z" />
    <glyph glyph-name="A" unicode="A" horiz-adv-x="647" 
d="M472 194h-308l-106 -194h-80l392 700h34q33 0 41 -40l83 -404h1v-2l52 -254h-72zM198 256h261l-68 348h-1z" />
    <glyph glyph-name="B" unicode="B" horiz-adv-x="662" 
d="M61 14q-15 14 -15 37q0 9 1 14l112 635h292q82 0 129.5 -34.5t47.5 -93.5q0 -18 -2 -27l-10 -53q-7 -37 -30 -70.5t-56 -53.5v-1q40 -12 63 -41.5t23 -70.5q0 -17 -2 -26l-9 -48q-16 -85 -72.5 -133t-141.5 -48h-290q-25 0 -40 14zM419 384q46 0 80 29.5t43 78.5l10 53
q1 5 1 15q0 34 -28 54t-76 20h-228l-44 -250h242zM382 66q60 0 99 30.5t50 84.5l9 48q2 12 2 17q0 34 -25.5 55t-69.5 21h-281l-45 -256h261z" />
    <glyph glyph-name="C" unicode="C" horiz-adv-x="660" 
d="M107 45q-53 53 -53 143q0 33 5 58l37 208q21 120 91 187t174 67h106q90 0 142 -48t52 -129q0 -26 -4 -47h-72q3 20 3 36q0 56 -32.5 89t-89.5 33h-106q-74 0 -124 -49.5t-66 -138.5l-37 -208q-4 -23 -4 -48q0 -65 33 -102.5t91 -37.5h108q67 0 117.5 48t64.5 126h72
q-13 -71 -49 -125.5t-89.5 -84.5t-116.5 -30h-108q-92 0 -145 53z" />
    <glyph glyph-name="D" unicode="D" horiz-adv-x="674" 
d="M60 13q-14 13 -14 37q0 10 1 15l112 635h290q98 0 155 -50t57 -134q0 -25 -4 -46l-39 -220q-44 -250 -279 -250h-238q-27 0 -41 13zM339 66q85 0 137 46.5t68 137.5l38 220q4 28 4 39q0 59 -37 92t-104 33h-224l-100 -568h218z" />
    <glyph glyph-name="E" unicode="E" horiz-adv-x="600" 
d="M61 13.5q-14 13.5 -14 37.5q0 10 1 15l112 634h469l-11 -64h-395l-44 -246h365l-11 -64h-365l-46 -262h395l-12 -64h-404q-26 0 -40 13.5z" />
    <glyph glyph-name="F" unicode="F" horiz-adv-x="576" 
d="M159 700h460l-11 -66h-386l-45 -256h349l-12 -66h-349l-55 -312h-74z" />
    <glyph glyph-name="G" unicode="G" horiz-adv-x="684" 
d="M107.5 46q-53.5 54 -53.5 144q0 32 5 56l37 208q21 120 92 187t176 67h106q92 0 145 -48.5t53 -129.5q0 -25 -4 -46h-72q3 20 3 36q0 57 -33.5 89.5t-92.5 32.5h-106q-75 0 -126 -50t-67 -138l-37 -208q-4 -23 -4 -48q0 -65 33.5 -102.5t92.5 -37.5h108q74 0 124.5 47
t66.5 131l11 60h-195l11 65h267l-22 -125q-20 -115 -90 -179.5t-175 -64.5h-108q-92 0 -145.5 54z" />
    <glyph glyph-name="H" unicode="H" horiz-adv-x="694" 
d="M159 700h74l-55 -314h386l55 314h74l-123 -700h-74l56 320h-386l-56 -320h-74z" />
    <glyph glyph-name="I" unicode="I" horiz-adv-x="254" 
d="M169 700h74l-123 -700h-74z" />
    <glyph glyph-name="J" unicode="J" horiz-adv-x="578" 
d="M70.5 40.5q-46.5 48.5 -46.5 128.5q0 22 5 50h74q-4 -21 -4 -45q0 -53 25 -84.5t68 -31.5h87q56 0 95.5 46t53.5 128l83 468h74l-83 -468q-21 -115 -77 -177.5t-146 -62.5h-87q-75 0 -121.5 48.5z" />
    <glyph glyph-name="K" unicode="K" horiz-adv-x="630" 
d="M317 389l243 -389h-87l-213 338l-107 -96l-43 -242h-74l123 700h74l-63 -361l398 361h97z" />
    <glyph glyph-name="L" unicode="L" horiz-adv-x="560" 
d="M60 13q-14 13 -14 37q0 10 1 15l112 635h74l-112 -634h380l-11 -66h-389q-27 0 -41 13z" />
    <glyph glyph-name="M" unicode="M" horiz-adv-x="795" 
d="M159 700h66l168 -465l325 465h76l-123 -700h-73l99 562l-270 -384q-13 -19 -22.5 -27t-20.5 -8h-22l-154 419l-99 -562h-73z" />
    <glyph glyph-name="N" unicode="N" horiz-adv-x="690" 
d="M159 700h66l290 -584l102 584h72l-123 -700h-66l-290 580l-102 -580h-72z" />
    <glyph glyph-name="O" unicode="O" horiz-adv-x="696" 
d="M109.5 45.5q-55.5 53.5 -55.5 144.5q0 21 5 53l38 214q20 118 90.5 184.5t176.5 66.5h106q97 0 152.5 -53t55.5 -143q0 -23 -5 -55l-38 -214q-21 -120 -91 -185.5t-177 -65.5h-107q-95 0 -150.5 53.5zM365 58q76 0 128 49t68 136l38 214q4 21 4 45q0 65 -36 102.5
t-99 37.5h-102q-76 0 -127.5 -49t-67.5 -136l-38 -214q-4 -21 -4 -45q0 -65 35.5 -102.5t97.5 -37.5h103z" />
    <glyph glyph-name="P" unicode="P" horiz-adv-x="624" 
d="M159 700h328q74 0 116.5 -34.5t42.5 -93.5q0 -15 -3 -32l-19 -103q-15 -81 -69.5 -126.5t-136.5 -45.5h-261l-47 -265h-74zM418 331q53 0 87.5 28.5t44.5 79.5l19 103q2 12 2 18q0 34 -23.5 54t-63.5 20h-262l-54 -303h250z" />
    <glyph glyph-name="Q" unicode="Q" horiz-adv-x="700" 
d="M622.5 655q55.5 -53 55.5 -143q0 -23 -5 -55l-38 -212q-17 -90 -70 -154l62 -75l-54 -48l-61 73q-70 -49 -151 -49h-101q-95 0 -150.5 53.5t-55.5 144.5q0 21 5 53l38 214q21 119 91 185t176 66h106q97 0 152.5 -53zM603 502q0 65 -36 102.5t-99 37.5h-102
q-76 0 -127.5 -49t-67.5 -136l-38 -214q-4 -21 -4 -45q0 -65 35.5 -102.5t97.5 -37.5h97q58 0 109 35l-84 100l55 48l81 -97q31 44 41 101l38 212q4 21 4 45z" />
    <glyph glyph-name="R" unicode="R" horiz-adv-x="650" 
d="M159 700h331q72 0 113.5 -34.5t41.5 -92.5q0 -14 -3 -31l-13 -73q-10 -56 -47.5 -95.5t-104.5 -55.5v-1q28 -16 46 -50.5t23 -79.5l22 -187h-76l-22 187q-6 49 -35 79t-70 30h-203l-52 -296h-74zM414 362q55 0 94 29.5t47 77.5l13 77q1 6 1 17q0 33 -22 52t-61 19h-264
l-48 -272h240z" />
    <glyph glyph-name="S" unicode="S" horiz-adv-x="627" 
d="M92.5 36q-49.5 44 -49.5 119q0 22 4 42h72q-3 -16 -3 -32q0 -49 30 -78t81 -29h111q61 0 100 25.5t47 70.5l12 64q1 4 1 13q0 28 -22.5 48.5t-60.5 27.5l-175 30q-63 10 -99 46t-36 87q0 8 2 24l10 54q14 76 71 118t144 42h113q80 0 126 -40t46 -109q0 -12 -4 -38h-72
q3 15 3 27q0 44 -26.5 69t-72.5 25h-113q-58 0 -95 -25t-46 -69l-10 -54q-1 -5 -1 -13q0 -29 22 -50t59 -28l174 -31q64 -11 101 -46.5t37 -84.5q0 -7 -2 -23l-12 -64q-15 -80 -70.5 -121t-146.5 -41h-115q-85 0 -134.5 44z" />
    <glyph glyph-name="T" unicode="T" horiz-adv-x="578" 
d="M320 636h-222l11 64h518l-11 -64h-222l-112 -636h-74z" />
    <glyph glyph-name="U" unicode="U" horiz-adv-x="692" 
d="M118 41q-51 49 -51 132q0 26 4 49l84 478h74l-84 -480q-4 -28 -4 -39q0 -57 31.5 -90t85.5 -33h108q67 0 112 42.5t59 119.5l84 480h74l-84 -478q-20 -110 -83.5 -170t-161.5 -60h-108q-89 0 -140 49z" />
    <glyph glyph-name="V" unicode="V" horiz-adv-x="634" 
d="M240 11q-11 11 -15 35l-124 654h71l110 -611h1l327 611h81l-383 -700h-38q-19 0 -30 11z" />
    <glyph glyph-name="W" unicode="W" horiz-adv-x="844" 
d="M134 15.5q-13 15.5 -14 49.5l-7 635h71l2 -604h1l276 567h31q35 0 40 -43l63 -524h1l216 604h75l-231 -635q-12 -32 -29.5 -48.5t-47.5 -16.5h-30l-71 564h-1l-274 -564h-30q-28 0 -41 15.5z" />
    <glyph glyph-name="X" unicode="X" horiz-adv-x="611" 
d="M284 360l-179 340h78l149 -283l245 283h87l-299 -346l186 -354h-78l-156 297l-257 -297h-88z" />
    <glyph glyph-name="Y" unicode="Y" horiz-adv-x="622" 
d="M277 269l-182 431h75l151 -364l279 364h85l-334 -431l-47 -269h-74z" />
    <glyph glyph-name="Z" unicode="Z" horiz-adv-x="578" 
d="M2 33l501 604h-377l11 63h480l-5 -33l-502 -604h385l-11 -63h-488z" />
    <glyph glyph-name="bracketleft" unicode="[" horiz-adv-x="315" 
d="M62 -174q-36 33 -36 92q0 10 4 38l109 616q13 76 64 119.5t127 43.5h34l-11 -64h-34q-42 0 -71 -26.5t-37 -72.5l-109 -616q-2 -9 -2 -25q0 -35 19.5 -54t56.5 -19h34l-12 -65h-34q-66 0 -102 33z" />
    <glyph glyph-name="backslash" unicode="\" horiz-adv-x="514" 
d="M121 722h68l239 -747h-68z" />
    <glyph glyph-name="bracketright" unicode="]" horiz-adv-x="315" 
d="M-33 -142h33q43 0 72 26t37 72l108 616q2 16 2 22q0 35 -20 56t-55 21h-33l11 64h33q64 0 100.5 -34.5t36.5 -93.5q0 -17 -3 -35l-108 -616q-13 -76 -64 -119.5t-128 -43.5h-33z" />
    <glyph glyph-name="asciicircum" unicode="^" horiz-adv-x="549" 
d="M314 700h80l119 -335h-72l-94 273l-191 -273h-80z" />
    <glyph glyph-name="underscore" unicode="_" horiz-adv-x="530" 
d="M-45 -8h529l-11 -64h-530z" />
    <glyph glyph-name="grave" unicode="`" horiz-adv-x="265" 
d="M136 732h80l56 -152h-64z" />
    <glyph glyph-name="a" unicode="a" horiz-adv-x="556" 
d="M78 23.5q-41 31.5 -41 84.5q0 8 2 24l6 33q12 66 58.5 102t118.5 36h64q33 0 72.5 -10.5t60.5 -26.5l14 83q2 14 2 20q0 35 -21.5 55t-58.5 20h-80q-43 0 -72.5 -20t-35.5 -53h-72q11 61 60.5 98.5t119.5 37.5h80q70 0 110.5 -34t40.5 -93q0 -14 -3 -31l-61 -349h-68
l12 70q-30 -37 -66 -57.5t-75 -20.5h-60q-66 0 -107 31.5zM247 55q47 0 89.5 29t63.5 77l7 37q-17 19 -50.5 30.5t-70.5 11.5h-64q-43 0 -70.5 -20t-34.5 -56l-6 -32q-2 -12 -2 -16q0 -28 20.5 -44.5t55.5 -16.5h62z" />
    <glyph glyph-name="b" unicode="b" horiz-adv-x="578" 
d="M165.5 11.5q-33.5 19.5 -52.5 52.5l-11 -64h-70l123 700h72l-45 -260q26 30 61.5 48.5t66.5 18.5h71q73 0 115 -39.5t42 -106.5q0 -22 -4 -41l-23 -129q-17 -92 -70.5 -145.5t-131.5 -53.5h-70q-40 0 -73.5 19.5zM307 56q49 0 85.5 37t46.5 98l23 129q3 17 3 31
q0 42 -23 67t-63 25h-67q-54 0 -96.5 -38t-57.5 -100l-22 -122q-1 -5 -1 -15q0 -48 30 -80t74 -32h68z" />
    <glyph glyph-name="c" unicode="c" horiz-adv-x="536" 
d="M81.5 30.5q-42.5 38.5 -42.5 104.5q0 18 3 37l26 144q17 90 70.5 140.5t132.5 50.5h82q73 0 115 -34.5t42 -93.5q0 -18 -2 -28h-70q1 6 1 17q0 34 -23 54.5t-63 20.5h-82q-51 0 -86 -33.5t-45 -93.5l-26 -144q-3 -15 -3 -27q0 -41 24.5 -65t67.5 -24h82q49 0 82 32t44 89
h70q-16 -87 -68 -136t-128 -49h-85q-76 0 -118.5 38.5z" />
    <glyph glyph-name="d" unicode="d" horiz-adv-x="578" 
d="M81 30q-41 38 -41 107q0 25 4 46l21 120q16 93 72 148.5t137 55.5h74q38 0 69.5 -16.5t47.5 -43.5l44 253h72l-123 -700h-70l13 74q-29 -37 -66.5 -59.5t-70.5 -22.5h-67q-75 0 -116 38zM264 56q32 0 65 20.5t58 53.5t34 68l22 126q2 53 -24.5 86t-72.5 33h-70
q-51 0 -89.5 -38.5t-49.5 -101.5l-21 -120q-3 -19 -3 -35q0 -44 22 -68t64 -24h65z" />
    <glyph glyph-name="e" unicode="e" horiz-adv-x="552" 
d="M84.5 31.5q-44.5 39.5 -44.5 105.5q0 18 3 36l25 143q16 90 71 140.5t137 50.5h82q71 0 115 -41t44 -109q0 -18 -3 -36l-15 -88h-374l-10 -60q-2 -9 -2 -26q0 -42 25 -66.5t69 -24.5h76q53 0 87.5 27t42.5 74h70q-13 -78 -66 -121.5t-134 -43.5h-76q-78 0 -122.5 39.5z
M437 295l5 26q3 15 3 30q0 41 -23.5 66.5t-63.5 25.5h-82q-53 0 -89 -33.5t-47 -93.5l-4 -21h301z" />
    <glyph glyph-name="f" unicode="f" horiz-adv-x="359" 
d="M159 435h-86l11 64h86l7 39q15 82 64 124t130 42h38l-11 -62h-38q-47 0 -74 -25t-37 -79l-7 -39h120l-11 -64h-120l-77 -435h-72z" />
    <glyph glyph-name="g" unicode="g" horiz-adv-x="578" 
d="M63 -171.5q-40 31.5 -40 83.5l1 14h72q-2 -30 18.5 -48.5t54.5 -18.5h83q51 0 86 34.5t46 96.5l14 77q-28 -31 -61.5 -49t-65.5 -18h-73q-72 0 -114 40t-42 109q0 22 4 42l20 117q15 90 72 144.5t139 54.5h70q37 0 70 -17.5t49 -46.5l10 56h70l-90 -509q-16 -91 -70 -142
t-134 -51h-83q-66 0 -106 31.5zM271 64q50 0 93 39.5t58 100.5l22 123q4 50 -23.5 83t-73.5 33h-68q-53 0 -92 -37t-49 -98l-20 -117q-3 -16 -3 -31q0 -44 22.5 -70t62.5 -26h71z" />
    <glyph glyph-name="h" unicode="h" horiz-adv-x="574" 
d="M155 700h72l-47 -270q29 36 66 56.5t74 20.5h64q64 0 101 -36t37 -97q0 -17 -3 -37l-59 -337h-72l60 339q2 9 2 26q0 36 -18 57t-50 21h-66q-47 0 -92 -36.5t-65 -93.5l-55 -313h-72z" />
    <glyph glyph-name="i" unicode="i" horiz-adv-x="260" 
d="M154.5 586q-12.5 12 -12.5 31q0 29 17.5 47t45.5 18q21 0 33.5 -11.5t12.5 -31.5q0 -29 -17.5 -47t-46.5 -18q-20 0 -32.5 12zM138 499h72l-88 -499h-72z" />
    <glyph glyph-name="j" unicode="j" horiz-adv-x="266" 
d="M160.5 586q-12.5 12 -12.5 31q0 29 17.5 47t45.5 18q21 0 33.5 -11.5t12.5 -31.5q0 -29 -17.5 -47t-46.5 -18q-20 0 -32.5 12zM-100 -135h34q52 0 79.5 28t38.5 92l91 514h72l-90 -509q-18 -101 -64.5 -145t-137.5 -44h-34z" />
    <glyph glyph-name="k" unicode="k" horiz-adv-x="511" 
d="M273 285l182 -285h-81l-156 239l-85 -72l-29 -167h-72l123 700h72l-77 -440l284 239h93z" />
    <glyph glyph-name="l" unicode="l" horiz-adv-x="268" 
d="M80.5 21q-28.5 21 -28.5 71q0 23 4 44l99 564h72l-99 -564q-3 -15 -3 -27q0 -25 13 -35t43 -10h34l-11 -64h-34q-61 0 -89.5 21z" />
    <glyph glyph-name="m" unicode="m" horiz-adv-x="836" 
d="M751.5 473.5q34.5 -33.5 34.5 -90.5q0 -18 -3 -36l-61 -347h-72l62 349q2 9 2 25q0 32 -15.5 50.5t-43.5 18.5h-57q-41 0 -75.5 -30.5t-50.5 -80.5l-59 -332h-72l60 343q3 15 3 29q0 33 -14.5 52t-39.5 19h-57q-41 0 -78 -36t-56 -94l-55 -313h-72l88 499h70l-13 -72
q25 36 58 58t62 22h59q42 0 71 -22t40 -60q27 38 61.5 60t67.5 22h61q60 0 94.5 -33.5z" />
    <glyph glyph-name="n" unicode="n" horiz-adv-x="572" 
d="M120 499h70l-13 -74q31 39 68.5 60.5t74.5 21.5h64q63 0 99.5 -35.5t36.5 -96.5q0 -18 -3 -38l-59 -337h-72l60 339q2 9 2 27q0 36 -18 56.5t-50 20.5h-64q-47 0 -92 -37t-65 -95l-55 -311h-72z" />
    <glyph glyph-name="o" unicode="o" horiz-adv-x="570" 
d="M85 32.5q-45 40.5 -45 109.5q0 13 4 39l24 137q16 89 71.5 139t138.5 50h82q79 0 124.5 -40.5t45.5 -109.5q0 -13 -4 -39l-24 -137q-16 -89 -72 -139t-140 -50h-82q-78 0 -123 40.5zM290 56q53 0 91.5 34.5t48.5 90.5l24 137q3 15 3 28q0 44 -26 70.5t-71 26.5h-82
q-55 0 -91.5 -33t-46.5 -92l-24 -137q-3 -15 -3 -29q0 -44 25.5 -70t69.5 -26h82z" />
    <glyph glyph-name="p" unicode="p" horiz-adv-x="578" 
d="M120 499h70l-12 -68q27 35 61.5 55.5t65.5 20.5h72q75 0 118.5 -39.5t43.5 -106.5q0 -12 -4 -40l-22 -123q-17 -97 -72.5 -151.5t-136.5 -54.5h-72q-38 0 -70.5 17.5t-47.5 45.5l-45 -254h-72zM302 56q54 0 90.5 37.5t48.5 104.5l22 123q3 15 3 29q0 43 -24 68t-67 25
h-70q-42 0 -81.5 -32t-61.5 -84l-27 -150q-2 -55 25.5 -88t75.5 -33h66z" />
    <glyph glyph-name="q" unicode="q" horiz-adv-x="578" 
d="M396 59q-26 -30 -61 -48.5t-66 -18.5h-73q-72 0 -114 40t-42 109q0 22 4 41l22 125q16 94 71.5 147t137.5 53h72q40 0 72.5 -17.5t46.5 -46.5l10 56h70l-124 -702h-72zM270 56q52 0 93 38t57 100l24 133q4 52 -22.5 84t-74.5 32h-72q-54 0 -90 -36t-47 -100l-22 -125
q-3 -16 -3 -31q0 -44 23 -69.5t63 -25.5h71z" />
    <glyph glyph-name="r" unicode="r" horiz-adv-x="355" 
d="M120 499h70l-14 -77q28 37 67.5 58t81.5 21h54l-11 -65h-43q-65 0 -111.5 -40.5t-58.5 -107.5l-51 -288h-72z" />
    <glyph glyph-name="s" unicode="s" horiz-adv-x="520" 
d="M70 26q-41 34 -41 91q0 15 3 31h70q-2 -14 -2 -20q0 -34 22 -54t61 -20h87q45 0 73.5 16.5t34.5 46.5l7 34q1 3 1 8q0 17 -12.5 29t-33.5 16l-168 30q-45 8 -71 33.5t-26 60.5q0 5 2 17l6 33q11 61 56 95t115 34h86q67 0 105.5 -32t38.5 -86q0 -17 -2 -26h-70q1 5 1 16
q0 30 -19.5 48t-53.5 18h-86q-40 0 -66 -18t-33 -49l-6 -29q-4 -19 10 -33.5t40 -19.5l167 -30q43 -8 68 -33t25 -60q0 -6 -2 -18l-7 -40q-11 -58 -58 -90.5t-122 -32.5h-87q-72 0 -113 34z" />
    <glyph glyph-name="t" unicode="t" horiz-adv-x="382" 
d="M131.5 23.5q-30.5 23.5 -30.5 75.5q0 19 5 47l51 289h-88l11 64h88l27 151h72l-27 -151h130l-11 -64h-130l-51 -289q-2 -10 -2 -28q0 -30 14.5 -42t49.5 -12h53l-12 -64h-53q-66 0 -96.5 23.5z" />
    <glyph glyph-name="u" unicode="u" horiz-adv-x="570" 
d="M89 28q-37 36 -37 97q0 18 3 37l59 337h72l-59 -339q-3 -15 -3 -29q0 -35 18 -55t49 -20h62q48 0 91.5 35.5t66.5 94.5l55 313h72l-88 -499h-70l14 76q-31 -38 -70 -61t-71 -23h-62q-65 0 -102 36z" />
    <glyph glyph-name="v" unicode="v" horiz-adv-x="493" 
d="M153 51l-93 448h72l80 -420h1l228 420h80l-282 -499h-34q-41 0 -52 51z" />
    <glyph glyph-name="w" unicode="w" horiz-adv-x="723" 
d="M735 499l-186 -441q-13 -30 -29.5 -44t-40.5 -14h-34l-59 377l-195 -377h-34q-23 0 -35.5 14t-14.5 44l-31 441h73l19 -419l207 405h26q29 0 33 -32l56 -370l166 416h79z" />
    <glyph glyph-name="x" unicode="x" horiz-adv-x="490" 
d="M205 256l-137 243h79l106 -188l172 188h85l-223 -245l143 -254h-79l-112 199l-182 -199h-85z" />
    <glyph glyph-name="y" unicode="y" horiz-adv-x="572" 
d="M62 -171.5q-40 31.5 -40 83.5l1 14h72q-2 -30 18.5 -48.5t54.5 -18.5h78q51 0 86 34.5t46 96.5l17 92q-27 -36 -67 -59t-72 -23h-62q-66 0 -103.5 36t-37.5 97q0 18 3 37l58 329h72l-58 -331q-2 -9 -2 -27q0 -36 18 -56.5t50 -20.5h62q49 0 92 35.5t66 94.5l54 305h72
l-90 -509q-16 -91 -70 -142t-134 -51h-78q-66 0 -106 31.5z" />
    <glyph glyph-name="z" unicode="z" horiz-adv-x="472" 
d="M-2 32l367 406h-284l11 61h388l-6 -32l-367 -406h291l-11 -61h-395z" />
    <glyph glyph-name="braceleft" unicode="{" horiz-adv-x="370" 
d="M114.5 -199.5q-35.5 31.5 -35.5 89.5q0 12 4 38l34 193q2 14 2 21q0 32 -17.5 54t-49.5 29l10 54q40 9 67 37t34 67l34 193q14 75 63 117t124 42h35l-11 -64h-28q-44 0 -74 -26.5t-38 -72.5l-33 -189q-8 -44 -35.5 -79t-67.5 -52q28 -14 44 -41.5t16 -61.5q0 -13 -3 -28
l-34 -189q-2 -9 -2 -25q0 -35 20.5 -54.5t58.5 -19.5h28l-11 -64h-35q-64 0 -99.5 31.5z" />
    <glyph glyph-name="bar" unicode="|" horiz-adv-x="244" 
d="M191 847h72l-175 -994h-72z" />
    <glyph glyph-name="braceright" unicode="}" horiz-adv-x="370" 
d="M-37 -167h28q44 0 74 26.5t38 72.5l33 189q8 44 35.5 79t67.5 52q-28 14 -44 41t-16 61q0 14 3 29l34 189q2 9 2 25q0 35 -20.5 54.5t-58.5 19.5h-28l11 64h35q64 0 99.5 -31.5t35.5 -89.5q0 -12 -4 -38l-34 -193q-2 -14 -2 -21q0 -32 17.5 -54t49.5 -29l-10 -54
q-40 -9 -67 -37t-34 -67l-34 -193q-14 -75 -63 -117t-124 -42h-35z" />
    <glyph glyph-name="asciitilde" unicode="~" horiz-adv-x="601" 
d="M335.5 248q-24.5 19 -48.5 54q-19 25 -32 36.5t-31 11.5h-20q-26 0 -47.5 -29.5t-31.5 -77.5h-70q15 79 54.5 125t94.5 46h20q39 0 62.5 -18t49.5 -53q18 -26 31.5 -38t33.5 -12h20q26 0 48.5 30.5t32.5 78.5h70q-15 -79 -55 -126t-96 -47h-20q-41 0 -65.5 19z" />
    <glyph glyph-name="uni00A0" unicode="&#xa0;" horiz-adv-x="260" 
 />
    <glyph glyph-name="exclamdown" unicode="&#xa1;" horiz-adv-x="273" 
d="M214.5 495.5q12.5 -11.5 12.5 -31.5q0 -29 -17.5 -47t-46.5 -18q-20 0 -32.5 12t-12.5 31q0 29 17.5 47t45.5 18q21 0 33.5 -11.5zM92 -203h-72l89 501h72z" />
    <glyph glyph-name="cent" unicode="&#xa2;" horiz-adv-x="536" 
d="M438 351q1 6 1 17q0 34 -23 54.5t-63 20.5h-82q-51 0 -86 -33.5t-45 -93.5l-26 -144q-3 -15 -3 -27q0 -41 24.5 -65t67.5 -24h82q49 0 82 32t44 89h70q-16 -87 -68 -136t-128 -49h-21l-18 -102h-72l18 102q-72 2 -113 40.5t-41 101.5q0 12 4 38l26 144q17 90 70.5 140.5
t132.5 50.5h12l17 100h72l-17 -100q73 -1 114.5 -35t41.5 -92q0 -14 -3 -29h-70z" />
    <glyph glyph-name="sterling" unicode="&#xa3;" horiz-adv-x="647" 
d="M606 666.5q43 -41.5 43 -112.5q0 -18 -3 -36h-72q2 18 2 25q0 45 -23.5 72t-63.5 27h-86q-53 0 -90 -39t-50 -109l-26 -146h216l-11 -66h-216l-38 -216h379l-12 -66h-543l12 66h90l38 216h-80l11 66h80l26 146q18 101 74.5 157.5t139.5 56.5h86q74 0 117 -41.5z" />
    <glyph glyph-name="currency" unicode="&#xa4;" horiz-adv-x="688" 
d="M28 90l80 67q-30 48 -30 120q0 59 24.5 120t65.5 104l-56 68l55 48l59 -70q37 23 84 36t93 13q47 0 90.5 -13.5t72.5 -37.5l85 72l37 -48l-82 -69q30 -44 30 -115q0 -61 -25 -124t-65 -102l58 -69l-54 -46l-59 70q-37 -24 -86 -37.5t-96 -13.5q-45 0 -87 13.5t-74 36.5
l-82 -69zM447 159q55 32 86 89t31 130q0 74 -45 114t-127 40q-71 0 -126 -32t-85.5 -89.5t-30.5 -130.5t44.5 -113t126.5 -40q71 0 126 32z" />
    <glyph glyph-name="yen" unicode="&#xa5;" horiz-adv-x="622" 
d="M397 328h158l-11 -60h-193l-15 -84h194l-11 -60h-193l-22 -124h-74l22 124h-182l11 60h181l15 84h-182l11 60h146l-157 372h75l151 -364l279 364h85z" />
    <glyph glyph-name="brokenbar" unicode="&#xa6;" horiz-adv-x="244" 
d="M191 847h72l-72 -412h-72zM89 265h72l-73 -412h-72z" />
    <glyph glyph-name="section" unicode="&#xa7;" horiz-adv-x="558" 
d="M465 574q1 5 1 14q0 31 -20.5 49.5t-56.5 18.5h-81q-40 0 -67.5 -18.5t-32.5 -48.5l-4 -23q-1 -3 -1 -9q0 -21 16.5 -34t47.5 -22l161 -45q44 -12 68 -38t24 -60q0 -6 -2 -18l-4 -21q-7 -33 -34 -59t-68 -41q49 -28 49 -77q0 -7 -2 -19l-6 -32q-11 -56 -59 -90t-115 -34
h-81q-67 0 -105.5 32t-38.5 86q0 17 2 26h70q-1 -5 -1 -16q0 -30 19.5 -48t53.5 -18h81q40 0 68.5 17t33.5 45l6 31q4 19 -12.5 36.5t-45.5 25.5l-166 44q-44 12 -67.5 38t-23.5 62q0 8 2 22l4 21q13 69 96 101q-44 26 -44 73q0 9 1 13l5 31q10 58 57.5 93.5t114.5 35.5h81
q69 0 108.5 -32t39.5 -86q0 -17 -2 -26h-70zM176.5 418.5q-22.5 -19.5 -26.5 -45.5l-4 -23q-1 -4 -1 -10q0 -18 11.5 -31t32.5 -19l152 -42q39 6 67.5 24.5t32.5 44.5l4 23q3 18 -8.5 32.5t-35.5 21.5l-170 49q-32 -5 -54.5 -24.5z" />
    <glyph glyph-name="dieresis" unicode="&#xa8;" horiz-adv-x="397" 
d="M127 591q-11 11 -11 28q0 26 16.5 42.5t42.5 16.5q19 0 30 -11t11 -28q0 -26 -16.5 -42.5t-42.5 -16.5q-19 0 -30 11zM326 591q-11 11 -11 28q0 26 16.5 42.5t42.5 16.5q19 0 30 -11t11 -28q0 -26 -16.5 -42.5t-42.5 -16.5q-19 0 -30 11z" />
    <glyph glyph-name="copyright" unicode="&#xa9;" horiz-adv-x="758" 
d="M200.5 51q-63.5 32 -98.5 90.5t-35 135.5q0 119 47 210.5t133 141.5t198 50q84 0 147.5 -32t98.5 -90.5t35 -135.5q0 -119 -47 -210.5t-133 -141.5t-198 -50q-84 0 -147.5 32zM514 117q72 42 111.5 118t39.5 175q0 63 -27.5 111.5t-77.5 75t-115 26.5q-94 0 -166 -42
t-111.5 -118t-39.5 -175q0 -63 27.5 -111.5t77.5 -75t115 -26.5q94 0 166 42zM260.5 182.5q-30.5 29.5 -30.5 79.5q0 15 3 31l20 114q12 65 49.5 102t92.5 37h58q51 0 80.5 -26.5t29.5 -71.5q0 -16 -2 -25h-60q1 6 1 16q0 24 -13 38.5t-36 14.5h-58q-31 0 -52 -22.5
t-28 -62.5l-20 -114q-2 -18 -2 -24q0 -29 13 -45.5t37 -16.5h59q28 0 48.5 21.5t26.5 56.5h61q-11 -59 -48 -95.5t-88 -36.5h-59q-52 0 -82.5 29.5z" />
    <glyph glyph-name="ordfeminine" unicode="&#xaa;" horiz-adv-x="422" 
d="M116 365q-28 22 -28 59q0 6 2 18l4 22q8 46 42 72t86 26h46q19 0 41 -5.5t36 -16.5l10 54q1 5 1 14q0 20 -11.5 31t-33.5 11h-57q-26 0 -42.5 -10.5t-19.5 -29.5h-62q8 45 40.5 70.5t83.5 25.5h57q52 0 80 -23t28 -64q0 -16 -2 -25l-43 -245h-61l8 46q-20 -24 -45.5 -38
t-47.5 -14h-38q-46 0 -74 22zM238 398q29 0 55 18t39 46l3 22q-8 9 -29.5 16t-45.5 7h-44q-23 0 -38.5 -11.5t-19.5 -31.5l-4 -22q-1 -3 -1 -8q0 -16 11.5 -26t30.5 -10h43z" />
    <glyph glyph-name="guillemotleft" unicode="&#xab;" horiz-adv-x="556" 
d="M39 268l310 260l-17 -93l-206 -172l145 -174l-14 -81zM239 268l310 260l-17 -93l-206 -172l145 -174l-14 -81z" />
    <glyph glyph-name="logicalnot" unicode="&#xac;" horiz-adv-x="659" 
d="M552 365h-475l11 64h547l-48 -272h-72z" />
    <glyph glyph-name="uni00AD" unicode="&#xad;" horiz-adv-x="377" 
d="M63 287h264l-11 -64h-265z" />
    <glyph glyph-name="registered" unicode="&#xae;" horiz-adv-x="758" 
d="M200.5 51q-63.5 32 -98.5 90.5t-35 135.5q0 119 47 210.5t133 141.5t198 50q84 0 147.5 -32t98.5 -90.5t35 -135.5q0 -119 -47 -210.5t-133 -141.5t-198 -50q-84 0 -147.5 32zM514 117q72 42 111.5 118t39.5 175q0 63 -27.5 111.5t-77.5 75t-115 26.5q-94 0 -166 -42
t-111.5 -118t-39.5 -175q0 -63 27.5 -111.5t77.5 -75t115 -26.5q94 0 166 42zM297 542h163q48 0 75.5 -20t27.5 -53q0 -6 -2 -16l-7 -38q-5 -28 -27 -50t-55 -32v-1q17 -8 25 -24.5t12 -47.5l12 -103h-62l-13 103q-3 25 -14 38t-34 13h-80l-27 -154h-62zM420 365
q30 0 48.5 13.5t23.5 36.5l7 38q3 16 -8 25.5t-31 9.5h-111l-22 -123h93z" />
    <glyph glyph-name="macron" unicode="&#xaf;" horiz-adv-x="355" 
d="M119 642h255l-9 -52h-255z" />
    <glyph glyph-name="degree" unicode="&#xb0;" horiz-adv-x="378" 
d="M145 474.5q-32 30.5 -32 79.5q0 69 41.5 111.5t111.5 42.5q51 0 82.5 -30.5t31.5 -79.5q0 -69 -41.5 -111.5t-111.5 -42.5q-50 0 -82 30.5zM299.5 523q24.5 26 24.5 70q0 28 -17 45t-47 17q-42 0 -66.5 -26t-24.5 -70q0 -28 17 -45t47 -17q42 0 66.5 26z" />
    <glyph glyph-name="plusminus" unicode="&#xb1;" horiz-adv-x="568" 
d="M261 323h-192l11 62h192l34 196h72l-34 -196h192l-11 -62h-192l-35 -196h-72zM23 62h456l-11 -62h-456z" />
    <glyph glyph-name="uni00B2" unicode="&#xb2;" horiz-adv-x="374" 
d="M64 329q7 37 22 62.5t45 45.5l145 98q19 14 28 25.5t12 29.5l3 19q3 18 -6.5 29t-28.5 11h-54q-22 0 -38.5 -16.5t-20.5 -44.5h-63q9 53 42.5 85t79.5 32h57q45 0 71 -21.5t26 -58.5q0 -10 -1 -16l-3 -20q-4 -28 -18.5 -49t-40.5 -38l-141 -93q-23 -15 -34.5 -30.5
t-14.5 -34.5h212l-10 -55h-276z" />
    <glyph glyph-name="uni00B3" unicode="&#xb3;" horiz-adv-x="387" 
d="M365.5 683q27.5 -22 27.5 -60q0 -11 -1 -17l-4 -24q-5 -27 -20 -48t-39 -33q39 -20 39 -67q0 -7 -2 -19l-4 -23q-8 -51 -42 -79.5t-85 -28.5h-57q-48 0 -77.5 26.5t-29.5 69.5q0 15 2 23h62q-2 -12 -2 -16q0 -22 12 -34.5t33 -12.5h57q26 0 42.5 13.5t20.5 38.5l4 23
q1 4 1 12q0 21 -12.5 33t-34.5 12h-62l10 54h62q22 0 38 15.5t20 40.5l4 24q3 20 -7.5 31.5t-30.5 11.5h-57q-24 0 -41 -16.5t-22 -46.5h-62q10 55 44 87t81 32h57q48 0 75.5 -22z" />
    <glyph glyph-name="acute" unicode="&#xb4;" horiz-adv-x="265" 
d="M217 732h84l-126 -152h-68z" />
    <glyph glyph-name="paragraph" unicode="&#xb6;" horiz-adv-x="578" 
d="M571 700l-123 -700h-74l61 345h-80l-61 -345h-74l61 345h-45q-60 0 -95 32t-35 86q0 16 3 32l10 55q13 71 60 110.5t119 39.5h273z" />
    <glyph glyph-name="periodcentered" unicode="&#xb7;" horiz-adv-x="220" 
d="M69.5 214.5q-12.5 11.5 -12.5 31.5q0 29 17.5 47t46.5 18q20 0 32.5 -12t12.5 -31q0 -29 -17.5 -47t-45.5 -18q-21 0 -33.5 11.5z" />
    <glyph glyph-name="cedilla" unicode="&#xb8;" horiz-adv-x="260" 
d="M-25 -175h53q23 0 38 9t18 25l2 11q3 15 -8 24.5t-31 9.5h-47l8 44l40 66h59l-43 -68h3q36 0 56.5 -16.5t20.5 -45.5q0 -9 -1 -14l-2 -11q-7 -39 -36.5 -60.5t-76.5 -21.5h-61z" />
    <glyph glyph-name="uni00B9" unicode="&#xb9;" horiz-adv-x="251" 
d="M193 636l-104 -50l11 60l110 54h58l-72 -411h-64z" />
    <glyph glyph-name="ordmasculine" unicode="&#xba;" horiz-adv-x="435" 
d="M126 371.5q-32 28.5 -32 77.5q0 18 2 27l17 97q11 63 49.5 98t96.5 35h59q56 0 88 -28.5t32 -77.5q0 -18 -2 -27l-17 -97q-11 -63 -49.5 -98t-96.5 -35h-60q-55 0 -87 28.5zM272 399q31 0 54 21t29 56l17 97q2 12 2 18q0 27 -15 43t-41 16h-59q-32 0 -54 -20.5t-28 -56.5
l-17 -97q-2 -14 -2 -19q0 -26 15 -42t40 -16h59z" />
    <glyph glyph-name="guillemotright" unicode="&#xbb;" horiz-adv-x="556" 
d="M29 99l207 174l-146 172l15 83l218 -260l-310 -260zM229 99l207 174l-146 172l15 83l218 -260l-310 -260z" />
    <glyph glyph-name="onequarter" unicode="&#xbc;" horiz-adv-x="784" 
d="M219 636l-104 -50l11 60l110 54h58l-72 -411h-64zM615 722h68l-514 -747h-68zM590 78h-172q-31 0 -26 26l5 30l253 277h63l-49 -277h44l-10 -56h-44l-13 -78h-64zM607 132l34 194h-2l-177 -194h145z" />
    <glyph glyph-name="onehalf" unicode="&#xbd;" horiz-adv-x="832" 
d="M219 636l-104 -50l11 60l110 54h58l-72 -411h-64zM463 40q7 37 22 62.5t45 45.5l145 98q19 14 28 25.5t12 29.5l3 19q3 18 -6.5 29t-28.5 11h-54q-22 0 -38.5 -16.5t-20.5 -44.5h-63q9 53 42.5 85t79.5 32h57q45 0 71 -21.5t26 -58.5q0 -10 -1 -16l-3 -20
q-4 -28 -18.5 -49t-40.5 -38l-141 -93q-23 -15 -34.5 -30.5t-14.5 -34.5h212l-10 -55h-276zM614 722h68l-514 -747h-68z" />
    <glyph glyph-name="threequarters" unicode="&#xbe;" horiz-adv-x="843" 
d="M375.5 683q27.5 -22 27.5 -60q0 -11 -1 -17l-4 -24q-5 -27 -20 -48t-39 -33q39 -20 39 -67q0 -7 -2 -19l-4 -23q-8 -51 -42 -79.5t-85 -28.5h-57q-48 0 -77.5 26.5t-29.5 69.5q0 15 2 23h62q-2 -12 -2 -16q0 -22 12 -34.5t33 -12.5h57q26 0 42.5 13.5t20.5 38.5l4 23
q1 4 1 12q0 21 -12.5 33t-34.5 12h-62l10 54h62q22 0 38 15.5t20 40.5l4 24q3 20 -7.5 31.5t-30.5 11.5h-57q-24 0 -41 -16.5t-22 -46.5h-62q10 55 44 87t81 32h57q48 0 75.5 -22zM649 78h-172q-31 0 -26 26l5 30l253 277h63l-49 -277h44l-10 -56h-44l-13 -78h-64zM666 132
l34 194h-2l-177 -194h145zM697 722h68l-514 -747h-68z" />
    <glyph glyph-name="questiondown" unicode="&#xbf;" horiz-adv-x="564" 
d="M362.5 495.5q12.5 -11.5 12.5 -31.5q0 -29 -18 -47t-47 -18q-20 0 -32.5 12t-12.5 31q0 29 17.5 47t46.5 18q21 0 33.5 -11.5zM327 279q-7 -41 -28 -72t-46 -51.5t-66 -48.5q-49 -34 -73 -57.5t-29 -56.5l-6 -36q-2 -14 -2 -19q0 -38 25.5 -60t69.5 -22h86q56 0 96 33.5
t50 88.5h72q-15 -85 -75 -136.5t-143 -51.5h-86q-78 0 -124 37t-46 100q0 15 3 30l6 36q9 50 38.5 81.5t84.5 69.5q53 36 82 66t38 77l9 49h74z" />
    <glyph glyph-name="Agrave" unicode="&#xc0;" horiz-adv-x="647" 
d="M472 194h-308l-106 -194h-80l392 700h34q33 0 41 -40l83 -404h1v-2l52 -254h-72zM198 256h261l-68 348h-1zM314 933h80l56 -152h-64z" />
    <glyph glyph-name="Aacute" unicode="&#xc1;" horiz-adv-x="647" 
d="M472 194h-308l-106 -194h-80l392 700h34q33 0 41 -40l83 -404h1v-2l52 -254h-72zM198 256h261l-68 348h-1zM495 933h84l-126 -152h-68z" />
    <glyph glyph-name="Acircumflex" unicode="&#xc2;" horiz-adv-x="647" 
d="M472 194h-308l-106 -194h-80l392 700h34q33 0 41 -40l83 -404h1v-2l52 -254h-72zM198 256h261l-68 348h-1zM418 943h55l96 -162h-65l-64 112l-104 -112h-71z" />
    <glyph glyph-name="Atilde" unicode="&#xc3;" horiz-adv-x="647" 
d="M472 194h-308l-106 -194h-80l392 700h34q33 0 41 -40l83 -404h1v-2l52 -254h-72zM198 256h261l-68 348h-1zM444.5 783.5q-15.5 10.5 -32.5 29.5q-13 14 -21.5 20.5t-19.5 6.5h-10q-17 0 -29.5 -13.5t-17.5 -37.5h-56q11 48 39 74.5t68 26.5h10q24 0 40 -11t34 -31
q12 -13 19.5 -19t16.5 -6h10q15 0 27 13.5t18 37.5h56q-11 -48 -38 -74.5t-66 -26.5h-10q-22 0 -37.5 10.5z" />
    <glyph glyph-name="Adieresis" unicode="&#xc4;" horiz-adv-x="647" 
d="M472 194h-308l-106 -194h-80l392 700h34q33 0 41 -40l83 -404h1v-2l52 -254h-72zM198 256h261l-68 348h-1zM287 792q-11 11 -11 28q0 26 16.5 42.5t42.5 16.5q19 0 30 -11t11 -28q0 -26 -16.5 -42.5t-42.5 -16.5q-19 0 -30 11zM486 792q-11 11 -11 28q0 26 16.5 42.5
t42.5 16.5q19 0 30 -11t11 -28q0 -26 -16.5 -42.5t-42.5 -16.5q-19 0 -30 11z" />
    <glyph glyph-name="Aring" unicode="&#xc5;" horiz-adv-x="647" 
d="M472 194h-308l-106 -194h-80l392 700h34q33 0 41 -40l83 -404h1v-2l52 -254h-72zM198 256h261l-68 348h-1zM346.5 766.5q-25.5 23.5 -25.5 62.5q0 54 34 87t90 33q41 0 66.5 -23.5t25.5 -62.5q0 -54 -34 -87t-90 -33q-41 0 -66.5 23.5zM467.5 809.5q18.5 18.5 18.5 48.5
q0 19 -13 31t-34 12q-30 0 -48.5 -18.5t-18.5 -48.5q0 -19 13 -31t34 -12q30 0 48.5 18.5z" />
    <glyph glyph-name="AE" unicode="&#xc6;" horiz-adv-x="926" 
d="M470 700h485l-11 -64h-384l-43 -246h344l-12 -64h-344l-46 -262h384l-11 -64h-392q-26 0 -40 13t-14 37q0 10 1 16l22 128h-228l-140 -194h-77zM420 256l62 352h-1l-255 -352h194z" />
    <glyph glyph-name="Ccedilla" unicode="&#xc7;" horiz-adv-x="660" 
d="M585 484q3 20 3 36q0 56 -32.5 89t-89.5 33h-106q-74 0 -124 -49.5t-66 -138.5l-37 -208q-4 -23 -4 -48q0 -65 33 -102.5t91 -37.5h108q67 0 117.5 48t64.5 126h72q-13 -71 -49 -125.5t-89.5 -84.5t-116.5 -30h-34l-29 -46h3q36 0 56.5 -16.5t20.5 -45.5q0 -9 -1 -14
l-2 -11q-7 -39 -36.5 -60.5t-76.5 -21.5h-61l8 48h53q23 0 38 9t18 25l2 11q3 15 -8 24.5t-31 9.5h-47l8 44l27 44h-16q-92 0 -145 53t-53 143q0 33 5 58l37 208q21 120 91 187t174 67h106q90 0 142 -48t52 -129q0 -26 -4 -47h-72z" />
    <glyph glyph-name="Egrave" unicode="&#xc8;" horiz-adv-x="600" 
d="M61 13.5q-14 13.5 -14 37.5q0 10 1 15l112 634h469l-11 -64h-395l-44 -246h365l-11 -64h-365l-46 -262h395l-12 -64h-404q-26 0 -40 13.5zM309 933h80l56 -152h-64z" />
    <glyph glyph-name="Eacute" unicode="&#xc9;" horiz-adv-x="600" 
d="M61 13.5q-14 13.5 -14 37.5q0 10 1 15l112 634h469l-11 -64h-395l-44 -246h365l-11 -64h-365l-46 -262h395l-12 -64h-404q-26 0 -40 13.5zM490 933h84l-126 -152h-68z" />
    <glyph glyph-name="Ecircumflex" unicode="&#xca;" horiz-adv-x="600" 
d="M61 13.5q-14 13.5 -14 37.5q0 10 1 15l112 634h469l-11 -64h-395l-44 -246h365l-11 -64h-365l-46 -262h395l-12 -64h-404q-26 0 -40 13.5zM413 943h55l96 -162h-65l-64 112l-104 -112h-71z" />
    <glyph glyph-name="Edieresis" unicode="&#xcb;" horiz-adv-x="600" 
d="M61 13.5q-14 13.5 -14 37.5q0 10 1 15l112 634h469l-11 -64h-395l-44 -246h365l-11 -64h-365l-46 -262h395l-12 -64h-404q-26 0 -40 13.5zM282 792q-11 11 -11 28q0 26 16.5 42.5t42.5 16.5q19 0 30 -11t11 -28q0 -26 -16.5 -42.5t-42.5 -16.5q-19 0 -30 11zM481 792
q-11 11 -11 28q0 26 16.5 42.5t42.5 16.5q19 0 30 -11t11 -28q0 -26 -16.5 -42.5t-42.5 -16.5q-19 0 -30 11z" />
    <glyph glyph-name="Igrave" unicode="&#xcc;" horiz-adv-x="254" 
d="M169 700h74l-123 -700h-74zM117 933h80l56 -152h-64z" />
    <glyph glyph-name="Iacute" unicode="&#xcd;" horiz-adv-x="254" 
d="M169 700h74l-123 -700h-74zM298 933h84l-126 -152h-68z" />
    <glyph glyph-name="Icircumflex" unicode="&#xce;" horiz-adv-x="254" 
d="M169 700h74l-123 -700h-74zM221 943h55l96 -162h-65l-64 112l-104 -112h-71z" />
    <glyph glyph-name="Idieresis" unicode="&#xcf;" horiz-adv-x="254" 
d="M169 700h74l-123 -700h-74zM90 792q-11 11 -11 28q0 26 16.5 42.5t42.5 16.5q19 0 30 -11t11 -28q0 -26 -16.5 -42.5t-42.5 -16.5q-19 0 -30 11zM289 792q-11 11 -11 28q0 26 16.5 42.5t42.5 16.5q19 0 30 -11t11 -28q0 -26 -16.5 -42.5t-42.5 -16.5q-19 0 -30 11z" />
    <glyph glyph-name="Eth" unicode="&#xd0;" horiz-adv-x="725" 
d="M655 650q57 -50 57 -134q0 -25 -4 -46l-39 -220q-44 -250 -279 -250h-238q-27 0 -41 13t-14 37q0 10 1 15l43 246h-104l11 66h105l57 323h290q98 0 155 -50zM637 509q0 59 -37 92t-104 33h-224l-45 -257h201l-11 -66h-202l-43 -245h218q85 0 137 46.5t68 137.5l38 220
q4 28 4 39z" />
    <glyph glyph-name="Ntilde" unicode="&#xd1;" horiz-adv-x="690" 
d="M159 700h66l290 -584l102 584h72l-123 -700h-66l-290 580l-102 -580h-72zM465.5 783.5q-15.5 10.5 -32.5 29.5q-13 14 -21.5 20.5t-19.5 6.5h-10q-17 0 -29.5 -13.5t-17.5 -37.5h-56q11 48 39 74.5t68 26.5h10q24 0 40 -11t34 -31q12 -13 19.5 -19t16.5 -6h10
q15 0 27 13.5t18 37.5h56q-11 -48 -38 -74.5t-66 -26.5h-10q-22 0 -37.5 10.5z" />
    <glyph glyph-name="Ograve" unicode="&#xd2;" horiz-adv-x="696" 
d="M109.5 45.5q-55.5 53.5 -55.5 144.5q0 21 5 53l38 214q20 118 90.5 184.5t176.5 66.5h106q97 0 152.5 -53t55.5 -143q0 -23 -5 -55l-38 -214q-21 -120 -91 -185.5t-177 -65.5h-107q-95 0 -150.5 53.5zM365 58q76 0 128 49t68 136l38 214q4 21 4 45q0 65 -36 102.5
t-99 37.5h-102q-76 0 -127.5 -49t-67.5 -136l-38 -214q-4 -21 -4 -45q0 -65 35.5 -102.5t97.5 -37.5h103zM339 933h80l56 -152h-64z" />
    <glyph glyph-name="Oacute" unicode="&#xd3;" horiz-adv-x="696" 
d="M109.5 45.5q-55.5 53.5 -55.5 144.5q0 21 5 53l38 214q20 118 90.5 184.5t176.5 66.5h106q97 0 152.5 -53t55.5 -143q0 -23 -5 -55l-38 -214q-21 -120 -91 -185.5t-177 -65.5h-107q-95 0 -150.5 53.5zM365 58q76 0 128 49t68 136l38 214q4 21 4 45q0 65 -36 102.5
t-99 37.5h-102q-76 0 -127.5 -49t-67.5 -136l-38 -214q-4 -21 -4 -45q0 -65 35.5 -102.5t97.5 -37.5h103zM520 933h84l-126 -152h-68z" />
    <glyph glyph-name="Ocircumflex" unicode="&#xd4;" horiz-adv-x="696" 
d="M109.5 45.5q-55.5 53.5 -55.5 144.5q0 21 5 53l38 214q20 118 90.5 184.5t176.5 66.5h106q97 0 152.5 -53t55.5 -143q0 -23 -5 -55l-38 -214q-21 -120 -91 -185.5t-177 -65.5h-107q-95 0 -150.5 53.5zM365 58q76 0 128 49t68 136l38 214q4 21 4 45q0 65 -36 102.5
t-99 37.5h-102q-76 0 -127.5 -49t-67.5 -136l-38 -214q-4 -21 -4 -45q0 -65 35.5 -102.5t97.5 -37.5h103zM443 943h55l96 -162h-65l-64 112l-104 -112h-71z" />
    <glyph glyph-name="Otilde" unicode="&#xd5;" horiz-adv-x="696" 
d="M109.5 45.5q-55.5 53.5 -55.5 144.5q0 21 5 53l38 214q20 118 90.5 184.5t176.5 66.5h106q97 0 152.5 -53t55.5 -143q0 -23 -5 -55l-38 -214q-21 -120 -91 -185.5t-177 -65.5h-107q-95 0 -150.5 53.5zM365 58q76 0 128 49t68 136l38 214q4 21 4 45q0 65 -36 102.5
t-99 37.5h-102q-76 0 -127.5 -49t-67.5 -136l-38 -214q-4 -21 -4 -45q0 -65 35.5 -102.5t97.5 -37.5h103zM469.5 783.5q-15.5 10.5 -32.5 29.5q-13 14 -21.5 20.5t-19.5 6.5h-10q-17 0 -29.5 -13.5t-17.5 -37.5h-56q11 48 39 74.5t68 26.5h10q24 0 40 -11t34 -31
q12 -13 19.5 -19t16.5 -6h10q15 0 27 13.5t18 37.5h56q-11 -48 -38 -74.5t-66 -26.5h-10q-22 0 -37.5 10.5z" />
    <glyph glyph-name="Odieresis" unicode="&#xd6;" horiz-adv-x="696" 
d="M109.5 45.5q-55.5 53.5 -55.5 144.5q0 21 5 53l38 214q20 118 90.5 184.5t176.5 66.5h106q97 0 152.5 -53t55.5 -143q0 -23 -5 -55l-38 -214q-21 -120 -91 -185.5t-177 -65.5h-107q-95 0 -150.5 53.5zM365 58q76 0 128 49t68 136l38 214q4 21 4 45q0 65 -36 102.5
t-99 37.5h-102q-76 0 -127.5 -49t-67.5 -136l-38 -214q-4 -21 -4 -45q0 -65 35.5 -102.5t97.5 -37.5h103zM312 792q-11 11 -11 28q0 26 16.5 42.5t42.5 16.5q19 0 30 -11t11 -28q0 -26 -16.5 -42.5t-42.5 -16.5q-19 0 -30 11zM511 792q-11 11 -11 28q0 26 16.5 42.5
t42.5 16.5q19 0 30 -11t11 -28q0 -26 -16.5 -42.5t-42.5 -16.5q-19 0 -30 11z" />
    <glyph glyph-name="multiply" unicode="&#xd7;" horiz-adv-x="523" 
d="M40 153l190 162l-134 164l51 43l134 -165l191 165l35 -43l-191 -165l134 -161l-51 -43l-133 163l-191 -163z" />
    <glyph glyph-name="Oslash" unicode="&#xd8;" horiz-adv-x="696" 
d="M659.5 603q18.5 -40 18.5 -91q0 -23 -5 -55l-38 -214q-21 -120 -91 -185.5t-177 -65.5h-107q-51 0 -93 17l-36 -54h-67l55 82q-32 26 -48.5 65t-16.5 87q0 22 5 54l38 214q20 118 90.5 184.5t176.5 66.5h106q47 0 87 -14l28 43h67l-46 -68q35 -26 53.5 -66zM129 198
q0 -61 32 -98l356 535q-21 7 -49 7h-102q-76 0 -127.5 -49t-67.5 -136l-38 -214q-4 -21 -4 -45zM603 503q0 66 -38 104l-359 -539q24 -10 56 -10h103q76 0 128 49t68 136l38 214q4 21 4 46z" />
    <glyph glyph-name="Ugrave" unicode="&#xd9;" horiz-adv-x="692" 
d="M118 41q-51 49 -51 132q0 26 4 49l84 478h74l-84 -480q-4 -28 -4 -39q0 -57 31.5 -90t85.5 -33h108q67 0 112 42.5t59 119.5l84 480h74l-84 -478q-20 -110 -83.5 -170t-161.5 -60h-108q-89 0 -140 49zM336 933h80l56 -152h-64z" />
    <glyph glyph-name="Uacute" unicode="&#xda;" horiz-adv-x="692" 
d="M118 41q-51 49 -51 132q0 26 4 49l84 478h74l-84 -480q-4 -28 -4 -39q0 -57 31.5 -90t85.5 -33h108q67 0 112 42.5t59 119.5l84 480h74l-84 -478q-20 -110 -83.5 -170t-161.5 -60h-108q-89 0 -140 49zM517 933h84l-126 -152h-68z" />
    <glyph glyph-name="Ucircumflex" unicode="&#xdb;" horiz-adv-x="692" 
d="M118 41q-51 49 -51 132q0 26 4 49l84 478h74l-84 -480q-4 -28 -4 -39q0 -57 31.5 -90t85.5 -33h108q67 0 112 42.5t59 119.5l84 480h74l-84 -478q-20 -110 -83.5 -170t-161.5 -60h-108q-89 0 -140 49zM440 943h55l96 -162h-65l-64 112l-104 -112h-71z" />
    <glyph glyph-name="Udieresis" unicode="&#xdc;" horiz-adv-x="692" 
d="M118 41q-51 49 -51 132q0 26 4 49l84 478h74l-84 -480q-4 -28 -4 -39q0 -57 31.5 -90t85.5 -33h108q67 0 112 42.5t59 119.5l84 480h74l-84 -478q-20 -110 -83.5 -170t-161.5 -60h-108q-89 0 -140 49zM309 792q-11 11 -11 28q0 26 16.5 42.5t42.5 16.5q19 0 30 -11
t11 -28q0 -26 -16.5 -42.5t-42.5 -16.5q-19 0 -30 11zM508 792q-11 11 -11 28q0 26 16.5 42.5t42.5 16.5q19 0 30 -11t11 -28q0 -26 -16.5 -42.5t-42.5 -16.5q-19 0 -30 11z" />
    <glyph glyph-name="Yacute" unicode="&#xdd;" horiz-adv-x="622" 
d="M277 269l-182 431h75l151 -364l279 364h85l-334 -431l-47 -269h-74zM482 933h84l-126 -152h-68z" />
    <glyph glyph-name="Thorn" unicode="&#xde;" horiz-adv-x="638" 
d="M581.5 539.5q42.5 -34.5 42.5 -93.5q0 -15 -3 -30l-18 -103q-14 -82 -70.5 -128t-143.5 -46h-254l-25 -139h-74l101 574l22 126h74l-22 -126h254q74 0 116.5 -34.5zM549 435q0 33 -23 53t-63 20h-263l-54 -303h241q58 0 95.5 29t47.5 81l18 103q1 6 1 17z" />
    <glyph glyph-name="germandbls" unicode="&#xdf;" horiz-adv-x="673" 
d="M284 24.5q-39 32.5 -39 87.5q0 14 3 29h70q-2 -12 -2 -18q0 -31 20 -49t55 -18h51q41 0 69 20.5t33 53.5l5 30q1 4 1 11q0 23 -16 42.5t-48 45.5q-37 30 -56.5 55t-19.5 59q0 10 1 15l3 20q10 53 46 82t97 33q2 9 2 26q0 43 -28 67t-78 24h-80q-63 0 -104.5 -35
t-52.5 -97l-90 -508h-72l72 406h-86l11 64h86l7 38q17 92 77.5 144t151.5 52h80q79 0 127.5 -41t48.5 -110q0 -15 -3 -32l-9 -54h-36q-42 0 -66.5 -15t-28.5 -44l-3 -20q-3 -22 11 -39.5t47 -44.5q40 -31 61 -58t21 -65q0 -7 -2 -21l-5 -30q-11 -65 -57 -101.5t-117 -36.5
h-51q-68 0 -107 32.5z" />
    <glyph glyph-name="agrave" unicode="&#xe0;" horiz-adv-x="556" 
d="M78 23.5q-41 31.5 -41 84.5q0 8 2 24l6 33q12 66 58.5 102t118.5 36h64q33 0 72.5 -10.5t60.5 -26.5l14 83q2 14 2 20q0 35 -21.5 55t-58.5 20h-80q-43 0 -72.5 -20t-35.5 -53h-72q11 61 60.5 98.5t119.5 37.5h80q70 0 110.5 -34t40.5 -93q0 -14 -3 -31l-61 -349h-68
l12 70q-30 -37 -66 -57.5t-75 -20.5h-60q-66 0 -107 31.5zM247 55q47 0 89.5 29t63.5 77l7 37q-17 19 -50.5 30.5t-70.5 11.5h-64q-43 0 -70.5 -20t-34.5 -56l-6 -32q-2 -12 -2 -16q0 -28 20.5 -44.5t55.5 -16.5h62zM238 732h80l56 -152h-64z" />
    <glyph glyph-name="aacute" unicode="&#xe1;" horiz-adv-x="556" 
d="M78 23.5q-41 31.5 -41 84.5q0 8 2 24l6 33q12 66 58.5 102t118.5 36h64q33 0 72.5 -10.5t60.5 -26.5l14 83q2 14 2 20q0 35 -21.5 55t-58.5 20h-80q-43 0 -72.5 -20t-35.5 -53h-72q11 61 60.5 98.5t119.5 37.5h80q70 0 110.5 -34t40.5 -93q0 -14 -3 -31l-61 -349h-68
l12 70q-30 -37 -66 -57.5t-75 -20.5h-60q-66 0 -107 31.5zM247 55q47 0 89.5 29t63.5 77l7 37q-17 19 -50.5 30.5t-70.5 11.5h-64q-43 0 -70.5 -20t-34.5 -56l-6 -32q-2 -12 -2 -16q0 -28 20.5 -44.5t55.5 -16.5h62zM419 732h84l-126 -152h-68z" />
    <glyph glyph-name="acircumflex" unicode="&#xe2;" horiz-adv-x="556" 
d="M78 23.5q-41 31.5 -41 84.5q0 8 2 24l6 33q12 66 58.5 102t118.5 36h64q33 0 72.5 -10.5t60.5 -26.5l14 83q2 14 2 20q0 35 -21.5 55t-58.5 20h-80q-43 0 -72.5 -20t-35.5 -53h-72q11 61 60.5 98.5t119.5 37.5h80q70 0 110.5 -34t40.5 -93q0 -14 -3 -31l-61 -349h-68
l12 70q-30 -37 -66 -57.5t-75 -20.5h-60q-66 0 -107 31.5zM247 55q47 0 89.5 29t63.5 77l7 37q-17 19 -50.5 30.5t-70.5 11.5h-64q-43 0 -70.5 -20t-34.5 -56l-6 -32q-2 -12 -2 -16q0 -28 20.5 -44.5t55.5 -16.5h62zM342 742h55l96 -162h-65l-64 112l-104 -112h-71z" />
    <glyph glyph-name="atilde" unicode="&#xe3;" horiz-adv-x="556" 
d="M78 23.5q-41 31.5 -41 84.5q0 8 2 24l6 33q12 66 58.5 102t118.5 36h64q33 0 72.5 -10.5t60.5 -26.5l14 83q2 14 2 20q0 35 -21.5 55t-58.5 20h-80q-43 0 -72.5 -20t-35.5 -53h-72q11 61 60.5 98.5t119.5 37.5h80q70 0 110.5 -34t40.5 -93q0 -14 -3 -31l-61 -349h-68
l12 70q-30 -37 -66 -57.5t-75 -20.5h-60q-66 0 -107 31.5zM247 55q47 0 89.5 29t63.5 77l7 37q-17 19 -50.5 30.5t-70.5 11.5h-64q-43 0 -70.5 -20t-34.5 -56l-6 -32q-2 -12 -2 -16q0 -28 20.5 -44.5t55.5 -16.5h62zM368.5 582.5q-15.5 10.5 -32.5 29.5q-13 14 -21.5 20.5
t-19.5 6.5h-10q-17 0 -29.5 -13.5t-17.5 -37.5h-56q11 48 39 74.5t68 26.5h10q24 0 40 -11t34 -31q12 -13 19.5 -19t16.5 -6h10q15 0 27 13.5t18 37.5h56q-11 -48 -38 -74.5t-66 -26.5h-10q-22 0 -37.5 10.5z" />
    <glyph glyph-name="adieresis" unicode="&#xe4;" horiz-adv-x="556" 
d="M78 23.5q-41 31.5 -41 84.5q0 8 2 24l6 33q12 66 58.5 102t118.5 36h64q33 0 72.5 -10.5t60.5 -26.5l14 83q2 14 2 20q0 35 -21.5 55t-58.5 20h-80q-43 0 -72.5 -20t-35.5 -53h-72q11 61 60.5 98.5t119.5 37.5h80q70 0 110.5 -34t40.5 -93q0 -14 -3 -31l-61 -349h-68
l12 70q-30 -37 -66 -57.5t-75 -20.5h-60q-66 0 -107 31.5zM247 55q47 0 89.5 29t63.5 77l7 37q-17 19 -50.5 30.5t-70.5 11.5h-64q-43 0 -70.5 -20t-34.5 -56l-6 -32q-2 -12 -2 -16q0 -28 20.5 -44.5t55.5 -16.5h62zM211 591q-11 11 -11 28q0 26 16.5 42.5t42.5 16.5
q19 0 30 -11t11 -28q0 -26 -16.5 -42.5t-42.5 -16.5q-19 0 -30 11zM410 591q-11 11 -11 28q0 26 16.5 42.5t42.5 16.5q19 0 30 -11t11 -28q0 -26 -16.5 -42.5t-42.5 -16.5q-19 0 -30 11z" />
    <glyph glyph-name="aring" unicode="&#xe5;" horiz-adv-x="556" 
d="M78 23.5q-41 31.5 -41 84.5q0 8 2 24l6 33q12 66 58.5 102t118.5 36h64q33 0 72.5 -10.5t60.5 -26.5l14 83q2 14 2 20q0 35 -21.5 55t-58.5 20h-80q-43 0 -72.5 -20t-35.5 -53h-72q11 61 60.5 98.5t119.5 37.5h80q70 0 110.5 -34t40.5 -93q0 -14 -3 -31l-61 -349h-68
l12 70q-30 -37 -66 -57.5t-75 -20.5h-60q-66 0 -107 31.5zM247 55q47 0 89.5 29t63.5 77l7 37q-17 19 -50.5 30.5t-70.5 11.5h-64q-43 0 -70.5 -20t-34.5 -56l-6 -32q-2 -12 -2 -16q0 -28 20.5 -44.5t55.5 -16.5h62zM270.5 565.5q-25.5 23.5 -25.5 62.5q0 54 34 87t90 33
q41 0 66.5 -23.5t25.5 -62.5q0 -54 -34 -87t-90 -33q-41 0 -66.5 23.5zM391.5 608.5q18.5 18.5 18.5 48.5q0 19 -13 31t-34 12q-30 0 -48.5 -18.5t-18.5 -48.5q0 -19 13 -31t34 -12q30 0 48.5 18.5z" />
    <glyph glyph-name="ae" unicode="&#xe6;" horiz-adv-x="908" 
d="M75.5 23.5q-37.5 31.5 -37.5 84.5q0 8 2 26l5 30q10 64 62.5 102t127.5 38h64q32 0 66 -10.5t56 -27.5l14 83q2 12 2 19q0 34 -21.5 54.5t-58.5 20.5h-80q-43 0 -73.5 -20t-36.5 -52h-72q11 61 61 98.5t121 37.5h80q47 0 84 -20t50 -53h1q28 34 66 53.5t80 19.5h78
q71 0 114 -40.5t43 -108.5q0 -17 -3 -37l-15 -88h-368l-11 -62q-2 -9 -2 -26q0 -42 25 -65.5t70 -23.5h72q50 0 85 27.5t43 73.5h70q-13 -75 -66 -120t-132 -45h-72q-56 0 -95.5 22.5t-53.5 62.5h-1q-79 -85 -183 -85h-59q-64 0 -101.5 31.5zM794 295l4 26q2 10 2 29
q0 43 -21.5 68t-62.5 25h-78q-51 0 -88 -34t-48 -93l-4 -21h296zM250 56q47 0 89 28.5t63 76.5l7 37q-17 19 -50.5 30.5t-70.5 11.5h-64q-43 0 -72 -20t-35 -56l-5 -30q-1 -5 -1 -14q0 -29 21 -46.5t56 -17.5h62z" />
    <glyph glyph-name="ccedilla" unicode="&#xe7;" horiz-adv-x="536" 
d="M438 351q1 6 1 17q0 34 -23 54.5t-63 20.5h-82q-51 0 -86 -33.5t-45 -93.5l-26 -144q-3 -15 -3 -27q0 -41 24.5 -65t67.5 -24h82q49 0 82 32t44 89h70q-16 -87 -68 -136t-128 -49h-30l-29 -46h3q36 0 56.5 -16.5t20.5 -45.5q0 -9 -1 -14l-2 -11q-7 -39 -36.5 -60.5
t-76.5 -21.5h-61l8 48h53q23 0 38 9t18 25l2 11q3 15 -8 24.5t-31 9.5h-47l8 44l27 44q-74 1 -116 39.5t-42 103.5q0 18 3 37l26 144q17 90 70.5 140.5t132.5 50.5h82q73 0 115 -34.5t42 -93.5q0 -18 -2 -28h-70z" />
    <glyph glyph-name="egrave" unicode="&#xe8;" horiz-adv-x="552" 
d="M84.5 31.5q-44.5 39.5 -44.5 105.5q0 18 3 36l25 143q16 90 71 140.5t137 50.5h82q71 0 115 -41t44 -109q0 -18 -3 -36l-15 -88h-374l-10 -60q-2 -9 -2 -26q0 -42 25 -66.5t69 -24.5h76q53 0 87.5 27t42.5 74h70q-13 -78 -66 -121.5t-134 -43.5h-76q-78 0 -122.5 39.5z
M437 295l5 26q3 15 3 30q0 41 -23.5 66.5t-63.5 25.5h-82q-53 0 -89 -33.5t-47 -93.5l-4 -21h301zM230 732h80l56 -152h-64z" />
    <glyph glyph-name="eacute" unicode="&#xe9;" horiz-adv-x="552" 
d="M84.5 31.5q-44.5 39.5 -44.5 105.5q0 18 3 36l25 143q16 90 71 140.5t137 50.5h82q71 0 115 -41t44 -109q0 -18 -3 -36l-15 -88h-374l-10 -60q-2 -9 -2 -26q0 -42 25 -66.5t69 -24.5h76q53 0 87.5 27t42.5 74h70q-13 -78 -66 -121.5t-134 -43.5h-76q-78 0 -122.5 39.5z
M437 295l5 26q3 15 3 30q0 41 -23.5 66.5t-63.5 25.5h-82q-53 0 -89 -33.5t-47 -93.5l-4 -21h301zM411 732h84l-126 -152h-68z" />
    <glyph glyph-name="ecircumflex" unicode="&#xea;" horiz-adv-x="552" 
d="M84.5 31.5q-44.5 39.5 -44.5 105.5q0 18 3 36l25 143q16 90 71 140.5t137 50.5h82q71 0 115 -41t44 -109q0 -18 -3 -36l-15 -88h-374l-10 -60q-2 -9 -2 -26q0 -42 25 -66.5t69 -24.5h76q53 0 87.5 27t42.5 74h70q-13 -78 -66 -121.5t-134 -43.5h-76q-78 0 -122.5 39.5z
M437 295l5 26q3 15 3 30q0 41 -23.5 66.5t-63.5 25.5h-82q-53 0 -89 -33.5t-47 -93.5l-4 -21h301zM334 742h55l96 -162h-65l-64 112l-104 -112h-71z" />
    <glyph glyph-name="edieresis" unicode="&#xeb;" horiz-adv-x="552" 
d="M84.5 31.5q-44.5 39.5 -44.5 105.5q0 18 3 36l25 143q16 90 71 140.5t137 50.5h82q71 0 115 -41t44 -109q0 -18 -3 -36l-15 -88h-374l-10 -60q-2 -9 -2 -26q0 -42 25 -66.5t69 -24.5h76q53 0 87.5 27t42.5 74h70q-13 -78 -66 -121.5t-134 -43.5h-76q-78 0 -122.5 39.5z
M437 295l5 26q3 15 3 30q0 41 -23.5 66.5t-63.5 25.5h-82q-53 0 -89 -33.5t-47 -93.5l-4 -21h301zM203 591q-11 11 -11 28q0 26 16.5 42.5t42.5 16.5q19 0 30 -11t11 -28q0 -26 -16.5 -42.5t-42.5 -16.5q-19 0 -30 11zM402 591q-11 11 -11 28q0 26 16.5 42.5t42.5 16.5
q19 0 30 -11t11 -28q0 -26 -16.5 -42.5t-42.5 -16.5q-19 0 -30 11z" />
    <glyph glyph-name="igrave" unicode="&#xec;" horiz-adv-x="236" 
d="M126 499h72l-88 -499h-72zM81 761h80l56 -152h-64z" />
    <glyph glyph-name="iacute" unicode="&#xed;" horiz-adv-x="236" 
d="M126 499h72l-88 -499h-72zM248 761h84l-126 -152h-68z" />
    <glyph glyph-name="icircumflex" unicode="&#xee;" horiz-adv-x="236" 
d="M126 499h72l-88 -499h-72zM177 742h55l96 -162h-65l-64 112l-104 -112h-71z" />
    <glyph glyph-name="idieresis" unicode="&#xef;" horiz-adv-x="236" 
d="M126 499h72l-88 -499h-72zM46 591q-11 11 -11 28q0 26 16.5 42.5t42.5 16.5q19 0 30 -11t11 -28q0 -26 -16.5 -42.5t-42.5 -16.5q-19 0 -30 11zM245 591q-11 11 -11 28q0 26 16.5 42.5t42.5 16.5q19 0 30 -11t11 -28q0 -26 -16.5 -42.5t-42.5 -16.5q-19 0 -30 11z" />
    <glyph glyph-name="eth" unicode="&#xf0;" horiz-adv-x="587" 
d="M546 630q22 -56 22 -137q0 -65 -13 -140l-23 -132q-19 -108 -83 -168.5t-160 -60.5h-72q-83 0 -131.5 45t-48.5 120q0 24 4 44l18 100q17 98 78 156t150 58h72q42 0 82 -22.5t56 -58.5h1q3 32 3 58q0 65 -17.5 108t-54.5 68l-72 -75h-72l94 99q-47 14 -109 14h-22l12 64
h22q89 0 149 -25l50 53h72l-75 -78q46 -34 68 -90zM474 319q0 58 -32.5 95t-88.5 37h-66q-59 0 -101.5 -41t-54.5 -108l-18 -103q-3 -16 -3 -33q0 -51 29.5 -80.5t80.5 -29.5h68q64 0 111 44t60 117l12 67q3 18 3 35z" />
    <glyph glyph-name="ntilde" unicode="&#xf1;" horiz-adv-x="572" 
d="M120 499h70l-13 -74q31 39 68.5 60.5t74.5 21.5h64q63 0 99.5 -35.5t36.5 -96.5q0 -18 -3 -38l-59 -337h-72l60 339q2 9 2 27q0 36 -18 56.5t-50 20.5h-64q-47 0 -92 -37t-65 -95l-55 -311h-72zM379.5 582.5q-15.5 10.5 -32.5 29.5q-13 14 -21.5 20.5t-19.5 6.5h-10
q-17 0 -29.5 -13.5t-17.5 -37.5h-56q11 48 39 74.5t68 26.5h10q24 0 40 -11t34 -31q12 -13 19.5 -19t16.5 -6h10q15 0 27 13.5t18 37.5h56q-11 -48 -38 -74.5t-66 -26.5h-10q-22 0 -37.5 10.5z" />
    <glyph glyph-name="ograve" unicode="&#xf2;" horiz-adv-x="570" 
d="M85 32.5q-45 40.5 -45 109.5q0 13 4 39l24 137q16 89 71.5 139t138.5 50h82q79 0 124.5 -40.5t45.5 -109.5q0 -13 -4 -39l-24 -137q-16 -89 -72 -139t-140 -50h-82q-78 0 -123 40.5zM290 56q53 0 91.5 34.5t48.5 90.5l24 137q3 15 3 28q0 44 -26 70.5t-71 26.5h-82
q-55 0 -91.5 -33t-46.5 -92l-24 -137q-3 -15 -3 -29q0 -44 25.5 -70t69.5 -26h82zM240 732h80l56 -152h-64z" />
    <glyph glyph-name="oacute" unicode="&#xf3;" horiz-adv-x="570" 
d="M85 32.5q-45 40.5 -45 109.5q0 13 4 39l24 137q16 89 71.5 139t138.5 50h82q79 0 124.5 -40.5t45.5 -109.5q0 -13 -4 -39l-24 -137q-16 -89 -72 -139t-140 -50h-82q-78 0 -123 40.5zM290 56q53 0 91.5 34.5t48.5 90.5l24 137q3 15 3 28q0 44 -26 70.5t-71 26.5h-82
q-55 0 -91.5 -33t-46.5 -92l-24 -137q-3 -15 -3 -29q0 -44 25.5 -70t69.5 -26h82zM421 732h84l-126 -152h-68z" />
    <glyph glyph-name="ocircumflex" unicode="&#xf4;" horiz-adv-x="570" 
d="M85 32.5q-45 40.5 -45 109.5q0 13 4 39l24 137q16 89 71.5 139t138.5 50h82q79 0 124.5 -40.5t45.5 -109.5q0 -13 -4 -39l-24 -137q-16 -89 -72 -139t-140 -50h-82q-78 0 -123 40.5zM290 56q53 0 91.5 34.5t48.5 90.5l24 137q3 15 3 28q0 44 -26 70.5t-71 26.5h-82
q-55 0 -91.5 -33t-46.5 -92l-24 -137q-3 -15 -3 -29q0 -44 25.5 -70t69.5 -26h82zM344 742h55l96 -162h-65l-64 112l-104 -112h-71z" />
    <glyph glyph-name="otilde" unicode="&#xf5;" horiz-adv-x="570" 
d="M85 32.5q-45 40.5 -45 109.5q0 13 4 39l24 137q16 89 71.5 139t138.5 50h82q79 0 124.5 -40.5t45.5 -109.5q0 -13 -4 -39l-24 -137q-16 -89 -72 -139t-140 -50h-82q-78 0 -123 40.5zM290 56q53 0 91.5 34.5t48.5 90.5l24 137q3 15 3 28q0 44 -26 70.5t-71 26.5h-82
q-55 0 -91.5 -33t-46.5 -92l-24 -137q-3 -15 -3 -29q0 -44 25.5 -70t69.5 -26h82zM370.5 582.5q-15.5 10.5 -32.5 29.5q-13 14 -21.5 20.5t-19.5 6.5h-10q-17 0 -29.5 -13.5t-17.5 -37.5h-56q11 48 39 74.5t68 26.5h10q24 0 40 -11t34 -31q12 -13 19.5 -19t16.5 -6h10
q15 0 27 13.5t18 37.5h56q-11 -48 -38 -74.5t-66 -26.5h-10q-22 0 -37.5 10.5z" />
    <glyph glyph-name="odieresis" unicode="&#xf6;" horiz-adv-x="570" 
d="M85 32.5q-45 40.5 -45 109.5q0 13 4 39l24 137q16 89 71.5 139t138.5 50h82q79 0 124.5 -40.5t45.5 -109.5q0 -13 -4 -39l-24 -137q-16 -89 -72 -139t-140 -50h-82q-78 0 -123 40.5zM290 56q53 0 91.5 34.5t48.5 90.5l24 137q3 15 3 28q0 44 -26 70.5t-71 26.5h-82
q-55 0 -91.5 -33t-46.5 -92l-24 -137q-3 -15 -3 -29q0 -44 25.5 -70t69.5 -26h82zM213 591q-11 11 -11 28q0 26 16.5 42.5t42.5 16.5q19 0 30 -11t11 -28q0 -26 -16.5 -42.5t-42.5 -16.5q-19 0 -30 11zM412 591q-11 11 -11 28q0 26 16.5 42.5t42.5 16.5q19 0 30 -11t11 -28
q0 -26 -16.5 -42.5t-42.5 -16.5q-19 0 -30 11z" />
    <glyph glyph-name="divide" unicode="&#xf7;" horiz-adv-x="555" 
d="M274 431q-12 11 -12 30q0 26 18 44.5t44 18.5q20 0 32 -11.5t12 -29.5q0 -26 -18 -44.5t-44 -18.5q-20 0 -32 11zM74 354h443l-11 -62h-443zM221 133q-12 11 -12 30q0 26 18 44.5t44 18.5q20 0 32 -11t12 -30q0 -26 -18 -44.5t-44 -18.5q-20 0 -32 11z" />
    <glyph glyph-name="oslash" unicode="&#xf8;" horiz-adv-x="570" 
d="M516 423.5q14 -29.5 14 -66.5q0 -13 -4 -39l-24 -137q-16 -89 -72 -139t-140 -50h-82q-33 0 -62 8l-25 -35h-70l43 61q-26 20 -40 49.5t-14 66.5q0 13 4 39l24 137q16 89 71.5 139t138.5 50h82q34 0 64 -8l25 36h70l-43 -62q26 -20 40 -49.5zM113 152q0 -41 22 -66
l248 355q-14 2 -23 2h-82q-55 0 -91.5 -33t-46.5 -92l-24 -137q-3 -15 -3 -29zM457 346q0 39 -23 67l-248 -355q14 -2 22 -2h82q53 0 91.5 34.5t48.5 90.5l24 137q3 15 3 28z" />
    <glyph glyph-name="ugrave" unicode="&#xf9;" horiz-adv-x="570" 
d="M89 28q-37 36 -37 97q0 18 3 37l59 337h72l-59 -339q-3 -15 -3 -29q0 -35 18 -55t49 -20h62q48 0 91.5 35.5t66.5 94.5l55 313h72l-88 -499h-70l14 76q-31 -38 -70 -61t-71 -23h-62q-65 0 -102 36zM240 732h80l56 -152h-64z" />
    <glyph glyph-name="uacute" unicode="&#xfa;" horiz-adv-x="570" 
d="M89 28q-37 36 -37 97q0 18 3 37l59 337h72l-59 -339q-3 -15 -3 -29q0 -35 18 -55t49 -20h62q48 0 91.5 35.5t66.5 94.5l55 313h72l-88 -499h-70l14 76q-31 -38 -70 -61t-71 -23h-62q-65 0 -102 36zM421 732h84l-126 -152h-68z" />
    <glyph glyph-name="ucircumflex" unicode="&#xfb;" horiz-adv-x="570" 
d="M89 28q-37 36 -37 97q0 18 3 37l59 337h72l-59 -339q-3 -15 -3 -29q0 -35 18 -55t49 -20h62q48 0 91.5 35.5t66.5 94.5l55 313h72l-88 -499h-70l14 76q-31 -38 -70 -61t-71 -23h-62q-65 0 -102 36zM344 742h55l96 -162h-65l-64 112l-104 -112h-71z" />
    <glyph glyph-name="udieresis" unicode="&#xfc;" horiz-adv-x="570" 
d="M89 28q-37 36 -37 97q0 18 3 37l59 337h72l-59 -339q-3 -15 -3 -29q0 -35 18 -55t49 -20h62q48 0 91.5 35.5t66.5 94.5l55 313h72l-88 -499h-70l14 76q-31 -38 -70 -61t-71 -23h-62q-65 0 -102 36zM213 591q-11 11 -11 28q0 26 16.5 42.5t42.5 16.5q19 0 30 -11t11 -28
q0 -26 -16.5 -42.5t-42.5 -16.5q-19 0 -30 11zM412 591q-11 11 -11 28q0 26 16.5 42.5t42.5 16.5q19 0 30 -11t11 -28q0 -26 -16.5 -42.5t-42.5 -16.5q-19 0 -30 11z" />
    <glyph glyph-name="yacute" unicode="&#xfd;" horiz-adv-x="572" 
d="M62 -171.5q-40 31.5 -40 83.5l1 14h72q-2 -30 18.5 -48.5t54.5 -18.5h78q51 0 86 34.5t46 96.5l17 92q-27 -36 -67 -59t-72 -23h-62q-66 0 -103.5 36t-37.5 97q0 18 3 37l58 329h72l-58 -331q-2 -9 -2 -27q0 -36 18 -56.5t50 -20.5h62q49 0 92 35.5t66 94.5l54 305h72
l-90 -509q-16 -91 -70 -142t-134 -51h-78q-66 0 -106 31.5zM421 732h84l-126 -152h-68z" />
    <glyph glyph-name="thorn" unicode="&#xfe;" horiz-adv-x="578" 
d="M155 700h72l-47 -266q27 33 62 53t65 20h70q75 0 118.5 -39.5t43.5 -107.5q0 -11 -4 -39l-22 -123q-17 -97 -73 -151.5t-137 -54.5h-72q-39 0 -71.5 17.5t-46.5 45.5l-45 -258h-72zM301 56q54 0 91 37.5t49 104.5l22 123q3 15 3 28q0 43 -24.5 68.5t-66.5 25.5h-70
q-43 0 -82 -31.5t-62 -84.5l-26 -150q-3 -55 24.5 -88t75.5 -33h66z" />
    <glyph glyph-name="ydieresis" unicode="&#xff;" horiz-adv-x="572" 
d="M62 -171.5q-40 31.5 -40 83.5l1 14h72q-2 -30 18.5 -48.5t54.5 -18.5h78q51 0 86 34.5t46 96.5l17 92q-27 -36 -67 -59t-72 -23h-62q-66 0 -103.5 36t-37.5 97q0 18 3 37l58 329h72l-58 -331q-2 -9 -2 -27q0 -36 18 -56.5t50 -20.5h62q49 0 92 35.5t66 94.5l54 305h72
l-90 -509q-16 -91 -70 -142t-134 -51h-78q-66 0 -106 31.5zM213 591q-11 11 -11 28q0 26 16.5 42.5t42.5 16.5q19 0 30 -11t11 -28q0 -26 -16.5 -42.5t-42.5 -16.5q-19 0 -30 11zM412 591q-11 11 -11 28q0 26 16.5 42.5t42.5 16.5q19 0 30 -11t11 -28q0 -26 -16.5 -42.5
t-42.5 -16.5q-19 0 -30 11z" />
    <glyph glyph-name="Amacron" unicode="&#x100;" horiz-adv-x="647" 
d="M472 194h-308l-106 -194h-80l392 700h34q33 0 41 -40l83 -404h1v-2l52 -254h-72zM198 256h261l-68 348h-1zM301 843h255l-9 -52h-255z" />
    <glyph glyph-name="amacron" unicode="&#x101;" horiz-adv-x="556" 
d="M78 23.5q-41 31.5 -41 84.5q0 8 2 24l6 33q12 66 58.5 102t118.5 36h64q33 0 72.5 -10.5t60.5 -26.5l14 83q2 14 2 20q0 35 -21.5 55t-58.5 20h-80q-43 0 -72.5 -20t-35.5 -53h-72q11 61 60.5 98.5t119.5 37.5h80q70 0 110.5 -34t40.5 -93q0 -14 -3 -31l-61 -349h-68
l12 70q-30 -37 -66 -57.5t-75 -20.5h-60q-66 0 -107 31.5zM247 55q47 0 89.5 29t63.5 77l7 37q-17 19 -50.5 30.5t-70.5 11.5h-64q-43 0 -70.5 -20t-34.5 -56l-6 -32q-2 -12 -2 -16q0 -28 20.5 -44.5t55.5 -16.5h62zM225 642h255l-9 -52h-255z" />
    <glyph glyph-name="Abreve" unicode="&#x102;" horiz-adv-x="647" 
d="M472 194h-308l-106 -194h-80l392 700h34q33 0 41 -40l83 -404h1v-2l52 -254h-72zM198 256h261l-68 348h-1zM326 803.5q-33 30.5 -33 82.5q0 12 1 18l1 8h58l-1 -8q-1 -5 -1 -13q0 -31 18.5 -49.5t49.5 -18.5h12q39 0 65.5 22t30.5 59l1 8h57l-1 -8q-7 -59 -50 -95
t-106 -36h-12q-57 0 -90 30.5z" />
    <glyph glyph-name="abreve" unicode="&#x103;" horiz-adv-x="556" 
d="M78 23.5q-41 31.5 -41 84.5q0 8 2 24l6 33q12 66 58.5 102t118.5 36h64q33 0 72.5 -10.5t60.5 -26.5l14 83q2 14 2 20q0 35 -21.5 55t-58.5 20h-80q-43 0 -72.5 -20t-35.5 -53h-72q11 61 60.5 98.5t119.5 37.5h80q70 0 110.5 -34t40.5 -93q0 -14 -3 -31l-61 -349h-68
l12 70q-30 -37 -66 -57.5t-75 -20.5h-60q-66 0 -107 31.5zM247 55q47 0 89.5 29t63.5 77l7 37q-17 19 -50.5 30.5t-70.5 11.5h-64q-43 0 -70.5 -20t-34.5 -56l-6 -32q-2 -12 -2 -16q0 -28 20.5 -44.5t55.5 -16.5h62zM250 602.5q-33 30.5 -33 82.5q0 12 1 18l1 8h58l-1 -8
q-1 -5 -1 -13q0 -31 18.5 -49.5t49.5 -18.5h12q39 0 65.5 22t30.5 59l1 8h57l-1 -8q-7 -59 -50 -95t-106 -36h-12q-57 0 -90 30.5z" />
    <glyph glyph-name="Aogonek" unicode="&#x104;" horiz-adv-x="647" 
d="M472 194h-308l-106 -194h-80l392 700h34q33 0 41 -40l83 -404h1v-2l52 -254h-72zM198 256h261l-68 348h-1zM455 -189q-25 20 -25 55q0 14 2 21l2 10q6 30 27.5 59.5t51.5 43.5h68q-33 -16 -55.5 -42.5t-28.5 -56.5l-2 -10q-1 -3 -1 -10q0 -16 10.5 -26t30.5 -10h10
q13 0 29 5.5t30 14.5l-10 -56q-12 -8 -28 -13t-32 -5h-10q-44 0 -69 20z" />
    <glyph glyph-name="aogonek" unicode="&#x105;" horiz-adv-x="556" 
d="M356 -109q-1 -3 -1 -10q0 -16 10.5 -26t30.5 -10h10q13 0 29 5.5t30 14.5l-10 -56q-12 -8 -28 -13t-32 -5h-10q-44 0 -69 20t-25 55q0 14 2 21l2 10q6 30 27.5 59.5t51.5 43.5l12 70q-30 -37 -66 -57.5t-75 -20.5h-60q-66 0 -107 31.5t-41 84.5q0 8 2 24l6 33
q12 66 58.5 102t118.5 36h64q33 0 72.5 -10.5t60.5 -26.5l14 83q2 14 2 20q0 35 -21.5 55t-58.5 20h-80q-43 0 -72.5 -20t-35.5 -53h-72q11 61 60.5 98.5t119.5 37.5h80q70 0 110.5 -34t40.5 -93q0 -14 -3 -31l-61 -349q-33 -16 -55.5 -42.5t-28.5 -56.5zM336.5 84
q42.5 29 63.5 77l7 37q-17 19 -50.5 30.5t-70.5 11.5h-64q-43 0 -70.5 -20t-34.5 -56l-6 -32q-2 -12 -2 -16q0 -28 20.5 -44.5t55.5 -16.5h62q47 0 89.5 29z" />
    <glyph glyph-name="Cacute" unicode="&#x106;" horiz-adv-x="660" 
d="M107 45q-53 53 -53 143q0 33 5 58l37 208q21 120 91 187t174 67h106q90 0 142 -48t52 -129q0 -26 -4 -47h-72q3 20 3 36q0 56 -32.5 89t-89.5 33h-106q-74 0 -124 -49.5t-66 -138.5l-37 -208q-4 -23 -4 -48q0 -65 33 -102.5t91 -37.5h108q67 0 117.5 48t64.5 126h72
q-13 -71 -49 -125.5t-89.5 -84.5t-116.5 -30h-108q-92 0 -145 53zM515 933h84l-126 -152h-68z" />
    <glyph glyph-name="cacute" unicode="&#x107;" horiz-adv-x="536" 
d="M81.5 30.5q-42.5 38.5 -42.5 104.5q0 18 3 37l26 144q17 90 70.5 140.5t132.5 50.5h82q73 0 115 -34.5t42 -93.5q0 -18 -2 -28h-70q1 6 1 17q0 34 -23 54.5t-63 20.5h-82q-51 0 -86 -33.5t-45 -93.5l-26 -144q-3 -15 -3 -27q0 -41 24.5 -65t67.5 -24h82q49 0 82 32t44 89
h70q-16 -87 -68 -136t-128 -49h-85q-76 0 -118.5 38.5zM414 732h84l-126 -152h-68z" />
    <glyph glyph-name="Ccircumflex" unicode="&#x108;" horiz-adv-x="660" 
d="M107 45q-53 53 -53 143q0 33 5 58l37 208q21 120 91 187t174 67h106q90 0 142 -48t52 -129q0 -26 -4 -47h-72q3 20 3 36q0 56 -32.5 89t-89.5 33h-106q-74 0 -124 -49.5t-66 -138.5l-37 -208q-4 -23 -4 -48q0 -65 33 -102.5t91 -37.5h108q67 0 117.5 48t64.5 126h72
q-13 -71 -49 -125.5t-89.5 -84.5t-116.5 -30h-108q-92 0 -145 53zM438 943h55l96 -162h-65l-64 112l-104 -112h-71z" />
    <glyph glyph-name="ccircumflex" unicode="&#x109;" horiz-adv-x="536" 
d="M81.5 30.5q-42.5 38.5 -42.5 104.5q0 18 3 37l26 144q17 90 70.5 140.5t132.5 50.5h82q73 0 115 -34.5t42 -93.5q0 -18 -2 -28h-70q1 6 1 17q0 34 -23 54.5t-63 20.5h-82q-51 0 -86 -33.5t-45 -93.5l-26 -144q-3 -15 -3 -27q0 -41 24.5 -65t67.5 -24h82q49 0 82 32t44 89
h70q-16 -87 -68 -136t-128 -49h-85q-76 0 -118.5 38.5zM337 742h55l96 -162h-65l-64 112l-104 -112h-71z" />
    <glyph glyph-name="Cdotaccent" unicode="&#x10a;" horiz-adv-x="660" 
d="M107 45q-53 53 -53 143q0 33 5 58l37 208q21 120 91 187t174 67h106q90 0 142 -48t52 -129q0 -26 -4 -47h-72q3 20 3 36q0 56 -32.5 89t-89.5 33h-106q-74 0 -124 -49.5t-66 -138.5l-37 -208q-4 -23 -4 -48q0 -65 33 -102.5t91 -37.5h108q67 0 117.5 48t64.5 126h72
q-13 -71 -49 -125.5t-89.5 -84.5t-116.5 -30h-108q-92 0 -145 53zM404.5 792.5q-12.5 11.5 -12.5 31.5q0 29 18 47t47 18q20 0 32.5 -12t12.5 -31q0 -29 -17.5 -47t-46.5 -18q-21 0 -33.5 11.5z" />
    <glyph glyph-name="cdotaccent" unicode="&#x10b;" horiz-adv-x="536" 
d="M81.5 30.5q-42.5 38.5 -42.5 104.5q0 18 3 37l26 144q17 90 70.5 140.5t132.5 50.5h82q73 0 115 -34.5t42 -93.5q0 -18 -2 -28h-70q1 6 1 17q0 34 -23 54.5t-63 20.5h-82q-51 0 -86 -33.5t-45 -93.5l-26 -144q-3 -15 -3 -27q0 -41 24.5 -65t67.5 -24h82q49 0 82 32t44 89
h70q-16 -87 -68 -136t-128 -49h-85q-76 0 -118.5 38.5zM303.5 591.5q-12.5 11.5 -12.5 31.5q0 29 18 47t47 18q20 0 32.5 -12t12.5 -31q0 -29 -17.5 -47t-46.5 -18q-21 0 -33.5 11.5z" />
    <glyph glyph-name="Ccaron" unicode="&#x10c;" horiz-adv-x="660" 
d="M107 45q-53 53 -53 143q0 33 5 58l37 208q21 120 91 187t174 67h106q90 0 142 -48t52 -129q0 -26 -4 -47h-72q3 20 3 36q0 56 -32.5 89t-89.5 33h-106q-74 0 -124 -49.5t-66 -138.5l-37 -208q-4 -23 -4 -48q0 -65 33 -102.5t91 -37.5h108q67 0 117.5 48t64.5 126h72
q-13 -71 -49 -125.5t-89.5 -84.5t-116.5 -30h-108q-92 0 -145 53zM314 943h65l64 -112l104 112h71l-154 -162h-55z" />
    <glyph glyph-name="ccaron" unicode="&#x10d;" horiz-adv-x="536" 
d="M81.5 30.5q-42.5 38.5 -42.5 104.5q0 18 3 37l26 144q17 90 70.5 140.5t132.5 50.5h82q73 0 115 -34.5t42 -93.5q0 -18 -2 -28h-70q1 6 1 17q0 34 -23 54.5t-63 20.5h-82q-51 0 -86 -33.5t-45 -93.5l-26 -144q-3 -15 -3 -27q0 -41 24.5 -65t67.5 -24h82q49 0 82 32t44 89
h70q-16 -87 -68 -136t-128 -49h-85q-76 0 -118.5 38.5zM213 742h65l64 -112l104 112h71l-154 -162h-55z" />
    <glyph glyph-name="Dcaron" unicode="&#x10e;" horiz-adv-x="674" 
d="M60 13q-14 13 -14 37q0 10 1 15l112 635h290q98 0 155 -50t57 -134q0 -25 -4 -46l-39 -220q-44 -250 -279 -250h-238q-27 0 -41 13zM339 66q85 0 137 46.5t68 137.5l38 220q4 28 4 39q0 59 -37 92t-104 33h-224l-100 -568h218zM312 943h65l64 -112l104 112h71l-154 -162
h-55z" />
    <glyph glyph-name="dcaron" unicode="&#x10f;" horiz-adv-x="736" 
d="M81 30q-41 38 -41 107q0 25 4 46l21 120q16 93 72 148.5t137 55.5h74q38 0 69.5 -16.5t47.5 -43.5l44 253h72l-123 -700h-70l13 74q-29 -37 -66.5 -59.5t-70.5 -22.5h-67q-75 0 -116 38zM264 56q32 0 65 20.5t58 53.5t34 68l22 126q2 53 -24.5 86t-72.5 33h-70
q-51 0 -89.5 -38.5t-49.5 -101.5l-21 -120q-3 -19 -3 -35q0 -44 22 -68t64 -24h65zM627 551l17 10q35 20 54 46.5t24 61.5l5 31h72l-5 -31q-9 -55 -37 -94.5t-78 -67.5l-21 -12z" />
    <glyph glyph-name="Dcroat" unicode="&#x110;" horiz-adv-x="725" 
d="M655 650q57 -50 57 -134q0 -25 -4 -46l-39 -220q-44 -250 -279 -250h-238q-27 0 -41 13t-14 37q0 10 1 15l43 246h-104l11 66h105l57 323h290q98 0 155 -50zM637 509q0 59 -37 92t-104 33h-224l-45 -257h201l-11 -66h-202l-43 -245h218q85 0 137 46.5t68 137.5l38 220
q4 28 4 39z" />
    <glyph glyph-name="dcroat" unicode="&#x111;" horiz-adv-x="595" 
d="M633 567h-75l-100 -567h-70l13 74q-29 -37 -66.5 -59.5t-70.5 -22.5h-67q-75 0 -116 38t-41 107q0 25 4 46l21 120q16 93 72 148.5t137 55.5h74q38 0 69.5 -16.5t47.5 -43.5l21 120h-162l11 60h161l13 73h72l-13 -73h76zM418.5 410q-26.5 33 -72.5 33h-70
q-51 0 -89.5 -38.5t-49.5 -101.5l-21 -120q-3 -19 -3 -35q0 -44 22 -68t64 -24h65q32 0 65 20.5t58 53.5t34 68l22 126q2 53 -24.5 86z" />
    <glyph glyph-name="Emacron" unicode="&#x112;" horiz-adv-x="600" 
d="M61 13.5q-14 13.5 -14 37.5q0 10 1 15l112 634h469l-11 -64h-395l-44 -246h365l-11 -64h-365l-46 -262h395l-12 -64h-404q-26 0 -40 13.5zM296 843h255l-9 -52h-255z" />
    <glyph glyph-name="emacron" unicode="&#x113;" horiz-adv-x="552" 
d="M84.5 31.5q-44.5 39.5 -44.5 105.5q0 18 3 36l25 143q16 90 71 140.5t137 50.5h82q71 0 115 -41t44 -109q0 -18 -3 -36l-15 -88h-374l-10 -60q-2 -9 -2 -26q0 -42 25 -66.5t69 -24.5h76q53 0 87.5 27t42.5 74h70q-13 -78 -66 -121.5t-134 -43.5h-76q-78 0 -122.5 39.5z
M437 295l5 26q3 15 3 30q0 41 -23.5 66.5t-63.5 25.5h-82q-53 0 -89 -33.5t-47 -93.5l-4 -21h301zM217 642h255l-9 -52h-255z" />
    <glyph glyph-name="Ebreve" unicode="&#x114;" horiz-adv-x="600" 
d="M61 13.5q-14 13.5 -14 37.5q0 10 1 15l112 634h469l-11 -64h-395l-44 -246h365l-11 -64h-365l-46 -262h395l-12 -64h-404q-26 0 -40 13.5zM321 803.5q-33 30.5 -33 82.5q0 12 1 18l1 8h58l-1 -8q-1 -5 -1 -13q0 -31 18.5 -49.5t49.5 -18.5h12q39 0 65.5 22t30.5 59l1 8
h57l-1 -8q-7 -59 -50 -95t-106 -36h-12q-57 0 -90 30.5z" />
    <glyph glyph-name="ebreve" unicode="&#x115;" horiz-adv-x="552" 
d="M84.5 31.5q-44.5 39.5 -44.5 105.5q0 18 3 36l25 143q16 90 71 140.5t137 50.5h82q71 0 115 -41t44 -109q0 -18 -3 -36l-15 -88h-374l-10 -60q-2 -9 -2 -26q0 -42 25 -66.5t69 -24.5h76q53 0 87.5 27t42.5 74h70q-13 -78 -66 -121.5t-134 -43.5h-76q-78 0 -122.5 39.5z
M437 295l5 26q3 15 3 30q0 41 -23.5 66.5t-63.5 25.5h-82q-53 0 -89 -33.5t-47 -93.5l-4 -21h301zM242 602.5q-33 30.5 -33 82.5q0 12 1 18l1 8h58l-1 -8q-1 -5 -1 -13q0 -31 18.5 -49.5t49.5 -18.5h12q39 0 65.5 22t30.5 59l1 8h57l-1 -8q-7 -59 -50 -95t-106 -36h-12
q-57 0 -90 30.5z" />
    <glyph glyph-name="Edotaccent" unicode="&#x116;" horiz-adv-x="600" 
d="M61 13.5q-14 13.5 -14 37.5q0 10 1 15l112 634h469l-11 -64h-395l-44 -246h365l-11 -64h-365l-46 -262h395l-12 -64h-404q-26 0 -40 13.5zM379.5 792.5q-12.5 11.5 -12.5 31.5q0 29 18 47t47 18q20 0 32.5 -12t12.5 -31q0 -29 -17.5 -47t-46.5 -18q-21 0 -33.5 11.5z" />
    <glyph glyph-name="edotaccent" unicode="&#x117;" horiz-adv-x="552" 
d="M84.5 31.5q-44.5 39.5 -44.5 105.5q0 18 3 36l25 143q16 90 71 140.5t137 50.5h82q71 0 115 -41t44 -109q0 -18 -3 -36l-15 -88h-374l-10 -60q-2 -9 -2 -26q0 -42 25 -66.5t69 -24.5h76q53 0 87.5 27t42.5 74h70q-13 -78 -66 -121.5t-134 -43.5h-76q-78 0 -122.5 39.5z
M437 295l5 26q3 15 3 30q0 41 -23.5 66.5t-63.5 25.5h-82q-53 0 -89 -33.5t-47 -93.5l-4 -21h301zM300.5 591.5q-12.5 11.5 -12.5 31.5q0 29 18 47t47 18q20 0 32.5 -12t12.5 -31q0 -29 -17.5 -47t-46.5 -18q-21 0 -33.5 11.5z" />
    <glyph glyph-name="Eogonek" unicode="&#x118;" horiz-adv-x="600" 
d="M61 13.5q-14 13.5 -14 37.5q0 10 1 15l112 634h469l-11 -64h-395l-44 -246h365l-11 -64h-365l-46 -262h395l-12 -64h-404q-26 0 -40 13.5zM379 -189q-25 20 -25 55q0 14 2 21l2 10q6 30 27.5 59.5t51.5 43.5h68q-33 -16 -55.5 -42.5t-28.5 -56.5l-2 -10q-1 -3 -1 -10
q0 -16 10.5 -26t30.5 -10h10q13 0 29 5.5t30 14.5l-10 -56q-12 -8 -28 -13t-32 -5h-10q-44 0 -69 20z" />
    <glyph glyph-name="eogonek" unicode="&#x119;" horiz-adv-x="552" 
d="M473 466q44 -41 44 -109q0 -18 -3 -36l-15 -88h-374l-10 -60q-2 -9 -2 -26q0 -42 25 -66.5t69 -24.5h76q53 0 87.5 27t42.5 74h70q-11 -64 -48.5 -105t-96.5 -54q-31 -17 -52.5 -42.5t-27.5 -54.5l-2 -10q-1 -3 -1 -10q0 -16 10.5 -26t30.5 -10h10q13 0 29 5.5t30 14.5
l-10 -56q-12 -8 -28 -13t-32 -5h-10q-44 0 -69 20t-25 55q0 14 2 21l2 10q5 27 22.5 53t42.5 42h-53q-78 0 -122.5 39.5t-44.5 105.5q0 18 3 36l25 143q16 90 71 140.5t137 50.5h82q71 0 115 -41zM445 351q0 41 -23.5 66.5t-63.5 25.5h-82q-53 0 -89 -33.5t-47 -93.5l-4 -21
h301l5 26q3 15 3 30z" />
    <glyph glyph-name="Ecaron" unicode="&#x11a;" horiz-adv-x="600" 
d="M61 13.5q-14 13.5 -14 37.5q0 10 1 15l112 634h469l-11 -64h-395l-44 -246h365l-11 -64h-365l-46 -262h395l-12 -64h-404q-26 0 -40 13.5zM289 943h65l64 -112l104 112h71l-154 -162h-55z" />
    <glyph glyph-name="ecaron" unicode="&#x11b;" horiz-adv-x="552" 
d="M84.5 31.5q-44.5 39.5 -44.5 105.5q0 18 3 36l25 143q16 90 71 140.5t137 50.5h82q71 0 115 -41t44 -109q0 -18 -3 -36l-15 -88h-374l-10 -60q-2 -9 -2 -26q0 -42 25 -66.5t69 -24.5h76q53 0 87.5 27t42.5 74h70q-13 -78 -66 -121.5t-134 -43.5h-76q-78 0 -122.5 39.5z
M437 295l5 26q3 15 3 30q0 41 -23.5 66.5t-63.5 25.5h-82q-53 0 -89 -33.5t-47 -93.5l-4 -21h301zM210 742h65l64 -112l104 112h71l-154 -162h-55z" />
    <glyph glyph-name="Gcircumflex" unicode="&#x11c;" horiz-adv-x="684" 
d="M107.5 46q-53.5 54 -53.5 144q0 32 5 56l37 208q21 120 92 187t176 67h106q92 0 145 -48.5t53 -129.5q0 -25 -4 -46h-72q3 20 3 36q0 57 -33.5 89.5t-92.5 32.5h-106q-75 0 -126 -50t-67 -138l-37 -208q-4 -23 -4 -48q0 -65 33.5 -102.5t92.5 -37.5h108q74 0 124.5 47
t66.5 131l11 60h-195l11 65h267l-22 -125q-20 -115 -90 -179.5t-175 -64.5h-108q-92 0 -145.5 54zM440 943h55l96 -162h-65l-64 112l-104 -112h-71z" />
    <glyph glyph-name="gcircumflex" unicode="&#x11d;" horiz-adv-x="578" 
d="M63 -171.5q-40 31.5 -40 83.5l1 14h72q-2 -30 18.5 -48.5t54.5 -18.5h83q51 0 86 34.5t46 96.5l14 77q-28 -31 -61.5 -49t-65.5 -18h-73q-72 0 -114 40t-42 109q0 22 4 42l20 117q15 90 72 144.5t139 54.5h70q37 0 70 -17.5t49 -46.5l10 56h70l-90 -509q-16 -91 -70 -142
t-134 -51h-83q-66 0 -106 31.5zM271 64q50 0 93 39.5t58 100.5l22 123q4 50 -23.5 83t-73.5 33h-68q-53 0 -92 -37t-49 -98l-20 -117q-3 -16 -3 -31q0 -44 22.5 -70t62.5 -26h71zM337 742h55l96 -162h-65l-64 112l-104 -112h-71z" />
    <glyph glyph-name="Gbreve" unicode="&#x11e;" horiz-adv-x="684" 
d="M107.5 46q-53.5 54 -53.5 144q0 32 5 56l37 208q21 120 92 187t176 67h106q92 0 145 -48.5t53 -129.5q0 -25 -4 -46h-72q3 20 3 36q0 57 -33.5 89.5t-92.5 32.5h-106q-75 0 -126 -50t-67 -138l-37 -208q-4 -23 -4 -48q0 -65 33.5 -102.5t92.5 -37.5h108q74 0 124.5 47
t66.5 131l11 60h-195l11 65h267l-22 -125q-20 -115 -90 -179.5t-175 -64.5h-108q-92 0 -145.5 54zM348 803.5q-33 30.5 -33 82.5q0 12 1 18l1 8h58l-1 -8q-1 -5 -1 -13q0 -31 18.5 -49.5t49.5 -18.5h12q39 0 65.5 22t30.5 59l1 8h57l-1 -8q-7 -59 -50 -95t-106 -36h-12
q-57 0 -90 30.5z" />
    <glyph glyph-name="gbreve" unicode="&#x11f;" horiz-adv-x="578" 
d="M63 -171.5q-40 31.5 -40 83.5l1 14h72q-2 -30 18.5 -48.5t54.5 -18.5h83q51 0 86 34.5t46 96.5l14 77q-28 -31 -61.5 -49t-65.5 -18h-73q-72 0 -114 40t-42 109q0 22 4 42l20 117q15 90 72 144.5t139 54.5h70q37 0 70 -17.5t49 -46.5l10 56h70l-90 -509q-16 -91 -70 -142
t-134 -51h-83q-66 0 -106 31.5zM271 64q50 0 93 39.5t58 100.5l22 123q4 50 -23.5 83t-73.5 33h-68q-53 0 -92 -37t-49 -98l-20 -117q-3 -16 -3 -31q0 -44 22.5 -70t62.5 -26h71zM245 602.5q-33 30.5 -33 82.5q0 12 1 18l1 8h58l-1 -8q-1 -5 -1 -13q0 -31 18.5 -49.5
t49.5 -18.5h12q39 0 65.5 22t30.5 59l1 8h57l-1 -8q-7 -59 -50 -95t-106 -36h-12q-57 0 -90 30.5z" />
    <glyph glyph-name="Gdotaccent" unicode="&#x120;" horiz-adv-x="684" 
d="M107.5 46q-53.5 54 -53.5 144q0 32 5 56l37 208q21 120 92 187t176 67h106q92 0 145 -48.5t53 -129.5q0 -25 -4 -46h-72q3 20 3 36q0 57 -33.5 89.5t-92.5 32.5h-106q-75 0 -126 -50t-67 -138l-37 -208q-4 -23 -4 -48q0 -65 33.5 -102.5t92.5 -37.5h108q74 0 124.5 47
t66.5 131l11 60h-195l11 65h267l-22 -125q-20 -115 -90 -179.5t-175 -64.5h-108q-92 0 -145.5 54zM406.5 792.5q-12.5 11.5 -12.5 31.5q0 29 18 47t47 18q20 0 32.5 -12t12.5 -31q0 -29 -17.5 -47t-46.5 -18q-21 0 -33.5 11.5z" />
    <glyph glyph-name="gdotaccent" unicode="&#x121;" horiz-adv-x="578" 
d="M63 -171.5q-40 31.5 -40 83.5l1 14h72q-2 -30 18.5 -48.5t54.5 -18.5h83q51 0 86 34.5t46 96.5l14 77q-28 -31 -61.5 -49t-65.5 -18h-73q-72 0 -114 40t-42 109q0 22 4 42l20 117q15 90 72 144.5t139 54.5h70q37 0 70 -17.5t49 -46.5l10 56h70l-90 -509q-16 -91 -70 -142
t-134 -51h-83q-66 0 -106 31.5zM271 64q50 0 93 39.5t58 100.5l22 123q4 50 -23.5 83t-73.5 33h-68q-53 0 -92 -37t-49 -98l-20 -117q-3 -16 -3 -31q0 -44 22.5 -70t62.5 -26h71zM303.5 591.5q-12.5 11.5 -12.5 31.5q0 29 18 47t47 18q20 0 32.5 -12t12.5 -31
q0 -29 -17.5 -47t-46.5 -18q-21 0 -33.5 11.5z" />
    <glyph glyph-name="uni0122" unicode="&#x122;" horiz-adv-x="684" 
d="M107.5 46q-53.5 54 -53.5 144q0 32 5 56l37 208q21 120 92 187t176 67h106q92 0 145 -48.5t53 -129.5q0 -25 -4 -46h-72q3 20 3 36q0 57 -33.5 89.5t-92.5 32.5h-106q-75 0 -126 -50t-67 -138l-37 -208q-4 -23 -4 -48q0 -65 33.5 -102.5t92.5 -37.5h108q74 0 124.5 47
t66.5 131l11 60h-195l11 65h267l-22 -125q-20 -115 -90 -179.5t-175 -64.5h-108q-92 0 -145.5 54zM152 -228l17 10q35 22 54 48t24 60l5 31h72l-5 -31q-9 -55 -37 -94.5t-78 -67.5l-21 -12z" />
    <glyph glyph-name="uni0123" unicode="&#x123;" horiz-adv-x="578" 
d="M63 -171.5q-40 31.5 -40 83.5l1 14h72q-2 -30 18.5 -48.5t54.5 -18.5h83q51 0 86 34.5t46 96.5l14 77q-28 -31 -61.5 -49t-65.5 -18h-73q-72 0 -114 40t-42 109q0 22 4 42l20 117q15 90 72 144.5t139 54.5h70q37 0 70 -17.5t49 -46.5l10 56h70l-90 -509q-16 -91 -70 -142
t-134 -51h-83q-66 0 -106 31.5zM271 64q50 0 93 39.5t58 100.5l22 123q4 50 -23.5 83t-73.5 33h-68q-53 0 -92 -37t-49 -98l-20 -117q-3 -16 -3 -31q0 -44 22.5 -70t62.5 -26h71zM297 594q9 55 37 94.5t78 67.5l21 12l31 -56l-17 -10q-34 -20 -53 -45.5t-25 -62.5l-5 -31
h-72z" />
    <glyph glyph-name="Hcircumflex" unicode="&#x124;" horiz-adv-x="694" 
d="M159 700h74l-55 -314h386l55 314h74l-123 -700h-74l56 320h-386l-56 -320h-74zM439 943h55l96 -162h-65l-64 112l-104 -112h-71z" />
    <glyph glyph-name="hcircumflex" unicode="&#x125;" horiz-adv-x="574" 
d="M155 700h72l-47 -270q29 36 66 56.5t74 20.5h64q64 0 101 -36t37 -97q0 -17 -3 -37l-59 -337h-72l60 339q2 9 2 26q0 36 -18 57t-50 21h-66q-47 0 -92 -36.5t-65 -93.5l-55 -313h-72zM382 943h55l96 -162h-65l-64 112l-104 -112h-71z" />
    <glyph glyph-name="Hbar" unicode="&#x126;" horiz-adv-x="746" 
d="M766 510h-80l-90 -510h-74l56 320h-386l-56 -320h-74l90 510h-80l11 60h79l23 130h74l-23 -130h386l23 130h74l-23 -130h81zM612 510h-386l-22 -124h386z" />
    <glyph glyph-name="hbar" unicode="&#x127;" horiz-adv-x="614" 
d="M525 471q37 -36 37 -97q0 -17 -3 -37l-59 -337h-72l60 339q2 9 2 26q0 36 -18 57t-50 21h-66q-47 0 -92 -36.5t-65 -93.5l-55 -313h-72l100 568h-90l11 58h89l13 74h72l-13 -74h129l-11 -58h-128l-24 -138q29 36 66 56.5t74 20.5h64q64 0 101 -36z" />
    <glyph glyph-name="Itilde" unicode="&#x128;" horiz-adv-x="254" 
d="M169 700h74l-123 -700h-74zM247.5 783.5q-15.5 10.5 -32.5 29.5q-13 14 -21.5 20.5t-19.5 6.5h-10q-17 0 -29.5 -13.5t-17.5 -37.5h-56q11 48 39 74.5t68 26.5h10q24 0 40 -11t34 -31q12 -13 19.5 -19t16.5 -6h10q15 0 27 13.5t18 37.5h56q-11 -48 -38 -74.5t-66 -26.5
h-10q-22 0 -37.5 10.5z" />
    <glyph glyph-name="itilde" unicode="&#x129;" horiz-adv-x="236" 
d="M126 499h72l-88 -499h-72zM203.5 582.5q-15.5 10.5 -32.5 29.5q-13 14 -21.5 20.5t-19.5 6.5h-10q-17 0 -29.5 -13.5t-17.5 -37.5h-56q11 48 39 74.5t68 26.5h10q24 0 40 -11t34 -31q12 -13 19.5 -19t16.5 -6h10q15 0 27 13.5t18 37.5h56q-11 -48 -38 -74.5t-66 -26.5
h-10q-22 0 -37.5 10.5z" />
    <glyph glyph-name="Imacron" unicode="&#x12a;" horiz-adv-x="254" 
d="M169 700h74l-123 -700h-74zM104 843h255l-9 -52h-255z" />
    <glyph glyph-name="imacron" unicode="&#x12b;" horiz-adv-x="236" 
d="M126 499h72l-88 -499h-72zM60 642h255l-9 -52h-255z" />
    <glyph glyph-name="Ibreve" unicode="&#x12c;" horiz-adv-x="254" 
d="M169 700h74l-123 -700h-74zM129 803.5q-33 30.5 -33 82.5q0 12 1 18l1 8h58l-1 -8q-1 -5 -1 -13q0 -31 18.5 -49.5t49.5 -18.5h12q39 0 65.5 22t30.5 59l1 8h57l-1 -8q-7 -59 -50 -95t-106 -36h-12q-57 0 -90 30.5z" />
    <glyph glyph-name="ibreve" unicode="&#x12d;" horiz-adv-x="236" 
d="M126 499h72l-88 -499h-72zM85 602.5q-33 30.5 -33 82.5q0 12 1 18l1 8h58l-1 -8q-1 -5 -1 -13q0 -31 18.5 -49.5t49.5 -18.5h12q39 0 65.5 22t30.5 59l1 8h57l-1 -8q-7 -59 -50 -95t-106 -36h-12q-57 0 -90 30.5z" />
    <glyph glyph-name="Iogonek" unicode="&#x12e;" horiz-adv-x="254" 
d="M169 700h74l-123 -700h-74zM-6 -189q-25 20 -25 55q0 14 2 21l2 10q6 30 27.5 59.5t51.5 43.5h68q-33 -16 -55.5 -42.5t-28.5 -56.5l-2 -10q-1 -3 -1 -10q0 -16 10.5 -26t30.5 -10h10q13 0 29 5.5t30 14.5l-10 -56q-12 -8 -28 -13t-32 -5h-10q-44 0 -69 20z" />
    <glyph glyph-name="iogonek" unicode="&#x12f;" horiz-adv-x="260" 
d="M154.5 586q-12.5 12 -12.5 31q0 29 17.5 47t45.5 18q21 0 33.5 -11.5t12.5 -31.5q0 -29 -17.5 -47t-46.5 -18q-20 0 -32.5 12zM138 499h72l-88 -499h-72zM-4 -189q-25 20 -25 55q0 14 2 21l2 10q6 30 27.5 59.5t51.5 43.5h68q-33 -16 -55.5 -42.5t-28.5 -56.5l-2 -10
q-1 -3 -1 -10q0 -16 10.5 -26t30.5 -10h10q13 0 29 5.5t30 14.5l-10 -56q-12 -8 -28 -13t-32 -5h-10q-44 0 -69 20z" />
    <glyph glyph-name="Idotaccent" unicode="&#x130;" horiz-adv-x="254" 
d="M169 700h74l-123 -700h-74zM187.5 792.5q-12.5 11.5 -12.5 31.5q0 29 18 47t47 18q20 0 32.5 -12t12.5 -31q0 -29 -17.5 -47t-46.5 -18q-21 0 -33.5 11.5z" />
    <glyph glyph-name="dotlessi" unicode="&#x131;" horiz-adv-x="236" 
d="M126 499h72l-88 -499h-72z" />
    <glyph glyph-name="IJ" unicode="&#x132;" horiz-adv-x="802" 
d="M169 700h74l-123 -700h-74zM294.5 40.5q-46.5 48.5 -46.5 128.5q0 22 5 50h74q-4 -21 -4 -45q0 -53 25 -84.5t68 -31.5h87q56 0 95.5 46t53.5 128l83 468h74l-83 -468q-21 -115 -77 -177.5t-146 -62.5h-87q-75 0 -121.5 48.5z" />
    <glyph glyph-name="ij" unicode="&#x133;" horiz-adv-x="502" 
d="M154.5 586q-12.5 12 -12.5 31q0 29 17.5 47t45.5 18q21 0 33.5 -11.5t12.5 -31.5q0 -29 -17.5 -47t-46.5 -18q-20 0 -32.5 12zM138 499h72l-88 -499h-72zM396.5 586q-12.5 12 -12.5 31q0 29 17.5 47t45.5 18q21 0 33.5 -11.5t12.5 -31.5q0 -29 -17.5 -47t-46.5 -18
q-20 0 -32.5 12zM136 -135h34q52 0 79.5 28t38.5 92l91 514h72l-90 -509q-18 -101 -64.5 -145t-137.5 -44h-34z" />
    <glyph glyph-name="Jcircumflex" unicode="&#x134;" horiz-adv-x="578" 
d="M70.5 40.5q-46.5 48.5 -46.5 128.5q0 22 5 50h74q-4 -21 -4 -45q0 -53 25 -84.5t68 -31.5h87q56 0 95.5 46t53.5 128l83 468h74l-83 -468q-21 -115 -77 -177.5t-146 -62.5h-87q-75 0 -121.5 48.5zM564 943h55l96 -162h-65l-64 112l-104 -112h-71z" />
    <glyph glyph-name="jcircumflex" unicode="&#x135;" horiz-adv-x="254" 
d="M-100 -135h35q51 0 79 28t39 92l91 514h72l-90 -509q-17 -100 -64 -144.5t-138 -44.5h-35zM195 742h55l96 -162h-65l-64 112l-104 -112h-71z" />
    <glyph glyph-name="uni0136" unicode="&#x136;" horiz-adv-x="630" 
d="M317 389l243 -389h-87l-213 338l-107 -96l-43 -242h-74l123 700h74l-63 -361l398 361h97zM129 -228l17 10q35 22 54 48t24 60l5 31h72l-5 -31q-9 -55 -37 -94.5t-78 -67.5l-21 -12z" />
    <glyph glyph-name="uni0137" unicode="&#x137;" horiz-adv-x="511" 
d="M273 285l182 -285h-81l-156 239l-85 -72l-29 -167h-72l123 700h72l-77 -440l284 239h93zM80 -228l17 10q35 22 54 48t24 60l5 31h72l-5 -31q-9 -55 -37 -94.5t-78 -67.5l-21 -12z" />
    <glyph glyph-name="kgreenlandic" unicode="&#x138;" horiz-adv-x="523" 
d="M278 277l189 -277h-81l-161 232l-94 -81l-27 -151h-72l88 499h72l-45 -255l297 255h93z" />
    <glyph glyph-name="Lacute" unicode="&#x139;" horiz-adv-x="560" 
d="M60 13q-14 13 -14 37q0 10 1 15l112 635h74l-112 -634h380l-11 -66h-389q-27 0 -41 13zM288 933h84l-126 -152h-68z" />
    <glyph glyph-name="lacute" unicode="&#x13a;" horiz-adv-x="268" 
d="M80.5 21q-28.5 21 -28.5 71q0 23 4 44l99 564h72l-99 -564q-3 -15 -3 -27q0 -25 13 -35t43 -10h34l-11 -64h-34q-61 0 -89.5 21zM283 933h84l-126 -152h-68z" />
    <glyph glyph-name="uni013B" unicode="&#x13b;" horiz-adv-x="560" 
d="M60 13q-14 13 -14 37q0 10 1 15l112 635h74l-112 -634h380l-11 -66h-389q-27 0 -41 13zM116 -228l17 10q35 22 54 48t24 60l5 31h72l-5 -31q-9 -55 -37 -94.5t-78 -67.5l-21 -12z" />
    <glyph glyph-name="uni013C" unicode="&#x13c;" horiz-adv-x="268" 
d="M80.5 21q-28.5 21 -28.5 71q0 23 4 44l99 564h72l-99 -564q-3 -15 -3 -27q0 -25 13 -35t43 -10h34l-11 -64h-34q-61 0 -89.5 21zM-32 -228l17 10q35 22 54 48t24 60l5 31h72l-5 -31q-9 -55 -37 -94.5t-78 -67.5l-21 -12z" />
    <glyph glyph-name="Lcaron" unicode="&#x13d;" horiz-adv-x="560" 
d="M60 13q-14 13 -14 37q0 10 1 15l112 635h74l-112 -634h380l-11 -66h-389q-27 0 -41 13zM439 551l17 10q35 20 54 46.5t24 61.5l5 31h72l-5 -31q-9 -55 -37 -94.5t-78 -67.5l-21 -12z" />
    <glyph glyph-name="lcaron" unicode="&#x13e;" horiz-adv-x="398" 
d="M80.5 21q-28.5 21 -28.5 71q0 23 4 44l99 564h72l-99 -564q-3 -15 -3 -27q0 -25 13 -35t43 -10h34l-11 -64h-34q-61 0 -89.5 21zM289 551l17 10q35 20 54 46.5t24 61.5l5 31h72l-5 -31q-9 -55 -37 -94.5t-78 -67.5l-21 -12z" />
    <glyph glyph-name="Ldot" unicode="&#x13f;" horiz-adv-x="560" 
d="M60 13q-14 13 -14 37q0 10 1 15l112 635h74l-112 -634h380l-11 -66h-389q-27 0 -41 13zM349.5 234.5q-12.5 11.5 -12.5 31.5q0 29 17.5 47t46.5 18q20 0 32.5 -12t12.5 -31q0 -29 -17.5 -47t-45.5 -18q-21 0 -33.5 11.5z" />
    <glyph glyph-name="ldot" unicode="&#x140;" horiz-adv-x="384" 
d="M80.5 21q-28.5 21 -28.5 71q0 23 4 44l99 564h72l-99 -564q-3 -15 -3 -27q0 -25 13 -35t43 -10h34l-11 -64h-34q-61 0 -89.5 21zM276.5 214.5q-12.5 11.5 -12.5 31.5q0 29 17.5 47t46.5 18q20 0 32.5 -12t12.5 -31q0 -29 -17.5 -47t-45.5 -18q-21 0 -33.5 11.5z" />
    <glyph glyph-name="Lslash" unicode="&#x141;" horiz-adv-x="590" 
d="M531 66l-11 -66h-389q-27 0 -41 13t-14 37q0 10 1 15l35 200l-92 -49l12 69l92 49l65 366h74l-57 -323l146 78l-12 -69l-146 -78l-43 -242h380z" />
    <glyph glyph-name="lslash" unicode="&#x142;" horiz-adv-x="301" 
d="M161 136q-3 -15 -3 -27q0 -25 13 -35t43 -10h34l-11 -64h-34q-61 0 -89.5 21t-28.5 71q0 23 4 44l25 143l-96 -51l12 69l96 51l62 352h72l-54 -310l93 49l-12 -69l-94 -49z" />
    <glyph glyph-name="Nacute" unicode="&#x143;" horiz-adv-x="690" 
d="M159 700h66l290 -584l102 584h72l-123 -700h-66l-290 580l-102 -580h-72zM516 933h84l-126 -152h-68z" />
    <glyph glyph-name="nacute" unicode="&#x144;" horiz-adv-x="572" 
d="M120 499h70l-13 -74q31 39 68.5 60.5t74.5 21.5h64q63 0 99.5 -35.5t36.5 -96.5q0 -18 -3 -38l-59 -337h-72l60 339q2 9 2 27q0 36 -18 56.5t-50 20.5h-64q-47 0 -92 -37t-65 -95l-55 -311h-72zM430 732h84l-126 -152h-68z" />
    <glyph glyph-name="uni0145" unicode="&#x145;" horiz-adv-x="690" 
d="M159 700h66l290 -584l102 584h72l-123 -700h-66l-290 580l-102 -580h-72zM152 -228l17 10q35 22 54 48t24 60l5 31h72l-5 -31q-9 -55 -37 -94.5t-78 -67.5l-21 -12z" />
    <glyph glyph-name="uni0146" unicode="&#x146;" horiz-adv-x="572" 
d="M120 499h70l-13 -74q31 39 68.5 60.5t74.5 21.5h64q63 0 99.5 -35.5t36.5 -96.5q0 -18 -3 -38l-59 -337h-72l60 339q2 9 2 27q0 36 -18 56.5t-50 20.5h-64q-47 0 -92 -37t-65 -95l-55 -311h-72zM100 -228l17 10q35 22 54 48t24 60l5 31h72l-5 -31q-9 -55 -37 -94.5
t-78 -67.5l-21 -12z" />
    <glyph glyph-name="Ncaron" unicode="&#x147;" horiz-adv-x="690" 
d="M159 700h66l290 -584l102 584h72l-123 -700h-66l-290 580l-102 -580h-72zM315 943h65l64 -112l104 112h71l-154 -162h-55z" />
    <glyph glyph-name="ncaron" unicode="&#x148;" horiz-adv-x="572" 
d="M120 499h70l-13 -74q31 39 68.5 60.5t74.5 21.5h64q63 0 99.5 -35.5t36.5 -96.5q0 -18 -3 -38l-59 -337h-72l60 339q2 9 2 27q0 36 -18 56.5t-50 20.5h-64q-47 0 -92 -37t-65 -95l-55 -311h-72zM229 742h65l64 -112l104 112h71l-154 -162h-55z" />
    <glyph glyph-name="napostrophe" unicode="&#x149;" horiz-adv-x="691" 
d="M239 499h70l-13 -74q31 39 68.5 60.5t74.5 21.5h64q63 0 99.5 -35.5t36.5 -96.5q0 -18 -3 -38l-59 -337h-72l60 339q2 9 2 27q0 36 -18 56.5t-50 20.5h-64q-47 0 -92 -37t-65 -95l-55 -311h-72zM69 551l17 10q35 20 54 46.5t24 61.5l5 31h72l-5 -31q-9 -55 -37 -94.5
t-78 -67.5l-21 -12z" />
    <glyph glyph-name="Eng" unicode="&#x14a;" horiz-adv-x="690" 
d="M339 -135h34q52 0 80 28t39 92l4 23l-286 572l-102 -580h-72l123 700h66l290 -584l102 584h72l-125 -710q-18 -101 -65 -145t-137 -44h-34z" />
    <glyph glyph-name="eng" unicode="&#x14b;" horiz-adv-x="572" 
d="M230 -135h35q52 0 79.5 28t38.5 92l63 354q2 9 2 26q0 36 -18 57t-50 21h-64q-47 0 -92 -37t-65 -95l-55 -311h-72l88 499h70l-13 -74q28 36 70 59t78 23h68q59 0 93.5 -35.5t34.5 -94.5q0 -12 -4 -40l-61 -347q-18 -101 -64.5 -145t-137.5 -44h-35z" />
    <glyph glyph-name="Omacron" unicode="&#x14c;" horiz-adv-x="696" 
d="M109.5 45.5q-55.5 53.5 -55.5 144.5q0 21 5 53l38 214q20 118 90.5 184.5t176.5 66.5h106q97 0 152.5 -53t55.5 -143q0 -23 -5 -55l-38 -214q-21 -120 -91 -185.5t-177 -65.5h-107q-95 0 -150.5 53.5zM365 58q76 0 128 49t68 136l38 214q4 21 4 45q0 65 -36 102.5
t-99 37.5h-102q-76 0 -127.5 -49t-67.5 -136l-38 -214q-4 -21 -4 -45q0 -65 35.5 -102.5t97.5 -37.5h103zM326 843h255l-9 -52h-255z" />
    <glyph glyph-name="omacron" unicode="&#x14d;" horiz-adv-x="570" 
d="M85 32.5q-45 40.5 -45 109.5q0 13 4 39l24 137q16 89 71.5 139t138.5 50h82q79 0 124.5 -40.5t45.5 -109.5q0 -13 -4 -39l-24 -137q-16 -89 -72 -139t-140 -50h-82q-78 0 -123 40.5zM290 56q53 0 91.5 34.5t48.5 90.5l24 137q3 15 3 28q0 44 -26 70.5t-71 26.5h-82
q-55 0 -91.5 -33t-46.5 -92l-24 -137q-3 -15 -3 -29q0 -44 25.5 -70t69.5 -26h82zM227 642h255l-9 -52h-255z" />
    <glyph glyph-name="Obreve" unicode="&#x14e;" horiz-adv-x="696" 
d="M109.5 45.5q-55.5 53.5 -55.5 144.5q0 21 5 53l38 214q20 118 90.5 184.5t176.5 66.5h106q97 0 152.5 -53t55.5 -143q0 -23 -5 -55l-38 -214q-21 -120 -91 -185.5t-177 -65.5h-107q-95 0 -150.5 53.5zM365 58q76 0 128 49t68 136l38 214q4 21 4 45q0 65 -36 102.5
t-99 37.5h-102q-76 0 -127.5 -49t-67.5 -136l-38 -214q-4 -21 -4 -45q0 -65 35.5 -102.5t97.5 -37.5h103zM351 803.5q-33 30.5 -33 82.5q0 12 1 18l1 8h58l-1 -8q-1 -5 -1 -13q0 -31 18.5 -49.5t49.5 -18.5h12q39 0 65.5 22t30.5 59l1 8h57l-1 -8q-7 -59 -50 -95t-106 -36
h-12q-57 0 -90 30.5z" />
    <glyph glyph-name="obreve" unicode="&#x14f;" horiz-adv-x="570" 
d="M85 32.5q-45 40.5 -45 109.5q0 13 4 39l24 137q16 89 71.5 139t138.5 50h82q79 0 124.5 -40.5t45.5 -109.5q0 -13 -4 -39l-24 -137q-16 -89 -72 -139t-140 -50h-82q-78 0 -123 40.5zM290 56q53 0 91.5 34.5t48.5 90.5l24 137q3 15 3 28q0 44 -26 70.5t-71 26.5h-82
q-55 0 -91.5 -33t-46.5 -92l-24 -137q-3 -15 -3 -29q0 -44 25.5 -70t69.5 -26h82zM252 602.5q-33 30.5 -33 82.5q0 12 1 18l1 8h58l-1 -8q-1 -5 -1 -13q0 -31 18.5 -49.5t49.5 -18.5h12q39 0 65.5 22t30.5 59l1 8h57l-1 -8q-7 -59 -50 -95t-106 -36h-12q-57 0 -90 30.5z" />
    <glyph glyph-name="Ohungarumlaut" unicode="&#x150;" horiz-adv-x="696" 
d="M109.5 45.5q-55.5 53.5 -55.5 144.5q0 21 5 53l38 214q20 118 90.5 184.5t176.5 66.5h106q97 0 152.5 -53t55.5 -143q0 -23 -5 -55l-38 -214q-21 -120 -91 -185.5t-177 -65.5h-107q-95 0 -150.5 53.5zM365 58q76 0 128 49t68 136l38 214q4 21 4 45q0 65 -36 102.5
t-99 37.5h-102q-76 0 -127.5 -49t-67.5 -136l-38 -214q-4 -21 -4 -45q0 -65 35.5 -102.5t97.5 -37.5h103zM443 933h78l-122 -152h-62zM572 933h78l-122 -152h-62z" />
    <glyph glyph-name="ohungarumlaut" unicode="&#x151;" horiz-adv-x="570" 
d="M85 32.5q-45 40.5 -45 109.5q0 13 4 39l24 137q16 89 71.5 139t138.5 50h82q79 0 124.5 -40.5t45.5 -109.5q0 -13 -4 -39l-24 -137q-16 -89 -72 -139t-140 -50h-82q-78 0 -123 40.5zM290 56q53 0 91.5 34.5t48.5 90.5l24 137q3 15 3 28q0 44 -26 70.5t-71 26.5h-82
q-55 0 -91.5 -33t-46.5 -92l-24 -137q-3 -15 -3 -29q0 -44 25.5 -70t69.5 -26h82zM344 732h78l-122 -152h-62zM473 732h78l-122 -152h-62z" />
    <glyph glyph-name="OE" unicode="&#x152;" horiz-adv-x="1076" 
d="M111 47q-56 55 -56 146q0 22 5 54l36 206q13 75 52 133t96 90t124 32h108q50 0 93.5 -22.5t65.5 -59.5l13 74h457l-11 -64h-383l-44 -246h343l-11 -64h-343l-46 -262h383l-12 -64h-390q-26 0 -41 13t-15 35q0 6 1 9l4 25q-35 -41 -81 -65.5t-94 -24.5h-104q-94 0 -150 55
zM363 58q77 0 134 53.5t72 139.5l35 202q4 20 4 43q0 67 -36.5 106.5t-99.5 39.5h-104q-74 0 -128.5 -52.5t-69.5 -136.5l-36 -206q-4 -21 -4 -45q0 -66 36 -105t97 -39h100z" />
    <glyph glyph-name="oe" unicode="&#x153;" horiz-adv-x="930" 
d="M852 466.5q43 -40.5 43 -108.5q0 -17 -3 -37l-15 -88h-370l-11 -60q-3 -13 -3 -27q0 -42 25.5 -66t70.5 -24h74q50 0 85 27.5t43 73.5h70q-14 -74 -68 -119.5t-130 -45.5h-74q-52 0 -91.5 21t-55.5 59q-28 -38 -70.5 -59t-86.5 -21h-77q-78 0 -123 40.5t-45 108.5
q0 21 4 40l25 137q17 89 71.5 139t136.5 50h81q52 0 90 -20.5t56 -56.5q60 77 154 77h80q71 0 114 -40.5zM453 347q0 43 -25.5 69.5t-69.5 26.5h-81q-53 0 -89.5 -33t-46.5 -92l-25 -137q-3 -16 -3 -30q0 -44 25.5 -69.5t69.5 -25.5h77q54 0 92 35t48 90l25 137q3 15 3 29z
M823 353q0 41 -22.5 65.5t-62.5 24.5h-80q-53 0 -89.5 -35.5t-47.5 -91.5l-4 -21h298l5 26q3 17 3 32z" />
    <glyph glyph-name="Racute" unicode="&#x154;" horiz-adv-x="650" 
d="M159 700h331q72 0 113.5 -34.5t41.5 -92.5q0 -14 -3 -31l-13 -73q-10 -56 -47.5 -95.5t-104.5 -55.5v-1q28 -16 46 -50.5t23 -79.5l22 -187h-76l-22 187q-6 49 -35 79t-70 30h-203l-52 -296h-74zM414 362q55 0 94 29.5t47 77.5l13 77q1 6 1 17q0 33 -22 52t-61 19h-264
l-48 -272h240zM493 933h84l-126 -152h-68z" />
    <glyph glyph-name="racute" unicode="&#x155;" horiz-adv-x="355" 
d="M120 499h70l-14 -77q28 37 67.5 58t81.5 21h54l-11 -65h-43q-65 0 -111.5 -40.5t-58.5 -107.5l-51 -288h-72zM336 732h84l-126 -152h-68z" />
    <glyph glyph-name="uni0156" unicode="&#x156;" horiz-adv-x="650" 
d="M159 700h331q72 0 113.5 -34.5t41.5 -92.5q0 -14 -3 -31l-13 -73q-10 -56 -47.5 -95.5t-104.5 -55.5v-1q28 -16 46 -50.5t23 -79.5l22 -187h-76l-22 187q-6 49 -35 79t-70 30h-203l-52 -296h-74zM414 362q55 0 94 29.5t47 77.5l13 77q1 6 1 17q0 33 -22 52t-61 19h-264
l-48 -272h240zM143 -228l17 10q35 22 54 48t24 60l5 31h72l-5 -31q-9 -55 -37 -94.5t-78 -67.5l-21 -12z" />
    <glyph glyph-name="uni0157" unicode="&#x157;" horiz-adv-x="355" 
d="M120 499h70l-14 -77q28 37 67.5 58t81.5 21h54l-11 -65h-43q-65 0 -111.5 -40.5t-58.5 -107.5l-51 -288h-72zM-82 -228l17 10q35 22 54 48t24 60l5 31h72l-5 -31q-9 -55 -37 -94.5t-78 -67.5l-21 -12z" />
    <glyph glyph-name="Rcaron" unicode="&#x158;" horiz-adv-x="650" 
d="M159 700h331q72 0 113.5 -34.5t41.5 -92.5q0 -14 -3 -31l-13 -73q-10 -56 -47.5 -95.5t-104.5 -55.5v-1q28 -16 46 -50.5t23 -79.5l22 -187h-76l-22 187q-6 49 -35 79t-70 30h-203l-52 -296h-74zM414 362q55 0 94 29.5t47 77.5l13 77q1 6 1 17q0 33 -22 52t-61 19h-264
l-48 -272h240zM292 943h65l64 -112l104 112h71l-154 -162h-55z" />
    <glyph glyph-name="rcaron" unicode="&#x159;" horiz-adv-x="355" 
d="M120 499h70l-14 -77q28 37 67.5 58t81.5 21h54l-11 -65h-43q-65 0 -111.5 -40.5t-58.5 -107.5l-51 -288h-72zM135 742h65l64 -112l104 112h71l-154 -162h-55z" />
    <glyph glyph-name="Sacute" unicode="&#x15a;" horiz-adv-x="627" 
d="M92.5 36q-49.5 44 -49.5 119q0 22 4 42h72q-3 -16 -3 -32q0 -49 30 -78t81 -29h111q61 0 100 25.5t47 70.5l12 64q1 4 1 13q0 28 -22.5 48.5t-60.5 27.5l-175 30q-63 10 -99 46t-36 87q0 8 2 24l10 54q14 76 71 118t144 42h113q80 0 126 -40t46 -109q0 -12 -4 -38h-72
q3 15 3 27q0 44 -26.5 69t-72.5 25h-113q-58 0 -95 -25t-46 -69l-10 -54q-1 -5 -1 -13q0 -29 22 -50t59 -28l174 -31q64 -11 101 -46.5t37 -84.5q0 -7 -2 -23l-12 -64q-15 -80 -70.5 -121t-146.5 -41h-115q-85 0 -134.5 44zM477 933h84l-126 -152h-68z" />
    <glyph glyph-name="sacute" unicode="&#x15b;" horiz-adv-x="520" 
d="M70 26q-41 34 -41 91q0 15 3 31h70q-2 -14 -2 -20q0 -34 22 -54t61 -20h87q45 0 73.5 16.5t34.5 46.5l7 34q1 3 1 8q0 17 -12.5 29t-33.5 16l-168 30q-45 8 -71 33.5t-26 60.5q0 5 2 17l6 33q11 61 56 95t115 34h86q67 0 105.5 -32t38.5 -86q0 -17 -2 -26h-70q1 5 1 16
q0 30 -19.5 48t-53.5 18h-86q-40 0 -66 -18t-33 -49l-6 -29q-4 -19 10 -33.5t40 -19.5l167 -30q43 -8 68 -33t25 -60q0 -6 -2 -18l-7 -40q-11 -58 -58 -90.5t-122 -32.5h-87q-72 0 -113 34zM386 732h84l-126 -152h-68z" />
    <glyph glyph-name="Scircumflex" unicode="&#x15c;" horiz-adv-x="627" 
d="M92.5 36q-49.5 44 -49.5 119q0 22 4 42h72q-3 -16 -3 -32q0 -49 30 -78t81 -29h111q61 0 100 25.5t47 70.5l12 64q1 4 1 13q0 28 -22.5 48.5t-60.5 27.5l-175 30q-63 10 -99 46t-36 87q0 8 2 24l10 54q14 76 71 118t144 42h113q80 0 126 -40t46 -109q0 -12 -4 -38h-72
q3 15 3 27q0 44 -26.5 69t-72.5 25h-113q-58 0 -95 -25t-46 -69l-10 -54q-1 -5 -1 -13q0 -29 22 -50t59 -28l174 -31q64 -11 101 -46.5t37 -84.5q0 -7 -2 -23l-12 -64q-15 -80 -70.5 -121t-146.5 -41h-115q-85 0 -134.5 44zM400 943h55l96 -162h-65l-64 112l-104 -112h-71z
" />
    <glyph glyph-name="scircumflex" unicode="&#x15d;" horiz-adv-x="520" 
d="M70 26q-41 34 -41 91q0 15 3 31h70q-2 -14 -2 -20q0 -34 22 -54t61 -20h87q45 0 73.5 16.5t34.5 46.5l7 34q1 3 1 8q0 17 -12.5 29t-33.5 16l-168 30q-45 8 -71 33.5t-26 60.5q0 5 2 17l6 33q11 61 56 95t115 34h86q67 0 105.5 -32t38.5 -86q0 -17 -2 -26h-70q1 5 1 16
q0 30 -19.5 48t-53.5 18h-86q-40 0 -66 -18t-33 -49l-6 -29q-4 -19 10 -33.5t40 -19.5l167 -30q43 -8 68 -33t25 -60q0 -6 -2 -18l-7 -40q-11 -58 -58 -90.5t-122 -32.5h-87q-72 0 -113 34zM309 742h55l96 -162h-65l-64 112l-104 -112h-71z" />
    <glyph glyph-name="Scedilla" unicode="&#x15e;" horiz-adv-x="627" 
d="M541 521q3 15 3 27q0 44 -26.5 69t-72.5 25h-113q-58 0 -95 -25t-46 -69l-10 -54q-1 -5 -1 -13q0 -29 22 -50t59 -28l174 -31q64 -11 101 -46.5t37 -84.5q0 -7 -2 -23l-12 -64q-15 -80 -70.5 -121t-146.5 -41h-29l-29 -46h3q36 0 56.5 -16.5t20.5 -45.5q0 -9 -1 -14
l-2 -11q-7 -39 -36.5 -60.5t-76.5 -21.5h-61l8 48h53q23 0 38 9t18 25l2 11q3 15 -8 24.5t-31 9.5h-47l8 44l27 44h-28q-85 0 -134.5 44t-49.5 119q0 22 4 42h72q-3 -16 -3 -32q0 -49 30 -78t81 -29h111q61 0 100 25.5t47 70.5l12 64q1 4 1 13q0 28 -22.5 48.5t-60.5 27.5
l-175 30q-63 10 -99 46t-36 87q0 8 2 24l10 54q14 76 71 118t144 42h113q80 0 126 -40t46 -109q0 -12 -4 -38h-72z" />
    <glyph glyph-name="scedilla" unicode="&#x15f;" horiz-adv-x="520" 
d="M412 363q1 5 1 16q0 30 -19.5 48t-53.5 18h-86q-40 0 -66 -18t-33 -49l-6 -29q-4 -19 10 -33.5t40 -19.5l167 -30q43 -8 68 -33t25 -60q0 -6 -2 -18l-7 -40q-11 -58 -58 -90.5t-122 -32.5h-19l-29 -46h3q36 0 56.5 -16.5t20.5 -45.5q0 -9 -1 -14l-2 -11
q-7 -39 -36.5 -60.5t-76.5 -21.5h-61l8 48h53q23 0 38 9t18 25l2 11q3 15 -8 24.5t-31 9.5h-47l8 44l27 44h-10q-72 0 -113 34t-41 91q0 15 3 31h70q-2 -14 -2 -20q0 -34 22 -54t61 -20h87q45 0 73.5 16.5t34.5 46.5l7 34q1 3 1 8q0 17 -12.5 29t-33.5 16l-168 30
q-45 8 -71 33.5t-26 60.5q0 5 2 17l6 33q11 61 56 95t115 34h86q67 0 105.5 -32t38.5 -86q0 -17 -2 -26h-70z" />
    <glyph glyph-name="Scaron" unicode="&#x160;" horiz-adv-x="627" 
d="M92.5 36q-49.5 44 -49.5 119q0 22 4 42h72q-3 -16 -3 -32q0 -49 30 -78t81 -29h111q61 0 100 25.5t47 70.5l12 64q1 4 1 13q0 28 -22.5 48.5t-60.5 27.5l-175 30q-63 10 -99 46t-36 87q0 8 2 24l10 54q14 76 71 118t144 42h113q80 0 126 -40t46 -109q0 -12 -4 -38h-72
q3 15 3 27q0 44 -26.5 69t-72.5 25h-113q-58 0 -95 -25t-46 -69l-10 -54q-1 -5 -1 -13q0 -29 22 -50t59 -28l174 -31q64 -11 101 -46.5t37 -84.5q0 -7 -2 -23l-12 -64q-15 -80 -70.5 -121t-146.5 -41h-115q-85 0 -134.5 44zM276 943h65l64 -112l104 112h71l-154 -162h-55z
" />
    <glyph glyph-name="scaron" unicode="&#x161;" horiz-adv-x="520" 
d="M70 26q-41 34 -41 91q0 15 3 31h70q-2 -14 -2 -20q0 -34 22 -54t61 -20h87q45 0 73.5 16.5t34.5 46.5l7 34q1 3 1 8q0 17 -12.5 29t-33.5 16l-168 30q-45 8 -71 33.5t-26 60.5q0 5 2 17l6 33q11 61 56 95t115 34h86q67 0 105.5 -32t38.5 -86q0 -17 -2 -26h-70q1 5 1 16
q0 30 -19.5 48t-53.5 18h-86q-40 0 -66 -18t-33 -49l-6 -29q-4 -19 10 -33.5t40 -19.5l167 -30q43 -8 68 -33t25 -60q0 -6 -2 -18l-7 -40q-11 -58 -58 -90.5t-122 -32.5h-87q-72 0 -113 34zM185 742h65l64 -112l104 112h71l-154 -162h-55z" />
    <glyph glyph-name="uni0162" unicode="&#x162;" horiz-adv-x="578" 
d="M627 700l-11 -64h-222l-112 -636h-11l-34 -54h3q36 0 56.5 -16.5t20.5 -45.5q0 -9 -1 -14l-2 -11q-7 -39 -36.5 -60.5t-76.5 -21.5h-61l8 48h53q23 0 38 9t18 25l2 11q3 15 -8 24.5t-31 9.5h-47l8 44l32 52h-5l112 636h-222l11 64h518z" />
    <glyph glyph-name="uni0163" unicode="&#x163;" horiz-adv-x="382" 
d="M178 146q-2 -10 -2 -28q0 -30 14.5 -42t49.5 -12h53l-12 -64h-53h-14l-34 -54h3q36 0 56.5 -16.5t20.5 -45.5q0 -9 -1 -14l-2 -11q-7 -39 -36.5 -60.5t-76.5 -21.5h-61l8 48h53q23 0 38 9t18 25l2 11q3 15 -8 24.5t-31 9.5h-47l8 44l37 61q-31 10 -45 32t-14 59
q0 23 4 46l51 289h-88l11 64h88l27 151h72l-27 -151h130l-11 -64h-130z" />
    <glyph glyph-name="Tcaron" unicode="&#x164;" horiz-adv-x="578" 
d="M320 636h-222l11 64h518l-11 -64h-222l-112 -636h-74zM259 943h65l64 -112l104 112h71l-154 -162h-55z" />
    <glyph glyph-name="tcaron" unicode="&#x165;" horiz-adv-x="532" 
d="M131.5 23.5q-30.5 23.5 -30.5 75.5q0 19 5 47l51 289h-88l11 64h88l27 151h72l-27 -151h130l-11 -64h-130l-51 -289q-2 -10 -2 -28q0 -30 14.5 -42t49.5 -12h53l-12 -64h-53q-66 0 -96.5 23.5zM423 551l17 10q35 20 54 46.5t24 61.5l5 31h72l-5 -31q-9 -55 -37 -94.5
t-78 -67.5l-21 -12z" />
    <glyph glyph-name="Tbar" unicode="&#x166;" horiz-adv-x="578" 
d="M394 636l-48 -275h160l-11 -60h-160l-53 -301h-74l53 301h-160l11 60h160l48 275h-222l11 64h518l-11 -64h-222z" />
    <glyph glyph-name="tbar" unicode="&#x167;" horiz-adv-x="372" 
d="M233 435l-24 -136h126l-11 -62h-126l-16 -91q-2 -10 -2 -28q0 -30 14.5 -42t49.5 -12h53l-12 -64h-53q-66 0 -96.5 23.5t-30.5 75.5q0 19 5 47l16 91h-92l11 62h92l24 136h-88l11 64h88l27 151h72l-27 -151h130l-11 -64h-130z" />
    <glyph glyph-name="Utilde" unicode="&#x168;" horiz-adv-x="692" 
d="M118 41q-51 49 -51 132q0 26 4 49l84 478h74l-84 -480q-4 -28 -4 -39q0 -57 31.5 -90t85.5 -33h108q67 0 112 42.5t59 119.5l84 480h74l-84 -478q-20 -110 -83.5 -170t-161.5 -60h-108q-89 0 -140 49zM466.5 783.5q-15.5 10.5 -32.5 29.5q-13 14 -21.5 20.5t-19.5 6.5
h-10q-17 0 -29.5 -13.5t-17.5 -37.5h-56q11 48 39 74.5t68 26.5h10q24 0 40 -11t34 -31q12 -13 19.5 -19t16.5 -6h10q15 0 27 13.5t18 37.5h56q-11 -48 -38 -74.5t-66 -26.5h-10q-22 0 -37.5 10.5z" />
    <glyph glyph-name="utilde" unicode="&#x169;" horiz-adv-x="570" 
d="M89 28q-37 36 -37 97q0 18 3 37l59 337h72l-59 -339q-3 -15 -3 -29q0 -35 18 -55t49 -20h62q48 0 91.5 35.5t66.5 94.5l55 313h72l-88 -499h-70l14 76q-31 -38 -70 -61t-71 -23h-62q-65 0 -102 36zM370.5 582.5q-15.5 10.5 -32.5 29.5q-13 14 -21.5 20.5t-19.5 6.5h-10
q-17 0 -29.5 -13.5t-17.5 -37.5h-56q11 48 39 74.5t68 26.5h10q24 0 40 -11t34 -31q12 -13 19.5 -19t16.5 -6h10q15 0 27 13.5t18 37.5h56q-11 -48 -38 -74.5t-66 -26.5h-10q-22 0 -37.5 10.5z" />
    <glyph glyph-name="Umacron" unicode="&#x16a;" horiz-adv-x="692" 
d="M118 41q-51 49 -51 132q0 26 4 49l84 478h74l-84 -480q-4 -28 -4 -39q0 -57 31.5 -90t85.5 -33h108q67 0 112 42.5t59 119.5l84 480h74l-84 -478q-20 -110 -83.5 -170t-161.5 -60h-108q-89 0 -140 49zM323 843h255l-9 -52h-255z" />
    <glyph glyph-name="umacron" unicode="&#x16b;" horiz-adv-x="570" 
d="M89 28q-37 36 -37 97q0 18 3 37l59 337h72l-59 -339q-3 -15 -3 -29q0 -35 18 -55t49 -20h62q48 0 91.5 35.5t66.5 94.5l55 313h72l-88 -499h-70l14 76q-31 -38 -70 -61t-71 -23h-62q-65 0 -102 36zM227 642h255l-9 -52h-255z" />
    <glyph glyph-name="Ubreve" unicode="&#x16c;" horiz-adv-x="692" 
d="M118 41q-51 49 -51 132q0 26 4 49l84 478h74l-84 -480q-4 -28 -4 -39q0 -57 31.5 -90t85.5 -33h108q67 0 112 42.5t59 119.5l84 480h74l-84 -478q-20 -110 -83.5 -170t-161.5 -60h-108q-89 0 -140 49zM348 803.5q-33 30.5 -33 82.5q0 12 1 18l1 8h58l-1 -8q-1 -5 -1 -13
q0 -31 18.5 -49.5t49.5 -18.5h12q39 0 65.5 22t30.5 59l1 8h57l-1 -8q-7 -59 -50 -95t-106 -36h-12q-57 0 -90 30.5z" />
    <glyph glyph-name="ubreve" unicode="&#x16d;" horiz-adv-x="570" 
d="M89 28q-37 36 -37 97q0 18 3 37l59 337h72l-59 -339q-3 -15 -3 -29q0 -35 18 -55t49 -20h62q48 0 91.5 35.5t66.5 94.5l55 313h72l-88 -499h-70l14 76q-31 -38 -70 -61t-71 -23h-62q-65 0 -102 36zM252 602.5q-33 30.5 -33 82.5q0 12 1 18l1 8h58l-1 -8q-1 -5 -1 -13
q0 -31 18.5 -49.5t49.5 -18.5h12q39 0 65.5 22t30.5 59l1 8h57l-1 -8q-7 -59 -50 -95t-106 -36h-12q-57 0 -90 30.5z" />
    <glyph glyph-name="Uring" unicode="&#x16e;" horiz-adv-x="692" 
d="M118 41q-51 49 -51 132q0 26 4 49l84 478h74l-84 -480q-4 -28 -4 -39q0 -57 31.5 -90t85.5 -33h108q67 0 112 42.5t59 119.5l84 480h74l-84 -478q-20 -110 -83.5 -170t-161.5 -60h-108q-89 0 -140 49zM368.5 766.5q-25.5 23.5 -25.5 62.5q0 54 34 87t90 33
q41 0 66.5 -23.5t25.5 -62.5q0 -54 -34 -87t-90 -33q-41 0 -66.5 23.5zM489.5 809.5q18.5 18.5 18.5 48.5q0 19 -13 31t-34 12q-30 0 -48.5 -18.5t-18.5 -48.5q0 -19 13 -31t34 -12q30 0 48.5 18.5z" />
    <glyph glyph-name="uring" unicode="&#x16f;" horiz-adv-x="570" 
d="M89 28q-37 36 -37 97q0 18 3 37l59 337h72l-59 -339q-3 -15 -3 -29q0 -35 18 -55t49 -20h62q48 0 91.5 35.5t66.5 94.5l55 313h72l-88 -499h-70l14 76q-31 -38 -70 -61t-71 -23h-62q-65 0 -102 36zM272.5 565.5q-25.5 23.5 -25.5 62.5q0 54 34 87t90 33q41 0 66.5 -23.5
t25.5 -62.5q0 -54 -34 -87t-90 -33q-41 0 -66.5 23.5zM393.5 608.5q18.5 18.5 18.5 48.5q0 19 -13 31t-34 12q-30 0 -48.5 -18.5t-18.5 -48.5q0 -19 13 -31t34 -12q30 0 48.5 18.5z" />
    <glyph glyph-name="Uhungarumlaut" unicode="&#x170;" horiz-adv-x="692" 
d="M118 41q-51 49 -51 132q0 26 4 49l84 478h74l-84 -480q-4 -28 -4 -39q0 -57 31.5 -90t85.5 -33h108q67 0 112 42.5t59 119.5l84 480h74l-84 -478q-20 -110 -83.5 -170t-161.5 -60h-108q-89 0 -140 49zM440 933h78l-122 -152h-62zM569 933h78l-122 -152h-62z" />
    <glyph glyph-name="uhungarumlaut" unicode="&#x171;" horiz-adv-x="570" 
d="M89 28q-37 36 -37 97q0 18 3 37l59 337h72l-59 -339q-3 -15 -3 -29q0 -35 18 -55t49 -20h62q48 0 91.5 35.5t66.5 94.5l55 313h72l-88 -499h-70l14 76q-31 -38 -70 -61t-71 -23h-62q-65 0 -102 36zM344 732h78l-122 -152h-62zM473 732h78l-122 -152h-62z" />
    <glyph glyph-name="Uogonek" unicode="&#x172;" horiz-adv-x="692" 
d="M695 700l-84 -478q-17 -98 -70 -156.5t-134 -70.5q-29 -17 -49 -41.5t-25 -52.5l-2 -10q-1 -3 -1 -10q0 -16 10.5 -26t30.5 -10h10q13 0 29 5.5t30 14.5l-10 -56q-12 -8 -28 -13t-32 -5h-10q-44 0 -69 20t-25 55q0 14 2 21l2 10q5 27 22.5 53t42.5 42h-77q-89 0 -140 49
t-51 132q0 26 4 49l84 478h74l-84 -480q-4 -28 -4 -39q0 -57 31.5 -90t85.5 -33h108q67 0 112 42.5t59 119.5l84 480h74z" />
    <glyph glyph-name="uogonek" unicode="&#x173;" horiz-adv-x="570" 
d="M414 -155q13 0 29 5.5t30 14.5l-10 -56q-12 -8 -28 -13t-32 -5h-10q-44 0 -69 20t-25 55q0 14 2 21l2 10q6 30 27.5 59.5t51.5 43.5h-2l14 76q-31 -38 -70 -61t-71 -23h-62q-65 0 -102 36t-37 97q0 18 3 37l59 337h72l-59 -339q-3 -15 -3 -29q0 -35 18 -55t49 -20h62
q48 0 91.5 35.5t66.5 94.5l55 313h72l-88 -499q-33 -16 -55.5 -42.5t-28.5 -56.5l-2 -10q-1 -3 -1 -10q0 -16 10.5 -26t30.5 -10h10z" />
    <glyph glyph-name="Wcircumflex" unicode="&#x174;" horiz-adv-x="844" 
d="M134 15.5q-13 15.5 -14 49.5l-7 635h71l2 -604h1l276 567h31q35 0 40 -43l63 -524h1l216 604h75l-231 -635q-12 -32 -29.5 -48.5t-47.5 -16.5h-30l-71 564h-1l-274 -564h-30q-28 0 -41 15.5zM516 943h55l96 -162h-65l-64 112l-104 -112h-71z" />
    <glyph glyph-name="wcircumflex" unicode="&#x175;" horiz-adv-x="723" 
d="M735 499l-186 -441q-13 -30 -29.5 -44t-40.5 -14h-34l-59 377l-195 -377h-34q-23 0 -35.5 14t-14.5 44l-31 441h73l19 -419l207 405h26q29 0 33 -32l56 -370l166 416h79zM421 742h55l96 -162h-65l-64 112l-104 -112h-71z" />
    <glyph glyph-name="Ycircumflex" unicode="&#x176;" horiz-adv-x="622" 
d="M277 269l-182 431h75l151 -364l279 364h85l-334 -431l-47 -269h-74zM405 943h55l96 -162h-65l-64 112l-104 -112h-71z" />
    <glyph glyph-name="ycircumflex" unicode="&#x177;" horiz-adv-x="572" 
d="M62 -171.5q-40 31.5 -40 83.5l1 14h72q-2 -30 18.5 -48.5t54.5 -18.5h78q51 0 86 34.5t46 96.5l17 92q-27 -36 -67 -59t-72 -23h-62q-66 0 -103.5 36t-37.5 97q0 18 3 37l58 329h72l-58 -331q-2 -9 -2 -27q0 -36 18 -56.5t50 -20.5h62q49 0 92 35.5t66 94.5l54 305h72
l-90 -509q-16 -91 -70 -142t-134 -51h-78q-66 0 -106 31.5zM344 742h55l96 -162h-65l-64 112l-104 -112h-71z" />
    <glyph glyph-name="Ydieresis" unicode="&#x178;" horiz-adv-x="622" 
d="M277 269l-182 431h75l151 -364l279 364h85l-334 -431l-47 -269h-74zM274 792q-11 11 -11 28q0 26 16.5 42.5t42.5 16.5q19 0 30 -11t11 -28q0 -26 -16.5 -42.5t-42.5 -16.5q-19 0 -30 11zM473 792q-11 11 -11 28q0 26 16.5 42.5t42.5 16.5q19 0 30 -11t11 -28
q0 -26 -16.5 -42.5t-42.5 -16.5q-19 0 -30 11z" />
    <glyph glyph-name="Zacute" unicode="&#x179;" horiz-adv-x="578" 
d="M2 33l501 604h-377l11 63h480l-5 -33l-502 -604h385l-11 -63h-488zM460 933h84l-126 -152h-68z" />
    <glyph glyph-name="zacute" unicode="&#x17a;" horiz-adv-x="472" 
d="M-2 32l367 406h-284l11 61h388l-6 -32l-367 -406h291l-11 -61h-395zM372 732h84l-126 -152h-68z" />
    <glyph glyph-name="Zdotaccent" unicode="&#x17b;" horiz-adv-x="578" 
d="M2 33l501 604h-377l11 63h480l-5 -33l-502 -604h385l-11 -63h-488zM349.5 792.5q-12.5 11.5 -12.5 31.5q0 29 18 47t47 18q20 0 32.5 -12t12.5 -31q0 -29 -17.5 -47t-46.5 -18q-21 0 -33.5 11.5z" />
    <glyph glyph-name="zdotaccent" unicode="&#x17c;" horiz-adv-x="472" 
d="M-2 32l367 406h-284l11 61h388l-6 -32l-367 -406h291l-11 -61h-395zM261.5 591.5q-12.5 11.5 -12.5 31.5q0 29 18 47t47 18q20 0 32.5 -12t12.5 -31q0 -29 -17.5 -47t-46.5 -18q-21 0 -33.5 11.5z" />
    <glyph glyph-name="Zcaron" unicode="&#x17d;" horiz-adv-x="578" 
d="M2 33l501 604h-377l11 63h480l-5 -33l-502 -604h385l-11 -63h-488zM259 943h65l64 -112l104 112h71l-154 -162h-55z" />
    <glyph glyph-name="zcaron" unicode="&#x17e;" horiz-adv-x="472" 
d="M-2 32l367 406h-284l11 61h388l-6 -32l-367 -406h291l-11 -61h-395zM171 742h65l64 -112l104 112h71l-154 -162h-55z" />
    <glyph glyph-name="uni018F" unicode="&#x18f;" horiz-adv-x="708" 
d="M631 653.5q59 -54.5 59 -144.5q0 -22 -5 -50l-36 -204q-23 -127 -95 -195t-184 -68h-114q-94 0 -148 53t-54 143q0 29 6 60l9 48h-1l12 64h514l17 99q4 28 4 41q0 66 -38 104t-104 38h-106q-76 0 -125.5 -42.5t-63.5 -118.5h-74q19 107 88.5 167t174.5 60h106
q99 0 158 -54.5zM504.5 110q54.5 52 70.5 145l7 41h-439l-9 -48q-5 -30 -5 -50q0 -65 33.5 -102.5t93.5 -37.5h114q80 0 134.5 52z" />
    <glyph glyph-name="florin" unicode="&#x192;" horiz-adv-x="601" 
d="M-6 -104h38q42 0 71 24.5t52 79.5l185 437h-85l12 64h100l16 37q36 84 83 125t121 41h38l-11 -62h-38q-39 0 -66.5 -24t-53.5 -80l-17 -37h108l-12 -64h-123l-185 -437q-36 -86 -82 -126t-119 -40h-43z" />
    <glyph glyph-name="Ohorn" unicode="&#x1a0;" horiz-adv-x="766" 
d="M851 698l-2 -12q-13 -82 -58 -127t-113 -46q0 -23 -5 -56l-38 -214q-21 -120 -91 -185.5t-177 -65.5h-107q-95 0 -150.5 53.5t-55.5 144.5q0 21 5 53l38 214q20 118 90.5 184.5t176.5 66.5h106q79 0 131.5 -35.5t69.5 -99.5h9q38 0 65 30t36 83l2 12h68zM603 502
q0 65 -36 102.5t-99 37.5h-102q-76 0 -127.5 -49t-67.5 -136l-38 -214q-4 -21 -4 -45q0 -65 35.5 -102.5t97.5 -37.5h103q76 0 128 49t68 136l38 214q4 21 4 45z" />
    <glyph glyph-name="ohorn" unicode="&#x1a1;" horiz-adv-x="634" 
d="M686 507l-2 -12q-13 -77 -54 -122t-103 -50l-1 -5l-24 -137q-16 -89 -72 -139t-140 -50h-82q-78 0 -123 40.5t-45 109.5q0 13 4 39l24 137q16 89 71.5 139t138.5 50h82q71 0 115 -33t53 -91q33 5 56.5 34t31.5 78l2 12h68zM457 346q0 44 -26 70.5t-71 26.5h-82
q-55 0 -91.5 -33t-46.5 -92l-24 -137q-3 -15 -3 -29q0 -44 25.5 -70t69.5 -26h82q53 0 91.5 34.5t48.5 90.5l24 137q3 15 3 28z" />
    <glyph glyph-name="Uhorn" unicode="&#x1af;" horiz-adv-x="766" 
d="M846 700l-2 -12q-13 -82 -58.5 -127.5t-113.5 -45.5h-10l-51 -293q-20 -110 -83.5 -170t-161.5 -60h-108q-89 0 -140 49t-51 132q0 26 4 49l84 478h74l-84 -480q-4 -28 -4 -39q0 -57 31.5 -90t85.5 -33h108q67 0 112 42.5t59 119.5l84 480h74l-22 -125h2q38 0 65 30
t36 83l2 12h68z" />
    <glyph glyph-name="uhorn" unicode="&#x1b0;" horiz-adv-x="642" 
d="M670 498l-2 -12q-13 -79 -56 -124.5t-107 -48.5l-55 -313h-70l14 76q-31 -38 -70 -61t-71 -23h-62q-65 0 -102 36t-37 97q0 18 3 37l59 337h72l-59 -339q-3 -15 -3 -29q0 -35 18 -55t49 -20h62q48 0 91.5 35.5t66.5 94.5l55 313h72l-22 -124q32 6 54 35t30 76l2 12h68z
" />
    <glyph glyph-name="uni01CD" unicode="&#x1cd;" horiz-adv-x="647" 
d="M472 194h-308l-106 -194h-80l392 700h34q33 0 41 -40l83 -404h1v-2l52 -254h-72zM198 256h261l-68 348h-1zM294 943h65l64 -112l104 112h71l-154 -162h-55z" />
    <glyph glyph-name="uni01CE" unicode="&#x1ce;" horiz-adv-x="556" 
d="M78 23.5q-41 31.5 -41 84.5q0 8 2 24l6 33q12 66 58.5 102t118.5 36h64q33 0 72.5 -10.5t60.5 -26.5l14 83q2 14 2 20q0 35 -21.5 55t-58.5 20h-80q-43 0 -72.5 -20t-35.5 -53h-72q11 61 60.5 98.5t119.5 37.5h80q70 0 110.5 -34t40.5 -93q0 -14 -3 -31l-61 -349h-68
l12 70q-30 -37 -66 -57.5t-75 -20.5h-60q-66 0 -107 31.5zM247 55q47 0 89.5 29t63.5 77l7 37q-17 19 -50.5 30.5t-70.5 11.5h-64q-43 0 -70.5 -20t-34.5 -56l-6 -32q-2 -12 -2 -16q0 -28 20.5 -44.5t55.5 -16.5h62zM218 742h65l64 -112l104 112h71l-154 -162h-55z" />
    <glyph glyph-name="uni01CF" unicode="&#x1cf;" horiz-adv-x="254" 
d="M169 700h74l-123 -700h-74zM97 943h65l64 -112l104 112h71l-154 -162h-55z" />
    <glyph glyph-name="uni01D0" unicode="&#x1d0;" horiz-adv-x="236" 
d="M126 499h72l-88 -499h-72zM53 742h65l64 -112l104 112h71l-154 -162h-55z" />
    <glyph glyph-name="uni01D1" unicode="&#x1d1;" horiz-adv-x="696" 
d="M109.5 45.5q-55.5 53.5 -55.5 144.5q0 21 5 53l38 214q20 118 90.5 184.5t176.5 66.5h106q97 0 152.5 -53t55.5 -143q0 -23 -5 -55l-38 -214q-21 -120 -91 -185.5t-177 -65.5h-107q-95 0 -150.5 53.5zM365 58q76 0 128 49t68 136l38 214q4 21 4 45q0 65 -36 102.5
t-99 37.5h-102q-76 0 -127.5 -49t-67.5 -136l-38 -214q-4 -21 -4 -45q0 -65 35.5 -102.5t97.5 -37.5h103zM319 943h65l64 -112l104 112h71l-154 -162h-55z" />
    <glyph glyph-name="uni01D2" unicode="&#x1d2;" horiz-adv-x="570" 
d="M85 32.5q-45 40.5 -45 109.5q0 13 4 39l24 137q16 89 71.5 139t138.5 50h82q79 0 124.5 -40.5t45.5 -109.5q0 -13 -4 -39l-24 -137q-16 -89 -72 -139t-140 -50h-82q-78 0 -123 40.5zM290 56q53 0 91.5 34.5t48.5 90.5l24 137q3 15 3 28q0 44 -26 70.5t-71 26.5h-82
q-55 0 -91.5 -33t-46.5 -92l-24 -137q-3 -15 -3 -29q0 -44 25.5 -70t69.5 -26h82zM220 742h65l64 -112l104 112h71l-154 -162h-55z" />
    <glyph glyph-name="uni01D3" unicode="&#x1d3;" horiz-adv-x="692" 
d="M118 41q-51 49 -51 132q0 26 4 49l84 478h74l-84 -480q-4 -28 -4 -39q0 -57 31.5 -90t85.5 -33h108q67 0 112 42.5t59 119.5l84 480h74l-84 -478q-20 -110 -83.5 -170t-161.5 -60h-108q-89 0 -140 49zM316 943h65l64 -112l104 112h71l-154 -162h-55z" />
    <glyph glyph-name="uni01D4" unicode="&#x1d4;" horiz-adv-x="570" 
d="M89 28q-37 36 -37 97q0 18 3 37l59 337h72l-59 -339q-3 -15 -3 -29q0 -35 18 -55t49 -20h62q48 0 91.5 35.5t66.5 94.5l55 313h72l-88 -499h-70l14 76q-31 -38 -70 -61t-71 -23h-62q-65 0 -102 36zM220 742h65l64 -112l104 112h71l-154 -162h-55z" />
    <glyph glyph-name="uni01D5" unicode="&#x1d5;" horiz-adv-x="692" 
d="M118 41q-51 49 -51 132q0 26 4 49l84 478h74l-84 -480q-4 -28 -4 -39q0 -57 31.5 -90t85.5 -33h108q67 0 112 42.5t59 119.5l84 480h74l-84 -478q-20 -110 -83.5 -170t-161.5 -60h-108q-89 0 -140 49zM348 987h255l-9 -52h-255zM309 792q-11 11 -11 28q0 26 16.5 42.5
t42.5 16.5q19 0 30 -11t11 -28q0 -26 -16.5 -42.5t-42.5 -16.5q-19 0 -30 11zM508 792q-11 11 -11 28q0 26 16.5 42.5t42.5 16.5q19 0 30 -11t11 -28q0 -26 -16.5 -42.5t-42.5 -16.5q-19 0 -30 11z" />
    <glyph glyph-name="uni01D6" unicode="&#x1d6;" horiz-adv-x="570" 
d="M89 28q-37 36 -37 97q0 18 3 37l59 337h72l-59 -339q-3 -15 -3 -29q0 -35 18 -55t49 -20h62q48 0 91.5 35.5t66.5 94.5l55 313h72l-88 -499h-70l14 76q-31 -38 -70 -61t-71 -23h-62q-65 0 -102 36zM252 786h255l-9 -52h-255zM213 591q-11 11 -11 28q0 26 16.5 42.5
t42.5 16.5q19 0 30 -11t11 -28q0 -26 -16.5 -42.5t-42.5 -16.5q-19 0 -30 11zM412 591q-11 11 -11 28q0 26 16.5 42.5t42.5 16.5q19 0 30 -11t11 -28q0 -26 -16.5 -42.5t-42.5 -16.5q-19 0 -30 11z" />
    <glyph glyph-name="uni01D7" unicode="&#x1d7;" horiz-adv-x="692" 
d="M118 41q-51 49 -51 132q0 26 4 49l84 478h74l-84 -480q-4 -28 -4 -39q0 -57 31.5 -90t85.5 -33h108q67 0 112 42.5t59 119.5l84 480h74l-84 -478q-20 -110 -83.5 -170t-161.5 -60h-108q-89 0 -140 49zM517 1041h72l-96 -116h-60zM309 792q-11 11 -11 28q0 26 16.5 42.5
t42.5 16.5q19 0 30 -11t11 -28q0 -26 -16.5 -42.5t-42.5 -16.5q-19 0 -30 11zM508 792q-11 11 -11 28q0 26 16.5 42.5t42.5 16.5q19 0 30 -11t11 -28q0 -26 -16.5 -42.5t-42.5 -16.5q-19 0 -30 11z" />
    <glyph glyph-name="uni01D8" unicode="&#x1d8;" horiz-adv-x="570" 
d="M89 28q-37 36 -37 97q0 18 3 37l59 337h72l-59 -339q-3 -15 -3 -29q0 -35 18 -55t49 -20h62q48 0 91.5 35.5t66.5 94.5l55 313h72l-88 -499h-70l14 76q-31 -38 -70 -61t-71 -23h-62q-65 0 -102 36zM421 840h72l-96 -116h-60zM213 591q-11 11 -11 28q0 26 16.5 42.5
t42.5 16.5q19 0 30 -11t11 -28q0 -26 -16.5 -42.5t-42.5 -16.5q-19 0 -30 11zM412 591q-11 11 -11 28q0 26 16.5 42.5t42.5 16.5q19 0 30 -11t11 -28q0 -26 -16.5 -42.5t-42.5 -16.5q-19 0 -30 11z" />
    <glyph glyph-name="uni01D9" unicode="&#x1d9;" horiz-adv-x="692" 
d="M118 41q-51 49 -51 132q0 26 4 49l84 478h74l-84 -480q-4 -28 -4 -39q0 -57 31.5 -90t85.5 -33h108q67 0 112 42.5t59 119.5l84 480h74l-84 -478q-20 -110 -83.5 -170t-161.5 -60h-108q-89 0 -140 49zM359 1060h59l52 -91l84 91h63l-128 -135h-50zM309 792q-11 11 -11 28
q0 26 16.5 42.5t42.5 16.5q19 0 30 -11t11 -28q0 -26 -16.5 -42.5t-42.5 -16.5q-19 0 -30 11zM508 792q-11 11 -11 28q0 26 16.5 42.5t42.5 16.5q19 0 30 -11t11 -28q0 -26 -16.5 -42.5t-42.5 -16.5q-19 0 -30 11z" />
    <glyph glyph-name="uni01DA" unicode="&#x1da;" horiz-adv-x="570" 
d="M89 28q-37 36 -37 97q0 18 3 37l59 337h72l-59 -339q-3 -15 -3 -29q0 -35 18 -55t49 -20h62q48 0 91.5 35.5t66.5 94.5l55 313h72l-88 -499h-70l14 76q-31 -38 -70 -61t-71 -23h-62q-65 0 -102 36zM263 859h59l52 -91l84 91h63l-128 -135h-50zM213 591q-11 11 -11 28
q0 26 16.5 42.5t42.5 16.5q19 0 30 -11t11 -28q0 -26 -16.5 -42.5t-42.5 -16.5q-19 0 -30 11zM412 591q-11 11 -11 28q0 26 16.5 42.5t42.5 16.5q19 0 30 -11t11 -28q0 -26 -16.5 -42.5t-42.5 -16.5q-19 0 -30 11z" />
    <glyph glyph-name="uni01DB" unicode="&#x1db;" horiz-adv-x="692" 
d="M118 41q-51 49 -51 132q0 26 4 49l84 478h74l-84 -480q-4 -28 -4 -39q0 -57 31.5 -90t85.5 -33h108q67 0 112 42.5t59 119.5l84 480h74l-84 -478q-20 -110 -83.5 -170t-161.5 -60h-108q-89 0 -140 49zM377 1041h68l44 -116h-56zM309 792q-11 11 -11 28q0 26 16.5 42.5
t42.5 16.5q19 0 30 -11t11 -28q0 -26 -16.5 -42.5t-42.5 -16.5q-19 0 -30 11zM508 792q-11 11 -11 28q0 26 16.5 42.5t42.5 16.5q19 0 30 -11t11 -28q0 -26 -16.5 -42.5t-42.5 -16.5q-19 0 -30 11z" />
    <glyph glyph-name="uni01DC" unicode="&#x1dc;" horiz-adv-x="570" 
d="M89 28q-37 36 -37 97q0 18 3 37l59 337h72l-59 -339q-3 -15 -3 -29q0 -35 18 -55t49 -20h62q48 0 91.5 35.5t66.5 94.5l55 313h72l-88 -499h-70l14 76q-31 -38 -70 -61t-71 -23h-62q-65 0 -102 36zM281 840h68l44 -116h-56zM213 591q-11 11 -11 28q0 26 16.5 42.5
t42.5 16.5q19 0 30 -11t11 -28q0 -26 -16.5 -42.5t-42.5 -16.5q-19 0 -30 11zM412 591q-11 11 -11 28q0 26 16.5 42.5t42.5 16.5q19 0 30 -11t11 -28q0 -26 -16.5 -42.5t-42.5 -16.5q-19 0 -30 11z" />
    <glyph glyph-name="Gcaron" unicode="&#x1e6;" horiz-adv-x="684" 
d="M107.5 46q-53.5 54 -53.5 144q0 32 5 56l37 208q21 120 92 187t176 67h106q92 0 145 -48.5t53 -129.5q0 -25 -4 -46h-72q3 20 3 36q0 57 -33.5 89.5t-92.5 32.5h-106q-75 0 -126 -50t-67 -138l-37 -208q-4 -23 -4 -48q0 -65 33.5 -102.5t92.5 -37.5h108q74 0 124.5 47
t66.5 131l11 60h-195l11 65h267l-22 -125q-20 -115 -90 -179.5t-175 -64.5h-108q-92 0 -145.5 54zM316 943h65l64 -112l104 112h71l-154 -162h-55z" />
    <glyph glyph-name="gcaron" unicode="&#x1e7;" horiz-adv-x="578" 
d="M63 -171.5q-40 31.5 -40 83.5l1 14h72q-2 -30 18.5 -48.5t54.5 -18.5h83q51 0 86 34.5t46 96.5l14 77q-28 -31 -61.5 -49t-65.5 -18h-73q-72 0 -114 40t-42 109q0 22 4 42l20 117q15 90 72 144.5t139 54.5h70q37 0 70 -17.5t49 -46.5l10 56h70l-90 -509q-16 -91 -70 -142
t-134 -51h-83q-66 0 -106 31.5zM271 64q50 0 93 39.5t58 100.5l22 123q4 50 -23.5 83t-73.5 33h-68q-53 0 -92 -37t-49 -98l-20 -117q-3 -16 -3 -31q0 -44 22.5 -70t62.5 -26h71zM213 742h65l64 -112l104 112h71l-154 -162h-55z" />
    <glyph glyph-name="Aringacute" unicode="&#x1fa;" horiz-adv-x="647" 
d="M472 194h-308l-106 -194h-80l392 700h34q33 0 41 -40l83 -404h1v-2l52 -254h-72zM198 256h261l-68 348h-1zM346.5 766.5q-25.5 23.5 -25.5 62.5q0 54 34 87t90 33q41 0 66.5 -23.5t25.5 -62.5q0 -54 -34 -87t-90 -33q-41 0 -66.5 23.5zM467.5 809.5q18.5 18.5 18.5 48.5
q0 19 -13 31t-34 12q-30 0 -48.5 -18.5t-18.5 -48.5q0 -19 13 -31t34 -12q30 0 48.5 18.5zM532 1142h84l-126 -152h-68z" />
    <glyph glyph-name="aringacute" unicode="&#x1fb;" horiz-adv-x="556" 
d="M78 23.5q-41 31.5 -41 84.5q0 8 2 24l6 33q12 66 58.5 102t118.5 36h64q33 0 72.5 -10.5t60.5 -26.5l14 83q2 14 2 20q0 35 -21.5 55t-58.5 20h-80q-43 0 -72.5 -20t-35.5 -53h-72q11 61 60.5 98.5t119.5 37.5h80q70 0 110.5 -34t40.5 -93q0 -14 -3 -31l-61 -349h-68
l12 70q-30 -37 -66 -57.5t-75 -20.5h-60q-66 0 -107 31.5zM247 55q47 0 89.5 29t63.5 77l7 37q-17 19 -50.5 30.5t-70.5 11.5h-64q-43 0 -70.5 -20t-34.5 -56l-6 -32q-2 -12 -2 -16q0 -28 20.5 -44.5t55.5 -16.5h62zM270.5 565.5q-25.5 23.5 -25.5 62.5q0 54 34 87t90 33
q41 0 66.5 -23.5t25.5 -62.5q0 -54 -34 -87t-90 -33q-41 0 -66.5 23.5zM391.5 608.5q18.5 18.5 18.5 48.5q0 19 -13 31t-34 12q-30 0 -48.5 -18.5t-18.5 -48.5q0 -19 13 -31t34 -12q30 0 48.5 18.5zM456 941h84l-126 -152h-68z" />
    <glyph glyph-name="AEacute" unicode="&#x1fc;" horiz-adv-x="926" 
d="M470 700h485l-11 -64h-384l-43 -246h344l-12 -64h-344l-46 -262h384l-11 -64h-392q-26 0 -40 13t-14 37q0 10 1 16l22 128h-228l-140 -194h-77zM420 256l62 352h-1l-255 -352h194zM716 933h84l-126 -152h-68z" />
    <glyph glyph-name="aeacute" unicode="&#x1fd;" horiz-adv-x="908" 
d="M75.5 23.5q-37.5 31.5 -37.5 84.5q0 8 2 26l5 30q10 64 62.5 102t127.5 38h64q32 0 66 -10.5t56 -27.5l14 83q2 12 2 19q0 34 -21.5 54.5t-58.5 20.5h-80q-43 0 -73.5 -20t-36.5 -52h-72q11 61 61 98.5t121 37.5h80q47 0 84 -20t50 -53h1q28 34 66 53.5t80 19.5h78
q71 0 114 -40.5t43 -108.5q0 -17 -3 -37l-15 -88h-368l-11 -62q-2 -9 -2 -26q0 -42 25 -65.5t70 -23.5h72q50 0 85 27.5t43 73.5h70q-13 -75 -66 -120t-132 -45h-72q-56 0 -95.5 22.5t-53.5 62.5h-1q-79 -85 -183 -85h-59q-64 0 -101.5 31.5zM794 295l4 26q2 10 2 29
q0 43 -21.5 68t-62.5 25h-78q-51 0 -88 -34t-48 -93l-4 -21h296zM250 56q47 0 89 28.5t63 76.5l7 37q-17 19 -50.5 30.5t-70.5 11.5h-64q-43 0 -72 -20t-35 -56l-5 -30q-1 -5 -1 -14q0 -29 21 -46.5t56 -17.5h62zM596 732h84l-126 -152h-68z" />
    <glyph glyph-name="Oslashacute" unicode="&#x1fe;" horiz-adv-x="696" 
d="M659.5 603q18.5 -40 18.5 -91q0 -23 -5 -55l-38 -214q-21 -120 -91 -185.5t-177 -65.5h-107q-51 0 -93 17l-36 -54h-67l55 82q-32 26 -48.5 65t-16.5 87q0 22 5 54l38 214q20 118 90.5 184.5t176.5 66.5h106q47 0 87 -14l28 43h67l-46 -68q35 -26 53.5 -66zM129 198
q0 -61 32 -98l356 535q-21 7 -49 7h-102q-76 0 -127.5 -49t-67.5 -136l-38 -214q-4 -21 -4 -45zM603 503q0 66 -38 104l-359 -539q24 -10 56 -10h103q76 0 128 49t68 136l38 214q4 21 4 46zM520 933h84l-126 -152h-68z" />
    <glyph glyph-name="oslashacute" unicode="&#x1ff;" horiz-adv-x="570" 
d="M516 423.5q14 -29.5 14 -66.5q0 -13 -4 -39l-24 -137q-16 -89 -72 -139t-140 -50h-82q-33 0 -62 8l-25 -35h-70l43 61q-26 20 -40 49.5t-14 66.5q0 13 4 39l24 137q16 89 71.5 139t138.5 50h82q34 0 64 -8l25 36h70l-43 -62q26 -20 40 -49.5zM113 152q0 -41 22 -66
l248 355q-14 2 -23 2h-82q-55 0 -91.5 -33t-46.5 -92l-24 -137q-3 -15 -3 -29zM457 346q0 39 -23 67l-248 -355q14 -2 22 -2h82q53 0 91.5 34.5t48.5 90.5l24 137q3 15 3 28zM421 732h84l-126 -152h-68z" />
    <glyph glyph-name="uni0218" unicode="&#x218;" horiz-adv-x="627" 
d="M92.5 36q-49.5 44 -49.5 119q0 22 4 42h72q-3 -16 -3 -32q0 -49 30 -78t81 -29h111q61 0 100 25.5t47 70.5l12 64q1 4 1 13q0 28 -22.5 48.5t-60.5 27.5l-175 30q-63 10 -99 46t-36 87q0 8 2 24l10 54q14 76 71 118t144 42h113q80 0 126 -40t46 -109q0 -12 -4 -38h-72
q3 15 3 27q0 44 -26.5 69t-72.5 25h-113q-58 0 -95 -25t-46 -69l-10 -54q-1 -5 -1 -13q0 -29 22 -50t59 -28l174 -31q64 -11 101 -46.5t37 -84.5q0 -7 -2 -23l-12 -64q-15 -80 -70.5 -121t-146.5 -41h-115q-85 0 -134.5 44zM142 -228l17 10q35 22 54 48t24 60l5 31h72
l-5 -31q-9 -55 -37 -94.5t-78 -67.5l-21 -12z" />
    <glyph glyph-name="uni0219" unicode="&#x219;" horiz-adv-x="520" 
d="M70 26q-41 34 -41 91q0 15 3 31h70q-2 -14 -2 -20q0 -34 22 -54t61 -20h87q45 0 73.5 16.5t34.5 46.5l7 34q1 3 1 8q0 17 -12.5 29t-33.5 16l-168 30q-45 8 -71 33.5t-26 60.5q0 5 2 17l6 33q11 61 56 95t115 34h86q67 0 105.5 -32t38.5 -86q0 -17 -2 -26h-70q1 5 1 16
q0 30 -19.5 48t-53.5 18h-86q-40 0 -66 -18t-33 -49l-6 -29q-4 -19 10 -33.5t40 -19.5l167 -30q43 -8 68 -33t25 -60q0 -6 -2 -18l-7 -40q-11 -58 -58 -90.5t-122 -32.5h-87q-72 0 -113 34zM80 -228l17 10q35 22 54 48t24 60l5 31h72l-5 -31q-9 -55 -37 -94.5t-78 -67.5
l-21 -12z" />
    <glyph glyph-name="uni021A" unicode="&#x21a;" horiz-adv-x="578" 
d="M320 636h-222l11 64h518l-11 -64h-222l-112 -636h-74zM95 -228l17 10q35 22 54 48t24 60l5 31h72l-5 -31q-9 -55 -37 -94.5t-78 -67.5l-21 -12z" />
    <glyph glyph-name="uni021B" unicode="&#x21b;" horiz-adv-x="382" 
d="M131.5 23.5q-30.5 23.5 -30.5 75.5q0 19 5 47l51 289h-88l11 64h88l27 151h72l-27 -151h130l-11 -64h-130l-51 -289q-2 -10 -2 -28q0 -30 14.5 -42t49.5 -12h53l-12 -64h-53q-66 0 -96.5 23.5zM38 -228l17 10q35 22 54 48t24 60l5 31h72l-5 -31q-9 -55 -37 -94.5
t-78 -67.5l-21 -12z" />
    <glyph glyph-name="uni0237" unicode="&#x237;" horiz-adv-x="254" 
d="M-100 -135h35q51 0 79 28t39 92l91 514h72l-90 -509q-17 -100 -64 -144.5t-138 -44.5h-35z" />
    <glyph glyph-name="uni0251" unicode="&#x251;" horiz-adv-x="580" 
d="M82.5 33.5q-42.5 41.5 -42.5 109.5q0 21 4 40l22 120q17 96 72 150t135 54h72q41 0 73.5 -18t45.5 -48l10 58h70l-67 -383q-1 -5 -1 -15q0 -37 37 -37h24l-11 -64h-34q-40 0 -62 20t-21 56h-1q-28 -37 -70 -60.5t-77 -23.5h-63q-73 0 -115.5 41.5zM265 56q54 0 96.5 39
t59.5 103l22 126q3 53 -23.5 86t-72.5 33h-72q-53 0 -89 -37t-48 -103l-22 -120q-3 -16 -3 -32q0 -44 23.5 -69.5t63.5 -25.5h65z" />
    <glyph glyph-name="uni0259" unicode="&#x259;" horiz-adv-x="548" 
d="M72 30.5q-39 38.5 -39 104.5q0 23 4 43l16 88h370l11 60q3 14 3 27q0 42 -26 66t-71 24h-74q-50 0 -85 -27.5t-43 -73.5h-70q14 74 71 119.5t138 45.5h74q73 0 115 -38.5t42 -104.5q0 -18 -3 -38l-25 -143q-15 -86 -75.5 -138.5t-144.5 -52.5h-80q-69 0 -108 38.5z
M271 56q53 0 89.5 35.5t47.5 91.5l4 21h-298l-5 -26q-3 -16 -3 -32q0 -41 22.5 -65.5t62.5 -24.5h80z" />
    <glyph glyph-name="uni02BB" unicode="&#x2bb;" horiz-adv-x="241" 
d="M95 594q9 55 37 94.5t78 67.5l21 12l31 -56l-17 -10q-34 -20 -53 -45.5t-25 -62.5l-5 -31h-72z" />
    <glyph glyph-name="uni02BC" unicode="&#x2bc;" horiz-adv-x="241" 
d="M87 551l17 10q35 20 54 46.5t24 61.5l5 31h72l-5 -31q-9 -55 -37 -94.5t-78 -67.5l-21 -12z" />
    <glyph glyph-name="uni02BE" unicode="&#x2be;" 
d="M57 572q30 0 48.5 18.5t18.5 48.5q0 19 -13 31t-34 12l8 48q41 0 65.5 -23.5t24.5 -62.5q0 -54 -34.5 -87t-91.5 -33z" />
    <glyph glyph-name="uni02BF" unicode="&#x2bf;" 
d="M-16.5 547.5q-24.5 23.5 -24.5 62.5q0 54 34.5 87t91.5 33l-8 -48q-30 0 -48.5 -18.5t-18.5 -48.5q0 -19 13 -31t34 -12l-8 -48q-41 0 -65.5 23.5z" />
    <glyph glyph-name="circumflex" unicode="&#x2c6;" horiz-adv-x="404" 
d="M412 580h-65l-64 112l-104 -112h-71l154 162h55z" />
    <glyph glyph-name="caron" unicode="&#x2c7;" horiz-adv-x="404" 
d="M137 742h65l64 -112l104 112h71l-154 -162h-55z" />
    <glyph glyph-name="uni02C8" unicode="&#x2c8;" 
d="M48 727h72l-26 -147h-72z" />
    <glyph glyph-name="uni02C9" unicode="&#x2c9;" horiz-adv-x="492" 
d="M146 660h344l-9 -52h-344z" />
    <glyph glyph-name="uni02CA" unicode="&#x2ca;" 
d="M-26 589l147 143l44 -49l-161 -127z" />
    <glyph glyph-name="uni02CB" unicode="&#x2cb;" 
d="M-10 683l61 49l96 -143l-41 -33z" />
    <glyph glyph-name="uni02CC" unicode="&#x2cc;" 
d="M-84 -40h72l-26 -147h-72z" />
    <glyph glyph-name="breve" unicode="&#x2d8;" horiz-adv-x="390" 
d="M162 602.5q-33 30.5 -33 82.5q0 12 1 18l1 8h58l-1 -8q-1 -5 -1 -13q0 -31 18.5 -49.5t49.5 -18.5h12q39 0 65.5 22t30.5 59l1 8h57l-1 -8q-7 -59 -50 -95t-106 -36h-12q-57 0 -90 30.5z" />
    <glyph glyph-name="dotaccent" unicode="&#x2d9;" horiz-adv-x="208" 
d="M129.5 591.5q-12.5 11.5 -12.5 31.5q0 29 18 47t47 18q20 0 32.5 -12t12.5 -31q0 -29 -17.5 -47t-46.5 -18q-21 0 -33.5 11.5z" />
    <glyph glyph-name="ring" unicode="&#x2da;" horiz-adv-x="312" 
d="M143.5 565.5q-25.5 23.5 -25.5 62.5q0 54 34 87t90 33q41 0 66.5 -23.5t25.5 -62.5q0 -54 -34 -87t-90 -33q-41 0 -66.5 23.5zM264.5 608.5q18.5 18.5 18.5 48.5q0 19 -13 31t-34 12q-30 0 -48.5 -18.5t-18.5 -48.5q0 -19 13 -31t34 -12q30 0 48.5 18.5z" />
    <glyph glyph-name="ogonek" unicode="&#x2db;" horiz-adv-x="276" 
d="M9 -189q-25 20 -25 55q0 14 2 21l2 10q6 30 27.5 59.5t51.5 43.5h68q-33 -16 -55.5 -42.5t-28.5 -56.5l-2 -10q-1 -3 -1 -10q0 -16 10.5 -26t30.5 -10h10q13 0 29 5.5t30 14.5l-10 -56q-12 -8 -28 -13t-32 -5h-10q-44 0 -69 20z" />
    <glyph glyph-name="tilde" unicode="&#x2dc;" horiz-adv-x="423" 
d="M296.5 582.5q-15.5 10.5 -32.5 29.5q-13 14 -21.5 20.5t-19.5 6.5h-10q-17 0 -29.5 -13.5t-17.5 -37.5h-56q11 48 39 74.5t68 26.5h10q24 0 40 -11t34 -31q12 -13 19.5 -19t16.5 -6h10q15 0 27 13.5t18 37.5h56q-11 -48 -38 -74.5t-66 -26.5h-10q-22 0 -37.5 10.5z" />
    <glyph glyph-name="hungarumlaut" unicode="&#x2dd;" horiz-adv-x="386" 
d="M214 732h78l-122 -152h-62zM343 732h78l-122 -152h-62z" />
    <glyph glyph-name="gravecomb" unicode="&#x300;" 
d="M-45 732h80l56 -152h-64z" />
    <glyph glyph-name="acutecomb" unicode="&#x301;" 
d="M136 732h84l-126 -152h-68z" />
    <glyph glyph-name="uni0302" unicode="&#x302;" 
d="M59 742h55l96 -162h-65l-64 112l-104 -112h-71z" />
    <glyph glyph-name="tildecomb" unicode="&#x303;" 
d="M85.5 582.5q-15.5 10.5 -32.5 29.5q-13 14 -21.5 20.5t-19.5 6.5h-10q-17 0 -29.5 -13.5t-17.5 -37.5h-56q11 48 39 74.5t68 26.5h10q24 0 40 -11t34 -31q12 -13 19.5 -19t16.5 -6h10q15 0 27 13.5t18 37.5h56q-11 -48 -38 -74.5t-66 -26.5h-10q-22 0 -37.5 10.5z" />
    <glyph glyph-name="uni0304" unicode="&#x304;" 
d="M-58 642h255l-9 -52h-255z" />
    <glyph glyph-name="uni0306" unicode="&#x306;" 
d="M-33 602.5q-33 30.5 -33 82.5q0 12 1 18l1 8h58l-1 -8q-1 -5 -1 -13q0 -31 18.5 -49.5t49.5 -18.5h12q39 0 65.5 22t30.5 59l1 8h57l-1 -8q-7 -59 -50 -95t-106 -36h-12q-57 0 -90 30.5z" />
    <glyph glyph-name="uni0307" unicode="&#x307;" 
d="M25.5 591.5q-12.5 11.5 -12.5 31.5q0 29 18 47t47 18q20 0 32.5 -12t12.5 -31q0 -29 -17.5 -47t-46.5 -18q-21 0 -33.5 11.5z" />
    <glyph glyph-name="uni0308" unicode="&#x308;" 
d="M-72 591q-11 11 -11 28q0 26 16.5 42.5t42.5 16.5q19 0 30 -11t11 -28q0 -26 -16.5 -42.5t-42.5 -16.5q-19 0 -30 11zM127 591q-11 11 -11 28q0 26 16.5 42.5t42.5 16.5q19 0 30 -11t11 -28q0 -26 -16.5 -42.5t-42.5 -16.5q-19 0 -30 11z" />
    <glyph glyph-name="hookabovecomb" unicode="&#x309;" 
d="M24 582q4 21 18.5 35t40.5 29q19 12 29 20t12 19l2 11q1 3 1 8q0 25 -32 25h-20q-41 0 -49 -42h-58q15 94 110 94h20q90 0 90 -65q0 -6 -2 -20l-2 -11q-4 -23 -19.5 -38t-42.5 -32q-17 -11 -26 -18t-10 -15l-3 -16h-62z" />
    <glyph glyph-name="uni030A" unicode="&#x30a;" 
d="M-12.5 565.5q-25.5 23.5 -25.5 62.5q0 54 34 87t90 33q41 0 66.5 -23.5t25.5 -62.5q0 -54 -34 -87t-90 -33q-41 0 -66.5 23.5zM108.5 608.5q18.5 18.5 18.5 48.5q0 19 -13 31t-34 12q-30 0 -48.5 -18.5t-18.5 -48.5q0 -19 13 -31t34 -12q30 0 48.5 18.5z" />
    <glyph glyph-name="uni030B" unicode="&#x30b;" 
d="M59 732h78l-122 -152h-62zM188 732h78l-122 -152h-62z" />
    <glyph glyph-name="uni030C" unicode="&#x30c;" 
d="M-65 742h65l64 -112l104 112h71l-154 -162h-55z" />
    <glyph glyph-name="uni031B" unicode="&#x31b;" 
d="M-70 507h22q38 0 65 30t36 83l2 12h68l-2 -12q-13 -82 -58.5 -127.5t-113.5 -45.5h-30z" />
    <glyph glyph-name="dotbelowcomb" unicode="&#x323;" 
d="M-107.5 -159.5q-12.5 11.5 -12.5 31.5q0 29 18 47t47 18q20 0 32.5 -12t12.5 -31q0 -29 -17.5 -47t-46.5 -18q-21 0 -33.5 11.5z" />
    <glyph glyph-name="uni0324" unicode="&#x324;" 
d="M-202 -144q-11 11 -11 28q0 26 16.5 42.5t42.5 16.5q19 0 30 -11t11 -28q0 -26 -16.5 -42.5t-42.5 -16.5q-19 0 -30 11zM-3 -144q-11 11 -11 28q0 26 16.5 42.5t42.5 16.5q19 0 30 -11t11 -28q0 -26 -16.5 -42.5t-42.5 -16.5q-19 0 -30 11z" />
    <glyph glyph-name="uni0326" unicode="&#x326;" 
d="M-194 -228l17 10q35 22 54 48t24 60l5 31h72l-5 -31q-9 -55 -37 -94.5t-78 -67.5l-21 -12z" />
    <glyph glyph-name="uni0327" unicode="&#x327;" 
d="M-141 -175h53q23 0 38 9t18 25l2 11q3 15 -8 24.5t-31 9.5h-47l8 44l40 66h59l-43 -68h3q36 0 56.5 -16.5t20.5 -45.5q0 -9 -1 -14l-2 -11q-7 -39 -36.5 -60.5t-76.5 -21.5h-61z" />
    <glyph glyph-name="uni0328" unicode="&#x328;" 
d="M-139 -189q-25 20 -25 55q0 14 2 21l2 10q6 30 27.5 59.5t51.5 43.5h68q-33 -16 -55.5 -42.5t-28.5 -56.5l-2 -10q-1 -3 -1 -10q0 -16 10.5 -26t30.5 -10h10q13 0 29 5.5t30 14.5l-10 -56q-12 -8 -28 -13t-32 -5h-10q-44 0 -69 20z" />
    <glyph glyph-name="uni032E" unicode="&#x32e;" 
d="M-170 -172q-33 30 -33 81q0 13 1 20l1 8h58l-1 -8q-1 -5 -1 -13q0 -32 18 -50t50 -18h12q39 0 65.5 22t30.5 59l1 8h57l-1 -8q-7 -59 -50 -95t-106 -36h-12q-57 0 -90 30z" />
    <glyph glyph-name="uni0331" unicode="&#x331;" 
d="M-184 -72h255l-9 -52h-255z" />
    <glyph glyph-name="uni0394" unicode="&#x394;" horiz-adv-x="705" 
d="M23 64l382 636h60l151 -636l-11 -64h-593zM545 66l-124 530l-317 -530h441z" />
    <glyph glyph-name="uni03A9" unicode="&#x3a9;" horiz-adv-x="764" 
d="M24 66h199l20 114q-67 7 -102.5 44.5t-35.5 99.5q0 12 4 42l21 121q18 104 87.5 162.5t175.5 58.5h114q98 0 154.5 -48.5t56.5 -129.5q0 -23 -4 -43l-21 -121q-14 -80 -66 -129t-130 -57l-20 -114h199l-12 -66h-273l43 244h49q54 0 90 32.5t46 89.5l21 121q3 17 3 32
q0 57 -36.5 90t-99.5 33h-114q-76 0 -126 -41t-63 -114l-21 -121q-3 -16 -3 -30q0 -44 25.5 -68t73.5 -24h49l-43 -244h-273z" />
    <glyph glyph-name="uni03BC" unicode="&#x3bc;" horiz-adv-x="570" 
d="M538 499l-88 -499h-70l13 76q-29 -37 -70 -60.5t-77 -23.5h-60q-26 0 -47.5 10.5t-35.5 28.5l-37 -214h-72l120 682h72l-61 -347q-2 -16 -2 -22q0 -35 19 -54.5t53 -19.5h58q46 0 91.5 37.5t66.5 92.5l55 313h72z" />
    <glyph glyph-name="pi" unicode="&#x3c0;" horiz-adv-x="721" 
d="M527 146q-3 -16 -3 -30q0 -28 15 -40t50 -12h43l-11 -64h-44q-66 0 -96.5 23.5t-30.5 75.5q0 19 5 47l51 289h-230l-77 -435h-72l77 435h-115l11 64h609l-11 -64h-120z" />
    <glyph glyph-name="uni0E01" unicode="&#xe01;" horiz-adv-x="602" 
d="M123 269q2 14 2 19q0 56 -66 69q16 52 50.5 98.5t81.5 74.5t97 28h118q68 0 107 -34t39 -92q0 -15 -3 -32l-71 -400h-72l71 400q2 14 2 20q0 34 -22 54t-60 20h-109q-41 0 -81.5 -30t-65.5 -79q27 -14 41.5 -38.5t14.5 -55.5q0 -6 -2 -22l-47 -269h-72z" />
    <glyph glyph-name="uni0E02" unicode="&#xe02;" horiz-adv-x="555" 
d="M184 11.5q-13 11.5 -13 33.5q0 10 1 15l29 164q4 22 14.5 39t31.5 43q20 25 31 43t15 40l7 38q2 12 2 17q0 27 -16.5 43t-44.5 16h-22q-31 0 -51 -9.5t-34 -30.5l1 -1q18 8 37 8q35 0 54.5 -19.5t19.5 -51.5q0 -47 -32 -78t-80 -31q-37 0 -59.5 20.5t-22.5 54.5q0 7 2 19
l7 39q11 62 55.5 98.5t106.5 36.5h22q57 0 90 -28t33 -75q0 -13 -3 -28l-7 -38q-5 -29 -17.5 -51t-31.5 -47q-15 -21 -24 -36t-12 -31l-29 -163h68q27 0 45.5 18.5t24.5 51.5l74 419h72l-74 -419q-11 -62 -48 -96.5t-92 -34.5h-93q-24 0 -37 11.5zM180 352.5
q16 16.5 16 39.5q0 16 -10.5 25.5t-28.5 9.5q-24 0 -39.5 -16t-15.5 -39q0 -16 10.5 -26t28.5 -10q23 0 39 16.5z" />
    <glyph glyph-name="uni0E03" unicode="&#xe03;" horiz-adv-x="568" 
d="M197 11.5q-13 11.5 -13 33.5q0 10 1 15l31 174q3 19 14.5 36t32.5 42q23 27 36 47t17 42l8 45q3 15 3 27q0 27 -20 27h-4l-61 -49l-45 49h-10q-48 0 -61 -54l1 -1q14 8 35 8q35 0 55.5 -18.5t20.5 -50.5q0 -46 -32.5 -77.5t-80.5 -31.5q-36 0 -57 20t-21 54q0 7 2 21
l7 39q14 77 47 113t96 36h15l37 -43l49 43h12q39 0 59.5 -19.5t20.5 -57.5q0 -14 -3 -31l-9 -49q-5 -29 -18 -51.5t-35 -51.5q-17 -22 -27 -38t-13 -34l-30 -165h68q27 0 45.5 18.5t24.5 51.5l74 419h72l-74 -419q-11 -62 -48 -96.5t-92 -34.5h-93q-24 0 -37 11.5z
M171.5 337q15.5 16 15.5 38q0 16 -10.5 25.5t-27.5 9.5q-22 0 -38 -15.5t-16 -38.5q0 -16 10.5 -25.5t27.5 -9.5q23 0 38.5 16z" />
    <glyph glyph-name="uni0E04" unicode="&#xe04;" horiz-adv-x="628" 
d="M530.5 519q42.5 -39 42.5 -105q0 -18 -3 -38l-66 -376h-72l66 376q2 10 2 28q0 42 -23 66t-63 24h-106q-55 0 -91 -31t-46 -87l-47 -269h2l89 152q29 49 55 69t62 20q39 0 62.5 -22t23.5 -57q0 -48 -32.5 -80t-81.5 -32q-23 0 -41 10t-27 27l-118 -194h-82l66 376
q15 85 69.5 133.5t136.5 48.5h106q74 0 116.5 -39zM286 283.5q-17 -16.5 -17 -41.5q0 -17 11 -27.5t30 -10.5q24 0 40.5 16.5t16.5 41.5q0 17 -10.5 27.5t-29.5 10.5q-24 0 -41 -16.5z" />
    <glyph glyph-name="uni0E05" unicode="&#xe05;" horiz-adv-x="632" 
d="M549.5 525q30.5 -33 30.5 -93q0 -25 -4 -48l-68 -384h-72l68 384q4 19 4 39q0 33 -12.5 51t-36.5 18h-12l-101 -77l-72 77h-12q-33 0 -56.5 -28.5t-32.5 -79.5l-49 -277h2l89 152q29 49 55 69t62 20q39 0 62.5 -22t23.5 -57q0 -48 -32.5 -80t-81.5 -32q-23 0 -41 10
t-27 27l-118 -194h-82l68 384q15 86 58 130t111 44h22l60 -69l85 69h22q57 0 87.5 -33zM286 283.5q-17 -16.5 -17 -41.5q0 -17 11 -27.5t30 -10.5q24 0 40.5 16.5t16.5 41.5q0 17 -10.5 27.5t-29.5 10.5q-24 0 -41 -16.5z" />
    <glyph glyph-name="uni0E06" unicode="&#xe06;" horiz-adv-x="647" 
d="M96 13.5q-26 23.5 -26 63.5q0 61 42 100.5t106 40.5l3 16q3 18 16 35t38 43q27 27 42 46.5t19 42.5l8 45q3 15 3 27q0 27 -20 27h-8l-61 -49l-45 49h-14q-48 0 -61 -54l1 -1q14 8 35 8q35 0 55.5 -18.5t20.5 -50.5q0 -46 -32.5 -77.5t-80.5 -31.5q-36 0 -57 20t-21 54
q0 7 2 21l7 39q14 77 47 113t96 36h19l37 -43l49 43h16q39 0 59.5 -19.5t20.5 -57.5q0 -14 -3 -31l-9 -49q-5 -29 -20.5 -51.5t-41.5 -50.5q-22 -25 -32.5 -39.5t-13.5 -31.5l-3 -15q45 -9 94 -43.5t83 -81.5l82 462h72l-97 -550h-72q-32 60 -79.5 102.5t-92.5 50.5
l-25 -142q-15 -10 -38.5 -15.5t-50.5 -5.5q-43 0 -69 23.5zM183.5 337q15.5 16 15.5 38q0 16 -10.5 25.5t-27.5 9.5q-22 0 -38 -15.5t-16 -38.5q0 -16 10.5 -25.5t27.5 -9.5q23 0 38.5 16zM194 47l20 115h-8q-34 0 -55.5 -22.5t-21.5 -56.5q0 -19 11 -30t30 -11t24 5z" />
    <glyph glyph-name="uni0E07" unicode="&#xe07;" horiz-adv-x="504" 
d="M440 538.5q24 -21.5 24 -56.5q0 -5 -2 -19l-61 -345q-10 -55 -43 -86.5t-83 -31.5h-48q-18 0 -32.5 10t-21.5 28l-122 319h78l113 -295h33q21 0 35.5 14.5t18.5 41.5l45 255q-14 -6 -34 -6q-37 0 -59.5 22t-22.5 58q0 49 33.5 81t84.5 32q40 0 64 -21.5zM393.5 432
q16.5 17 16.5 41q0 17 -10.5 27.5t-29.5 10.5q-25 0 -41.5 -17t-16.5 -41q0 -17 11 -27.5t30 -10.5q24 0 40.5 17z" />
    <glyph glyph-name="uni0E08" unicode="&#xe08;" horiz-adv-x="580" 
d="M490 523.5q39 -34.5 39 -93.5q0 -15 -3 -32l-46 -260q-12 -68 -52 -103t-104 -35h-75q-26 0 -38.5 12t-12.5 34q0 9 1 14l18 104q-15 -6 -34 -6q-38 0 -60 21.5t-22 56.5q0 50 33.5 82.5t84.5 32.5q40 0 64 -21.5t24 -56.5q0 -5 -2 -19l-34 -192h60q32 0 51 18.5t26 57.5
l46 260q2 16 2 22q0 34 -19 54t-52 20h-124q-50 0 -83 -30t-43 -84h-72q15 84 67.5 131t130.5 47h124q66 0 105 -34.5zM236.5 223q16.5 17 16.5 41q0 17 -11 27.5t-30 10.5q-24 0 -40.5 -16.5t-16.5 -41.5q0 -17 10.5 -27.5t29.5 -10.5q25 0 41.5 17z" />
    <glyph glyph-name="uni0E09" unicode="&#xe09;" horiz-adv-x="621" 
d="M529 215l-49 -33q30 -7 46 -27.5t16 -49.5q0 -49 -32.5 -82t-82.5 -33q-40 0 -64 21.5t-24 56.5q0 8 2 24l-139 -92h-76l26 145q-13 -5 -27 -5q-38 0 -60.5 21.5t-22.5 56.5q0 50 32.5 82.5t82.5 32.5q38 0 61.5 -21.5t23.5 -56.5q0 -5 -2 -19l-30 -169l249 160l30 171
q2 16 2 22q0 34 -19 54t-52 20h-137q-49 0 -82 -27.5t-42 -77.5h-72q14 79 66.5 124t129.5 45h137q67 0 105.5 -34.5t38.5 -92.5q0 -16 -3 -33zM174.5 205q16.5 17 16.5 42q0 17 -10.5 27t-28.5 10q-24 0 -40.5 -16.5t-16.5 -41.5q0 -17 10.5 -27.5t28.5 -10.5q24 0 40.5 17
zM472.5 56q16.5 17 16.5 42q0 18 -11 28.5t-29 10.5q-23 0 -39.5 -17.5t-16.5 -42.5q0 -17 10.5 -27.5t28.5 -10.5q24 0 40.5 17z" />
    <glyph glyph-name="uni0E0A" unicode="&#xe0a;" horiz-adv-x="556" 
d="M580 603l-3 -10q-44 -144 -147 -192q26 -9 41 -28.5t15 -45.5q0 -10 -1 -15l-31 -181q-11 -62 -48 -96.5t-92 -34.5h-93q-24 0 -37 11.5t-13 33.5q0 10 1 15l29 164q4 22 14.5 39t31.5 43q20 25 31 43t15 40l7 38q2 12 2 17q0 27 -16.5 43t-44.5 16h-22q-31 0 -51 -9.5
t-34 -30.5l1 -1q18 8 37 8q35 0 54.5 -19.5t19.5 -51.5q0 -47 -32 -78t-80 -31q-37 0 -59.5 20.5t-22.5 54.5q0 7 2 19l7 39q11 62 55.5 98.5t106.5 36.5h22q57 0 90 -28t33 -75q0 -13 -3 -28l-1 -4q47 10 86 56t60 114l3 10h67zM117.5 411q-15.5 -16 -15.5 -39
q0 -16 10.5 -26t28.5 -10q23 0 39 16.5t16 39.5q0 16 -10.5 25.5t-28.5 9.5q-24 0 -39.5 -16zM414 326q0 45 -59 51q-6 -24 -16 -41.5t-30 -45.5q-16 -21 -24.5 -35.5t-11.5 -30.5l-29 -163h68q27 0 45.5 18.5t24.5 51.5l31 182q1 5 1 13z" />
    <glyph glyph-name="uni0E0B" unicode="&#xe0b;" horiz-adv-x="569" 
d="M593 603l-3 -10q-44 -145 -147 -192q27 -9 42 -28.5t15 -45.5q0 -10 -1 -15l-32 -181q-11 -62 -48 -96.5t-92 -34.5h-93q-24 0 -37 11.5t-13 33.5q0 10 1 15l31 174q3 19 14.5 36t32.5 42q23 27 36 47t17 42l8 45q3 15 3 27q0 27 -20 27h-4l-61 -49l-45 49h-10
q-48 0 -61 -54l1 -1q14 8 35 8q35 0 55.5 -18.5t20.5 -50.5q0 -46 -32.5 -77.5t-80.5 -31.5q-36 0 -57 20t-21 54q0 7 2 21l7 39q14 77 47 113t96 36h15l37 -43l49 43h12q39 0 59.5 -19.5t20.5 -57.5q0 -14 -3 -31l-5 -25q46 13 82.5 58t56.5 110l3 10h67zM111 394.5
q-16 -15.5 -16 -38.5q0 -16 10.5 -25.5t27.5 -9.5q23 0 38.5 16t15.5 38q0 16 -10.5 25.5t-27.5 9.5q-22 0 -38 -15.5zM428 326q0 42 -54 50q-7 -21 -18.5 -38.5t-28.5 -39.5q-18 -24 -27.5 -39.5t-12.5 -32.5l-30 -165h68q27 0 45.5 18.5t24.5 51.5l32 182q1 5 1 13z" />
    <glyph glyph-name="uni0E0C" unicode="&#xe0c;" horiz-adv-x="899" 
d="M872 550l-97 -550h-72q-32 59 -83 101t-100 52l-25 -144q-14 -8 -36 -13.5t-45 -5.5q-42 0 -64 24t-22 62q0 55 35.5 94t89.5 44l33 186q2 14 2 20q0 34 -22 54t-60 20h-118q-41 0 -81.5 -30t-65.5 -79q26 -14 40 -38t14 -54q0 -8 -2 -24l-16 -93q17 7 35 7
q37 0 59 -21.5t22 -56.5q0 -50 -32.5 -82.5t-83.5 -32.5q-41 0 -65.5 21.5t-24.5 57.5q0 6 2 18l32 182q2 14 2 20q0 55 -64 68q16 52 50.5 98.5t81.5 74.5t97 28h127q67 0 105.5 -34t38.5 -91q0 -16 -3 -33l-33 -186q53 -10 107.5 -44.5t88.5 -81.5l81 462h72zM462 160h-8
q-31 0 -50 -22.5t-19 -59.5q0 -38 36 -38q14 0 21 5zM157.5 118q-16.5 -17 -16.5 -41q0 -17 11 -27.5t30 -10.5q24 0 40.5 16.5t16.5 41.5q0 17 -10.5 27.5t-29.5 10.5q-25 0 -41.5 -17z" />
    <glyph glyph-name="uni0E0D" unicode="&#xe0d;" horiz-adv-x="907" 
d="M880 550l-73 -412q-12 -68 -49.5 -103t-99.5 -35h-197q-24 0 -37 11.5t-13 33.5q0 10 1 15l60 340q2 14 2 20q0 34 -22 54t-60 20h-104q-41 0 -81.5 -30t-65.5 -79q26 -14 40 -38t14 -54q0 -8 -2 -24l-16 -93q17 7 35 7q37 0 59 -21.5t22 -56.5q0 -50 -32.5 -82.5
t-83.5 -32.5q-41 0 -65.5 21.5t-24.5 57.5q0 6 2 18l32 182q2 14 2 20q0 55 -64 68q16 52 50.5 98.5t81.5 74.5t97 28h113q67 0 105.5 -34t38.5 -91q0 -16 -3 -33l-60 -336h176q37 0 53.5 17.5t23.5 56.5l73 412h72zM157.5 118q-16.5 -17 -16.5 -41q0 -17 11 -27.5t30 -10.5
q24 0 40.5 16.5t16.5 41.5q0 17 -10.5 27.5t-29.5 10.5q-25 0 -41.5 -17zM641 -160.5q42 34.5 67 100.5h64q-30 -94 -90.5 -142.5t-148.5 -48.5q-82 0 -127.5 26.5t-45.5 73.5q0 43 30 71.5t76 28.5q37 0 58 -19.5t21 -51.5q0 -22 -9 -41t-25 -30q8 -2 32 -2q56 0 98 34.5z
M417.5 -172.5q10.5 -9.5 27.5 -9.5q23 0 38.5 15.5t15.5 38.5q0 16 -10.5 25.5t-27.5 9.5q-22 0 -38 -16t-16 -38q0 -16 10.5 -25.5z" />
    <glyph glyph-name="uni0E0E" unicode="&#xe0e;" horiz-adv-x="621" 
d="M532 524q39 -34 39 -92q0 -15 -3 -32l-86 -487q-11 -62 -48 -102t-102 -59l-107 80q-8 -37 -36 -59.5t-66 -22.5q-36 0 -58.5 21t-22.5 54q0 47 31.5 78.5t78.5 31.5q21 0 38.5 -6t37.5 -21l116 -85q28 10 44 31.5t22 58.5l86 487q2 14 2 20q0 34 -22 54t-60 20h-94
q-41 0 -81.5 -30t-65.5 -79q29 -16 47 -42t18 -56q0 -6 -2 -18l-32 -182q-8 -44 -38.5 -70.5t-73.5 -26.5q-38 0 -63 22t-25 57q0 49 32 81.5t81 32.5q18 0 31 -5l16 91q1 5 1 15q0 29 -19.5 47.5t-54.5 25.5q16 52 50.5 98.5t81.5 74.5t97 28h103q68 0 107 -34zM139.5 56
q16.5 17 16.5 41q0 17 -11 27.5t-30 10.5q-24 0 -40.5 -16.5t-16.5 -41.5q0 -17 10.5 -27.5t29.5 -10.5q25 0 41.5 17zM168.5 -187q15.5 16 15.5 39q0 17 -10.5 27t-27.5 10q-23 0 -39 -16.5t-16 -40.5q0 -16 10.5 -25.5t28.5 -9.5q23 0 38.5 16z" />
    <glyph glyph-name="uni0E0F" unicode="&#xe0f;" horiz-adv-x="621" 
d="M532 524q39 -34 39 -92q0 -15 -3 -32l-88 -495q-10 -54 -42 -92t-95 -57l-65 73l-65 -73l-48 58q-13 -30 -37 -47t-55 -17q-36 0 -58 20t-22 53q0 47 30.5 77.5t76.5 30.5q45 0 73 -34l48 -58l65 70l76 -81q35 12 46 77l88 495q2 14 2 20q0 34 -22 54t-60 20h-94
q-41 0 -81.5 -30t-65.5 -79q29 -16 47 -42t18 -56q0 -6 -2 -18l-30 -172q-8 -44 -38.5 -70.5t-73.5 -26.5q-38 0 -63 22t-25 57q0 49 32 81.5t81 32.5q18 0 31 -5l14 81q1 5 1 15q0 29 -19.5 47.5t-54.5 25.5q16 52 50.5 98.5t81.5 74.5t97 28h103q68 0 107 -34zM141.5 66
q16.5 17 16.5 41q0 17 -11 27.5t-30 10.5q-24 0 -40.5 -16.5t-16.5 -41.5q0 -17 10.5 -27.5t29.5 -10.5q25 0 41.5 17zM117.5 -189q15.5 16 15.5 39q0 17 -10.5 27t-28.5 10q-22 0 -38 -17t-16 -40q0 -16 10.5 -25.5t28.5 -9.5q23 0 38.5 16z" />
    <glyph glyph-name="uni0E10" unicode="&#xe10;" horiz-adv-x="545" 
d="M194 477q-28 -19 -37 -54q204 -34 311 -105l-32 -180q-11 -66 -49.5 -102t-100.5 -36h-67q-23 0 -37 12t-14 34q0 9 1 14l10 59q-15 -5 -29 -5q-38 0 -59.5 21t-21.5 56q0 49 33 81.5t83 32.5q38 0 60 -20.5t22 -55.5q0 -6 -2 -20l-26 -149h47q37 0 55 18.5t25 59.5
l26 148q-86 54 -317 91q15 87 62.5 135t125.5 48q29 0 53 -6t54 -18q26 -10 43.5 -14.5t36.5 -4.5q24 0 48 8.5t42 24.5l-12 -66q-17 -14 -37.5 -21.5t-40.5 -7.5q-23 0 -43 5t-48 15q-32 11 -51.5 16t-44.5 5q-41 0 -69 -19zM200.5 178.5q16.5 16.5 16.5 40.5q0 17 -10 27
t-28 10q-24 0 -41 -16.5t-17 -40.5q0 -17 11 -27t29 -10q23 0 39.5 16.5zM427.5 -28.5q17.5 -15.5 17.5 -41.5q0 -9 -1 -14l-15 -82q-8 -47 -40 -74.5t-85 -32.5l-50 58l-60 -58l-47 57q-12 -28 -37.5 -45t-56.5 -17q-37 0 -60 21t-23 55q0 46 31 77.5t79 31.5
q25 0 40.5 -9.5t33.5 -30.5l55 -63l54 51l65 -72q44 11 51 54l3 14q-12 -5 -25 -5q-28 0 -45 16t-17 41q0 37 24.5 60.5t61.5 23.5q29 0 46.5 -15.5zM393 -105.5q11 11.5 11 28.5q0 12 -7.5 19t-20.5 7q-16 0 -27.5 -11.5t-11.5 -28.5q0 -12 7.5 -19t20.5 -7q17 0 28 11.5z
M97 -216q16 16 16 41q0 17 -10.5 27t-28.5 10q-23 0 -39.5 -17t-16.5 -41q0 -17 10.5 -26.5t29.5 -9.5q23 0 39 16z" />
    <glyph glyph-name="uni0E11" unicode="&#xe11;" horiz-adv-x="655" 
d="M180 167q5 27 18 52.5t36 56.5q2 4 5.5 8t7.5 10q29 36 48 69t26 74l2 11q2 16 2 20q0 32 -24 32h-2l-56 -48l-42 48h-10q-50 0 -63 -55l1 -1q14 8 35 8q35 0 55.5 -18.5t20.5 -50.5q0 -46 -32.5 -77.5t-80.5 -31.5q-36 0 -57 20t-21 55q0 6 2 20l7 40q13 78 48.5 113.5
t97.5 35.5h14l34 -42l46 42h9q37 0 58 -18t21 -56q0 -17 -4 -34l-1 -5q-3 -14 -8 -24h2l28 31l95 106h21q43 0 67 -25t24 -71q0 -11 -4 -37l-75 -425h-72l75 425q2 9 2 25q0 42 -28 42h-4l-124 -132q-64 -69 -92 -110t-35 -79l-30 -171h-72zM173.5 336q15.5 16 15.5 38
q0 16 -10.5 25.5t-27.5 9.5q-22 0 -38 -15.5t-16 -38.5q0 -16 10.5 -25.5t27.5 -9.5q23 0 38.5 16z" />
    <glyph glyph-name="uni0E12" unicode="&#xe12;" horiz-adv-x="919" 
d="M892 550l-97 -550h-70q-31 61 -76.5 103t-88.5 51l-25 -143q-32 -21 -83 -21q-40 0 -62.5 23t-22.5 62q0 54 35 93.5t89 43.5l31 172q4 28 4 37q0 34 -13.5 52.5t-37.5 18.5h-12l-109 -77l-80 77h-12q-32 0 -54.5 -28.5t-31.5 -79.5l-57 -322h14q49 0 93 26.5t75 73.5
q-13 -5 -29 -5q-36 0 -57.5 20.5t-21.5 54.5q0 50 34.5 83.5t85.5 33.5q39 0 61.5 -20.5t22.5 -57.5q0 -63 -43 -126.5t-110 -104t-133 -40.5h-75l68 384q16 89 57 131.5t112 42.5h22l68 -69l93 69h22q57 0 87.5 -33t30.5 -93q0 -25 -4 -48l-30 -170q103 -22 177 -124
l81 460h72zM257 214.5q11 -10.5 30 -10.5q24 0 40.5 16.5t16.5 41.5q0 17 -10.5 27.5t-29.5 10.5q-24 0 -41 -16.5t-17 -41.5q0 -17 11 -27.5zM502 158h-8q-32 0 -50.5 -22t-18.5 -59t33 -37q17 0 24 5z" />
    <glyph glyph-name="uni0E13" unicode="&#xe13;" horiz-adv-x="893" 
d="M818.5 148q11.5 -19 11.5 -43q0 -49 -33.5 -82t-83.5 -33q-40 0 -64 21.5t-24 56.5q0 34 19 58q-83 -27 -180 -126h-68l71 400q2 14 2 20q0 34 -22 54t-60 20h-99q-41 0 -81.5 -30t-65.5 -79q26 -14 40 -38t14 -54q0 -8 -2 -24l-16 -93q17 7 35 7q37 0 59 -21.5t22 -56.5
q0 -50 -32.5 -82.5t-83.5 -32.5q-41 0 -65.5 21.5t-24.5 57.5q0 6 2 18l32 182q2 14 2 20q0 55 -64 68q16 52 50.5 98.5t81.5 74.5t97 28h108q67 0 105.5 -34t38.5 -91q0 -16 -3 -33l-56 -316q119 100 238 112l62 354h72l-66 -373q20 -10 31.5 -29zM760 56.5
q17 17.5 17 42.5q0 17 -11 27.5t-30 10.5q-24 0 -40.5 -17.5t-16.5 -42.5q0 -17 10.5 -27.5t29.5 -10.5q24 0 41 17.5zM157.5 118q-16.5 -17 -16.5 -41q0 -17 11 -27.5t30 -10.5q24 0 40.5 16.5t16.5 41.5q0 17 -10.5 27.5t-29.5 10.5q-25 0 -41.5 -17z" />
    <glyph glyph-name="uni0E14" unicode="&#xe14;" horiz-adv-x="630" 
d="M532 518.5q43 -39.5 43 -105.5q0 -17 -3 -37l-66 -376h-72l66 376q2 9 2 27q0 42 -23.5 66.5t-65.5 24.5h-106q-52 0 -87 -32t-46 -90l-55 -311h17q58 0 107.5 29.5t77.5 78.5q-13 -6 -31 -6q-36 0 -57.5 21t-21.5 56q0 50 33.5 82.5t84.5 32.5q39 0 62.5 -22t23.5 -59
q0 -65 -40 -129t-107.5 -104.5t-144.5 -40.5h-87l66 372q16 88 69.5 137t136.5 49h106q75 0 118 -39.5zM275 220.5q11 -10.5 30 -10.5q24 0 40.5 16.5t16.5 41.5q0 17 -10.5 27.5t-29.5 10.5q-24 0 -41 -16.5t-17 -41.5q0 -17 11 -27.5z" />
    <glyph glyph-name="uni0E15" unicode="&#xe15;" horiz-adv-x="634" 
d="M551.5 525q30.5 -33 30.5 -93q0 -25 -4 -48l-68 -384h-72l68 384q4 19 4 39q0 33 -12.5 51t-36.5 18h-12l-102 -77l-73 77h-12q-32 0 -54.5 -28.5t-31.5 -79.5l-57 -323h17q58 0 107.5 27.5t76.5 73.5q-13 -5 -30 -5q-36 0 -57.5 21t-21.5 56q0 50 33.5 82.5t84.5 32.5
q39 0 62.5 -22t23.5 -59q0 -65 -40 -127.5t-107.5 -101.5t-144.5 -39h-87l68 384q16 89 57 131.5t112 42.5h22l61 -69l86 69h22q57 0 87.5 -33zM275 214.5q11 -10.5 30 -10.5q24 0 40.5 16.5t16.5 41.5q0 17 -10.5 27.5t-29.5 10.5q-24 0 -41 -16.5t-17 -41.5
q0 -17 11 -27.5z" />
    <glyph glyph-name="uni0E16" unicode="&#xe16;" horiz-adv-x="602" 
d="M513 524q39 -34 39 -92q0 -15 -3 -32l-71 -400h-72l71 400q2 14 2 20q0 34 -22 54t-60 20h-109q-41 0 -81.5 -30t-65.5 -79q26 -14 40 -38t14 -54q0 -8 -2 -24l-16 -93q17 7 35 7q37 0 59 -21.5t22 -56.5q0 -50 -32.5 -82.5t-83.5 -32.5q-41 0 -65.5 21.5t-24.5 57.5
q0 6 2 18l32 182q2 14 2 20q0 55 -64 68q16 52 50.5 98.5t81.5 74.5t97 28h118q68 0 107 -34zM157.5 118q-16.5 -17 -16.5 -41q0 -17 11 -27.5t30 -10.5q24 0 40.5 16.5t16.5 41.5q0 17 -10.5 27.5t-29.5 10.5q-25 0 -41.5 -17z" />
    <glyph glyph-name="uni0E17" unicode="&#xe17;" horiz-adv-x="649" 
d="M575.5 531q26.5 -27 26.5 -76q0 -16 -3 -36l-74 -419h-72l74 419q2 16 2 23q0 24 -10.5 37t-29.5 13h-4l-286 -492h-83l66 373q-13 -6 -32 -6q-38 0 -60.5 21.5t-22.5 56.5q0 50 33.5 82.5t84.5 32.5q40 0 63.5 -21t23.5 -57q0 -5 -2 -19l-60 -340h1l247 435h42
q49 0 75.5 -27zM201.5 431q16.5 17 16.5 41q0 17 -11 27.5t-30 10.5q-24 0 -40.5 -16.5t-16.5 -41.5q0 -17 10.5 -27.5t29.5 -10.5q25 0 41.5 17z" />
    <glyph glyph-name="uni0E18" unicode="&#xe18;" horiz-adv-x="564" 
d="M85 11.5q-13 11.5 -13 33.5q0 10 1 15l36 204h72l-35 -200h167q35 0 55 18t27 56l22 125q-41 26 -130 50t-212 42q17 101 66 153t126 52q30 0 53 -5.5t57 -17.5q28 -10 46 -15t39 -5q24 0 47.5 8.5t41.5 24.5l-11 -66q-17 -14 -37.5 -21.5t-40.5 -7.5q-25 0 -44.5 5
t-49.5 15t-52 15.5t-49 5.5q-87 0 -109 -93q106 -17 195 -44.5t141 -63.5l-27 -157q-13 -71 -50 -104.5t-104 -33.5h-191q-24 0 -37 11.5z" />
    <glyph glyph-name="uni0E19" unicode="&#xe19;" horiz-adv-x="636" 
d="M561.5 148q11.5 -19 11.5 -43q0 -49 -33.5 -82t-83.5 -33q-40 0 -64 21.5t-24 56.5q0 34 19 58q-51 -15 -105 -48.5t-96 -77.5h-70l66 373q-13 -6 -32 -6q-38 0 -60.5 21.5t-22.5 56.5q0 50 33.5 82.5t84.5 32.5q40 0 63.5 -21t23.5 -57q0 -5 -2 -19l-67 -379
q51 44 121.5 74.5t136.5 37.5l63 354h72l-66 -373q20 -10 31.5 -29zM202.5 432q16.5 17 16.5 41q0 17 -11 27.5t-30 10.5q-24 0 -40.5 -16.5t-16.5 -41.5q0 -17 10.5 -27.5t29.5 -10.5q25 0 41.5 17zM502.5 56.5q16.5 17.5 16.5 42.5q0 17 -10.5 27.5t-29.5 10.5
q-24 0 -41 -17.5t-17 -42.5q0 -17 11 -27.5t30 -10.5q24 0 40.5 17.5z" />
    <glyph glyph-name="uni0E1A" unicode="&#xe1a;" horiz-adv-x="647" 
d="M620 550l-73 -412q-12 -68 -51.5 -103t-102.5 -35h-217q-24 0 -37.5 12t-13.5 34q0 9 1 14l56 313q-13 -6 -32 -6q-38 0 -60.5 21.5t-22.5 56.5q0 50 33.5 82.5t84.5 32.5q40 0 63.5 -21t23.5 -57q0 -5 -2 -19l-71 -399h194q36 0 55.5 18t26.5 56l73 412h72zM131.5 425.5
q10.5 -10.5 29.5 -10.5q25 0 41.5 17t16.5 41q0 17 -11 27.5t-30 10.5q-24 0 -40.5 -16.5t-16.5 -41.5q0 -17 10.5 -27.5z" />
    <glyph glyph-name="uni0E1B" unicode="&#xe1b;" horiz-adv-x="649" 
d="M659 762l-110 -624q-12 -68 -51.5 -103t-102.5 -35h-219q-24 0 -37.5 12t-13.5 34q0 9 1 14l56 313q-13 -6 -32 -6q-38 0 -60.5 21.5t-22.5 56.5q0 50 33.5 82.5t84.5 32.5q40 0 63.5 -21t23.5 -57q0 -5 -2 -19l-71 -399h196q36 0 55.5 18t26.5 56l110 624h72z
M131.5 425.5q10.5 -10.5 29.5 -10.5q25 0 41.5 17t16.5 41q0 17 -11 27.5t-30 10.5q-24 0 -40.5 -16.5t-16.5 -41.5q0 -17 10.5 -27.5z" />
    <glyph glyph-name="uni0E1C" unicode="&#xe1c;" horiz-adv-x="621" 
d="M594 550l-88 -494q-5 -26 -21.5 -41t-41.5 -15h-24l-111 229l-195 -229h-24q-20 0 -32 11.5t-12 31.5q0 8 1 12l72 408q8 44 39.5 70.5t76.5 26.5q40 0 64.5 -22t24.5 -57q0 -49 -32.5 -81.5t-81.5 -32.5q-21 0 -34 7l-51 -285l186 220h10q15 0 22 -16l98 -202l82 459h72
zM186.5 494q-16.5 -17 -16.5 -41q0 -17 11 -27.5t30 -10.5q25 0 41.5 17t16.5 41q0 17 -11 27.5t-30 10.5q-25 0 -41.5 -17z" />
    <glyph glyph-name="uni0E1D" unicode="&#xe1d;" horiz-adv-x="623" 
d="M633 762l-125 -706q-5 -26 -21.5 -41t-41.5 -15h-24l-112 229l-196 -229h-24q-20 0 -32 11.5t-12 31.5q0 8 1 12l72 408q8 44 39.5 70.5t76.5 26.5q40 0 64.5 -22t24.5 -57q0 -49 -32.5 -81.5t-81.5 -32.5q-21 0 -34 7l-51 -285l187 220h10q15 0 22 -16l99 -202l119 671
h72zM186.5 494q-16.5 -17 -16.5 -41q0 -17 11 -27.5t30 -10.5q25 0 41.5 17t16.5 41q0 17 -11 27.5t-30 10.5q-25 0 -41.5 -17z" />
    <glyph glyph-name="uni0E1E" unicode="&#xe1e;" horiz-adv-x="699" 
d="M672 550l-87 -490q-5 -29 -24 -44.5t-49 -15.5h-27l-67 390l-206 -390h-33q-26 0 -40 12t-14 34q0 9 1 14l56 313q-13 -6 -32 -6q-38 0 -60.5 21.5t-22.5 56.5q0 50 33.5 82.5t84.5 32.5q40 0 63 -21t23 -56q0 -6 -2 -20l-64 -363h1l211 398h16q9 0 14.5 -6.5t7.5 -16.5
l66 -375h1l79 450h71zM202.5 432q16.5 17 16.5 41q0 17 -11 27.5t-30 10.5q-24 0 -40.5 -16.5t-16.5 -41.5q0 -17 10.5 -27.5t29.5 -10.5q25 0 41.5 17z" />
    <glyph glyph-name="uni0E1F" unicode="&#xe1f;" horiz-adv-x="701" 
d="M711 762l-124 -702q-5 -29 -24 -44.5t-49 -15.5h-27l-68 390l-207 -390h-33q-26 0 -40 12t-14 34q0 9 1 14l56 313q-13 -6 -32 -6q-38 0 -60.5 21.5t-22.5 56.5q0 50 33.5 82.5t84.5 32.5q40 0 63 -21t23 -56q0 -6 -2 -20l-64 -363h1l212 398h16q9 0 14.5 -6.5t7.5 -16.5
l67 -375h1l116 662h71zM202.5 432q16.5 17 16.5 41q0 17 -11 27.5t-30 10.5q-24 0 -40.5 -16.5t-16.5 -41.5q0 -17 10.5 -27.5t29.5 -10.5q25 0 41.5 17z" />
    <glyph glyph-name="uni0E20" unicode="&#xe20;" horiz-adv-x="619" 
d="M530 524q39 -34 39 -92q0 -15 -3 -32l-71 -400h-72l71 400q2 14 2 20q0 34 -22 54t-60 20h-92q-41 0 -81.5 -30t-65.5 -79q29 -16 47 -42t18 -56q0 -6 -2 -18l-32 -182q-8 -44 -38.5 -70.5t-73.5 -26.5q-38 0 -63 22t-25 57q0 49 32 81.5t81 32.5q18 0 31 -5l16 91
q1 5 1 15q0 29 -19.5 47.5t-54.5 25.5q16 52 50.5 98.5t81.5 74.5t97 28h101q68 0 107 -34zM139.5 56q16.5 17 16.5 41q0 17 -11 27.5t-30 10.5q-24 0 -40.5 -16.5t-16.5 -41.5q0 -17 10.5 -27.5t29.5 -10.5q25 0 41.5 17z" />
    <glyph glyph-name="uni0E21" unicode="&#xe21;" horiz-adv-x="625" 
d="M598 550l-97 -550h-70q-31 58 -84.5 101t-111.5 55l-25 -145q-15 -10 -38.5 -15.5t-50.5 -5.5q-43 0 -69 23.5t-26 63.5q0 62 42 101t106 40l27 154q-15 -5 -31 -5q-38 0 -60.5 21.5t-22.5 56.5q0 50 33.5 82.5t84.5 32.5q40 0 63.5 -21t23.5 -57q0 -5 -2 -19l-44 -247
q57 -12 111.5 -46.5t86.5 -79.5l82 460h72zM221.5 431q16.5 17 16.5 41q0 17 -11 27.5t-30 10.5q-24 0 -40.5 -16.5t-16.5 -41.5q0 -17 10.5 -27.5t29.5 -10.5q25 0 41.5 17zM170 162h-8q-34 0 -55.5 -22t-21.5 -57q0 -19 11 -30t30 -11t24 5z" />
    <glyph glyph-name="uni0E22" unicode="&#xe22;" horiz-adv-x="595" 
d="M568 550l-73 -412q-12 -68 -51 -103t-103 -35h-248q-24 0 -37 11.5t-13 33.5q0 10 1 15l11 61q8 46 34 81t67 54v1q-66 26 -66 97q0 53 24 100.5t63.5 76.5t83.5 29q40 0 64 -22t24 -57q0 -49 -32.5 -81.5t-81.5 -32.5q-24 0 -43.5 11.5t-27.5 30.5q-9 -21 -9 -49
q0 -39 26.5 -55.5t78.5 -16.5h42l-11 -62h-42q-51 0 -82 -26.5t-40 -78.5l-10 -57h224q37 0 56 18t26 56l73 412h72zM213 494.5q-17 -16.5 -17 -41.5q0 -17 11 -27.5t30 -10.5q25 0 41.5 17t16.5 41q0 17 -11 27.5t-30 10.5q-24 0 -41 -16.5z" />
    <glyph glyph-name="uni0E23" unicode="&#xe23;" horiz-adv-x="502" 
d="M473.5 525.5q23.5 8.5 41.5 24.5l-11 -66q-17 -14 -37.5 -21.5t-40.5 -7.5q-21 0 -38.5 4.5t-42.5 14.5q-26 11 -47.5 16.5t-48.5 5.5q-43 0 -71 -26t-40 -76q81 -16 152 -42.5t122 -60.5l-35 -204q-8 -44 -38.5 -70.5t-75.5 -26.5q-41 0 -65 22.5t-24 58.5
q0 49 31.5 80.5t80.5 31.5q21 0 34 -7l15 83q-84 55 -277 90q18 104 66.5 157.5t124.5 53.5q29 0 51 -6t54 -18q23 -10 39 -14.5t33 -4.5q24 0 47.5 8.5zM308.5 55.5q16.5 16.5 16.5 41.5q0 17 -10.5 27.5t-29.5 10.5q-25 0 -41.5 -17t-16.5 -41q0 -17 11 -27.5t30 -10.5
q24 0 40.5 16.5z" />
    <glyph glyph-name="uni0E24" unicode="&#xe24;" horiz-adv-x="604" 
d="M515 524q39 -34 39 -92q0 -15 -3 -32l-106 -600h-72l106 600q2 14 2 20q0 34 -22 54t-60 20h-111q-41 0 -81.5 -30t-65.5 -79q26 -14 40 -38t14 -54q0 -8 -2 -24l-16 -93q17 7 35 7q37 0 59 -21.5t22 -56.5q0 -50 -32.5 -82.5t-83.5 -32.5q-41 0 -65.5 21.5t-24.5 57.5
q0 6 2 18l32 182q2 14 2 20q0 55 -64 68q16 52 50.5 98.5t81.5 74.5t97 28h120q68 0 107 -34zM157.5 118q-16.5 -17 -16.5 -41q0 -17 11 -27.5t30 -10.5q24 0 40.5 16.5t16.5 41.5q0 17 -10.5 27.5t-29.5 10.5q-25 0 -41.5 -17z" />
    <glyph glyph-name="uni0E25" unicode="&#xe25;" horiz-adv-x="585" 
d="M495.5 523.5q38.5 -34.5 38.5 -92.5q0 -16 -3 -33l-70 -398h-72l10 57q3 27 3 50q0 82 -36.5 127t-104.5 45q-49 0 -81.5 -26t-40.5 -72l-1 -4q15 6 33 6q37 0 60 -21t23 -56q0 -52 -32.5 -84t-85.5 -32q-40 0 -64 21.5t-24 56.5q0 7 2 19l14 82q14 82 67.5 128t136.5 46
q58 0 101 -25t62 -70h1l27 150q2 16 2 22q0 34 -19 54t-52 20h-111q-48 0 -83 -29t-43 -76h-70q14 77 66 123t130 46h111q67 0 105.5 -34.5zM189 124.5q-11 10.5 -30 10.5q-24 0 -40.5 -17t-16.5 -41q0 -17 11 -27.5t30 -10.5q24 0 40.5 17t16.5 41q0 17 -11 27.5z" />
    <glyph glyph-name="uni0E26" unicode="&#xe26;" horiz-adv-x="621" 
d="M532 524q39 -34 39 -92q0 -15 -3 -32l-106 -600h-72l106 600q2 14 2 20q0 34 -22 54t-60 20h-94q-41 0 -81.5 -30t-65.5 -79q29 -16 47 -42t18 -56q0 -6 -2 -18l-32 -182q-8 -44 -38.5 -70.5t-73.5 -26.5q-38 0 -63 22t-25 57q0 49 32 81.5t81 32.5q18 0 31 -5l16 91
q1 5 1 15q0 29 -19.5 47.5t-54.5 25.5q16 52 50.5 98.5t81.5 74.5t97 28h103q68 0 107 -34zM139.5 56q16.5 17 16.5 41q0 17 -11 27.5t-30 10.5q-24 0 -40.5 -16.5t-16.5 -41.5q0 -17 10.5 -27.5t29.5 -10.5q25 0 41.5 17z" />
    <glyph glyph-name="uni0E27" unicode="&#xe27;" horiz-adv-x="533" 
d="M443.5 523.5q38.5 -34.5 38.5 -92.5q0 -16 -3 -33l-55 -311q-8 -44 -38.5 -70.5t-75.5 -26.5q-41 0 -65 22.5t-24 58.5q0 49 32 80.5t81 31.5q21 0 34 -7l39 222q2 16 2 22q0 34 -19 54t-52 20h-91q-46 0 -76.5 -31t-40.5 -87h-72q15 86 65 134t124 48h91
q67 0 105.5 -34.5zM355.5 55.5q16.5 16.5 16.5 41.5q0 17 -10.5 27.5t-29.5 10.5q-25 0 -41.5 -17t-16.5 -41q0 -17 11 -27.5t30 -10.5q24 0 40.5 16.5z" />
    <glyph glyph-name="uni0E28" unicode="&#xe28;" horiz-adv-x="629" 
d="M624 618l-3 -8q-26 -67 -91 -92q44 -37 44 -102q0 -21 -4 -40l-66 -376h-72l66 376q2 9 2 27q0 41 -23.5 66t-66.5 25h-102q-55 0 -91 -31t-46 -87l-47 -269h2l89 152q29 49 55 69t62 20q39 0 62.5 -22t23.5 -57q0 -48 -32.5 -80t-81.5 -32q-23 0 -41 10t-27 27
l-118 -194h-82l66 376q15 85 69.5 133.5t136.5 48.5h113q57 0 84.5 10t43.5 42l4 8h71zM286 283.5q-17 -16.5 -17 -41.5q0 -17 11 -27.5t30 -10.5q24 0 40.5 16.5t16.5 41.5q0 17 -10.5 27.5t-29.5 10.5q-24 0 -41 -16.5z" />
    <glyph glyph-name="uni0E29" unicode="&#xe29;" horiz-adv-x="698" 
d="M699 348l-2 -7q-30 -108 -126 -129l-13 -74q-12 -68 -51.5 -103t-102.5 -35h-228q-24 0 -37.5 12t-13.5 34q0 9 1 14l56 313q-13 -6 -32 -6q-38 0 -60.5 21.5t-22.5 56.5q0 50 33.5 82.5t84.5 32.5q40 0 63.5 -21t23.5 -57q0 -5 -2 -19l-71 -399h205q36 0 55.5 18
t26.5 56l12 69h-126q-39 0 -61.5 21.5t-22.5 56.5q0 47 31 78.5t79 31.5q36 0 59.5 -19.5t23.5 -52.5q0 -37 -20 -57h48l50 284h72l-49 -279q42 13 58 70l2 7h57zM131.5 425.5q10.5 -10.5 29.5 -10.5q25 0 41.5 17t16.5 41q0 17 -11 27.5t-30 10.5q-24 0 -40.5 -16.5
t-16.5 -41.5q0 -17 10.5 -27.5zM414.5 273q15.5 16 15.5 38q0 16 -10 25.5t-27 9.5q-22 0 -37.5 -16t-15.5 -38q0 -16 10 -25.5t27 -9.5q22 0 37.5 16z" />
    <glyph glyph-name="uni0E2A" unicode="&#xe2a;" horiz-adv-x="585" 
d="M592 618l-4 -8q-19 -37 -39.5 -59t-51.5 -34q37 -29 37 -86q0 -16 -3 -33l-70 -398h-72l10 57q3 27 3 50q0 82 -36.5 127t-104.5 45q-49 0 -81.5 -26t-40.5 -72l-1 -4q15 6 33 6q37 0 60 -21t23 -56q0 -52 -32.5 -84t-85.5 -32q-40 0 -64 21.5t-24 56.5q0 7 2 19l14 82
q14 82 67.5 128t136.5 46q58 0 101 -25t62 -70h1l27 150q2 16 2 23q0 34 -18.5 53.5t-52.5 19.5h-111q-48 0 -83 -29t-43 -76h-70q14 77 66 123t130 46h132q41 0 63.5 11.5t40.5 40.5l5 8h72zM189 124.5q-11 10.5 -30 10.5q-24 0 -40.5 -17t-16.5 -41q0 -17 11 -27.5
t30 -10.5q24 0 40.5 17t16.5 41q0 17 -11 27.5z" />
    <glyph glyph-name="uni0E2B" unicode="&#xe2b;" horiz-adv-x="643" 
d="M605 422.5q-18 -26.5 -50 -40.5l-1 -1q19 -19 19 -46q0 -13 -3 -31l-54 -304h-72l55 309q1 5 1 13q0 10 -4 14t-13 4l-291 -340h-76l66 372q-15 -5 -32 -5q-38 0 -60.5 21.5t-22.5 56.5q0 50 33.5 82.5t84.5 32.5q40 0 63.5 -21t23.5 -57q0 -5 -2 -19l-65 -366l247 290
q-15 11 -22.5 27.5t-7.5 35.5q0 47 32.5 78.5t81.5 31.5q40 0 63.5 -21.5t23.5 -56.5q0 -33 -18 -59.5zM553.5 433q16.5 17 16.5 41q0 17 -10.5 27.5t-29.5 10.5q-24 0 -40.5 -17t-16.5 -42q0 -17 10.5 -27t29.5 -10q24 0 40.5 17zM202.5 432q16.5 17 16.5 41q0 17 -11 27.5
t-30 10.5q-24 0 -40.5 -16.5t-16.5 -41.5q0 -17 10.5 -27.5t29.5 -10.5q25 0 41.5 17z" />
    <glyph glyph-name="uni0E2C" unicode="&#xe2c;" horiz-adv-x="703" 
d="M803 746l-2 -6q-16 -49 -46.5 -84.5t-71.5 -54.5l-96 -541q-5 -29 -24 -44.5t-49 -15.5h-27l-68 390l-207 -390h-33q-26 0 -40 12t-14 34q0 9 1 14l56 313q-13 -6 -32 -6q-38 0 -60.5 21.5t-22.5 56.5q0 50 33.5 82.5t84.5 32.5q40 0 63 -21t23 -56q0 -6 -2 -20l-64 -363
h1l212 398h16q9 0 14.5 -6.5t7.5 -16.5l67 -375h1l85 483h-12q-41 0 -65.5 22.5t-24.5 57.5q0 46 33 77.5t81 31.5q38 0 60 -19.5t22 -53.5q0 -11 -2.5 -22t-5.5 -16l1 -1q14 10 28.5 32t23.5 48l2 6h53zM570 640q11 -10 29 -10q23 0 39.5 16.5t16.5 40.5q0 17 -10.5 27
t-28.5 10q-23 0 -40 -16.5t-17 -40.5q0 -17 11 -27zM202.5 432q16.5 17 16.5 41q0 17 -11 27.5t-30 10.5q-24 0 -40.5 -16.5t-16.5 -41.5q0 -17 10.5 -27.5t29.5 -10.5q25 0 41.5 17z" />
    <glyph glyph-name="uni0E2D" unicode="&#xe2d;" horiz-adv-x="594" 
d="M504.5 523.5q38.5 -34.5 38.5 -92.5q0 -16 -3 -33l-46 -260q-12 -68 -49.5 -103t-99.5 -35h-239q-24 0 -37 11.5t-13 33.5q0 10 1 15l35 198q8 44 39.5 70.5t76.5 26.5q40 0 64 -22t24 -57q0 -49 -32 -81.5t-81 -32.5q-21 0 -35 7l-18 -105h215q37 0 53.5 17.5t23.5 56.5
l46 260q2 16 2 22q0 34 -19 54t-52 20h-128q-50 0 -83.5 -28t-42.5 -77h-70q14 79 66.5 124t129.5 45h128q67 0 105.5 -34.5zM160.5 289q-16.5 -17 -16.5 -41q0 -17 10.5 -27.5t29.5 -10.5q25 0 41.5 17t16.5 41q0 17 -11 27.5t-30 10.5q-24 0 -40.5 -17z" />
    <glyph glyph-name="uni0E2E" unicode="&#xe2e;" horiz-adv-x="598" 
d="M549 445q0 -16 -3 -36l-48 -271q-12 -68 -49.5 -103t-99.5 -35h-244q-24 0 -37 11.5t-13 33.5q0 10 1 15l28 160q7 43 40 70t78 27q40 0 63 -21t23 -56q0 -49 -33 -82.5t-82 -33.5q-19 0 -33 6l-11 -66h221q37 0 53.5 17.5t23.5 56.5l48 271q4 28 4 36q0 9 -1 14h-2
q-55 -109 -163 -109h-102q-55 0 -86 23.5t-31 65.5q0 56 37 87.5t103 31.5h200q15 0 33 -2q9 23 16 47l3 10h61l-3 -10q-19 -63 -23 -74q28 -30 28 -84zM395 429q32 25 53 73q-6 2 -26 2h-188q-36 0 -56 -15.5t-20 -43.5q0 -19 14 -30t39 -11h112q40 0 72 25zM152.5 251
q-16.5 -17 -16.5 -41q0 -17 11 -27.5t30 -10.5q24 0 40.5 16.5t16.5 41.5q0 17 -10.5 27.5t-29.5 10.5q-25 0 -41.5 -17z" />
    <glyph glyph-name="uni0E2F" unicode="&#xe2f;" horiz-adv-x="546" 
d="M519 550l-66 -374q-15 -87 -62.5 -131.5t-122.5 -44.5h-34l11 64h34q40 0 66 28.5t36 83.5l38 212q-30 -35 -77 -54.5t-97 -19.5q-83 0 -131.5 33.5t-48.5 90.5q0 53 35 88.5t87 35.5q40 0 63 -21t23 -56t-19.5 -63t-50.5 -42q22 -6 55 -6q71 0 121 45.5t68 130.5h72z
M137 496q-17 -17 -17 -42q0 -18 11 -28.5t30 -10.5q24 0 41 17.5t17 42.5q0 17 -11 27.5t-30 10.5q-24 0 -41 -17z" />
    <glyph glyph-name="uni0E30" unicode="&#xe30;" horiz-adv-x="504" 
d="M130 337q-48 30 -48 83q0 50 33.5 83.5t83.5 33.5q39 0 62.5 -21.5t23.5 -56.5q0 -31 -17.5 -55t-41.5 -35v-1q15 -3 42 -3q59 0 104 43t67 122h68q-25 -105 -89 -164t-154 -59q-86 0 -134 30zM215.5 410.5q16.5 16.5 16.5 40.5q0 17 -10.5 27t-29.5 10
q-23 0 -39.5 -16.5t-16.5 -40.5q0 -17 10.5 -27t29.5 -10q23 0 39.5 16.5zM77 35q-48 30 -48 83q0 50 33.5 83.5t83.5 33.5q39 0 62.5 -21.5t23.5 -56.5q0 -31 -17.5 -55t-41.5 -35v-1q15 -3 42 -3q59 0 104 43t67 122h68q-25 -105 -89 -164t-154 -59q-86 0 -134 30z
M162.5 108.5q16.5 16.5 16.5 40.5q0 17 -10.5 27t-29.5 10q-23 0 -39.5 -16.5t-16.5 -40.5q0 -17 10.5 -27t29.5 -10q23 0 39.5 16.5z" />
    <glyph glyph-name="uni0E31" unicode="&#xe31;" 
d="M-222.5 668.5q-49.5 28.5 -49.5 79.5q0 47 31 77t79 30q38 0 62 -20t24 -53q0 -28 -14.5 -49t-34.5 -31l1 -1q18 -4 46 -4q68 0 114.5 40.5t60.5 111.5h67q-20 -101 -84 -155t-164 -54q-89 0 -138.5 28.5zM-143 733q16 16 16 40q0 17 -10.5 26.5t-28.5 9.5q-23 0 -39 -16
t-16 -40q0 -17 10 -26.5t29 -9.5q23 0 39 16z" />
    <glyph glyph-name="uni0E32" unicode="&#xe32;" horiz-adv-x="517" 
d="M391 398q2 16 2 22q0 34 -19 54t-52 20h-75q-46 0 -77.5 -31t-41.5 -87h-70q15 86 65 134t124 48h75q67 0 105.5 -34.5t38.5 -92.5q0 -16 -3 -33l-70 -398h-72z" />
    <glyph glyph-name="uni0E33" unicode="&#xe33;" horiz-adv-x="517" 
d="M-124 666q-26 24 -26 63q0 54 36.5 89.5t91.5 35.5q42 0 68 -24.5t26 -63.5q0 -54 -36 -89t-92 -35q-42 0 -68 24zM-1.5 712.5q19.5 19.5 19.5 47.5q0 20 -12.5 31.5t-34.5 11.5q-29 0 -48 -19t-19 -48q0 -20 12.5 -31.5t34.5 -11.5q28 0 47.5 19.5zM391 398q2 16 2 22
q0 34 -19 54t-52 20h-75q-46 0 -77.5 -31t-41.5 -87h-70q15 86 65 134t124 48h75q67 0 105.5 -34.5t38.5 -92.5q0 -16 -3 -33l-70 -398h-72z" />
    <glyph glyph-name="uni0E34" unicode="&#xe34;" 
d="M-213.5 677q-88.5 10 -226.5 10q32 82 96 128t145 46q89 0 140 -48.5t51 -130.5q0 -25 -4 -48q-113 33 -201.5 43zM-108.5 777q-35.5 28 -94.5 28q-46 0 -83.5 -19t-58.5 -53q69 2 140.5 -6t129.5 -24q2 46 -33.5 74z" />
    <glyph glyph-name="uni0E35" unicode="&#xe35;" 
d="M35 904l-47 -270q-113 33 -201.5 43t-226.5 10q33 82 96 128t143 46q50 0 88.5 -16.5t58.5 -46.5l19 106h70zM-108.5 777q-35.5 28 -94.5 28q-46 0 -83.5 -19t-58.5 -53q69 2 140.5 -6t129.5 -24q2 46 -33.5 74z" />
    <glyph glyph-name="uni0E36" unicode="&#xe36;" 
d="M45 784q-25 -29 -64 -34q12 -27 12 -65q0 -21 -5 -51q-113 33 -201.5 43t-226.5 10q32 82 96 128t145 46q52 0 87 -16q8 36 36.5 59t66.5 23q35 0 57 -20.5t22 -52.5q0 -41 -25 -70zM7 808q15 16 15 39q0 16 -10 25.5t-27 9.5q-22 0 -37 -16t-15 -39q0 -16 10 -25.5
t27 -9.5q22 0 37 16zM-108.5 777q-35.5 28 -94.5 28q-46 0 -83.5 -19t-58.5 -53q69 2 140.5 -6t129.5 -24q2 46 -33.5 74z" />
    <glyph glyph-name="uni0E37" unicode="&#xe37;" 
d="M35 904l-47 -270q-113 33 -201.5 43t-226.5 10q32 82 93 128t137 46q29 0 48 -4l8 47h66l-12 -69q30 -15 50 -44l19 113h66zM-113 776.5q-39 28.5 -99 28.5q-89 0 -133 -72q69 2 140.5 -6t129.5 -24q1 45 -38 73.5z" />
    <glyph glyph-name="uni0E38" unicode="&#xe38;" 
d="M-174.5 -95q22.5 -21 22.5 -55q0 -5 -2 -19l-35 -195h-72l19 106q-15 -5 -30 -5q-35 0 -56.5 22t-21.5 56q0 49 32.5 80t82.5 31q38 0 60.5 -21zM-218.5 -200q16.5 17 16.5 41q0 17 -11 27.5t-30 10.5q-24 0 -40.5 -16.5t-16.5 -41.5q0 -17 10.5 -27.5t29.5 -10.5
q25 0 41.5 17z" />
    <glyph glyph-name="uni0E39" unicode="&#xe39;" 
d="M-137 -76l-38 -217q-6 -34 -28 -51.5t-57 -17.5h-129q-30 0 -25 29l14 79q-15 -5 -31 -5q-36 0 -58 20.5t-22 53.5q0 48 31.5 79.5t80.5 31.5q38 0 61 -20.5t23 -54.5q0 -6 -2 -18l-24 -137h76q22 0 26 24l36 204h66zM-382 -197q16 16 16 40q0 17 -10.5 26.5t-28.5 9.5
q-23 0 -39 -16t-16 -40q0 -17 10 -26.5t29 -9.5q23 0 39 16z" />
    <glyph glyph-name="uni0E3A" unicode="&#xe3a;" 
d="M-228 -175.5q-13 12.5 -13 32.5q0 31 18.5 50t49.5 19q22 0 35 -12.5t13 -32.5q0 -31 -18.5 -50t-49.5 -19q-22 0 -35 12.5z" />
    <glyph glyph-name="uni0E3F" unicode="&#xe3f;" horiz-adv-x="662" 
d="M586 421.5q-23 -33.5 -56 -53.5v-1q40 -12 63 -41.5t23 -70.5q0 -17 -2 -26l-9 -48q-16 -85 -72.5 -133t-141.5 -48h-79l-20 -110h-72l20 110h-139q-25 0 -40 14t-15 37q0 9 1 14l112 635h204l19 110h72l-19 -110h16q82 0 129.5 -34.5t47.5 -93.5q0 -18 -2 -27l-10 -53
q-7 -37 -30 -70.5zM499 413.5q34 29.5 43 78.5l10 53q1 5 1 15q0 34 -28 54t-76 20h-228l-44 -250h242q46 0 80 29.5zM542 246q0 34 -25.5 55t-69.5 21h-281l-45 -256h261q60 0 99 30.5t50 84.5l9 48q2 12 2 17z" />
    <glyph glyph-name="uni0E40" unicode="&#xe40;" horiz-adv-x="312" 
d="M232 161.5q22 -21.5 22 -56.5q0 -50 -32 -82.5t-83 -32.5q-41 0 -65.5 21.5t-24.5 57.5q0 6 2 18l82 463h72l-66 -374q14 7 34 7q37 0 59 -21.5zM184 55.5q16 16.5 16 41.5q0 17 -10.5 27.5t-29.5 10.5q-24 0 -40.5 -17t-16.5 -41q0 -17 11 -27.5t30 -10.5q24 0 40 16.5z
" />
    <glyph glyph-name="uni0E41" unicode="&#xe41;" horiz-adv-x="586" 
d="M232 161.5q22 -21.5 22 -56.5q0 -50 -32 -82.5t-83 -32.5q-41 0 -65.5 21.5t-24.5 57.5q0 6 2 18l82 463h72l-66 -374q14 7 34 7q37 0 59 -21.5zM506 161.5q22 -21.5 22 -56.5q0 -50 -32 -82.5t-83 -32.5q-41 0 -65.5 21.5t-24.5 57.5q0 6 2 18l82 463h72l-66 -374
q14 7 34 7q37 0 59 -21.5zM184 55.5q16 16.5 16 41.5q0 17 -10.5 27.5t-29.5 10.5q-24 0 -40.5 -17t-16.5 -41q0 -17 11 -27.5t30 -10.5q24 0 40 16.5zM458 55.5q16 16.5 16 41.5q0 17 -10.5 27.5t-29.5 10.5q-24 0 -40.5 -17t-16.5 -41q0 -17 11 -27.5t30 -10.5
q24 0 40 16.5z" />
    <glyph glyph-name="uni0E42" unicode="&#xe42;" horiz-adv-x="398" 
d="M448 908q26 9 44 24l-12 -66q-17 -14 -37.5 -21.5t-40.5 -7.5q-23 0 -40 5.5t-39 16.5q-24 11 -39.5 16t-36.5 5q-38 0 -64 -23t-35 -64q61 -21 105 -48t62 -55l-91 -514q15 7 34 7q37 0 59 -21.5t22 -56.5q0 -50 -32 -82.5t-83 -32.5q-41 0 -65.5 21.5t-24.5 57.5
q0 6 2 18l103 583q-23 24 -67.5 47t-102.5 39q16 89 61 137.5t117 48.5q25 0 45.5 -6t44.5 -18q20 -9 34.5 -14t30.5 -5q20 0 46 9zM274.5 124.5q-10.5 10.5 -29.5 10.5q-24 0 -40.5 -17t-16.5 -41q0 -17 11 -27.5t30 -10.5q24 0 40 16.5t16 41.5q0 17 -10.5 27.5z" />
    <glyph glyph-name="uni0E43" unicode="&#xe43;" horiz-adv-x="413" 
d="M402 917q36 -31 36 -84q0 -8 -2 -26l-6 -37q-6 -37 -24.5 -66t-49.5 -67q-23 -28 -34.5 -45t-14.5 -35l-67 -381q18 7 34 7q37 0 59 -21.5t22 -56.5q0 -50 -32 -82.5t-83 -32.5q-41 0 -65.5 21.5t-24.5 57.5q0 6 2 18l85 481q3 19 15.5 36t36.5 43q31 34 49 61t24 62
l6 37q2 12 2 18q0 30 -17 47.5t-47 17.5h-45q-75 0 -107 -56l1 -1q8 5 20 8.5t24 3.5q35 0 55.5 -20.5t20.5 -53.5q0 -48 -32.5 -80t-81.5 -32q-39 0 -62 22t-23 60q0 6 2 20l5 30q12 73 59 115t120 42h43q61 0 97 -31zM144 782.5q-16 -16.5 -16 -39.5q0 -17 10.5 -27
t28.5 -10q23 0 39.5 16.5t16.5 40.5q0 17 -10.5 26.5t-28.5 9.5q-24 0 -40 -16.5zM290.5 124.5q-10.5 10.5 -29.5 10.5q-24 0 -40.5 -17t-16.5 -41q0 -17 11 -27.5t30 -10.5q24 0 40 16.5t16 41.5q0 17 -10.5 27.5z" />
    <glyph glyph-name="uni0E44" unicode="&#xe44;" horiz-adv-x="432" 
d="M384 893q0 -5 -2 -19l-123 -698q18 7 34 7q37 0 59 -21.5t22 -56.5q0 -50 -32 -82.5t-83 -32.5q-41 0 -65.5 21.5t-24.5 57.5q0 6 2 18l137 777l-150 -164h-10q-9 0 -14 5t-9 16l-86 215h68l58 -156l147 162h10q62 0 62 -49zM309.5 124.5q-10.5 10.5 -29.5 10.5
q-24 0 -40.5 -17t-16.5 -41q0 -17 11 -27.5t30 -10.5q24 0 40 16.5t16 41.5q0 17 -10.5 27.5z" />
    <glyph glyph-name="uni0E45" unicode="&#xe45;" horiz-adv-x="517" 
d="M391 398q2 16 2 22q0 34 -19 54t-52 20h-75q-46 0 -77.5 -31t-41.5 -87h-70q15 86 65 134t124 48h75q67 0 105.5 -34.5t38.5 -92.5q0 -16 -3 -33l-106 -598h-72z" />
    <glyph glyph-name="uni0E46" unicode="&#xe46;" horiz-adv-x="553" 
d="M484.5 532.5q21.5 -25.5 21.5 -72.5q0 -23 -4 -43l-86 -489q-16 -94 -57 -135t-118 -41h-38l11 64h34q40 0 62.5 26t33.5 86l86 489q4 19 4 38q0 41 -23 41h-12l-95 -85l-64 85h-10q-29 0 -51.5 -25.5t-34.5 -72.5q19 7 37 7q38 0 62 -22t24 -57q0 -52 -33 -84t-85 -32
q-42 0 -65.5 23t-23.5 62q0 12 3 27l5 26q41 210 170 210h20l56 -75l81 75h27q41 0 62.5 -25.5zM202.5 346.5q-10.5 10.5 -29.5 10.5q-24 0 -41.5 -17t-17.5 -42q0 -18 11 -28.5t30 -10.5q24 0 41 17t17 43q0 17 -10.5 27.5z" />
    <glyph glyph-name="uni0E47" unicode="&#xe47;" 
d="M-16 782.5q19 -17.5 19 -46.5q0 -43 -29.5 -69.5t-77.5 -26.5t-82.5 18t-48.5 49l-44 -63h-18q-42 0 -68 25.5t-26 66.5q0 71 47 111t130 40h116q62 0 76 76h58q-11 -62 -46 -94.5t-92 -32.5h-112q-56 0 -85 -24t-29 -69q0 -21 9 -33t25 -12h4l59 84h28q5 -71 49 -84
q-3 8 -3 16q0 37 27 61.5t64 24.5q31 0 50 -17.5zM-55 697q13 13 13 32q0 13 -8.5 21t-22.5 8q-18 0 -30.5 -13t-12.5 -32q0 -13 8 -21t22 -8q18 0 31 13z" />
    <glyph glyph-name="uni0E48" unicode="&#xe48;" 
d="M-45 843h70l-35 -199h-70z" />
    <glyph glyph-name="uni0E49" unicode="&#xe49;" 
d="M102 864q-27 -107 -99.5 -165.5t-180.5 -58.5q-89 0 -133 10l6 34q77 4 106 40q-7 -2 -20 -2q-30 0 -48.5 18t-18.5 46q0 41 28.5 68t71.5 27q33 0 54 -18.5t21 -49.5q0 -28 -16.5 -62.5t-41.5 -56.5v-1q78 2 130.5 46t75.5 125h65zM-231 768q9 -8 24 -8q20 0 33.5 13.5
t13.5 32.5q0 14 -9 22.5t-24 8.5q-19 0 -33 -14t-14 -33q0 -14 9 -22z" />
    <glyph glyph-name="uni0E4A" unicode="&#xe4a;" 
d="M99 854q-19 -109 -59.5 -159.5t-108.5 -50.5h-53l-7 31q20 25 32 57t12 61q0 32 -14 32h-2l-76 -74l-54 74h-8q-20 0 -37.5 -9.5t-30.5 -27.5q11 3 19 3q31 0 49 -16.5t18 -43.5q0 -41 -26.5 -67t-67.5 -26q-32 0 -52 19t-20 50q0 47 23 86.5t61 62t82 22.5h13l40 -59
l59 59h18q29 0 47.5 -22t18.5 -59q0 -26 -9.5 -54t-23.5 -48l1 -1q37 -1 61.5 38t38.5 122h56zM-276 745.5q-8 7.5 -23 7.5q-18 0 -31 -12.5t-13 -31.5q0 -13 8.5 -21t23.5 -8q18 0 30.5 13t12.5 32q0 13 -8 20.5z" />
    <glyph glyph-name="uni0E4B" unicode="&#xe4b;" 
d="M-61 741h-114l10 58h114l17 97h65l-17 -97h114l-10 -58h-114l-17 -97h-65z" />
    <glyph glyph-name="uni0E4C" unicode="&#xe4c;" 
d="M104 889q-16 -57 -58.5 -89.5t-99.5 -32.5h-38q4 -9 4 -25q0 -42 -31.5 -72t-77.5 -30q-38 0 -61.5 21t-23.5 55q0 48 32.5 78.5t81.5 30.5h126q27 0 48 17t32 47h66zM-153 702q16 16 16 40q0 16 -10.5 25.5t-28.5 9.5q-24 0 -39.5 -16t-15.5 -39q0 -17 10 -26.5t29 -9.5
q23 0 39 16z" />
    <glyph glyph-name="uni0E4D" unicode="&#xe4d;" 
d="M-124 666q-26 24 -26 63q0 54 36.5 89.5t91.5 35.5q42 0 68 -24.5t26 -63.5q0 -54 -36 -89t-92 -35q-42 0 -68 24zM-1.5 712.5q19.5 19.5 19.5 47.5q0 20 -12.5 31.5t-34.5 11.5q-29 0 -48 -19t-19 -48q0 -20 12.5 -31.5t34.5 -11.5q28 0 47.5 19.5z" />
    <glyph glyph-name="uni0E4E" unicode="&#xe4e;" 
d="M17.5 983q25.5 -4 40.5 -11l-9 -48q-42 13 -80 13q-36 0 -55 -15t-19 -43q0 -21 16.5 -33t49.5 -17l-9 -48q-40 12 -86 12q-39 0 -61.5 -16.5t-22.5 -46.5q0 -19 14.5 -29t40.5 -10q50 0 81 19l-10 -52q-13 -8 -34.5 -13t-43.5 -5q-51 0 -82 22t-31 58q0 50 34.5 80.5
t96.5 36.5q-8 8 -12 20t-4 24q0 50 36 78t101 28q23 0 48.5 -4z" />
    <glyph glyph-name="uni0E4F" unicode="&#xe4f;" horiz-adv-x="681" 
d="M171 20q-55 28 -85.5 79t-30.5 118q0 102 42.5 180t119.5 121t177 43q72 0 126.5 -28t84.5 -79.5t30 -118.5q0 -102 -42 -179.5t-118.5 -120.5t-176.5 -43q-72 0 -127 28zM444.5 88.5q59.5 33.5 92 94.5t32.5 141q0 78 -51 126t-133 48q-78 0 -138 -33.5t-93 -95
t-33 -141.5q0 -78 51 -125.5t135 -47.5q78 0 137.5 33.5zM227.5 159q-35.5 33 -35.5 86q0 80 49 129.5t129 49.5q59 0 94.5 -33t35.5 -87q0 -80 -49.5 -129t-129.5 -49q-58 0 -93.5 33zM407.5 215.5q29.5 29.5 29.5 78.5q0 32 -21 51t-55 19q-48 0 -77 -29.5t-29 -78.5
q0 -31 20.5 -50.5t54.5 -19.5q48 0 77.5 29.5z" />
    <glyph glyph-name="uni0E50" unicode="&#xe50;" horiz-adv-x="630" 
d="M107.5 43q-55.5 51 -55.5 137q0 21 5 51l7 38q20 112 90.5 175t174.5 63h40q97 0 153 -50.5t56 -136.5q0 -21 -5 -51l-7 -38q-20 -113 -90.5 -176t-175.5 -63h-40q-97 0 -152.5 51zM299 56q77 0 128.5 46t66.5 129l7 38q4 19 4 40q0 62 -37 98t-101 36h-38
q-76 0 -127 -46t-66 -128l-7 -38q-4 -19 -4 -41q0 -62 36.5 -98t99.5 -36h38z" />
    <glyph glyph-name="uni0E51" unicode="&#xe51;" horiz-adv-x="626" 
d="M246 24h30q81 0 139.5 55.5t74.5 149.5l7 40q3 21 3 39q0 62 -36.5 98.5t-99.5 36.5h-38q-79 0 -129.5 -42t-62.5 -116l-4 -25q-2 -18 -2 -26q0 -40 22.5 -62t63.5 -23v1q-17 19 -17 47q0 44 33.5 75t81.5 31q40 0 64 -21.5t24 -56.5q0 -59 -44.5 -94.5t-118.5 -35.5
q-90 0 -136 33t-46 98q0 17 3 35l4 24q17 105 87 163.5t177 58.5h40q96 0 151.5 -50.5t55.5 -137.5q0 -27 -4 -50l-7 -40q-14 -80 -55 -141t-103.5 -94.5t-138.5 -33.5h-30zM330 174q17 17 17 42q0 17 -11 27.5t-30 10.5q-25 0 -41.5 -17t-16.5 -42q0 -17 11 -27.5t30 -10.5
q24 0 41 17z" />
    <glyph glyph-name="uni0E52" unicode="&#xe52;" horiz-adv-x="730" 
d="M683 404q0 -23 -4 -46l-32 -181q-15 -83 -70.5 -130t-138.5 -47h-200q-80 0 -126 38.5t-46 104.5q0 16 3 34l50 285q9 51 9 86q0 39 -12 64.5t-38 44.5l55 53q36 -29 52 -64t16 -86q0 -44 -10 -98l-50 -281q-2 -16 -2 -24q0 -43 27 -68t73 -25h199q54 0 91.5 31t46.5 83
l32 180q4 19 4 36q0 46 -32 46h-8l-78 -88h-20q-4 43 -22 67.5t-46 24.5h-22q-27 0 -46 -21.5t-26 -60.5l-4 -23q16 8 39 8q37 0 60 -21t23 -56q0 -50 -33.5 -83.5t-84.5 -33.5q-41 0 -65 21.5t-24 57.5q0 5 2 19l18 103q13 73 51 113t97 40h22q33 0 58 -19.5t34 -53.5
l61 70h22q95 0 95 -100zM365.5 288.5q-10.5 10.5 -29.5 10.5q-25 0 -42 -16.5t-17 -41.5q0 -17 11 -28t30 -11q24 0 41 17t17 42q0 17 -10.5 27.5z" />
    <glyph glyph-name="uni0E53" unicode="&#xe53;" horiz-adv-x="654" 
d="M90 37.5q-39 47.5 -39 129.5q0 32 6 66l6 34q20 113 72.5 176.5t125.5 63.5h18l77 -108l113 108h18q55 0 84.5 -29t29.5 -82q0 -20 -4 -39l-63 -357h-72l64 361q3 15 3 29q0 24 -9.5 37.5t-28.5 13.5h-10l-137 -126l-89 122h-8q-38 0 -68 -45t-44 -125l-6 -34
q-7 -44 -7 -73q0 -33 8 -54l1 -1q10 34 38.5 56.5t63.5 22.5q40 0 64 -22t24 -57q0 -50 -35 -82.5t-89 -32.5q-68 0 -107 47.5zM250.5 55.5q16.5 17.5 16.5 42.5q0 17 -11 27.5t-29 10.5q-24 0 -41 -17.5t-17 -42.5q0 -17 11 -27.5t30 -10.5q24 0 40.5 17.5z" />
    <glyph glyph-name="uni0E54" unicode="&#xe54;" horiz-adv-x="619" 
d="M129 231q-5 -35 -5 -57q0 -60 30.5 -89t97.5 -29q29 0 81 8q50 8 74 8v1q-49 38 -72 73t-23 74q0 57 33.5 92.5t87.5 35.5q40 0 63.5 -22t23.5 -57q0 -49 -32.5 -82t-82.5 -33q21 -27 48 -45t47 -26.5t69 -27.5l-27 -63q-39 15 -60.5 20t-48.5 5q-29 0 -87 -12
q-23 -5 -47.5 -9t-46.5 -4q-97 0 -148.5 45.5t-51.5 133.5q0 25 5 60l5 30q18 109 90.5 173.5t178.5 64.5h103q74 0 117.5 48.5t62.5 152.5h68q-24 -137 -87 -201t-172 -64h-92q-75 0 -129.5 -47.5t-67.5 -126.5zM384.5 282q-17.5 -17 -17.5 -42q0 -17 11.5 -28t30.5 -11
q24 0 40.5 17.5t16.5 42.5q0 17 -10.5 27.5t-29.5 10.5q-24 0 -41.5 -17z" />
    <glyph glyph-name="uni0E55" unicode="&#xe55;" horiz-adv-x="619" 
d="M129 231q-5 -35 -5 -57q0 -60 30.5 -89t97.5 -29q29 0 81 8q50 8 74 8v1q-49 38 -72 73t-23 74q0 57 33.5 92.5t87.5 35.5q40 0 63.5 -22t23.5 -57q0 -49 -32.5 -82t-82.5 -33q21 -27 48 -45t47 -26.5t69 -27.5l-27 -63q-39 15 -60.5 20t-48.5 5q-29 0 -87 -12
q-23 -5 -47.5 -9t-46.5 -4q-97 0 -148.5 45.5t-51.5 133.5q0 25 5 60l5 30q15 89 66.5 149.5t129.5 79.5q-19 22 -19 54q0 52 35.5 86.5t89.5 34.5q42 0 67 -23t25 -61q0 -48 -32 -82h10q74 0 117.5 48.5t62.5 152.5h68q-24 -137 -87 -201t-172 -64h-92q-75 0 -129.5 -47.5
t-67.5 -126.5zM311 597q-19 -19 -19 -47q0 -20 12.5 -31.5t33.5 -11.5q26 0 44.5 19.5t18.5 47.5q0 19 -11.5 30.5t-32.5 11.5q-27 0 -46 -19zM384.5 282q-17.5 -17 -17.5 -42q0 -17 11.5 -28t30.5 -11q24 0 40.5 17.5t16.5 42.5q0 17 -10.5 27.5t-29.5 10.5
q-24 0 -41.5 -17z" />
    <glyph glyph-name="uni0E56" unicode="&#xe56;" horiz-adv-x="628" 
d="M519.5 455q54.5 -52 54.5 -140q0 -20 -3 -43l-6 -39q-17 -113 -88.5 -177t-180.5 -64h-40q-55 0 -102 19t-74.5 53t-27.5 77q0 55 33.5 90t86.5 35q40 0 64 -21.5t24 -56.5q0 -42 -24.5 -72.5t-63.5 -38.5q15 -10 38 -15.5t46 -5.5h40q79 0 131 47t66 131l6 38q3 18 3 36
q0 62 -35.5 98.5t-96.5 36.5h-40q-44 0 -88.5 -18.5t-79.5 -51.5h-40q0 105 -18.5 170t-67.5 127l57 40q45 -55 67 -115.5t26 -137.5q33 24 71.5 37t72.5 13h40q95 0 149.5 -52zM124 199.5q-17 -17.5 -17 -41.5q0 -17 11 -28t30 -11q24 0 41 17.5t17 42.5q0 17 -11 27.5
t-29 10.5q-25 0 -42 -17.5z" />
    <glyph glyph-name="uni0E57" unicode="&#xe57;" horiz-adv-x="827" 
d="M90 37.5q-39 47.5 -39 129.5q0 32 6 66l6 34q20 113 72.5 176.5t125.5 63.5h18l71 -108l107 108h18q55 0 84.5 -29t29.5 -82q0 -20 -4 -39l-52 -292h59q26 0 44 20t24 55l98 560h72l-98 -560q-11 -66 -48.5 -103t-93.5 -37h-140l64 361q3 15 3 29q0 24 -9.5 37.5
t-28.5 13.5h-10l-131 -126l-83 122h-8q-38 0 -68 -45t-44 -125l-6 -34q-7 -44 -7 -73q0 -33 8 -54l1 -1q10 34 38.5 56.5t63.5 22.5q40 0 64 -22t24 -57q0 -50 -35 -82.5t-89 -32.5q-68 0 -107 47.5zM250.5 55.5q16.5 17.5 16.5 42.5q0 17 -11 27.5t-29 10.5
q-24 0 -41 -17.5t-17 -42.5q0 -17 11 -27.5t30 -10.5q24 0 40.5 17.5z" />
    <glyph glyph-name="uni0E58" unicode="&#xe58;" horiz-adv-x="682" 
d="M596.5 312.5q23.5 -21.5 23.5 -59.5q0 -12 -1 -19l-3 -20q-15 -100 -65.5 -161t-121.5 -61h-28q-54 0 -93.5 35.5t-50.5 95.5l-78 -129q-62 13 -95 58t-33 115q0 33 5 58l7 39q19 111 86 173t167 62h125q55 0 90.5 17t60 60.5t38.5 123.5h68q-19 -107 -54 -165t-86 -79
t-128 -21h-114q-70 0 -118 -45.5t-63 -125.5l-7 -39q-4 -23 -4 -48q0 -39 11.5 -67t32.5 -39l104 174h30q-1 -9 -1 -25q0 -76 27 -121t73 -45h28q33 0 60.5 24.5t41.5 66.5q-15 -6 -33 -6q-38 0 -60.5 21.5t-22.5 56.5q0 50 33.5 83.5t84.5 33.5q40 0 63.5 -21.5zM551 204.5
q17 17.5 17 41.5q0 17 -11 28t-30 11q-24 0 -41 -17.5t-17 -42.5q0 -17 11 -27.5t29 -10.5q25 0 42 17.5z" />
    <glyph glyph-name="uni0E59" unicode="&#xe59;" horiz-adv-x="714" 
d="M787 700l-14 -80q-19 -108 -40 -169.5t-49.5 -89t-70.5 -27.5h-10q-35 0 -54 21t-36 60q-12 26 -22 39t-25 13h-12q-14 0 -28.5 -13t-23.5 -31q-1 -9 -1 -28q0 -84 38 -148.5t105 -109.5l-46 -53q-74 48 -117.5 120.5t-43.5 166.5q0 64 -63 64h-20q-39 0 -72 -45
t-46 -118l-5 -29q-5 -32 -5 -57q0 -54 16 -80q11 36 39 57.5t66 21.5q40 0 64 -23t24 -58q0 -49 -35.5 -81.5t-88.5 -32.5q-71 0 -114 52.5t-43 139.5q0 34 5 60l5 30q17 103 69 165t123 62h26q26 0 49.5 -9t35.5 -24q23 32 46 48.5t50 16.5h12q39 0 58.5 -22t34.5 -61
q10 -27 19.5 -39.5t24.5 -12.5h8q25 0 44.5 51.5t40.5 172.5l14 80h68zM199.5 120q-17.5 -17 -17.5 -42q0 -17 11.5 -28t30.5 -11q24 0 40.5 17.5t16.5 42.5q0 17 -11 27.5t-29 10.5q-24 0 -41.5 -17z" />
    <glyph glyph-name="uni0E5A" unicode="&#xe5a;" horiz-adv-x="760" 
d="M733 550l-97 -550h-72l72 407q-31 -33 -74 -56t-83 -28l-26 -147q-16 -87 -63 -131.5t-122 -44.5h-34l11 64h34q40 0 66 28.5t36 83.5l38 212q-30 -35 -77 -54.5t-97 -19.5q-83 0 -131.5 33.5t-48.5 90.5q0 53 35 88.5t87 35.5q40 0 63 -21t23 -56t-19.5 -63t-50.5 -42
q22 -6 55 -6q71 0 121 45.5t68 130.5h72l-29 -165q62 8 108.5 53t62.5 112h72zM137 496q-17 -17 -17 -42q0 -18 11 -28.5t30 -10.5q24 0 41 17.5t17 42.5q0 17 -11 27.5t-30 10.5q-24 0 -41 -17z" />
    <glyph glyph-name="uni0E5B" unicode="&#xe5b;" horiz-adv-x="1188" 
d="M1168 306l-8 -44q-25 -10 -53 -10q-21 0 -37 7t-23 19q-10 -25 -27.5 -49.5t-36.5 -38.5h-25q2 22 2 33q0 57 -18 81q-7 -37 -25.5 -79t-42.5 -73h-36q3 26 3 50q0 72 -20 110q-8 -44 -31 -100t-53 -105h-43q7 42 7 90q0 93 -27 142q-19 -158 -118.5 -246t-256.5 -88
q-118 0 -183 61t-65 166q0 93 40.5 166.5t111.5 114.5t159 41q91 0 144 -48.5t53 -131.5q0 -67 -26.5 -119t-74 -81t-108.5 -29q-68 0 -108.5 31t-40.5 84q0 55 35 91.5t88 36.5q40 0 63 -21.5t23 -57.5q0 -37 -21 -65t-55 -39q12 -4 32 -4q35 0 63.5 21t44.5 58t16 82
q0 59 -38 94.5t-103 35.5q-64 0 -115.5 -33.5t-81.5 -91.5t-30 -130q0 -81 49 -125.5t139 -44.5q86 0 156 37.5t113 119.5t43 210q0 23 -1 33h40q40 -49 65 -109.5t26 -113.5q14 39 22 79.5t8 71.5q0 12 -1 18h34q29 -31 47.5 -74t20.5 -81q24 58 24 105q0 8 -2 22h30
q26 -22 43 -54.5t20 -65.5q13 16 24 66l3 14h34q5 -27 18 -38t38 -11q28 0 53 10zM264.5 246q12.5 -11 32.5 -11q26 0 44 18.5t18 45.5q0 19 -11.5 30t-31.5 11q-27 0 -45.5 -18.5t-18.5 -45.5q0 -19 12.5 -30z" />
    <glyph glyph-name="uni1E0C" unicode="&#x1e0c;" horiz-adv-x="674" 
d="M60 13q-14 13 -14 37q0 10 1 15l112 635h290q98 0 155 -50t57 -134q0 -25 -4 -46l-39 -220q-44 -250 -279 -250h-238q-27 0 -41 13zM339 66q85 0 137 46.5t68 137.5l38 220q4 28 4 39q0 59 -37 92t-104 33h-224l-100 -568h218zM239.5 -159.5q-12.5 11.5 -12.5 31.5
q0 29 18 47t47 18q20 0 32.5 -12t12.5 -31q0 -29 -17.5 -47t-46.5 -18q-21 0 -33.5 11.5z" />
    <glyph glyph-name="uni1E0D" unicode="&#x1e0d;" horiz-adv-x="578" 
d="M81 30q-41 38 -41 107q0 25 4 46l21 120q16 93 72 148.5t137 55.5h74q38 0 69.5 -16.5t47.5 -43.5l44 253h72l-123 -700h-70l13 74q-29 -37 -66.5 -59.5t-70.5 -22.5h-67q-75 0 -116 38zM264 56q32 0 65 20.5t58 53.5t34 68l22 126q2 53 -24.5 86t-72.5 33h-70
q-51 0 -89.5 -38.5t-49.5 -101.5l-21 -120q-3 -19 -3 -35q0 -44 22 -68t64 -24h65zM176.5 -159.5q-12.5 11.5 -12.5 31.5q0 29 18 47t47 18q20 0 32.5 -12t12.5 -31q0 -29 -17.5 -47t-46.5 -18q-21 0 -33.5 11.5z" />
    <glyph glyph-name="uni1E0E" unicode="&#x1e0e;" horiz-adv-x="674" 
d="M60 13q-14 13 -14 37q0 10 1 15l112 635h290q98 0 155 -50t57 -134q0 -25 -4 -46l-39 -220q-44 -250 -279 -250h-238q-27 0 -41 13zM339 66q85 0 137 46.5t68 137.5l38 220q4 28 4 39q0 59 -37 92t-104 33h-224l-100 -568h218zM163 -72h255l-9 -52h-255z" />
    <glyph glyph-name="uni1E0F" unicode="&#x1e0f;" horiz-adv-x="578" 
d="M81 30q-41 38 -41 107q0 25 4 46l21 120q16 93 72 148.5t137 55.5h74q38 0 69.5 -16.5t47.5 -43.5l44 253h72l-123 -700h-70l13 74q-29 -37 -66.5 -59.5t-70.5 -22.5h-67q-75 0 -116 38zM264 56q32 0 65 20.5t58 53.5t34 68l22 126q2 53 -24.5 86t-72.5 33h-70
q-51 0 -89.5 -38.5t-49.5 -101.5l-21 -120q-3 -19 -3 -35q0 -44 22 -68t64 -24h65zM100 -72h255l-9 -52h-255z" />
    <glyph glyph-name="uni1E20" unicode="&#x1e20;" horiz-adv-x="684" 
d="M107.5 46q-53.5 54 -53.5 144q0 32 5 56l37 208q21 120 92 187t176 67h106q92 0 145 -48.5t53 -129.5q0 -25 -4 -46h-72q3 20 3 36q0 57 -33.5 89.5t-92.5 32.5h-106q-75 0 -126 -50t-67 -138l-37 -208q-4 -23 -4 -48q0 -65 33.5 -102.5t92.5 -37.5h108q74 0 124.5 47
t66.5 131l11 60h-195l11 65h267l-22 -125q-20 -115 -90 -179.5t-175 -64.5h-108q-92 0 -145.5 54zM323 843h255l-9 -52h-255z" />
    <glyph glyph-name="uni1E21" unicode="&#x1e21;" horiz-adv-x="578" 
d="M63 -171.5q-40 31.5 -40 83.5l1 14h72q-2 -30 18.5 -48.5t54.5 -18.5h83q51 0 86 34.5t46 96.5l14 77q-28 -31 -61.5 -49t-65.5 -18h-73q-72 0 -114 40t-42 109q0 22 4 42l20 117q15 90 72 144.5t139 54.5h70q37 0 70 -17.5t49 -46.5l10 56h70l-90 -509q-16 -91 -70 -142
t-134 -51h-83q-66 0 -106 31.5zM271 64q50 0 93 39.5t58 100.5l22 123q4 50 -23.5 83t-73.5 33h-68q-53 0 -92 -37t-49 -98l-20 -117q-3 -16 -3 -31q0 -44 22.5 -70t62.5 -26h71zM220 642h255l-9 -52h-255z" />
    <glyph glyph-name="uni1E24" unicode="&#x1e24;" horiz-adv-x="694" 
d="M159 700h74l-55 -314h386l55 314h74l-123 -700h-74l56 320h-386l-56 -320h-74zM239.5 -159.5q-12.5 11.5 -12.5 31.5q0 29 18 47t47 18q20 0 32.5 -12t12.5 -31q0 -29 -17.5 -47t-46.5 -18q-21 0 -33.5 11.5z" />
    <glyph glyph-name="uni1E25" unicode="&#x1e25;" horiz-adv-x="574" 
d="M155 700h72l-47 -270q29 36 66 56.5t74 20.5h64q64 0 101 -36t37 -97q0 -17 -3 -37l-59 -337h-72l60 339q2 9 2 26q0 36 -18 57t-50 21h-66q-47 0 -92 -36.5t-65 -93.5l-55 -313h-72zM183.5 -159.5q-12.5 11.5 -12.5 31.5q0 29 18 47t47 18q20 0 32.5 -12t12.5 -31
q0 -29 -17.5 -47t-46.5 -18q-21 0 -33.5 11.5z" />
    <glyph glyph-name="uni1E2A" unicode="&#x1e2a;" horiz-adv-x="694" 
d="M159 700h74l-55 -314h386l55 314h74l-123 -700h-74l56 320h-386l-56 -320h-74zM177 -172q-33 30 -33 81q0 13 1 20l1 8h58l-1 -8q-1 -5 -1 -13q0 -32 18 -50t50 -18h12q39 0 65.5 22t30.5 59l1 8h57l-1 -8q-7 -59 -50 -95t-106 -36h-12q-57 0 -90 30z" />
    <glyph glyph-name="uni1E2B" unicode="&#x1e2b;" horiz-adv-x="574" 
d="M155 700h72l-47 -270q29 36 66 56.5t74 20.5h64q64 0 101 -36t37 -97q0 -17 -3 -37l-59 -337h-72l60 339q2 9 2 26q0 36 -18 57t-50 21h-66q-47 0 -92 -36.5t-65 -93.5l-55 -313h-72zM121 -172q-33 30 -33 81q0 13 1 20l1 8h58l-1 -8q-1 -5 -1 -13q0 -32 18 -50t50 -18
h12q39 0 65.5 22t30.5 59l1 8h57l-1 -8q-7 -59 -50 -95t-106 -36h-12q-57 0 -90 30z" />
    <glyph glyph-name="uni1E36" unicode="&#x1e36;" horiz-adv-x="560" 
d="M60 13q-14 13 -14 37q0 10 1 15l112 635h74l-112 -634h380l-11 -66h-389q-27 0 -41 13zM202.5 -159.5q-12.5 11.5 -12.5 31.5q0 29 18 47t47 18q20 0 32.5 -12t12.5 -31q0 -29 -17.5 -47t-46.5 -18q-21 0 -33.5 11.5z" />
    <glyph glyph-name="uni1E37" unicode="&#x1e37;" horiz-adv-x="268" 
d="M80.5 21q-28.5 21 -28.5 71q0 23 4 44l99 564h72l-99 -564q-3 -15 -3 -27q0 -25 13 -35t43 -10h34l-11 -64h-34q-61 0 -89.5 21zM54.5 -159.5q-12.5 11.5 -12.5 31.5q0 29 18 47t47 18q20 0 32.5 -12t12.5 -31q0 -29 -17.5 -47t-46.5 -18q-21 0 -33.5 11.5z" />
    <glyph glyph-name="uni1E38" unicode="&#x1e38;" horiz-adv-x="560" 
d="M60 13q-14 13 -14 37q0 10 1 15l112 635h74l-112 -634h380l-11 -66h-389q-27 0 -41 13zM202.5 -159.5q-12.5 11.5 -12.5 31.5q0 29 18 47t47 18q20 0 32.5 -12t12.5 -31q0 -29 -17.5 -47t-46.5 -18q-21 0 -33.5 11.5zM94 843h255l-9 -52h-255z" />
    <glyph glyph-name="uni1E39" unicode="&#x1e39;" horiz-adv-x="268" 
d="M80.5 21q-28.5 21 -28.5 71q0 23 4 44l99 564h72l-99 -564q-3 -15 -3 -27q0 -25 13 -35t43 -10h34l-11 -64h-34q-61 0 -89.5 21zM54.5 -159.5q-12.5 11.5 -12.5 31.5q0 29 18 47t47 18q20 0 32.5 -12t12.5 -31q0 -29 -17.5 -47t-46.5 -18q-21 0 -33.5 11.5zM89 843h255
l-9 -52h-255z" />
    <glyph glyph-name="uni1E3A" unicode="&#x1e3a;" horiz-adv-x="560" 
d="M60 13q-14 13 -14 37q0 10 1 15l112 635h74l-112 -634h380l-11 -66h-389q-27 0 -41 13zM126 -72h255l-9 -52h-255z" />
    <glyph glyph-name="uni1E3B" unicode="&#x1e3b;" horiz-adv-x="268" 
d="M80.5 21q-28.5 21 -28.5 71q0 23 4 44l99 564h72l-99 -564q-3 -15 -3 -27q0 -25 13 -35t43 -10h34l-11 -64h-34q-61 0 -89.5 21zM-22 -72h255l-9 -52h-255z" />
    <glyph glyph-name="uni1E42" unicode="&#x1e42;" horiz-adv-x="795" 
d="M159 700h66l168 -465l325 465h76l-123 -700h-73l99 562l-270 -384q-13 -19 -22.5 -27t-20.5 -8h-22l-154 419l-99 -562h-73zM290.5 -159.5q-12.5 11.5 -12.5 31.5q0 29 18 47t47 18q20 0 32.5 -12t12.5 -31q0 -29 -17.5 -47t-46.5 -18q-21 0 -33.5 11.5z" />
    <glyph glyph-name="uni1E43" unicode="&#x1e43;" horiz-adv-x="836" 
d="M751.5 473.5q34.5 -33.5 34.5 -90.5q0 -18 -3 -36l-61 -347h-72l62 349q2 9 2 25q0 32 -15.5 50.5t-43.5 18.5h-57q-41 0 -75.5 -30.5t-50.5 -80.5l-59 -332h-72l60 343q3 15 3 29q0 33 -14.5 52t-39.5 19h-57q-41 0 -78 -36t-56 -94l-55 -313h-72l88 499h70l-13 -72
q25 36 58 58t62 22h59q42 0 71 -22t40 -60q27 38 61.5 60t67.5 22h61q60 0 94.5 -33.5zM313.5 -159.5q-12.5 11.5 -12.5 31.5q0 29 18 47t47 18q20 0 32.5 -12t12.5 -31q0 -29 -17.5 -47t-46.5 -18q-21 0 -33.5 11.5z" />
    <glyph glyph-name="uni1E44" unicode="&#x1e44;" horiz-adv-x="690" 
d="M159 700h66l290 -584l102 584h72l-123 -700h-66l-290 580l-102 -580h-72zM405.5 792.5q-12.5 11.5 -12.5 31.5q0 29 18 47t47 18q20 0 32.5 -12t12.5 -31q0 -29 -17.5 -47t-46.5 -18q-21 0 -33.5 11.5z" />
    <glyph glyph-name="uni1E45" unicode="&#x1e45;" horiz-adv-x="572" 
d="M120 499h70l-13 -74q31 39 68.5 60.5t74.5 21.5h64q63 0 99.5 -35.5t36.5 -96.5q0 -18 -3 -38l-59 -337h-72l60 339q2 9 2 27q0 36 -18 56.5t-50 20.5h-64q-47 0 -92 -37t-65 -95l-55 -311h-72zM319.5 591.5q-12.5 11.5 -12.5 31.5q0 29 18 47t47 18q20 0 32.5 -12
t12.5 -31q0 -29 -17.5 -47t-46.5 -18q-21 0 -33.5 11.5z" />
    <glyph glyph-name="uni1E46" unicode="&#x1e46;" horiz-adv-x="690" 
d="M159 700h66l290 -584l102 584h72l-123 -700h-66l-290 580l-102 -580h-72zM238.5 -159.5q-12.5 11.5 -12.5 31.5q0 29 18 47t47 18q20 0 32.5 -12t12.5 -31q0 -29 -17.5 -47t-46.5 -18q-21 0 -33.5 11.5z" />
    <glyph glyph-name="uni1E47" unicode="&#x1e47;" horiz-adv-x="572" 
d="M120 499h70l-13 -74q31 39 68.5 60.5t74.5 21.5h64q63 0 99.5 -35.5t36.5 -96.5q0 -18 -3 -38l-59 -337h-72l60 339q2 9 2 27q0 36 -18 56.5t-50 20.5h-64q-47 0 -92 -37t-65 -95l-55 -311h-72zM186.5 -159.5q-12.5 11.5 -12.5 31.5q0 29 18 47t47 18q20 0 32.5 -12
t12.5 -31q0 -29 -17.5 -47t-46.5 -18q-21 0 -33.5 11.5z" />
    <glyph glyph-name="uni1E48" unicode="&#x1e48;" horiz-adv-x="690" 
d="M159 700h66l290 -584l102 584h72l-123 -700h-66l-290 580l-102 -580h-72zM162 -72h255l-9 -52h-255z" />
    <glyph glyph-name="uni1E49" unicode="&#x1e49;" horiz-adv-x="572" 
d="M120 499h70l-13 -74q31 39 68.5 60.5t74.5 21.5h64q63 0 99.5 -35.5t36.5 -96.5q0 -18 -3 -38l-59 -337h-72l60 339q2 9 2 27q0 36 -18 56.5t-50 20.5h-64q-47 0 -92 -37t-65 -95l-55 -311h-72zM110 -72h255l-9 -52h-255z" />
    <glyph glyph-name="uni1E5A" unicode="&#x1e5a;" horiz-adv-x="650" 
d="M159 700h331q72 0 113.5 -34.5t41.5 -92.5q0 -14 -3 -31l-13 -73q-10 -56 -47.5 -95.5t-104.5 -55.5v-1q28 -16 46 -50.5t23 -79.5l22 -187h-76l-22 187q-6 49 -35 79t-70 30h-203l-52 -296h-74zM414 362q55 0 94 29.5t47 77.5l13 77q1 6 1 17q0 33 -22 52t-61 19h-264
l-48 -272h240zM229.5 -159.5q-12.5 11.5 -12.5 31.5q0 29 18 47t47 18q20 0 32.5 -12t12.5 -31q0 -29 -17.5 -47t-46.5 -18q-21 0 -33.5 11.5z" />
    <glyph glyph-name="uni1E5B" unicode="&#x1e5b;" horiz-adv-x="355" 
d="M120 499h70l-14 -77q28 37 67.5 58t81.5 21h54l-11 -65h-43q-65 0 -111.5 -40.5t-58.5 -107.5l-51 -288h-72zM4.5 -159.5q-12.5 11.5 -12.5 31.5q0 29 18 47t47 18q20 0 32.5 -12t12.5 -31q0 -29 -17.5 -47t-46.5 -18q-21 0 -33.5 11.5z" />
    <glyph glyph-name="uni1E5C" unicode="&#x1e5c;" horiz-adv-x="650" 
d="M159 700h331q72 0 113.5 -34.5t41.5 -92.5q0 -14 -3 -31l-13 -73q-10 -56 -47.5 -95.5t-104.5 -55.5v-1q28 -16 46 -50.5t23 -79.5l22 -187h-76l-22 187q-6 49 -35 79t-70 30h-203l-52 -296h-74zM414 362q55 0 94 29.5t47 77.5l13 77q1 6 1 17q0 33 -22 52t-61 19h-264
l-48 -272h240zM229.5 -159.5q-12.5 11.5 -12.5 31.5q0 29 18 47t47 18q20 0 32.5 -12t12.5 -31q0 -29 -17.5 -47t-46.5 -18q-21 0 -33.5 11.5zM299 843h255l-9 -52h-255z" />
    <glyph glyph-name="uni1E5D" unicode="&#x1e5d;" horiz-adv-x="355" 
d="M120 499h70l-14 -77q28 37 67.5 58t81.5 21h54l-11 -65h-43q-65 0 -111.5 -40.5t-58.5 -107.5l-51 -288h-72zM4.5 -159.5q-12.5 11.5 -12.5 31.5q0 29 18 47t47 18q20 0 32.5 -12t12.5 -31q0 -29 -17.5 -47t-46.5 -18q-21 0 -33.5 11.5zM142 642h255l-9 -52h-255z" />
    <glyph glyph-name="uni1E5E" unicode="&#x1e5e;" horiz-adv-x="650" 
d="M159 700h331q72 0 113.5 -34.5t41.5 -92.5q0 -14 -3 -31l-13 -73q-10 -56 -47.5 -95.5t-104.5 -55.5v-1q28 -16 46 -50.5t23 -79.5l22 -187h-76l-22 187q-6 49 -35 79t-70 30h-203l-52 -296h-74zM414 362q55 0 94 29.5t47 77.5l13 77q1 6 1 17q0 33 -22 52t-61 19h-264
l-48 -272h240zM153 -72h255l-9 -52h-255z" />
    <glyph glyph-name="uni1E5F" unicode="&#x1e5f;" horiz-adv-x="355" 
d="M120 499h70l-14 -77q28 37 67.5 58t81.5 21h54l-11 -65h-43q-65 0 -111.5 -40.5t-58.5 -107.5l-51 -288h-72zM-72 -72h255l-9 -52h-255z" />
    <glyph glyph-name="uni1E60" unicode="&#x1e60;" horiz-adv-x="627" 
d="M92.5 36q-49.5 44 -49.5 119q0 22 4 42h72q-3 -16 -3 -32q0 -49 30 -78t81 -29h111q61 0 100 25.5t47 70.5l12 64q1 4 1 13q0 28 -22.5 48.5t-60.5 27.5l-175 30q-63 10 -99 46t-36 87q0 8 2 24l10 54q14 76 71 118t144 42h113q80 0 126 -40t46 -109q0 -12 -4 -38h-72
q3 15 3 27q0 44 -26.5 69t-72.5 25h-113q-58 0 -95 -25t-46 -69l-10 -54q-1 -5 -1 -13q0 -29 22 -50t59 -28l174 -31q64 -11 101 -46.5t37 -84.5q0 -7 -2 -23l-12 -64q-15 -80 -70.5 -121t-146.5 -41h-115q-85 0 -134.5 44zM366.5 792.5q-12.5 11.5 -12.5 31.5q0 29 18 47
t47 18q20 0 32.5 -12t12.5 -31q0 -29 -17.5 -47t-46.5 -18q-21 0 -33.5 11.5z" />
    <glyph glyph-name="uni1E61" unicode="&#x1e61;" horiz-adv-x="520" 
d="M70 26q-41 34 -41 91q0 15 3 31h70q-2 -14 -2 -20q0 -34 22 -54t61 -20h87q45 0 73.5 16.5t34.5 46.5l7 34q1 3 1 8q0 17 -12.5 29t-33.5 16l-168 30q-45 8 -71 33.5t-26 60.5q0 5 2 17l6 33q11 61 56 95t115 34h86q67 0 105.5 -32t38.5 -86q0 -17 -2 -26h-70q1 5 1 16
q0 30 -19.5 48t-53.5 18h-86q-40 0 -66 -18t-33 -49l-6 -29q-4 -19 10 -33.5t40 -19.5l167 -30q43 -8 68 -33t25 -60q0 -6 -2 -18l-7 -40q-11 -58 -58 -90.5t-122 -32.5h-87q-72 0 -113 34zM275.5 591.5q-12.5 11.5 -12.5 31.5q0 29 18 47t47 18q20 0 32.5 -12t12.5 -31
q0 -29 -17.5 -47t-46.5 -18q-21 0 -33.5 11.5z" />
    <glyph glyph-name="uni1E62" unicode="&#x1e62;" horiz-adv-x="627" 
d="M92.5 36q-49.5 44 -49.5 119q0 22 4 42h72q-3 -16 -3 -32q0 -49 30 -78t81 -29h111q61 0 100 25.5t47 70.5l12 64q1 4 1 13q0 28 -22.5 48.5t-60.5 27.5l-175 30q-63 10 -99 46t-36 87q0 8 2 24l10 54q14 76 71 118t144 42h113q80 0 126 -40t46 -109q0 -12 -4 -38h-72
q3 15 3 27q0 44 -26.5 69t-72.5 25h-113q-58 0 -95 -25t-46 -69l-10 -54q-1 -5 -1 -13q0 -29 22 -50t59 -28l174 -31q64 -11 101 -46.5t37 -84.5q0 -7 -2 -23l-12 -64q-15 -80 -70.5 -121t-146.5 -41h-115q-85 0 -134.5 44zM228.5 -159.5q-12.5 11.5 -12.5 31.5q0 29 18 47
t47 18q20 0 32.5 -12t12.5 -31q0 -29 -17.5 -47t-46.5 -18q-21 0 -33.5 11.5z" />
    <glyph glyph-name="uni1E63" unicode="&#x1e63;" horiz-adv-x="520" 
d="M70 26q-41 34 -41 91q0 15 3 31h70q-2 -14 -2 -20q0 -34 22 -54t61 -20h87q45 0 73.5 16.5t34.5 46.5l7 34q1 3 1 8q0 17 -12.5 29t-33.5 16l-168 30q-45 8 -71 33.5t-26 60.5q0 5 2 17l6 33q11 61 56 95t115 34h86q67 0 105.5 -32t38.5 -86q0 -17 -2 -26h-70q1 5 1 16
q0 30 -19.5 48t-53.5 18h-86q-40 0 -66 -18t-33 -49l-6 -29q-4 -19 10 -33.5t40 -19.5l167 -30q43 -8 68 -33t25 -60q0 -6 -2 -18l-7 -40q-11 -58 -58 -90.5t-122 -32.5h-87q-72 0 -113 34zM166.5 -159.5q-12.5 11.5 -12.5 31.5q0 29 18 47t47 18q20 0 32.5 -12t12.5 -31
q0 -29 -17.5 -47t-46.5 -18q-21 0 -33.5 11.5z" />
    <glyph glyph-name="uni1E6C" unicode="&#x1e6c;" horiz-adv-x="578" 
d="M320 636h-222l11 64h518l-11 -64h-222l-112 -636h-74zM181.5 -159.5q-12.5 11.5 -12.5 31.5q0 29 18 47t47 18q20 0 32.5 -12t12.5 -31q0 -29 -17.5 -47t-46.5 -18q-21 0 -33.5 11.5z" />
    <glyph glyph-name="uni1E6D" unicode="&#x1e6d;" horiz-adv-x="382" 
d="M131.5 23.5q-30.5 23.5 -30.5 75.5q0 19 5 47l51 289h-88l11 64h88l27 151h72l-27 -151h130l-11 -64h-130l-51 -289q-2 -10 -2 -28q0 -30 14.5 -42t49.5 -12h53l-12 -64h-53q-66 0 -96.5 23.5zM124.5 -159.5q-12.5 11.5 -12.5 31.5q0 29 18 47t47 18q20 0 32.5 -12
t12.5 -31q0 -29 -17.5 -47t-46.5 -18q-21 0 -33.5 11.5z" />
    <glyph glyph-name="uni1E6E" unicode="&#x1e6e;" horiz-adv-x="578" 
d="M320 636h-222l11 64h518l-11 -64h-222l-112 -636h-74zM105 -72h255l-9 -52h-255z" />
    <glyph glyph-name="uni1E6F" unicode="&#x1e6f;" horiz-adv-x="382" 
d="M131.5 23.5q-30.5 23.5 -30.5 75.5q0 19 5 47l51 289h-88l11 64h88l27 151h72l-27 -151h130l-11 -64h-130l-51 -289q-2 -10 -2 -28q0 -30 14.5 -42t49.5 -12h53l-12 -64h-53q-66 0 -96.5 23.5zM48 -72h255l-9 -52h-255z" />
    <glyph glyph-name="Wgrave" unicode="&#x1e80;" horiz-adv-x="844" 
d="M134 15.5q-13 15.5 -14 49.5l-7 635h71l2 -604h1l276 567h31q35 0 40 -43l63 -524h1l216 604h75l-231 -635q-12 -32 -29.5 -48.5t-47.5 -16.5h-30l-71 564h-1l-274 -564h-30q-28 0 -41 15.5zM412 933h80l56 -152h-64z" />
    <glyph glyph-name="wgrave" unicode="&#x1e81;" horiz-adv-x="723" 
d="M735 499l-186 -441q-13 -30 -29.5 -44t-40.5 -14h-34l-59 377l-195 -377h-34q-23 0 -35.5 14t-14.5 44l-31 441h73l19 -419l207 405h26q29 0 33 -32l56 -370l166 416h79zM317 732h80l56 -152h-64z" />
    <glyph glyph-name="Wacute" unicode="&#x1e82;" horiz-adv-x="844" 
d="M134 15.5q-13 15.5 -14 49.5l-7 635h71l2 -604h1l276 567h31q35 0 40 -43l63 -524h1l216 604h75l-231 -635q-12 -32 -29.5 -48.5t-47.5 -16.5h-30l-71 564h-1l-274 -564h-30q-28 0 -41 15.5zM593 933h84l-126 -152h-68z" />
    <glyph glyph-name="wacute" unicode="&#x1e83;" horiz-adv-x="723" 
d="M735 499l-186 -441q-13 -30 -29.5 -44t-40.5 -14h-34l-59 377l-195 -377h-34q-23 0 -35.5 14t-14.5 44l-31 441h73l19 -419l207 405h26q29 0 33 -32l56 -370l166 416h79zM498 732h84l-126 -152h-68z" />
    <glyph glyph-name="Wdieresis" unicode="&#x1e84;" horiz-adv-x="844" 
d="M134 15.5q-13 15.5 -14 49.5l-7 635h71l2 -604h1l276 567h31q35 0 40 -43l63 -524h1l216 604h75l-231 -635q-12 -32 -29.5 -48.5t-47.5 -16.5h-30l-71 564h-1l-274 -564h-30q-28 0 -41 15.5zM385 792q-11 11 -11 28q0 26 16.5 42.5t42.5 16.5q19 0 30 -11t11 -28
q0 -26 -16.5 -42.5t-42.5 -16.5q-19 0 -30 11zM584 792q-11 11 -11 28q0 26 16.5 42.5t42.5 16.5q19 0 30 -11t11 -28q0 -26 -16.5 -42.5t-42.5 -16.5q-19 0 -30 11z" />
    <glyph glyph-name="wdieresis" unicode="&#x1e85;" horiz-adv-x="723" 
d="M735 499l-186 -441q-13 -30 -29.5 -44t-40.5 -14h-34l-59 377l-195 -377h-34q-23 0 -35.5 14t-14.5 44l-31 441h73l19 -419l207 405h26q29 0 33 -32l56 -370l166 416h79zM290 591q-11 11 -11 28q0 26 16.5 42.5t42.5 16.5q19 0 30 -11t11 -28q0 -26 -16.5 -42.5
t-42.5 -16.5q-19 0 -30 11zM489 591q-11 11 -11 28q0 26 16.5 42.5t42.5 16.5q19 0 30 -11t11 -28q0 -26 -16.5 -42.5t-42.5 -16.5q-19 0 -30 11z" />
    <glyph glyph-name="uni1E8E" unicode="&#x1e8e;" horiz-adv-x="622" 
d="M277 269l-182 431h75l151 -364l279 364h85l-334 -431l-47 -269h-74zM371.5 792.5q-12.5 11.5 -12.5 31.5q0 29 18 47t47 18q20 0 32.5 -12t12.5 -31q0 -29 -17.5 -47t-46.5 -18q-21 0 -33.5 11.5z" />
    </font>
</defs>
</svg>
