<svg width="27" height="27" viewBox="0 0 27 27" fill="none" xmlns="http://www.w3.org/2000/svg">
<g clip-path="url(#clip0_114:6555)">
<path d="M4.0275 23.8455H20.0689L19.3027 21.3649L21.1354 22.9376L22.815 24.4429L25.875 27V2.78437C25.7985 1.27912 24.5025 0 22.896 0L4.03312 0.003375C2.42775 0.003375 1.125 1.28475 1.125 2.79V21.06C1.125 22.6474 2.4255 23.8455 4.0275 23.8455V23.8455ZM15.894 6.39338L15.8569 6.40688L15.8704 6.39338H15.894ZM7.30912 7.821C9.37125 6.32025 11.2826 6.39225 11.2826 6.39225L11.4367 6.54412C8.91337 7.146 7.76925 8.27325 7.76925 8.27325C7.76925 8.27325 8.07525 8.12363 8.60962 7.89525C12.0082 6.55875 15.7196 6.6555 19.1554 8.3475C19.1554 8.3475 18.009 7.29337 15.6409 6.61837L15.8501 6.4125C16.1775 6.41362 17.91 6.47437 19.764 7.83C19.764 7.83 21.8385 11.3737 21.8385 15.7275C21.7699 15.6442 20.5515 17.6018 17.4161 17.6693C17.4161 17.6693 16.8851 17.0685 16.5071 16.5443C18.3409 16.0178 19.0271 14.9648 19.0271 14.9648C18.4252 15.3439 17.8762 15.5689 17.4307 15.7939C16.7456 16.0954 16.0594 16.2439 15.3742 16.3958C12.1297 16.9223 10.3084 16.0414 8.58712 15.3427L7.99875 15.0435C7.99875 15.0435 8.68387 16.0965 10.4445 16.623C9.98212 17.1506 9.52425 17.7502 9.52425 17.7502C6.39 17.676 5.247 15.7185 5.247 15.7185C5.247 11.358 7.30912 7.821 7.30912 7.821V7.821Z" fill="white"/>
<path d="M16.0968 14.3673C16.8966 14.3673 17.548 13.6923 17.548 12.8598C17.548 12.0329 16.9 11.3579 16.0968 11.3579V11.3613C15.3003 11.3613 14.6478 12.034 14.6455 12.8665C14.6455 13.6923 15.2969 14.3673 16.0968 14.3673Z" fill="white"/>
<path d="M10.9014 14.3673C11.7013 14.3673 12.3527 13.6923 12.3527 12.8598C12.3527 12.0329 11.7058 11.3579 10.9059 11.3579L10.9014 11.3613C10.1016 11.3613 9.4502 12.034 9.4502 12.8665C9.4502 13.6923 10.1016 14.3673 10.9014 14.3673V14.3673Z" fill="white"/>
</g>
<defs>
<clipPath id="clip0_114:6555">
<rect width="27" height="27" fill="white"/>
</clipPath>
</defs>
</svg>
