<svg width="23" height="24" viewBox="0 0 23 24" fill="none" xmlns="http://www.w3.org/2000/svg">
<g clip-path="url(#clip0_80:35651)">
<path d="M0 7.37583V0.47583H1.53333V7.37583C1.53333 7.98583 1.77565 8.57084 2.20699 9.00218C2.63832 9.43351 3.22334 9.67583 3.83333 9.67583C4.44333 9.67583 5.02835 9.43351 5.45968 9.00218C5.89101 8.57084 6.13333 7.98583 6.13333 7.37583V2.77583C6.13333 2.5725 6.05256 2.37749 5.90878 2.23371C5.765 2.08994 5.57 2.00916 5.36667 2.00916C5.16333 2.00916 4.96833 2.08994 4.82455 2.23371C4.68077 2.37749 4.6 2.5725 4.6 2.77583V8.1425H3.06667V2.77583C3.06667 2.47379 3.12616 2.17471 3.24174 1.89566C3.35733 1.61661 3.52675 1.36306 3.74032 1.14948C3.9539 0.93591 4.20745 0.766493 4.4865 0.650907C4.76554 0.535321 5.06463 0.47583 5.36667 0.47583C5.66871 0.47583 5.96779 0.535321 6.24684 0.650907C6.52589 0.766493 6.77944 0.93591 6.99301 1.14948C7.20659 1.36306 7.376 1.61661 7.49159 1.89566C7.60718 2.17471 7.66667 2.47379 7.66667 2.77583V7.37583C7.66667 8.39249 7.2628 9.36752 6.54391 10.0864C5.82502 10.8053 4.85 11.2092 3.83333 11.2092C2.81667 11.2092 1.84165 10.8053 1.12276 10.0864C0.403868 9.36752 0 8.39249 0 7.37583H0Z" fill="#DDFFB1"/>
<path fill-rule="evenodd" clip-rule="evenodd" d="M19.1665 0.47583H9.19987V7.37583C9.19987 8.79916 8.63445 10.1642 7.62801 11.1706C6.62156 12.1771 5.25653 12.7425 3.8332 12.7425H1.5332V21.1758C1.5332 21.7858 1.77552 22.3708 2.20686 22.8022C2.63819 23.2335 3.22321 23.4758 3.8332 23.4758H19.1665C19.7765 23.4758 20.3615 23.2335 20.7929 22.8022C21.2242 22.3708 21.4665 21.7858 21.4665 21.1758V2.77583C21.4665 2.16583 21.2242 1.58082 20.7929 1.14948C20.3615 0.718151 19.7765 0.47583 19.1665 0.47583V0.47583ZM16.8665 6.60916H10.7332V8.1425H16.8665V6.60916ZM16.8665 11.2092H10.7332V12.7425H16.8665V11.2092ZM6.1332 15.8092H16.8665V17.3425H6.1332V15.8092Z" fill="#DDFFB1"/>
</g>
<defs>
<clipPath id="clip0_80:35651">
<rect width="23" height="23" fill="white" transform="translate(0 0.47583)"/>
</clipPath>
</defs>
</svg>
