<svg width="27" height="27" viewBox="0 0 27 27" fill="none" xmlns="http://www.w3.org/2000/svg">
<g clip-path="url(#clip0_114:6563)">
<path d="M9.73842 21.7091C9.5507 21.744 9.46869 21.8321 9.49221 21.9726C9.51561 22.1132 9.62107 22.1602 9.80855 22.1132C9.99627 22.0664 10.0782 21.9842 10.0546 21.8671C10.0314 21.7383 9.9259 21.6855 9.73842 21.7091Z" fill="white"/>
<path d="M8.73632 21.8497C8.54879 21.8497 8.45508 21.9138 8.45508 22.043C8.45508 22.1953 8.55476 22.2596 8.75387 22.2362C8.94141 22.2362 9.03524 22.1717 9.03524 22.043C9.03524 21.8908 8.93556 21.8261 8.73632 21.8497Z" fill="white"/>
<path d="M7.36589 21.7968C7.3191 21.9258 7.39532 22.0135 7.59437 22.0606C7.77015 22.1306 7.88153 22.0955 7.92832 21.955C7.96354 21.8263 7.88731 21.7328 7.69984 21.6738C7.524 21.6271 7.41274 21.6675 7.36589 21.7968Z" fill="white"/>
<path d="M25.5146 1.48522C24.5243 0.495133 23.3322 0 21.9374 0H5.06247C3.66807 0 2.47555 0.495133 1.48522 1.48522C0.495134 2.47548 0 3.668 0 5.06247V21.9376C0 23.3322 0.495134 24.5246 1.48522 25.5146C2.47548 26.5049 3.66807 27 5.06247 27H8.99996C9.25756 27 9.45107 26.9912 9.57993 26.9739C9.70874 26.9562 9.83754 26.88 9.96652 26.7451C10.0956 26.6104 10.1598 26.4141 10.1598 26.1564C10.1598 26.1214 10.1568 25.7226 10.151 24.9609C10.145 24.199 10.1421 23.5956 10.1421 23.1502L9.7378 23.2205C9.48001 23.2673 9.1548 23.288 8.76218 23.282C8.36974 23.2761 7.96241 23.2353 7.5406 23.159C7.11855 23.0828 6.72611 22.907 6.3628 22.6319C5.99966 22.3562 5.74188 21.996 5.5895 21.5508L5.41366 21.1462C5.29649 20.877 5.11203 20.578 4.86003 20.2502C4.60803 19.9219 4.3532 19.6992 4.09541 19.582L3.97234 19.4941C3.89039 19.4356 3.81423 19.3649 3.74386 19.283C3.67361 19.2008 3.6209 19.1187 3.58575 19.0369C3.55059 18.9547 3.57978 18.8873 3.67361 18.8344C3.76744 18.7818 3.93718 18.7557 4.18339 18.7557L4.53483 18.8083C4.76928 18.8551 5.05914 18.9956 5.40504 19.2301C5.75068 19.4644 6.03482 19.7691 6.25751 20.144C6.52718 20.6246 6.85208 20.9905 7.23313 21.2425C7.61387 21.4948 7.99775 21.6207 8.3844 21.6207C8.77105 21.6207 9.10499 21.5914 9.38636 21.5331C9.66742 21.4743 9.93112 21.3862 10.1773 21.2691C10.2828 20.484 10.57 19.8801 11.0386 19.4583C10.3707 19.388 9.77012 19.2826 9.23675 19.1419C8.70369 19.0011 8.15284 18.7728 7.58456 18.4563C7.01604 18.1398 6.54442 17.7475 6.16941 17.2784C5.79446 16.8094 5.48674 16.1942 5.24668 15.4327C5.0065 14.6708 4.88638 13.7918 4.88638 12.7958C4.88638 11.378 5.34944 10.1707 6.27518 9.17475C5.84149 8.10838 5.88244 6.91321 6.39814 5.58888C6.73799 5.48335 7.24199 5.56252 7.90989 5.82622C8.57791 6.09011 9.06701 6.31575 9.37768 6.50298C9.68836 6.69027 9.93728 6.84863 10.1248 6.97768C11.2149 6.67297 12.3398 6.52065 13.4999 6.52065C14.6599 6.52065 15.785 6.67297 16.8751 6.97768L17.5431 6.55581C18.0003 6.27444 18.5393 6.01665 19.1604 5.78239C19.7815 5.54806 20.256 5.48353 20.5843 5.58906C21.1115 6.9134 21.1586 8.10857 20.7246 9.17487C21.6504 10.171 22.1136 11.3782 22.1136 12.796C22.1136 13.7922 21.9934 14.6742 21.7533 15.4416C21.5133 16.2091 21.2029 16.8246 20.8217 17.2874C20.441 17.7504 19.9663 18.1397 19.398 18.4564C18.8296 18.7727 18.2788 19.0014 17.7455 19.1418C17.2123 19.2825 16.6118 19.3883 15.9438 19.4586C16.5528 19.9858 16.8575 20.8176 16.8575 21.9545V26.1558C16.8575 26.3551 16.8865 26.5161 16.9451 26.6392C17.0041 26.7622 17.0977 26.8469 17.2266 26.8941C17.356 26.9409 17.4697 26.9702 17.5696 26.9818C17.6694 26.9936 17.8127 26.9995 18.0002 26.9995H21.9377C23.3321 26.9995 24.5247 26.5044 25.5145 25.5141C26.5048 24.5238 26.9999 23.3312 26.9999 21.9368V5.06247C26.9998 3.668 26.5047 2.4753 25.5146 1.48522Z" fill="white"/>
<path d="M5.34381 19.6522C5.26186 19.7106 5.27356 19.8044 5.37903 19.9333C5.49638 20.0504 5.59002 20.0681 5.6604 19.9859C5.74234 19.9276 5.73065 19.8338 5.62499 19.7046C5.50789 19.5993 5.41418 19.5817 5.34381 19.6522Z" fill="white"/>
<path d="M4.76409 19.2129C4.729 19.2951 4.77 19.3655 4.88717 19.4238C4.98081 19.4826 5.05722 19.4711 5.11565 19.3889C5.15074 19.3067 5.10974 19.2363 4.99257 19.1775C4.87541 19.1423 4.79925 19.1541 4.76409 19.2129Z" fill="white"/>
<path d="M5.88876 20.3381C5.78317 20.3965 5.78317 20.5023 5.88876 20.6544C5.99423 20.807 6.09366 20.8479 6.18755 20.7774C6.29308 20.6953 6.29308 20.584 6.18755 20.4433C6.09391 20.2913 5.99423 20.2558 5.88876 20.3381Z" fill="white"/>
<path d="M6.50426 21.1287C6.39874 21.2226 6.42201 21.3335 6.57458 21.4629C6.71501 21.6032 6.83224 21.6209 6.92601 21.5151C7.01984 21.4216 6.99638 21.3104 6.8557 21.1815C6.71526 21.0411 6.59803 21.0234 6.50426 21.1287Z" fill="white"/>
</g>
<defs>
<clipPath id="clip0_114:6563">
<rect width="27" height="27" fill="white"/>
</clipPath>
</defs>
</svg>
