<svg width="175" height="47" viewBox="0 0 175 47" fill="none" xmlns="http://www.w3.org/2000/svg">
<path d="M5.26213 38.403C2.88471 38.612 1.83586 37.4971 1.69602 35.1975C1.62609 33.4553 0.227592 32.2707 0.0178191 30.668C-0.0521051 29.9711 0.0877433 29.4136 0.36744 28.8562C0.507288 28.6471 2.04564 27.2534 2.04564 27.3231C1.69602 26.3475 1.3464 25.3719 0.996775 24.3267C0.57723 22.933 1.3464 21.7483 2.39526 20.8424C2.67496 20.6334 5.89148 18.7519 5.82156 18.6125C5.19224 16.9401 4.77268 15.3373 5.19223 13.5952C5.75162 11.435 6.17118 9.27477 7.91929 7.74171C9.94709 5.92991 12.1147 5.30275 14.7718 6.13896C14.9117 6.20865 15.1215 6.20865 15.2613 6.20865C15.3312 6.06928 15.4011 6.06928 15.4011 5.9996C15.1214 2.44568 15.6808 2.72442 18.338 1.81852C21.5545 0.703563 23.1627 -1.45666 26.2394 1.47009C27.7777 2.93347 27.7777 3.00316 29.4559 1.47009C30.5747 0.494509 31.8333 -0.202338 33.3018 0.424824C34.8401 1.05199 36.0288 2.23663 36.2386 3.97875C36.4484 5.9996 38.7558 5.92991 40.1543 6.62675C42.252 7.67202 42.9513 10.32 42.9513 12.4803C42.9513 13.6649 42.1821 14.4314 41.2731 15.0586C40.2242 15.7554 39.1754 16.3129 37.8468 17.0795C38.7558 17.4279 39.3852 17.7066 40.0844 17.9157C40.5739 18.055 41.0633 18.1247 41.4829 18.1944C43.4408 18.7519 44.0001 19.8668 42.9513 21.609C42.3919 22.5149 42.7415 22.7936 43.5806 23.0723C48.1956 24.7448 45.2588 31.0164 42.6017 33.1069C40.8536 34.4309 39.525 35.8943 38.8957 37.9848C38.3363 39.936 37.2874 40.9116 35.2596 41.4691C34.4905 41.6781 34.0709 42.0266 33.8611 42.7931C33.3717 44.4655 32.183 45.4411 30.5048 45.8592C30.3649 45.8592 30.2251 45.9986 30.0852 45.9289C28.3371 45.3017 25.1206 46.5561 24.2815 44.6746C23.9319 43.908 23.862 43.0718 23.6522 42.3053C23.862 43.1415 20.3658 44.9533 19.8763 45.3017C18.1282 46.347 16.3102 48.0891 14.632 46.0683C13.0937 44.2565 11.7651 43.2809 9.52753 42.584C7.42981 41.8872 5.82153 40.6329 5.26213 38.403ZM33.3018 26.0688C33.2318 26.2778 33.2318 26.4172 33.1619 26.6263C32.8123 26.5566 32.3927 26.5566 32.0431 26.4172C30.3649 25.8597 28.7567 25.1629 27.0785 24.6751C26.7289 24.5357 26.3093 24.8841 25.8898 25.0235C26.0296 25.3719 26.0296 25.79 26.2394 26.0688C26.7988 26.7656 27.3582 27.3928 27.9176 28.0896C28.0574 28.2987 28.0574 28.5774 28.1973 28.7865C27.9176 28.7168 27.568 28.7865 27.4281 28.6471C26.7988 27.9503 26.2394 27.2534 25.68 26.4869C25.3304 26.0688 25.1206 25.7204 24.4214 26.0688C23.7221 26.4172 23.7221 26.8353 23.862 27.3928C24.2116 29.6227 24.6311 31.8526 24.771 34.1522C25.0507 38.3333 30.8544 41.1903 34.4905 40.8419C35.6792 40.7026 36.6581 40.2845 37.3573 39.3089C38.0566 38.403 38.0566 37.0789 38.7558 36.2427C41.4829 33.316 45.4686 30.668 45.1889 26.2081C45.1189 24.7448 44.3498 24.0479 42.9513 23.6995C39.9445 22.933 35.7491 25.5113 33.092 23.5601C31.1341 22.0968 29.3161 22.6542 27.2183 23.7692C29.3161 24.6054 31.274 25.3719 33.3018 26.0688ZM22.5334 21.0515C23.6522 21.1909 24.2815 21.1212 24.7011 20.285C25.4703 18.8913 26.3093 17.4976 27.2183 16.1039C27.3582 15.8948 27.6379 15.8251 27.8477 15.6858C27.9176 15.8948 28.0574 16.1736 27.9875 16.3826C27.7777 16.8704 27.5679 17.2885 27.2882 17.7763C26.7289 18.7519 26.1695 19.7275 25.5401 20.7727C26.7988 20.9818 27.7078 21.1212 28.6867 20.3546C29.8754 19.4487 31.204 18.6822 32.6025 18.1247C34.7002 17.2188 37.0077 16.6614 39.0355 15.6161C40.7836 14.7799 42.4618 13.8043 42.0423 11.1563C41.6927 8.85666 40.5739 7.18423 38.3363 6.62675C37.2175 6.34801 36.1686 5.99959 35.6791 4.88464C35.4694 4.39684 35.4694 3.83938 35.2596 3.2819C34.5604 1.19136 32.113 0.285453 30.3649 1.60946C29.2461 2.51536 28.2672 3.7 27.2183 4.74527C26.2394 5.72086 25.2605 6.83581 24.0718 7.53266C23.0928 8.09013 22.4635 8.71729 22.4635 9.76256C22.4635 13.5952 22.5334 17.2885 22.5334 21.0515ZM19.1072 31.4345C19.0372 31.3648 18.8974 31.2951 18.8274 31.2254C19.3169 30.4589 19.8763 29.7621 20.3658 28.9258C20.8553 28.1593 21.2748 27.3231 21.6943 26.5566C21.6244 26.4172 21.4846 26.2778 21.4146 26.1385C20.9951 26.2778 20.5755 26.3475 20.2259 26.5566C18.338 27.7412 16.1703 28.4381 14.1425 29.4833C11.6952 30.7376 7.35988 32.3404 6.38095 35.2672C5.75163 37.0093 6.0313 39.0301 7.35986 40.3541C8.47865 41.4691 10.0869 41.7478 11.4854 42.3053C13.5831 43.1415 15.6109 47.3923 17.9184 45.7895C19.9462 44.3958 22.4635 42.9325 23.5124 40.5632C24.8409 37.3577 24.0018 33.525 23.5124 30.2499C23.3725 29.2743 23.0229 28.2987 22.7432 27.0444C21.3447 28.6471 20.2259 30.0408 19.1072 31.4345ZM16.5899 21.609C17.9184 21.4696 18.7575 22.3058 19.7364 22.933C19.9462 23.0723 20.2259 23.0723 20.4357 23.142C20.4357 22.8633 20.5056 22.5149 20.4357 22.3058C19.247 19.379 17.9884 16.522 16.8696 13.5952C16.1703 11.9228 14.9117 10.8775 13.3034 10.6685C10.926 10.4594 8.96815 12.2712 8.61853 14.5011C8.19898 16.8704 7.84936 18.6822 5.47194 19.7972C4.7727 20.1456 4.14336 20.6334 3.44412 21.1212C1.27647 22.6542 1.13661 26.4172 4.00351 27.3928C5.82153 28.0199 7.84935 28.5077 9.87715 28.4381C11.9749 28.3684 13.8628 27.5322 15.9606 27.5322C17.2192 27.5322 18.0583 26.9747 18.8973 26.2778C19.1071 26.0688 19.3169 25.9294 19.5267 25.7204C19.6665 25.5113 19.8064 25.2326 19.8763 24.9538C19.5966 24.8145 19.3869 24.6751 19.1072 24.6054C18.1981 24.3963 17.2891 24.257 16.3801 24.0479C16.3801 23.9085 16.45 23.7692 16.45 23.6298C17.2192 23.6298 17.9883 23.6298 19.0372 23.6298C18.0583 22.8633 17.359 22.2361 16.5899 21.609ZM21.3447 19.8668C21.4845 19.8668 21.5545 19.7972 21.6943 19.7972C21.6943 19.0306 21.6943 18.2641 21.6943 17.5673C21.7642 14.9192 21.8342 12.2712 21.9041 9.6232C21.974 8.64761 22.4635 7.88108 23.3026 7.3236C24.2116 6.69644 25.1905 5.9996 26.0296 5.30275C27.3582 4.1878 27.2882 4.04843 26.2394 2.72442C24.3514 0.564195 22.4635 0.215774 20.4357 1.53978C19.5267 2.09726 18.5477 2.58505 17.4989 2.86379C16.7996 3.07284 16.3102 3.42127 16.2402 4.11811C16.0305 6.13897 17.7786 8.22951 16.1703 10.0413C16.0305 10.2504 16.0305 10.8775 16.1703 11.0866C17.4989 12.4106 17.8485 14.1527 18.4778 15.7554C18.9673 17.0098 19.4568 18.2641 20.0162 19.5184C20.156 19.4487 20.2259 19.4487 20.3658 19.379C20.2259 17.1491 18.8274 15.1283 19.247 12.5499C19.8763 15.198 20.5755 17.4976 21.3447 19.8668ZM12.6042 29.1349C11.4155 29.2743 10.5764 29.4833 9.66739 29.553C7.28997 29.7621 5.19224 28.7168 3.02459 28.02C2.4652 27.8109 2.18547 27.8109 1.76592 28.229C0.507288 29.6227 0.367448 30.8073 1.55616 32.2707C2.32533 33.316 2.60502 34.3613 2.60502 35.6156C2.60502 36.2427 2.88472 36.8699 3.30426 37.4274C3.51404 37.7061 4.14336 37.8455 4.49298 37.7061C4.77268 37.6364 5.19224 37.1486 5.12232 36.8699C5.05239 34.5703 6.38095 33.1069 8.12905 31.992C9.52753 31.0861 10.926 30.1802 12.6042 29.1349ZM29.8755 21.5393C31.2739 22.0968 32.3927 22.6542 33.5814 23.0723C34.1408 23.2814 34.7002 23.5601 35.2596 23.4904C37.2874 23.2814 39.2453 22.933 41.2731 22.6542C41.4129 22.6542 41.6227 22.5845 41.6227 22.5149C41.9723 21.6786 42.5317 20.8424 42.4618 20.0062C42.3919 19.5184 41.413 18.9609 40.7836 18.7519C38.8258 18.055 36.798 17.7066 34.8401 19.0306C34.7002 19.1003 34.4905 19.1003 34.3506 19.17C32.8822 20.0062 31.3439 20.7727 29.8755 21.5393ZM14.8418 10.2504C15.1215 9.76257 15.2613 9.48383 15.4011 9.13541C16.1703 7.67203 16.1004 7.46297 14.632 7.04487C14.4921 6.97518 14.4222 6.90549 14.2824 6.83581C12.6042 6.13896 11.1358 6.20865 9.45758 7.25392C7.63955 8.43856 6.52079 9.69289 6.73057 11.9925C6.73057 12.2712 6.5907 12.6196 6.45085 12.8287C5.47191 14.7102 5.61176 15.9645 7.15009 17.846C7.42979 16.731 7.77941 15.7555 7.84934 14.7799C8.05911 12.8287 8.68843 11.435 10.6463 10.5988C11.9749 10.0413 13.3034 9.69289 14.8418 10.2504ZM25.1905 37.0093C24.771 38.612 24.2815 39.727 24.2815 40.9116C24.2815 42.0266 24.771 43.0718 24.9808 44.1868C25.1206 44.8139 25.4003 44.9533 26.0996 44.8836C26.8687 44.7443 27.7778 44.6049 28.5469 44.8139C30.6446 45.3714 31.8333 45.023 33.022 43.2112C33.2318 42.8628 33.3017 42.375 33.2318 41.9569C33.2318 41.8175 32.6025 41.6781 32.2529 41.6781C30.0153 41.6085 28.3371 40.5632 26.7988 39.0301C26.2394 38.4726 25.8198 37.7758 25.1905 37.0093Z" fill="white"/>
<path d="M23.7852 7C27.8374 7 31.2736 8.55115 34.0937 11.6535C36.8865 14.7558 38.365 18.5864 38.5293 23.1455C38.5293 23.4152 38.5293 23.6715 38.5293 23.9143C38.5293 28.5273 37.174 32.4524 34.4633 35.6896C31.7801 38.8728 28.4534 40.5723 24.4834 40.7881C24.2369 40.7881 24.0042 40.7881 23.7852 40.7881C19.6782 40.7881 16.2146 39.2235 13.3945 36.0942C10.6291 32.9919 9.16428 29.1478 9 24.5617C9 24.319 9 24.1031 9 23.9143C9 19.2743 10.3553 15.3358 13.0659 12.0986C15.7492 8.88836 19.1032 7.18884 23.1281 7C23.3471 7 23.5661 7 23.7852 7ZM23.7852 7.36418C22.0602 7.36418 20.5543 8.86138 19.2675 11.8558C17.8163 15.2548 17.0908 19.2743 17.0908 23.9143C17.0908 28.7701 17.8711 32.911 19.4318 36.337C20.6912 39.0347 22.1424 40.4105 23.7852 40.4644C25.5101 40.4374 27.016 38.9268 28.3029 35.9324C29.7266 32.5333 30.4522 28.5273 30.4796 23.9143C30.4796 19.0315 29.6992 14.8772 28.1386 11.4511C26.8517 8.75348 25.4006 7.39116 23.7852 7.36418Z" fill="white"/>
<path d="M52.4764 17.3185C55.4608 17.3185 57.569 18.1818 58.8011 19.9083C59.8142 21.338 59.8963 22.9297 59.0475 24.6831C58.4999 25.7622 57.5827 26.2882 56.2959 26.2613C55.0638 26.2613 54.1876 25.7757 53.6674 24.8045C53.3388 24.1571 53.2704 23.4287 53.462 22.6194C54.7763 22.6194 55.584 22.1069 55.8852 21.0818C56.159 20.1106 55.8715 19.2474 55.0227 18.492C54.3382 17.9255 53.4757 17.6423 52.4353 17.6423C51.0115 17.6423 49.9163 18.4515 49.1497 20.0701C48.2462 22.0394 48.1503 24.4134 48.8622 27.192C49.4646 29.5659 50.7103 31.3194 52.5996 32.4524C54.5709 33.6124 56.4738 33.6393 58.3083 32.5333C59.294 31.9128 60.1427 31.0091 60.8546 29.8222L61.0189 29.984C59.8689 32.8166 57.8565 34.6645 54.9816 35.5277C52.2984 36.31 49.711 36.0538 47.2194 34.7589C44.6183 33.41 43.0303 31.3463 42.4553 28.5678C42.3732 28.244 42.3184 27.9068 42.291 27.5561C41.9898 24.238 42.9344 21.6213 45.1248 19.706C46.9593 18.1413 49.4098 17.3455 52.4764 17.3185Z" fill="white"/>
<path d="M70.4252 10.7228H70.7537V17.3995H74.2447V17.6423H70.7537V29.2961C70.7537 31.724 71.3013 32.9784 72.3965 33.0594C73.2179 33.1403 74.012 32.5873 74.7786 31.4003C74.8334 31.3194 74.8607 31.2519 74.8607 31.198L75.025 31.4003C74.1762 32.8301 73.4644 33.8147 72.8894 34.3542C71.7394 35.3793 70.4526 35.8919 69.0288 35.8919C66.4551 35.8919 64.8944 34.6645 64.3468 32.2096C64.1552 31.3733 64.0593 30.4022 64.0593 29.2961V17.6423H60.9791V17.3995H64.0593L64.1004 15.9832L70.4252 10.7228Z" fill="white"/>
<path d="M84.3001 17.3185C89.1463 17.3185 92.2129 18.9506 93.4997 22.2148C93.7188 22.7813 93.8831 23.3748 93.9926 23.9952L94.0336 24.5213L94.6908 30.1054C94.855 31.1305 95.0878 31.9803 95.389 32.6547C95.6901 33.3021 95.9913 33.7338 96.2925 33.9496C96.6211 34.1384 96.9222 34.2598 97.196 34.3138C97.4972 34.3677 97.7299 34.3542 97.8942 34.2733L98.1817 34.1519V34.3947C97.9901 34.8803 97.155 35.2984 95.6764 35.6491C93.2122 36.2426 91.2683 35.9998 89.8445 34.9207C89.3517 34.5431 88.982 34.098 88.7356 33.5854C88.7356 33.6663 88.4481 33.9226 87.8732 34.3542C86.422 35.3793 84.6834 35.8919 82.6573 35.8919C80.3574 35.8919 78.6461 35.231 77.5235 33.9091C77.0307 33.2887 76.7569 32.6008 76.7021 31.8454C76.5926 29.7412 77.592 28.298 79.7002 27.5157C80.0288 27.3808 81.3157 27.0571 83.5608 26.5445C85.4774 26.1129 86.6411 25.452 87.0518 24.5617C87.2708 24.1031 87.3393 23.5636 87.2571 22.9431L87.216 22.498C86.9696 20.8794 86.778 19.8948 86.6411 19.5441C86.1482 18.3571 85.3679 17.7636 84.3001 17.7636C82.6025 17.7636 81.6442 18.3436 81.4252 19.5036C81.4252 19.5846 81.4252 19.6655 81.4252 19.7464C81.4799 20.8255 82.1781 21.3785 83.5198 21.4055C83.9031 22.7543 83.5061 23.7794 82.3287 24.4808C81.3157 25.1282 80.3163 25.2092 79.3306 24.7236C78.6461 24.3729 78.1944 23.8064 77.9753 23.0241C77.5372 21.4055 77.9753 20.0297 79.2896 18.8967C80.5216 17.8716 82.1918 17.3455 84.3001 17.3185ZM87.5035 24.8045C87.3393 25.2092 86.7643 25.7217 85.7786 26.3422C84.5739 27.1515 83.8072 27.9743 83.4787 28.8105C83.287 29.3501 83.1912 29.9301 83.1912 30.5505C83.1912 32.277 83.8072 33.4775 85.0393 34.1519C85.9976 34.6914 86.8464 34.6645 87.5857 34.071C88.1607 33.6124 88.4071 32.884 88.3249 31.8859L87.5035 24.8045Z" fill="white"/>
<path d="M109.292 7.28325H109.621V30.6719C109.621 33.2347 110.305 34.7319 111.674 35.1635C112.057 35.2984 112.482 35.3658 112.947 35.3658V35.6086H99.7228V35.3658C101.366 35.3658 102.392 34.7049 102.803 33.3831C102.967 32.7087 103.049 31.8049 103.049 30.6719V16.0641C103.049 12.719 102.132 10.9656 100.298 10.8037V10.5204L109.292 7.28325Z" fill="white"/>
<path d="M120.722 7.28325C122.173 7.28325 123.282 7.89023 124.049 9.10417C124.432 9.75161 124.624 10.426 124.624 11.1274C124.624 12.5572 124.008 13.6497 122.776 14.4051C122.118 14.7558 121.434 14.9446 120.722 14.9716C119.271 14.9716 118.162 14.3646 117.395 13.1507C117.039 12.5032 116.848 11.8288 116.82 11.1274C116.82 9.69765 117.436 8.6051 118.669 7.84976C119.326 7.47209 120.01 7.28325 120.722 7.28325ZM124.418 17.3185H124.624V30.6719C124.624 33.2347 125.308 34.7319 126.677 35.1635C127.06 35.2984 127.485 35.3658 127.95 35.3658V35.6086H114.603V35.3658C116.245 35.3658 117.272 34.7049 117.683 33.3831C117.847 32.7087 117.929 31.8049 117.929 30.6719V26.0994C117.902 22.7543 116.985 21.0008 115.178 20.839V20.5962L124.418 17.3185Z" fill="white"/>
<path d="M139.172 7.28325H139.501V30.6719C139.501 33.2347 140.185 34.7319 141.554 35.1635C141.937 35.2984 142.362 35.3658 142.827 35.3658V35.6086H129.603V35.3658C131.246 35.3658 132.272 34.7049 132.683 33.3831C132.847 32.7087 132.929 31.8049 132.929 30.6719V16.0641C132.929 12.719 132.012 10.9656 130.178 10.8037V10.5204L139.172 7.28325Z" fill="white"/>
<path d="M141.194 17.3185H154.542V17.6423C152.625 17.6153 151.817 18.465 152.118 20.1915C152.228 20.812 152.461 21.5134 152.817 22.2957L156.636 30.7124L159.84 22.5385C160.907 19.8408 160.77 18.2492 159.429 17.7636C159.21 17.6827 158.977 17.6423 158.731 17.6423V17.3185H166V17.6423C163.974 17.885 162.578 18.492 161.811 19.4632C161.4 20.0027 160.921 20.9469 160.373 22.2957L153.556 39.6956C152.433 42.636 150.914 44.349 148.997 44.8346C148.586 44.9425 148.148 44.9965 147.683 44.9965C146.15 45.0504 144.863 44.4839 143.822 43.297C142.973 42.2719 142.604 41.0309 142.713 39.5742C142.85 38.2254 143.562 37.3216 144.849 36.863C146.108 36.4314 147.231 36.6068 148.217 37.3891C148.792 37.8477 149.161 38.4816 149.326 39.2909C148.559 39.2909 148.094 39.6686 147.929 40.424C147.738 41.2063 147.943 41.7998 148.545 42.2044C148.737 42.3393 148.942 42.4202 149.161 42.4472C150.914 42.8518 152.146 42.1639 152.858 40.3835C152.885 40.3026 152.899 40.2351 152.899 40.1812L153.227 39.3314L145.506 22.2957C144.082 19.2204 142.645 17.6692 141.194 17.6423V17.3185Z" fill="white"/>
<path d="M156.893 28.1783L156.514 28.9998C156.454 28.7877 155.963 28.955 156 29.0001C156.21 29.7221 155.765 29.0407 155.934 29.7582C155.989 30.0109 156.085 30.2681 156.017 30.5073C155.512 32.466 154.803 34.4022 154.302 36.3204C154.23 36.6002 154.021 36.928 154.302 37.0001C154.584 37.0722 154.432 36.7393 154.5 36.5001C154.635 36.0217 155.364 34.9785 155.5 34.5001C155.888 33.2274 156.211 32.5018 156.635 31.2742C156.644 31.1929 156.703 31.035 156.789 31.0033C157.491 30.6285 158.153 30.2492 158.892 29.9194C159.454 29.6936 159.993 29.3007 160.651 29.332C161.186 29.3499 161.667 29.485 162.216 29.381C163.395 29.182 164.619 28.5768 165.497 27.728C166.471 26.7664 167.104 25.5206 167.733 24.3155C167.787 24.1981 167.85 23.9995 167.777 23.9093C167.705 23.8191 167.5 23.7966 167.373 23.8237C166.825 23.9278 166.317 24.0363 165.8 24.226C164.939 24.5423 164.123 24.8224 163.334 25.2289C162.591 25.5992 161.879 26.0553 161.463 26.8317C161.206 27.2966 160.989 27.766 160.772 28.2354C160.722 28.3121 160.622 28.4656 160.536 28.4972C160.232 28.6282 159.888 28.7547 159.543 28.8812L158.102 29.5858C157.794 29.7574 157.449 29.8839 157.141 30.0555L157.068 29.9653C157.358 29.2161 157.61 28.4217 157.899 27.6725C158.247 26.7653 158.632 25.9032 158.975 25.0366C159.223 24.2829 159.48 23.4479 160.119 22.9016L160.139 22.8844C161.188 21.9737 162.642 20.7117 164.125 20.6707C164.915 20.6343 165.587 21.2838 166.408 21.3331C167.311 21.3914 168.281 21.2105 169.07 20.804C169.731 20.4247 170.279 19.9506 170.755 19.3863C171.371 18.6731 171.868 17.9057 172.448 17.1473C172.733 16.8088 173.059 16.4747 173.349 16.0955C173.439 16.0232 173.851 15.2875 173.851 15.2875C172.604 15.3557 171.257 15.9474 170.056 16.3496C169.113 16.6568 168.252 16.9731 167.477 17.6277C166.929 18.1018 166.426 18.5397 165.951 19.104C165.666 19.4426 165.367 19.903 164.786 19.9213C163.829 19.9804 162.964 20.3372 162.13 20.7798C161.608 21.0102 161.16 21.3308 160.675 21.6063C160.384 21.2454 160.761 21.2046 160.86 21.0511L160.86 21.0509C161.738 19.8322 162.616 18.6135 163.49 17.4353C164.368 16.2165 165.764 15.5481 167.21 15.1729C167.591 15.0915 167.981 14.9289 168.298 14.6761C170.554 12.9513 171.738 10.0807 173.118 7.68388C173.231 7.40856 173.126 7.2326 172.831 7.28237C172.578 7.33662 172.319 7.43149 172.061 7.52636L172.061 7.52637C170.665 8.19484 169.151 8.80919 168.037 9.91978C166.642 11.3283 165.891 12.89 165.277 14.7134C165.223 14.8308 165.164 14.9888 165.069 15.1016C164.974 15.2145 164.838 15.3228 164.707 15.3906C162.672 16.6053 161.378 18.9705 160.093 20.8845C159.899 21.1508 159.74 21.4622 159.582 21.7737C159.546 21.7286 159.505 21.7241 159.464 21.7196C159.386 21.2999 159.309 20.8803 159.272 20.4651C159.257 19.8469 159.197 19.2648 159.223 18.651C159.241 18.1185 159.176 17.577 159.598 17.1301C159.833 16.8683 159.955 16.5117 160.113 16.2003C161.225 13.9795 161.198 10.8522 160.337 8.53758C160.31 8.41123 159.699 6.82301 159.609 6.89525C158.602 7.40109 158.723 9.30541 158.453 10.2622C157.966 12.0585 157.474 13.8954 157.722 15.7725C157.809 16.481 157.897 17.1895 158.546 17.6721C158.623 17.7217 158.691 17.8525 158.683 17.9337C158.762 19.4635 158.919 21.0429 159.003 22.5321C159.012 22.8209 159.022 23.1097 158.909 23.385C158.276 25.0008 157.567 26.567 156.893 28.1783Z" fill="white"/>
</svg>
