<svg width="24" height="24" viewBox="0 0 24 24" fill="none" xmlns="http://www.w3.org/2000/svg">
<path d="M19.9997 8H17.333V9.33333H19.9997V10.6667H21.333V9.33333C21.333 8.97971 21.1925 8.64057 20.9425 8.39052C20.6924 8.14048 20.3533 8 19.9997 8Z" fill="#DDFFB1"/>
<path d="M20 12H21.3333V16H20V12Z" fill="#DDFFB1"/>
<path d="M20.0003 19.9999H18.667V21.3333H20.0003C20.3539 21.3333 20.6931 21.1928 20.9431 20.9427C21.1932 20.6927 21.3337 20.3535 21.3337 19.9999V17.3333H20.0003V19.9999Z" fill="#DDFFB1"/>
<path d="M14.667 2.66675H4.00033C3.26395 2.66675 2.66699 3.2637 2.66699 4.00008V14.6667C2.66699 15.4031 3.26395 16.0001 4.00033 16.0001H14.667C15.4034 16.0001 16.0003 15.4031 16.0003 14.6667V4.00008C16.0003 3.2637 15.4034 2.66675 14.667 2.66675Z" fill="#DDFFB1"/>
<path d="M13.333 20H17.333V21.3333H13.333V20Z" fill="#DDFFB1"/>
<path d="M9.33333 17.3333H8V19.9999C8 20.3535 8.14048 20.6927 8.39052 20.9427C8.64057 21.1928 8.97971 21.3333 9.33333 21.3333H12V19.9999H9.33333V17.3333Z" fill="#DDFFB1"/>
</svg>
