<svg width="24" height="24" viewBox="0 0 24 24" fill="none" xmlns="http://www.w3.org/2000/svg">
<circle r="12" transform="matrix(1 0 0 -1 12 12)" fill="white"/>
<path d="M6.71591 17.2563C5.94067 17.323 5.59865 16.9671 5.55305 16.2332C5.53025 15.6772 5.07421 15.2992 5.00581 14.7876C4.98301 14.5652 5.02861 14.3873 5.11982 14.2094C5.16542 14.1427 5.66706 13.6979 5.66706 13.7201C5.55305 13.4088 5.43904 13.0974 5.32504 12.7638C5.18823 12.319 5.43904 11.941 5.78106 11.6518C5.87227 11.5851 6.92114 10.9846 6.89833 10.9402C6.69312 10.4064 6.55631 9.89489 6.69312 9.3389C6.87553 8.64947 7.01234 7.96003 7.58238 7.47076C8.24362 6.89252 8.95045 6.69237 9.81691 6.95924C9.86251 6.98148 9.93092 6.98148 9.97652 6.98148C9.99932 6.93701 10.0221 6.937 10.0221 6.91476C9.93091 5.78054 10.1133 5.86949 10.9798 5.58038C12.0286 5.22454 12.5531 4.53511 13.5563 5.46918C14.058 5.93621 14.058 5.95845 14.6052 5.46918C14.97 5.15782 15.3804 4.93542 15.8593 5.13558C16.3609 5.33574 16.7485 5.71382 16.8169 6.26981C16.8853 6.91477 17.6378 6.89252 18.0938 7.11492C18.7778 7.44852 19.0059 8.29363 19.0059 8.98307C19.0059 9.36114 18.755 9.60578 18.4586 9.80594C18.1166 10.0283 17.7746 10.2063 17.3414 10.4509C17.6378 10.5621 17.843 10.6511 18.071 10.7178C18.2306 10.7622 18.3902 10.7845 18.527 10.8067C19.1655 10.9846 19.3479 11.3405 19.0059 11.8965C18.8234 12.1856 18.9375 12.2746 19.2111 12.3635C20.716 12.8973 19.7583 14.8988 18.8918 15.566C18.3218 15.9886 17.8886 16.4556 17.6834 17.1228C17.501 17.7455 17.1589 18.0569 16.4977 18.2348C16.2469 18.3015 16.1101 18.4127 16.0417 18.6574C15.8821 19.1911 15.4944 19.5025 14.9472 19.6359C14.9016 19.6359 14.856 19.6804 14.8104 19.6582C14.2404 19.458 13.1915 19.8583 12.9179 19.2578C12.8039 19.0132 12.7811 18.7463 12.7127 18.5017C12.7811 18.7686 11.641 19.3468 11.4814 19.458C10.9114 19.7916 10.3185 20.3476 9.7713 19.7026C9.26967 19.1244 8.83645 18.813 8.1068 18.5907C7.42276 18.3683 6.89832 17.9679 6.71591 17.2563ZM15.8593 13.3198C15.8365 13.3865 15.8365 13.431 15.8137 13.4977C15.6997 13.4755 15.5629 13.4755 15.4488 13.431C14.9016 13.2531 14.3772 13.0307 13.8299 12.875C13.7159 12.8305 13.5791 12.9417 13.4423 12.9862C13.4879 13.0974 13.4879 13.2309 13.5563 13.3198C13.7387 13.5422 13.9211 13.7424 14.1036 13.9648C14.1492 14.0315 14.1492 14.1205 14.1948 14.1872C14.1036 14.1649 13.9896 14.1872 13.9439 14.1427C13.7387 13.9203 13.5563 13.6979 13.3739 13.4533C13.2599 13.3198 13.1915 13.2086 12.9635 13.3198C12.7355 13.431 12.7355 13.5645 12.7811 13.7424C12.8951 14.4541 13.0319 15.1657 13.0775 15.8996C13.1687 17.234 15.0612 18.1459 16.2469 18.0347C16.6345 17.9902 16.9537 17.8567 17.1817 17.5454C17.4098 17.2563 17.4098 16.8337 17.6378 16.5668C18.527 15.6328 19.8267 14.7876 19.7355 13.3643C19.7127 12.8973 19.4619 12.6749 19.0059 12.5637C18.0254 12.319 16.6573 13.1419 15.7909 12.5192C15.1524 12.0522 14.5596 12.2301 13.8755 12.5859C14.5596 12.8528 15.198 13.0974 15.8593 13.3198ZM12.3479 11.7186C12.7127 11.763 12.9179 11.7408 13.0547 11.4739C13.3055 11.0291 13.5791 10.5843 13.8755 10.1395C13.9211 10.0728 14.0124 10.0506 14.0808 10.0061C14.1036 10.0728 14.1492 10.1618 14.1264 10.2285C14.058 10.3842 13.9895 10.5176 13.8983 10.6733C13.7159 10.9846 13.5335 11.296 13.3283 11.6296C13.7387 11.6963 14.0352 11.7408 14.3544 11.4962C14.742 11.207 15.1752 10.9624 15.6313 10.7845C16.3153 10.4954 17.0677 10.3175 17.729 9.98386C18.299 9.71698 18.8462 9.40562 18.7094 8.56051C18.5954 7.82659 18.2306 7.29284 17.501 7.11492C17.1361 7.02596 16.7941 6.91476 16.6345 6.55893C16.5661 6.40325 16.5661 6.22533 16.4977 6.04741C16.2697 5.38022 15.4716 5.0911 14.9016 5.51366C14.5368 5.80277 14.2176 6.18085 13.8755 6.51445C13.5563 6.8258 13.2371 7.18164 12.8495 7.40404C12.5303 7.58196 12.3251 7.78211 12.3251 8.11571C12.3251 9.3389 12.3479 10.5176 12.3479 11.7186ZM11.2306 15.0323C11.2078 15.01 11.1622 14.9878 11.1394 14.9656C11.299 14.7209 11.4814 14.4985 11.641 14.2317C11.8006 13.987 11.9374 13.7201 12.0742 13.4755C12.0514 13.431 12.0058 13.3865 11.983 13.3421C11.8462 13.3865 11.7094 13.4088 11.5954 13.4755C10.9798 13.8536 10.2729 14.076 9.61169 14.4096C8.81364 14.8099 7.39996 15.3214 7.08074 16.2555C6.87553 16.8115 6.96673 17.4564 7.39995 17.879C7.76478 18.2348 8.28921 18.3238 8.74524 18.5017C9.42928 18.7686 10.0905 20.1252 10.843 19.6137C11.5042 19.1689 12.3251 18.7019 12.6671 17.9457C13.1003 16.9227 12.8267 15.6995 12.6671 14.6542C12.6215 14.3429 12.5075 14.0315 12.4163 13.6312C11.9602 14.1427 11.5954 14.5875 11.2306 15.0323ZM10.4097 11.8965C10.843 11.852 11.1166 12.1189 11.4358 12.319C11.5042 12.3635 11.5954 12.3635 11.6638 12.3858C11.6638 12.2968 11.6866 12.1856 11.6638 12.1189C11.2762 11.1848 10.8658 10.273 10.5009 9.3389C10.2729 8.80515 9.8625 8.47155 9.33807 8.40483C8.56282 8.33811 7.9244 8.91634 7.81039 9.62802C7.67358 10.3842 7.55957 10.9624 6.78433 11.3182C6.55631 11.4294 6.3511 11.5851 6.12308 11.7408C5.41624 12.2301 5.37064 13.431 6.30549 13.7424C6.89833 13.9425 7.55957 14.0982 8.22081 14.076C8.90485 14.0537 9.52049 13.7869 10.2045 13.7869C10.615 13.7869 10.8886 13.6089 11.1622 13.3865C11.2306 13.3198 11.299 13.2753 11.3674 13.2086C11.413 13.1419 11.4586 13.0529 11.4814 12.964C11.3902 12.9195 11.3218 12.875 11.2306 12.8528C10.9342 12.7861 10.6378 12.7416 10.3413 12.6749C10.3413 12.6304 10.3641 12.5859 10.3641 12.5414C10.6149 12.5414 10.8658 12.5414 11.2078 12.5414C10.8886 12.2968 10.6606 12.0966 10.4097 11.8965ZM11.9602 11.3405C12.0058 11.3405 12.0286 11.3182 12.0742 11.3182C12.0742 11.0736 12.0742 10.829 12.0742 10.6066C12.097 9.76146 12.1198 8.91634 12.1426 8.07123C12.1655 7.75988 12.3251 7.51524 12.5987 7.33732C12.8951 7.13716 13.2143 6.91476 13.4879 6.69237C13.9211 6.33653 13.8983 6.29205 13.5563 5.8695C12.9407 5.18006 12.3251 5.06886 11.6638 5.49142C11.3674 5.66934 11.0482 5.82502 10.7062 5.91397C10.4781 5.98069 10.3185 6.09189 10.2957 6.31429C10.2273 6.95925 10.7974 7.62644 10.2729 8.20467C10.2273 8.27139 10.2273 8.47155 10.2729 8.53827C10.7062 8.96083 10.8202 9.51682 11.0254 10.0283C11.185 10.4287 11.3446 10.829 11.527 11.2293C11.5726 11.207 11.5954 11.207 11.641 11.1848C11.5954 10.4731 11.1394 9.82818 11.2762 9.0053C11.4814 9.85041 11.7094 10.5843 11.9602 11.3405ZM9.11006 14.2984C8.72243 14.3429 8.44883 14.4096 8.15241 14.4318C7.37716 14.4985 6.69312 14.1649 5.98628 13.9425C5.80387 13.8758 5.71265 13.8758 5.57584 14.0093C5.16542 14.4541 5.11982 14.8321 5.50744 15.2992C5.75826 15.6328 5.84946 15.9664 5.84946 16.3667C5.84946 16.5668 5.94067 16.767 6.07748 16.9449C6.14588 17.0339 6.3511 17.0783 6.4651 17.0339C6.55631 17.0116 6.69312 16.8559 6.67032 16.767C6.64752 16.0331 7.08074 15.566 7.65078 15.2102C8.1068 14.9211 8.56282 14.632 9.11006 14.2984ZM14.742 11.8742C15.198 12.0522 15.5628 12.2301 15.9505 12.3635C16.1329 12.4302 16.3153 12.5192 16.4977 12.497C17.1589 12.4302 17.7974 12.319 18.4586 12.2301C18.5042 12.2301 18.5726 12.2078 18.5726 12.1856C18.6866 11.9187 18.869 11.6518 18.8462 11.385C18.8234 11.2293 18.5042 11.0514 18.299 10.9846C17.6606 10.7622 16.9993 10.651 16.3609 11.0736C16.3153 11.0958 16.2469 11.0958 16.2013 11.1181C15.7225 11.385 15.2208 11.6296 14.742 11.8742ZM9.8397 8.27139C9.93091 8.11571 9.97651 8.02675 10.0221 7.91556C10.2729 7.44852 10.2501 7.3818 9.7713 7.24836C9.7257 7.22612 9.7029 7.20388 9.65729 7.18164C9.11006 6.95924 8.63123 6.98148 8.08399 7.31508C7.49116 7.69316 7.12635 8.09347 7.19475 8.82739C7.19475 8.91635 7.14914 9.02754 7.10354 9.09426C6.78432 9.69474 6.82992 10.0951 7.33155 10.6955C7.42276 10.3397 7.53676 10.0283 7.55957 9.71698C7.62797 9.09426 7.83318 8.64947 8.47162 8.38259C8.90485 8.20467 9.33807 8.09347 9.8397 8.27139ZM13.2143 16.8115C13.0775 17.323 12.9179 17.6788 12.9179 18.0569C12.9179 18.4127 13.0775 18.7463 13.1459 19.1022C13.1915 19.3023 13.2827 19.3468 13.5107 19.3246C13.7615 19.2801 14.058 19.2356 14.3088 19.3023C14.9928 19.4802 15.3804 19.369 15.7681 18.7908C15.8365 18.6796 15.8593 18.5239 15.8365 18.3905C15.8365 18.346 15.6313 18.3015 15.5172 18.3015C14.7876 18.2793 14.2404 17.9457 13.7387 17.4564C13.5563 17.2785 13.4195 17.0561 13.2143 16.8115Z" fill="#363636"/>
</svg>
