<svg width="55" height="22" viewBox="0 0 55 22" fill="none" xmlns="http://www.w3.org/2000/svg">
<path d="M42.3194 13.5928C43.2546 13.5459 49.3804 10.9211 53.2149 10.8742C53.589 10.8742 55.1789 10.7336 54.3839 10.0774C53.7293 9.56182 52.8876 9.56182 52.1394 9.42121C51.1574 9.28059 50.1754 9.13998 49.1466 9.04623C47.697 8.85875 46.2474 8.71813 44.8445 8.39003C44.0963 8.20254 42.6 7.35885 42.2726 8.53065C42.1324 8.99936 42.3194 9.70244 41.8518 10.0305C41.618 10.1712 13.3271 10.1712 13.0465 10.0774C13.2336 9.60869 13.3271 9.23372 13.5609 8.85875C14.2623 7.54634 14.1688 6.18706 13.935 4.78091C13.7479 3.60912 13.0465 2.76543 12.158 2.06235C11.5034 1.54677 10.8955 0.937433 10.4746 0.234358C10.3811 0.0937433 10.194 0.0468717 10.0538 0C9.81995 0.937433 9.67966 1.78112 9.39909 2.62481C9.21204 3.18727 8.97823 3.74973 8.69766 4.26532C8.32357 4.9684 8.23004 5.67147 8.32356 6.42142C8.37033 6.79639 8.32356 7.1245 8.32356 7.59321C7.71566 7.59321 7.24804 7.64008 6.73366 7.64008C5.65814 7.59321 4.62938 7.7807 3.60062 8.1088C2.57187 8.48377 1.5431 8.95249 0.420818 9.04623C0.327293 9.04623 0.233772 9.0931 0.187008 9.13998C0.0934868 9.23372 -3.43323e-05 9.37434 -3.43323e-05 9.46808C-3.43323e-05 9.60869 0.0467262 9.74931 0.140247 9.79618C0.280533 9.88992 0.467579 9.98367 0.654629 10.0305C1.77691 10.3118 2.57187 10.968 3.08624 11.9523C3.78767 13.2178 4.86319 13.9209 6.21928 14.249C6.40633 14.2959 6.59338 14.4365 6.82719 14.5302C6.82719 14.7646 6.82719 14.9052 6.78043 14.9989C6.12576 16.077 6.12576 17.2488 6.35957 18.4674C6.54662 19.4049 6.54662 20.3892 6.64014 21.3735C6.64014 21.5141 6.78043 21.6547 6.87395 21.8891C7.24804 21.6547 7.57537 21.5141 7.85595 21.2797C8.60413 20.7173 9.35232 20.2017 10.2408 19.8267C10.5214 19.6861 10.8019 19.5455 11.0825 19.358C12.4854 18.4674 13.3271 17.155 13.8415 15.6551C13.935 15.4208 13.935 15.1864 13.935 14.9521C13.8882 13.9678 13.8415 13.0303 13.3271 12.1398C13.14 11.8585 12.8127 11.5773 13.0465 11.1086C13.1868 11.0617 40.823 10.5461 41.8985 11.0148C41.8985 11.0148 41.8985 11.0617 41.9453 11.0617C42.3194 11.7648 41.9921 13.4522 42.3194 13.5928ZM7.10776 19.6861C6.96747 18.983 6.87395 18.2331 6.78043 17.4831C6.64014 16.1239 7.43509 14.5302 8.69766 13.9209C9.58614 13.499 10.3343 12.9835 10.989 12.1866C11.5034 11.5304 12.2048 11.6242 12.7192 12.3272C13.4206 13.2647 13.5141 14.2959 13.1868 15.3739C12.6724 17.0613 11.7372 18.4206 10.0538 19.1705C9.21204 19.5455 8.41709 20.0142 7.48185 20.5298C7.29481 20.2017 7.15452 19.9673 7.10776 19.6861ZM5.93871 8.34316C6.49986 8.34316 7.061 8.39003 7.62214 8.39003C8.23004 8.39003 8.69766 8.57752 9.11852 8.99936C9.49261 9.37434 9.86671 9.79618 9.86671 10.4055C9.86671 10.8274 10.1473 11.2492 10.3343 11.8117C10.1473 12.2804 9.67966 12.5616 9.21204 12.8428C8.51061 13.2647 7.80919 13.5928 7.01424 13.5459C6.45309 13.5459 5.93871 13.4053 5.42434 13.2178C4.76967 12.9835 4.25529 12.4679 3.88119 11.8585C3.41357 11.0617 2.85244 10.3118 1.87044 9.60869C3.27329 8.95249 4.4891 8.29629 5.93871 8.34316ZM11.2228 9.32746C9.81995 9.23372 9.30556 8.15567 8.93147 7.03075C8.69766 6.2808 8.74442 5.43711 9.02499 4.68717C9.39909 3.70286 9.8667 2.71856 10.2408 1.78112C13.3271 2.53107 14.4026 6.70265 12.2048 9.56182C11.8775 9.46808 11.5501 9.37433 11.2228 9.32746ZM48.6322 10.7805C47.9776 10.9211 47.2761 11.1086 46.6215 11.2961C46.0136 11.4836 45.4057 11.671 44.7978 11.9054C44.1899 12.1398 43.6287 12.421 43.0208 12.421C42.6467 11.9991 42.8805 11.5773 42.8338 11.1555C42.8338 10.7336 42.8338 10.3118 42.8338 9.88992C42.787 9.46808 42.8338 9.04623 43.1143 8.62439C43.3482 8.62439 43.6287 8.57752 43.8625 8.67126C45.4992 9.28059 47.2294 9.56182 49.0063 9.70244C49.474 9.74931 49.8948 9.79618 50.3624 9.88992C50.3624 9.98367 50.4092 10.0774 50.4092 10.1712C49.8948 10.593 49.2401 10.6399 48.6322 10.7805ZM11.6437 10.218C11.7372 10.2649 11.8775 10.4524 11.8307 10.5461C11.7839 10.6867 11.6904 10.968 11.5501 10.968C11.3163 11.0148 11.0358 11.0148 10.7552 10.9211C10.5214 10.8742 10.3811 10.6399 10.4278 10.4055C10.4746 10.2649 10.6617 10.1712 10.8487 10.0774C10.9422 10.0305 11.0358 10.0774 11.2228 10.0305C11.3163 10.1243 11.5034 10.1243 11.6437 10.218Z" fill="white"/>
</svg>
