<svg width="103" height="47" viewBox="0 0 103 47" fill="none" xmlns="http://www.w3.org/2000/svg">
<path d="M75.2606 26.8571C76.8367 26.7782 87.1604 22.3546 93.6225 22.2756C94.2529 22.2756 96.9324 22.0387 95.5926 20.9328C94.4894 20.0639 93.0708 20.0639 91.8099 19.8269C90.155 19.5899 88.5001 19.3529 86.7663 19.195C84.3233 18.879 81.8803 18.642 79.5161 18.0891C78.2552 17.7731 75.7334 16.3513 75.1818 18.3261C74.9454 19.116 75.2606 20.3008 74.4725 20.8538C74.0785 21.0908 26.4006 21.0908 25.9278 20.9328C26.243 20.1429 26.4006 19.5109 26.7946 18.879C27.9767 16.6672 27.8191 14.3765 27.4251 12.0067C27.1099 10.0319 25.9278 8.61009 24.4304 7.42521C23.3272 6.55631 22.3027 5.52942 21.5934 4.34454C21.4358 4.10757 21.1206 4.02858 20.8842 3.94958C20.4901 5.52942 20.2537 6.95127 19.7809 8.37311C19.4656 9.32101 19.0716 10.2689 18.5988 11.1378C17.9683 12.3227 17.8107 13.5076 17.9683 14.7714C18.0471 15.4034 17.9683 15.9563 17.9683 16.7462C16.9438 16.7462 16.1558 16.8252 15.2889 16.8252C13.4763 16.7462 11.7426 17.0622 10.0089 17.6151C8.27512 18.2471 6.54138 19.037 4.65003 19.195C4.49242 19.195 4.3348 19.274 4.256 19.3529C4.09838 19.5109 3.94077 19.7479 3.94077 19.9059C3.94077 20.1429 4.01958 20.3798 4.17719 20.4588C4.41361 20.6168 4.72884 20.7748 5.04406 20.8538C6.93542 21.3277 8.27513 22.4336 9.142 24.0924C10.3241 26.2252 12.1366 27.4101 14.422 27.963C14.7373 28.042 15.0525 28.279 15.4465 28.437C15.4465 28.8319 15.4465 29.0689 15.3677 29.2269C14.2644 31.0437 14.2644 33.0185 14.6584 35.0723C14.9737 36.6521 14.9737 38.3109 15.1313 39.9697C15.1313 40.2067 15.3677 40.4437 15.5253 40.8387C16.1558 40.4437 16.7074 40.2067 17.1803 39.8118C18.4412 38.8639 19.7021 37.995 21.1994 37.363C21.6722 37.126 22.1451 36.8891 22.6179 36.5731C24.9821 35.0723 26.4006 32.8605 27.2675 30.3328C27.4251 29.9378 27.4251 29.5429 27.4251 29.1479C27.3463 27.4891 27.2675 25.9092 26.4006 24.4084C26.0854 23.9345 25.5337 23.4605 25.9278 22.6706C26.1642 22.5916 72.7388 21.7227 74.5513 22.5126C74.5513 22.5126 74.5513 22.5916 74.6301 22.5916C75.2606 23.7765 74.7089 26.6202 75.2606 26.8571ZM15.9193 37.1261C15.6829 35.9412 15.5253 34.6773 15.3677 33.4134C15.1313 31.1227 16.471 28.437 18.5988 27.4101C20.0961 26.6992 21.357 25.8303 22.4603 24.4874C23.3272 23.3815 24.5092 23.5395 25.3761 24.7244C26.5582 26.3042 26.7158 28.042 26.1642 29.8588C25.2973 32.7025 23.7212 34.9933 20.8842 36.2571C19.4656 36.8891 18.1259 37.679 16.5498 38.5479C16.2346 37.995 15.9982 37.6 15.9193 37.1261ZM13.9492 18.0101C14.8949 18.0101 15.8405 18.0891 16.7862 18.0891C17.8107 18.0891 18.5988 18.405 19.308 19.116C19.9385 19.7479 20.5689 20.4588 20.5689 21.4857C20.5689 22.1966 21.0418 22.9076 21.357 23.8555C21.0418 24.6454 20.2537 25.1193 19.4656 25.5933C18.2835 26.3042 17.1014 26.8571 15.7617 26.7782C14.8161 26.7782 13.9492 26.5412 13.0823 26.2252C11.979 25.8303 11.1122 24.9613 10.4817 23.9345C9.69364 22.5916 8.74797 21.3277 7.09303 20.1429C9.45722 19.037 11.5062 17.9311 13.9492 18.0101ZM22.8543 19.6689C20.4901 19.5109 19.6233 17.6941 18.9928 15.7983C18.5988 14.5345 18.6776 13.1126 19.1504 11.8487C19.7809 10.1899 20.5689 8.5311 21.1994 6.95127C26.4006 8.21513 28.2132 15.2454 24.5093 20.0639C23.9576 19.9059 23.406 19.7479 22.8543 19.6689ZM85.8995 22.1176C84.7962 22.3546 83.6141 22.6706 82.5108 22.9866C81.4863 23.3025 80.4618 23.6185 79.4373 24.0134C78.4128 24.4084 77.4672 24.8824 76.4427 24.8824C75.8122 24.1714 76.2063 23.4605 76.1275 22.7496C76.1275 22.0387 76.1275 21.3277 76.1275 20.6168C76.0487 19.9059 76.1275 19.195 76.6003 18.484C76.9943 18.484 77.4672 18.405 77.8612 18.563C80.6194 19.5899 83.5353 20.0639 86.5299 20.3008C87.318 20.3798 88.0272 20.4588 88.8153 20.6168C88.8153 20.7748 88.8941 20.9328 88.8941 21.0908C88.0272 21.8017 86.9239 21.8807 85.8995 22.1176ZM23.5636 21.1698C23.7212 21.2487 23.9576 21.5647 23.8788 21.7227C23.8 21.9597 23.6424 22.4336 23.406 22.4336C23.0119 22.5126 22.5391 22.5126 22.0663 22.3546C21.6722 22.2756 21.4358 21.8807 21.5146 21.4857C21.5934 21.2487 21.9086 21.0908 22.2239 20.9328C22.3815 20.8538 22.5391 20.9328 22.8543 20.8538C23.0119 21.0118 23.3271 21.0118 23.5636 21.1698Z" fill="white"/>
</svg>
