<svg width="17" height="17" viewBox="0 0 17 17" fill="none" xmlns="http://www.w3.org/2000/svg">
<path d="M2.125 0V2.125H0V3.54167H2.125V5.66667H3.54167V3.54167H5.66667V2.125H3.54167V0H2.125ZM6.375 2.125V4.25H4.25V6.375H2.125V13.4583C2.125 13.8341 2.27426 14.1944 2.53993 14.4601C2.80561 14.7257 3.16594 14.875 3.54167 14.875H13.4583C14.2446 14.875 14.875 14.2446 14.875 13.4583V12.75H8.5C8.12428 12.75 7.76394 12.6007 7.49827 12.3351C7.23259 12.0694 7.08333 11.7091 7.08333 11.3333V5.66667C7.08333 5.29094 7.23259 4.93061 7.49827 4.66493C7.76394 4.39926 8.12428 4.25 8.5 4.25H14.875V3.54167C14.875 3.16594 14.7257 2.80561 14.4601 2.53993C14.1944 2.27426 13.8341 2.125 13.4583 2.125H6.375ZM8.5 5.66667V11.3333H15.5833V5.66667H8.5ZM11.3333 7.4375C11.9213 7.4375 12.3958 7.91208 12.3958 8.5C12.3958 9.08792 11.9213 9.5625 11.3333 9.5625C10.7454 9.5625 10.2708 9.08792 10.2708 8.5C10.2708 7.91208 10.7454 7.4375 11.3333 7.4375Z" fill="#EEEEEE"/>
</svg>
